G04 ================== begin FILE IDENTIFICATION RECORD ==================*
G04 Layout Name:  D:/CRETAM/ATEAMVENTURES/MAINBOARD_02_20181023.brd*
G04 Film Name:    TOP*
G04 File Format:  Gerber RS274X*
G04 File Origin:  Cadence Allegro 17.2-S018*
G04 Origin Date:  Tue Oct 23 17:21:50 2018*
G04 *
G04 Layer:  VIA CLASS/TOP*
G04 Layer:  PIN/TOP*
G04 Layer:  PACKAGE GEOMETRY/SOLDERMASK_TOP*
G04 Layer:  ETCH/TOP*
G04 Layer:  BOARD GEOMETRY/OUTLINE*
G04 *
G04 Offset:    (0.0000 0.0000)*
G04 Mirror:    No*
G04 Mode:      Positive*
G04 Rotation:  0*
G04 FullContactRelief:  No*
G04 UndefLineWidth:     0.0100*
G04 ================== end FILE IDENTIFICATION RECORD ====================*
%FSAX35Y35*MOMM*%
%IR0*IPPOS*OFA0.00000B0.00000*MIA0B0*SFA1.00000B1.00000*%
%ADD43R,1.X.3*%
%ADD49R,.3X1.*%
%ADD22R,1.2X.3*%
%ADD23R,.3X1.2*%
%ADD53R,.8001X1.*%
%ADD47R,.7X1.2*%
%ADD41R,8.5X10.5*%
%ADD13C,.7112*%
%ADD36O,2.0066X.3048*%
%ADD29R,.3048X2.0066*%
%ADD28R,2.0066X.3048*%
%ADD24C,.5999*%
%ADD11C,.8999*%
%ADD40R,2.3X1.*%
%ADD21R,3.X3.*%
%ADD34R,3.X3.*%
%ADD32R,2.2X4.*%
%ADD16R,1.4X1.3*%
%ADD35R,2.2X1.5*%
%ADD30R,1.3X1.4*%
%ADD42R,2.X1.8001*%
%ADD39R,5.4X3.*%
%ADD31R,1.8001X2.*%
%ADD46R,5.X4.4*%
%ADD33R,4.8001X1.*%
%ADD44C,2.*%
%ADD51C,3.*%
%ADD50R,2.16X2.26*%
%ADD38R,1.8X2.8*%
%ADD54C,1.7*%
%ADD52C,3.302*%
%ADD45R,2.X2.*%
%ADD19C,1.8*%
%ADD10C,5.5*%
%ADD48R,2.5X2.5*%
%ADD18R,1.8X1.8*%
%ADD37R,1.8034X1.7018*%
%ADD25C,1.778*%
%ADD12R,1.5999X3.5001*%
%ADD27R,3.5001X1.5999*%
%ADD26R,1.778X1.778*%
%ADD14C,1.5999*%
%ADD20R,.8999X.8001*%
%ADD17R,.8001X.8999*%
%ADD15R,1.5999X1.5999*%
%ADD55C,.2*%
%ADD56C,.3*%
%ADD57C,.4*%
%ADD58C,.5*%
%ADD59C,.6*%
%ADD60C,.15*%
%ADD61C,.8*%
%ADD62C,.29*%
%ADD63C,.962*%
%ADD64C,1.*%
%ADD65C,2.5*%
%ADD66C,.01*%
%ADD67C,6.4544*%
%ADD68C,2.9544*%
%ADD69C,3.9544*%
G75*
%LPD*%
G75*
G36*
G01X16370000Y05280000D02*
Y06972770D01*
G02X16384600Y06981910I00010161J0D01*
G03X16588850Y07022280I00075402J00155391D01*
G01X16882280D01*
Y06920230D01*
X16940230Y06862280D01*
X17186390D01*
G02X17192290Y06843850I-00000003J-00010160D01*
G03X17172280Y06805000I00027711J-00038851D01*
G01Y06455000D01*
G03X17220000Y06407280I00047720J0D01*
G01X17380000D01*
G03X17427720Y06455000I0J00047720D01*
G01Y06805000D01*
G03X17407710Y06843850I-00047721J-00000001D01*
G02X17413610Y06862280I00005903J00008270D01*
G01X17659770D01*
X17704090Y06906600D01*
G02X17720080Y06904490I00007187J-00007182D01*
G03X17761420Y06880600I00041340J00023823D01*
G01X17901420D01*
G03X17933280Y06892790I0J00047730D01*
G02X17947070Y06892580I00006781J-00007563D01*
G03X17980000Y06879400I00032930J00034548D01*
G01X18120000D01*
G03X18167720Y06927120I0J00047720D01*
G01Y06930100D01*
G02X18176390Y06933700I00005080J00000005D01*
G01X18307810Y06802280D01*
X19112190D01*
X19257720Y06947810D01*
Y07709330D01*
G03X19267720Y07750000I-00077719J00040674D01*
G01Y07961080D01*
X19633480D01*
Y07886200D01*
G03X19681200Y07838480I00047720J0D01*
G01X19841200D01*
G03X19888920Y07886200I0J00047720D01*
G01Y07897120D01*
G02X19899170Y07907280I00010157J00000004D01*
G03X19910920Y07907930I00000764J00092717D01*
G02X19922280Y07897840I00001199J-00010090D01*
G01Y06822050D01*
G03X20057480Y06763860I00057721J-00052047D01*
G02X20069090Y06773110I00010127J-00000800D01*
G03X20157850Y06843240I00011333J00076891D01*
G02X20168200Y06852510I00010119J-00000885D01*
G03X20175870Y07007710I00001800J00077701D01*
G01X20173990Y07007850D01*
X20157720Y07024120D01*
Y09083910D01*
X20037720Y09203910D01*
Y09418200D01*
G02X20049040Y09428290I00010159J-00000002D01*
G03X20071860Y09428510I00010523J00092120D01*
G02X20082860Y09415270I00001347J-00010071D01*
G03X20080480Y09400400I00045342J-00014883D01*
G01Y09320380D01*
G03X20128200Y09272660I00047725J00000005D01*
G01X20218200D01*
G03X20265920Y09320380I-00000005J00047725D01*
G01Y09400400D01*
G03X20252680Y09433380I-00047722J-00000011D01*
G02Y09447420I00007344J00007020D01*
G03X20265390Y09473350I-00034486J00032984D01*
G01X20266040Y09477680D01*
X20404970D01*
X20405210Y09472850D01*
G03X20406160Y09465400I00047664J00002292D01*
G03X20405150Y09455640I00046709J-00009766D01*
G01Y09425160D01*
G03X20406160Y09415400I00047719J00000006D01*
G03X20405150Y09405630I00046710J-00009766D01*
G01Y09375150D01*
G03X20406160Y09365400I00047718J00000016D01*
G03X20405150Y09355640I00046709J-00009766D01*
G01Y09325160D01*
G03X20406160Y09315400I00047719J00000006D01*
G03X20405150Y09305630I00046710J-00009766D01*
G01Y09275150D01*
G03X20406160Y09265400I00047718J00000016D01*
G03X20405150Y09255640I00046709J-00009766D01*
G01Y09225160D01*
G03X20406160Y09215400I00047719J00000006D01*
G03X20405150Y09205630I00046710J-00009766D01*
G01Y09175150D01*
G03X20406160Y09165400I00047718J00000016D01*
G03X20405150Y09155640I00046709J-00009766D01*
G01Y09125160D01*
G03X20406160Y09115400I00047719J00000006D01*
G03X20405150Y09105630I00046710J-00009766D01*
G01Y09075150D01*
G03X20406160Y09065400I00047718J00000016D01*
G03X20405150Y09055640I00046709J-00009766D01*
G01Y09025160D01*
G03X20406160Y09015400I00047719J00000006D01*
G03X20405150Y09005630I00046710J-00009766D01*
G01Y08998120D01*
X20376490D01*
X20207520Y08829150D01*
Y07672050D01*
G03X20322960I00057720J-00052050D01*
G01Y08202340D01*
G03X20377720Y08332050I-00002959J00077663D01*
G01Y08417250D01*
G02X20382630Y08422320I00005078J-00000006D01*
G03X20437720Y08552050I-00002628J00077678D01*
G01Y08716090D01*
X20499070Y08777440D01*
X20653530D01*
G03X20679740Y08785280I0J00047731D01*
G02X20695480Y08776790I00005581J-00008489D01*
G01Y08762500D01*
X20694980Y08761460D01*
G03X20690240Y08740730I00042979J-00020734D01*
G01Y08540070D01*
G03X20737960Y08492350I00047720J0D01*
G01X20818430D01*
G03X20828200Y08493360I00000004J00047720D01*
G03X20837960Y08492350I00009766J00046709D01*
G01X20845470D01*
Y08447110D01*
X20786100Y08387740D01*
X20735000D01*
G03X20687280Y08340020I00000005J-00047725D01*
G01Y08308910D01*
X20602280Y08223910D01*
Y06058910D01*
X20564370Y06021000D01*
Y06019000D01*
X20381990Y05836620D01*
X20238100D01*
G03X20190380Y05788900I0J-00047720D01*
G01Y05781330D01*
X20182800D01*
X20181270Y05783320D01*
G03Y05616680I-00108270J-00083320D01*
G01X20182800Y05618670D01*
X20190380D01*
Y05611100D01*
G03X20238100Y05563380I00047720J0D01*
G01X20415900D01*
G03X20463620Y05611100I0J00047720D01*
G01Y05754990D01*
X20679810Y05971180D01*
Y05973180D01*
X20717720Y06011090D01*
Y07911300D01*
G02X20733030Y07920060I00010160J00000001D01*
G03X20867980Y08029270I00046971J00079942D01*
G01X20867720Y08030050D01*
Y08052280D01*
X20956330D01*
X21067710Y08163660D01*
Y08207280D01*
X21180020D01*
G03X21227740Y08255000I-00000005J00047725D01*
G01Y08326110D01*
G02X21245080Y08333290I00010158J-00000003D01*
G01X21652280Y07926090D01*
Y07652050D01*
G03X21767490Y07547690I00057722J-00052051D01*
G02X21782510I00007510J-00006833D01*
G03X21837730Y07522310I00057485J00052310D01*
G01Y07399590D01*
G03X21841400Y07394730I00005053J0D01*
G02X21862080Y07385360I-00021397J-00074730D01*
G03X21867570Y07383740I00005498J00008518D01*
G02X21877730Y07373580I00000001J-00010159D01*
G01Y07372090D01*
X21878960Y07370660D01*
G02X21895780Y07302720I-00058961J-00050649D01*
G01X21705000D01*
G03X21657280Y07255000I0J-00047720D01*
G01Y06875000D01*
G03X21670510Y06842020I00047722J0D01*
G02Y06827980I-00007344J-00007020D01*
G03X21657280Y06795000I00034492J-00032980D01*
G01Y06645000D01*
G03X21705000Y06597280I00047720J0D01*
G01X21925000D01*
G03X21971300Y06633430I0J00047725D01*
G01X21972260Y06637280D01*
X21991150D01*
G03X21995830Y06631680I00038848J00027710D01*
G01X21997270Y06630200D01*
Y06627300D01*
G03X21997280Y06626130I00072720J00000036D01*
G01Y06496350D01*
X21873120Y06372190D01*
G02X21857180Y06374220I-00007184J00007185D01*
G03X21816060Y06397720I-00041116J-00024219D01*
G01X21636060D01*
G03X21588340Y06350000I0J-00047720D01*
G01Y06150000D01*
G03X21636060Y06102280I00047720J0D01*
G01X21647280D01*
Y05970120D01*
X21552280Y05875120D01*
Y05827720D01*
X21545000D01*
G03X21497280Y05780000I00000005J-00047725D01*
G01Y05757360D01*
X21489160D01*
X21487720Y05760050D01*
G03Y05639950I-00112720J-00060050D01*
G01X21489160Y05642640D01*
X21497280D01*
Y05620000D01*
G03X21545000Y05572280I00047725J00000005D01*
G01X21705000D01*
G03X21752720Y05620000I-00000005J00047725D01*
G01Y05780000D01*
G03X21725280Y05823190I-00047722J-00000008D01*
G02X21722410Y05839570I00004316J00009198D01*
G01X21792720Y05909880D01*
Y06076120D01*
X21798780Y06082180D01*
Y06102280D01*
X21816060D01*
G03X21863780Y06150000I0J00047720D01*
G01Y06177280D01*
X21883890D01*
X22142720Y06436110D01*
Y06617280D01*
X22270020D01*
G03X22317740Y06665000I-00000005J00047725D01*
G01Y06755000D01*
G03X22270020Y06802720I-00047725J-00000005D01*
G01X22029980D01*
G03X21999920Y06792060I00000004J-00047723D01*
G01X21996370Y06789170D01*
X21992820Y06792720D01*
X21972910D01*
X21972650Y06797530D01*
G03X21959490Y06827980I-00047652J-00002526D01*
G02Y06842020I00007344J00007020D01*
G03X21972720Y06875000I-00034492J00032980D01*
G01Y07107280D01*
X22030120D01*
X22172720Y07249880D01*
Y07801150D01*
G03X22192720Y07839980I-00027720J00038843D01*
G01Y07920000D01*
G03X22179480Y07952980I-00047722J-00000011D01*
G02Y07967020I00007344J00007020D01*
G03X22192720Y08000000I-00034482J00032991D01*
G01Y08080020D01*
G03X22161090Y08124940I-00047722J-00000007D01*
G01X22157720Y08126150D01*
Y08702280D01*
X22162210Y08702800D01*
G03X22230590Y08772830I-00009011J00077198D01*
G01X22231020Y08777440D01*
X22238290D01*
G03X22300120Y08828550I0J00062954D01*
G01X22300910Y08832670D01*
X22837060D01*
X22838260Y08829300D01*
G03X22883180Y08797680I00044924J00016103D01*
G01X23123220D01*
G03X23168140Y08829310I-00000007J00047722D01*
G01X23169350Y08832680D01*
X23474310D01*
X23583990Y08942360D01*
X23585870Y08942500D01*
G03X23634940Y08965030I-00005875J00077498D01*
G02X23652280Y08957840I00007180J-00007189D01*
G01Y08348670D01*
X23912280Y08088670D01*
Y07180230D01*
X24180230Y06912280D01*
X24799770D01*
X24987720Y07100230D01*
Y07760230D01*
X25079770Y07852280D01*
X25279770D01*
X25347720Y07920230D01*
Y08311880D01*
X25545000D01*
G03X25592720Y08359600I0J00047720D01*
G01Y08459600D01*
G03X25580650Y08491320I-00047715J0D01*
G02Y08498080I00003794J00003380D01*
G03X25592720Y08529800I-00035645J00031720D01*
G01Y08629800D01*
G03X25580650Y08661520I-00047715J0D01*
G02Y08668280I00003794J00003380D01*
G03X25592720Y08700000I-00035645J00031720D01*
G01Y08800000D01*
G03X25580650Y08831720I-00047715J0D01*
G02Y08838480I00003794J00003380D01*
G03X25592720Y08870200I-00035645J00031720D01*
G01Y08970200D01*
G03X25591700Y08980030I-00047722J00000016D01*
G02X25601640Y08992280I00009941J00002091D01*
G01X25819770D01*
X25927720Y09100230D01*
Y09427280D01*
X26020020D01*
G03X26067740Y09475000I-00000005J00047725D01*
G01Y09565000D01*
G03X26020020Y09612720I-00047725J-00000005D01*
G01X25927720D01*
Y09992280D01*
X26042190D01*
X26697720Y10647810D01*
Y11363940D01*
G03X26650000Y11411660I-00047720J0D01*
G01X26603420D01*
X26602550Y11412000D01*
G03X26497450I-00052550J-00138060D01*
G01X26496580Y11411660D01*
X26450000D01*
G03X26402280Y11363940I0J-00047720D01*
G01Y10770190D01*
X25945060Y10312970D01*
G02X25927720Y10320160I-00007181J00007186D01*
G01Y10359770D01*
X25859770Y10427720D01*
X25665510D01*
G03X25663540Y10429510I-00065416J-00070015D01*
G02X25670280Y10447280I00006737J00007608D01*
G01X25680000D01*
G03X25727720Y10495000I0J00047720D01*
G01Y10845000D01*
G03X25680000Y10892720I-00047720J0D01*
G01X25520000D01*
G03X25472280Y10845000I0J-00047720D01*
G01Y10495000D01*
G03X25520000Y10447280I00047720J0D01*
G01X25529720D01*
G02X25536460Y10429510I00000003J-00010162D01*
G03X25534490Y10427720I00063446J-00071805D01*
G01X24865510D01*
G03X24863540Y10429510I-00065416J-00070015D01*
G02X24870280Y10447280I00006737J00007608D01*
G01X24880000D01*
G03X24927720Y10495000I0J00047720D01*
G01Y10845000D01*
G03X24880000Y10892720I-00047720J0D01*
G01X24720000D01*
G03X24672280Y10845000I0J-00047720D01*
G01Y10495000D01*
G03X24720000Y10447280I00047720J0D01*
G01X24729720D01*
G02X24736460Y10429510I00000003J-00010162D01*
G03X24734490Y10427720I00063446J-00071805D01*
G01X24620230D01*
X24498540Y10306030D01*
G02X24481950Y10309380I-00007182J00007186D01*
G03X24477720Y10318140I-00071965J-00029349D01*
G01Y11956090D01*
X24557720Y12036090D01*
Y12557280D01*
X24620020D01*
G03X24667740Y12605000I-00000005J00047725D01*
G01Y12695000D01*
G03X24657120Y12725000I-00047721J-00000014D01*
G03X24667740Y12755000I-00037101J00030014D01*
G01Y12845000D01*
G03X24666730Y12854730I-00047722J-00000036D01*
G02X24675950Y12866930I00009947J00002067D01*
G03Y13033070I-00005950J00083070D01*
G02X24666730Y13045270I00000727J00010133D01*
G03X24667740Y13055000I-00046712J00009766D01*
G01Y13145000D01*
G03X24620020Y13192720I-00047725J-00000005D01*
G01X24387830D01*
G02X24377680Y13202540I00000002J00010158D01*
G03X24308180Y13277290I-00077680J-00002539D01*
G02X24302060Y13294580I00001064J00010105D01*
G01X24350480Y13343000D01*
G02X24366620Y13340620I00007186J-00007184D01*
G03X24436590Y13296790I00073381J00039380D01*
G03X24470860Y13282280I00034270J00033215D01*
G01X24811680D01*
G03X24859400Y13330000I0J00047720D01*
G01Y13470000D01*
G03X24811680Y13517720I-00047720J0D01*
G01X24549730D01*
G02X24542550Y13535060I00000006J00010159D01*
G01X24547720Y13540230D01*
Y14697720D01*
X24262280D01*
Y14689730D01*
G02X24244940Y14682550I-00010159J00000006D01*
G01X24229770Y14697720D01*
X24030230D01*
X24005000Y14672490D01*
X23969770Y14707720D01*
X23770230D01*
X23745000Y14682490D01*
X23709770Y14717720D01*
X23510230D01*
X23472280Y14679770D01*
Y14479730D01*
G02X23454940Y14472550I-00010159J00000006D01*
G01X23379770Y14547720D01*
X23317720D01*
Y14847280D01*
X25552280D01*
Y14547720D01*
X25540230D01*
X25472280Y14479770D01*
Y14265510D01*
G03X25470490Y14263540I00070015J-00065416D01*
G02X25452720Y14270280I-00007608J00006737D01*
G01Y14280000D01*
G03X25405000Y14327720I-00047720J0D01*
G01X25055000D01*
G03X25007280Y14280000I0J-00047720D01*
G01Y14120000D01*
G03X25055000Y14072280I00047720J0D01*
G01X25405000D01*
G03X25452720Y14120000I0J00047720D01*
G01Y14129720D01*
G02X25470490Y14136460I00010162J00000003D01*
G03X25472280Y14134490I00071805J00063446D01*
G01Y13900230D01*
X25580230Y13792280D01*
X25590180D01*
G02X25596880Y13774480I00000004J-00010159D01*
G03X25580600Y13738580I00031443J-00035900D01*
G01Y13598580D01*
G03X25628320Y13550860I00047720J0D01*
G01X25772280D01*
Y13540230D01*
X25777450Y13535060D01*
G02X25770270Y13517720I-00007186J-00007181D01*
G01X25628320D01*
G03X25580600Y13470000I0J-00047720D01*
G01Y13330000D01*
G03X25595590Y13295270I00047728J0D01*
G02X25588620Y13277720I-00006970J-00007391D01*
G01X25587810D01*
X25342280Y13032190D01*
Y12229920D01*
G03X25497720I00077720J-00029920D01*
G01Y12322870D01*
G02X25512750Y12331790I00010160J00000003D01*
G03X25607720Y12452050I00037252J00068211D01*
G01Y12946090D01*
X25664920Y13003290D01*
G02X25682260Y12996110I00007182J-00007183D01*
G01Y12955000D01*
G03X25692880Y12925000I00047721J00000014D01*
G03X25682260Y12895000I00037101J-00030014D01*
G01Y12805000D01*
G03X25691260Y12777130I00047720J00000022D01*
G03X25853230Y12747440I00078730J-00027145D01*
G02X25863390Y12757280I00010153J-00000318D01*
G01X25970020D01*
G03X26017740Y12805000I-00000005J00047725D01*
G01Y12829740D01*
X26140590Y12952600D01*
G02X26155190Y12952360I00007184J-00007185D01*
G03X26190000Y12937280I00034810J00032637D01*
G01X26287280D01*
Y12865270D01*
X26237780Y12815770D01*
Y12684640D01*
X26234850Y12683270D01*
G03X26207280Y12640020I00020152J-00043258D01*
G01Y12560000D01*
G03X26220520Y12527020I00047722J00000011D01*
G02Y12512980I-00007344J-00007020D01*
G03X26207280Y12480000I00034482J-00032991D01*
G01Y12399980D01*
G03X26255000Y12352260I00047725J00000005D01*
G01X26345000D01*
G03X26359110Y12354400I-00000020J00047722D01*
G02X26372280Y12344700I00003010J-00009703D01*
G01Y12230050D01*
X26372020Y12229270D01*
G03X26489270Y12112020I00087980J-00029270D01*
G01X26490050Y12112280D01*
X26760000D01*
G03X26761460Y12112290I00000129J00087721D01*
G01X26763620Y12112330D01*
X26763670Y12112280D01*
X26976330D01*
X27107710Y12243660D01*
Y12557280D01*
X27220020D01*
G03X27267740Y12605000I-00000005J00047725D01*
G01Y12695000D01*
G03X27257120Y12725000I-00047721J-00000014D01*
G03X27267740Y12755000I-00037101J00030014D01*
G01Y12845000D01*
G03X27257120Y12875000I-00047721J-00000014D01*
G03X27267740Y12905000I-00037101J00030014D01*
G01Y12995000D01*
G03X27257120Y13025000I-00047721J-00000014D01*
G03X27267740Y13055000I-00037101J00030014D01*
G01Y13145000D01*
G03X27265600Y13159110I-00047722J-00000020D01*
G02X27275300Y13172280I00009703J00003010D01*
G01X27311680D01*
G03X27359400Y13220000I0J00047720D01*
G01Y13301350D01*
G02X27368070Y13304950I00005081J00000004D01*
G01X27377540Y13295480D01*
Y13288690D01*
X27692270Y12973960D01*
Y12963470D01*
X27757260Y12898480D01*
Y12879490D01*
G02X27740850Y12871480I-00010160J-00000001D01*
G03X27562880Y12635700I-00090851J-00116481D01*
G02Y12619300I-00005991J-00008200D01*
G03X27740850Y12383520I00087119J-00119299D01*
G02X27757260Y12375510I00006250J-00008009D01*
G01Y12227720D01*
X27420230D01*
X27262280Y12069770D01*
Y11873780D01*
X26550000D01*
G03X26497450Y11864120I-00000008J-00147721D01*
G01X26496580Y11863780D01*
X26450000D01*
G03X26402280Y11816060I0J-00047720D01*
G01Y11636060D01*
G03X26450000Y11588340I00047720J0D01*
G01X26496580D01*
X26497450Y11588000D01*
G03X26550000Y11578340I00052542J00138061D01*
G01X27262280D01*
Y11190230D01*
X27360230Y11092280D01*
X27599770D01*
X27717720Y11210230D01*
Y11470230D01*
X27801640Y11554150D01*
X27802490Y11554530D01*
G03X27850840Y11603350I-00039382J00087356D01*
G01X28094940Y11847450D01*
G02X28112280Y11840270I00007181J-00007186D01*
G01Y11170230D01*
X28150230Y11132280D01*
X28689770D01*
X28777720Y11220230D01*
Y12069770D01*
X28649770Y12197720D01*
X28508080D01*
G03X28418140I-00044970J-00084610D01*
G01X28281860D01*
G03X28172070Y12183680I-00044973J-00084610D01*
G02X28156020Y12186800I-00006874J00007479D01*
G03X28122130Y12234830I-00156012J-00074111D01*
G01X28102700Y12254260D01*
Y13041560D01*
X28037710Y13106550D01*
Y13117040D01*
X27722980Y13431770D01*
Y13438560D01*
X27687710Y13473830D01*
Y14827040D01*
X27682720Y14832030D01*
Y14881540D01*
X27431610Y15132660D01*
G02X27438790Y15150000I00007184J00007182D01*
G01X28516560D01*
G02X28523750Y15132660I00000004J-00010159D01*
G01X28264080Y14872990D01*
Y14685020D01*
G02X28247990Y14676770I-00010159J-00000001D01*
G03X28161800Y14704520I-00086190J-00119976D01*
G01X28095610D01*
X27752280Y14361190D01*
Y13618810D01*
X27830950Y13540140D01*
Y13538750D01*
X28062280Y13307740D01*
Y13180000D01*
G03X28162280Y13040200I00147720J0D01*
G01Y12923230D01*
G03Y12802990I00074610J-00060120D01*
G01Y12697010D01*
G03Y12576770I00074610J-00060120D01*
G01Y12460230D01*
X28350230Y12272280D01*
X29223390D01*
G02X29233320Y12259990I-00000003J-00010159D01*
G03X29232260Y12250000I00046664J-00010003D01*
G01Y12150000D01*
G03X29279980Y12102280I00047720J0D01*
G01X29384190D01*
Y12097200D01*
G03X29402280Y12041190I00095820J00000021D01*
G01Y11980230D01*
X29480230Y11902280D01*
X29770000D01*
Y11351470D01*
G02X29758400Y11341410I-00010160J-00000003D01*
G03X29647670Y11302910I-00018099J-00126430D01*
G02X29632930I-00007370J00006995D01*
G03X29594160Y11330790I-00092637J-00087925D01*
G02Y11349210I00004285J00009210D01*
G03X29438950Y11542740I-00053860J00115809D01*
G01X29412830D01*
X28887810Y11017720D01*
X27467810D01*
X27382280Y10932190D01*
Y10580510D01*
X27480520Y10482270D01*
X27505770D01*
G03X27535000Y10472260I00029243J00037711D01*
G01X27625000D01*
G03X27652950Y10481310I-00000012J00047722D01*
G01X27654280Y10482270D01*
X27662280D01*
Y10407720D01*
X27510000D01*
G03X27462280Y10360000I0J-00047720D01*
G01Y10287720D01*
X27390000D01*
G03X27342280Y10240000I0J-00047720D01*
G01Y10210000D01*
G03X27343340Y10200000I00047720J00000002D01*
G03X27342280Y10190000I00046660J-00010002D01*
G01Y10160000D01*
G03X27343340Y10150000I00047720J00000002D01*
G03X27342350Y10142530I00046663J-00009985D01*
G01X27342090Y10137720D01*
X27283830D01*
G03X27279480Y10142980I-00038854J-00027703D01*
G02Y10157020I00007344J00007020D01*
G03X27292720Y10190000I-00034482J00032991D01*
G01Y10270020D01*
G03X27245000Y10317740I-00047725J-00000005D01*
G01X27155000D01*
G03X27107280Y10270020I00000005J-00047725D01*
G01Y10190000D01*
G03X27120520Y10157020I00047722J00000011D01*
G02Y10142980I-00007344J-00007020D01*
G03X27107280Y10110000I00034482J-00032991D01*
G01Y10029980D01*
G03X27155000Y09982260I00047725J00000005D01*
G01X27245000D01*
G03X27289310Y10012280I-00000007J00047722D01*
G01X27342090D01*
X27342350Y10007470D01*
G03X27343340Y10000000I00047653J00002515D01*
G03X27342280Y09990000I00046660J-00010002D01*
G01Y09960000D01*
G03X27390000Y09912280I00047720J0D01*
G01X27462280D01*
Y09840000D01*
G03X27510000Y09792280I00047720J0D01*
G01X27517050D01*
Y09785610D01*
X27516140Y09784300D01*
G03X27560840Y09664680I00063859J-00044299D01*
G02X27564520Y09658540I-00001251J-00004923D01*
G03X27562540Y09633700I00075482J-00018516D01*
G02X27552410Y09622720I-00010128J-00000819D01*
G01X27185980D01*
X26815980Y09992720D01*
X26395900D01*
G03Y09867280I-00045900J-00062720D01*
G01X26764020D01*
X27134020Y09497280D01*
X27681000D01*
Y09405000D01*
G03X27709260Y09361430I00047719J00000001D01*
G01X27712270Y09360090D01*
Y09339310D01*
G03X27682260Y09295000I00017713J-00044314D01*
G01Y09205000D01*
G03X27729980Y09157280I00047725J00000005D01*
G01X27970020D01*
G03X28017740Y09205000I-00000005J00047725D01*
G01Y09295000D01*
G03X27970020Y09342720I-00047725J-00000005D01*
G01X27915980D01*
X27912720Y09345980D01*
Y09357280D01*
X27968740D01*
G03X28016460Y09405000I0J00047720D01*
G01Y09495000D01*
G03X27968740Y09542720I-00047720J0D01*
G01X27912720D01*
Y09555980D01*
X27845980Y09622720D01*
X27727590D01*
G02X27717460Y09633700I-00000002J00010161D01*
G03X27711590Y09670260I-00077462J00006314D01*
G02X27723150Y09684130I00009359J00003952D01*
G03X27810940Y09791740I00016848J00075870D01*
G02X27813120Y09798260I00004640J00002073D01*
G03X27837720Y09840000I-00023111J00041740D01*
G01Y09912280D01*
X27910000D01*
G03X27957720Y09960000I0J00047720D01*
G01Y09990000D01*
G03X27956660Y10000000I-00047720J-00000002D01*
G03X27957650Y10007470I-00046663J00009985D01*
G01X27957910Y10012280D01*
X28300980D01*
X28565980Y10277280D01*
X28575680D01*
G03X28619980Y10247280I00044309J00017721D01*
G01X28860020D01*
G03X28889250Y10257290I-00000013J00047721D01*
G01X28993040D01*
G03X29000840Y10246690I00041968J00022712D01*
G01X29002280Y10245210D01*
Y10234790D01*
X29000840Y10233310D01*
G03X28987280Y10200000I00034161J-00033322D01*
G01Y10119980D01*
G03X29035000Y10072260I00047725J00000005D01*
G01X29125000D01*
G03X29125650Y10072270I-00000409J00047719D01*
G01X29351320D01*
X29386710Y10107660D01*
X29389660Y10106710D01*
G03X29586840Y10152280I00060341J00188289D01*
G01X29770000D01*
Y09929870D01*
G02X29751540Y09924010I-00010159J-00000002D01*
G03X29750480Y09694510I-00161541J-00114006D01*
G02X29768080Y09692550I00008248J-00005933D01*
G03X29770000Y09688190I00181898J00077499D01*
G01Y09351810D01*
G03X29768080Y09347450I00179978J-00081859D01*
G02X29750480Y09345490I-00009352J00003973D01*
G03X29479130Y09066290I-00160484J-00115489D01*
G02X29473430Y09047720I-00005700J-00008410D01*
G01X29230230D01*
X29152280Y08969770D01*
Y08530230D01*
X29230230Y08452280D01*
X29680230D01*
X29702280Y08430230D01*
Y05330230D01*
X29735170Y05297340D01*
G02X29727990Y05280000I-00007186J-00007181D01*
G01X16370000D01*
G37*
G36*
G01X16632720Y07317720D02*
Y09622280D01*
X16882280D01*
Y09520230D01*
X16940230Y09462280D01*
X17186390D01*
G02X17192290Y09443850I-00000003J-00010160D01*
G03X17172280Y09405000I00027711J-00038851D01*
G01Y09055000D01*
G03X17220000Y09007280I00047720J0D01*
G01X17380000D01*
G03X17427720Y09055000I0J00047720D01*
G01Y09405000D01*
G03X17407710Y09443850I-00047721J-00000001D01*
G02X17413610Y09462280I00005903J00008270D01*
G01X17659770D01*
X17704090Y09506600D01*
G02X17720080Y09504490I00007187J-00007182D01*
G03X17761420Y09480600I00041340J00023823D01*
G01X17901420D01*
G03X17933280Y09492790I0J00047730D01*
G02X17947070Y09492580I00006781J-00007563D01*
G03X17980000Y09479400I00032930J00034548D01*
G01X18120000D01*
G03X18167720Y09527120I0J00047720D01*
G01Y09528660D01*
G02X18176390Y09532250I00005079J-00000001D01*
G01X18255960Y09452690D01*
X19092280D01*
Y08406510D01*
X18898470D01*
G02X18889090Y08420560I00000005J00010160D01*
G03X18892720Y08438800I-00044092J00018256D01*
G01Y08518820D01*
G03X18845000Y08566540I-00047725J-00000005D01*
G01X18755000D01*
G03X18725000Y08555920I00000014J-00047721D01*
G03X18695000Y08566540I-00030014J-00037101D01*
G01X18605000D01*
G03X18575000Y08555920I00000014J-00047721D01*
G03X18545000Y08566540I-00030014J-00037101D01*
G01X18455000D01*
G03X18425000Y08555920I00000014J-00047721D01*
G03X18395000Y08566540I-00030014J-00037101D01*
G01X18305000D01*
G03X18257280Y08518820I00000005J-00047725D01*
G01Y08438800D01*
G03X18270520Y08405820I00047722J00000011D01*
G02Y08391780I-00007344J-00007020D01*
G03X18257280Y08358800I00034482J-00032991D01*
G01Y08297670D01*
G03X18188360Y08250130I00002720J-00077671D01*
G02X18171810Y08246890I-00009364J00003943D01*
G01X18164350Y08254350D01*
G03X18156760Y08260820I-00044355J-00044346D01*
G01X18156430Y08261060D01*
X18149770Y08267720D01*
X18144560D01*
X18143640Y08268090D01*
G03X18117170Y08272660I-00023658J-00058087D01*
G01X18114930Y08272550D01*
X18102800Y08284690D01*
X18108320Y08292980D01*
G03X18173800Y08446110I00031679J00077019D01*
G01X18167720Y08452190D01*
Y08539660D01*
G03X18154160Y08572980I-00047717J0D01*
G02Y08587160I00007278J00007090D01*
G03X18167720Y08620480I-00034157J00033320D01*
G01Y08750480D01*
G03X18120000Y08798200I-00047720J0D01*
G01X17980000D01*
G03X17932280Y08750480I0J-00047720D01*
G01Y08620480D01*
G03X17945840Y08587160I00047717J0D01*
G02Y08572980I-00007278J-00007090D01*
G03X17932280Y08539660I00034157J-00033320D01*
G01Y08479730D01*
G02X17914940Y08472550I-00010159J00000006D01*
G01X17829770Y08557720D01*
X16790230D01*
X16722280Y08489770D01*
Y08280230D01*
X16752510Y08250000D01*
X16722280Y08219770D01*
Y08030230D01*
X16757510Y07995000D01*
X16722280Y07959770D01*
Y07770230D01*
X16747510Y07745000D01*
X16722280Y07719770D01*
Y07500230D01*
X16800230Y07422280D01*
X17270230D01*
X17282450Y07410070D01*
G02X17275260Y07392720I-00007185J-00007187D01*
G01X17220000D01*
G03X17199730Y07388200I00000001J-00047717D01*
G01X17198700Y07387720D01*
X16872280D01*
Y07317720D01*
X16632720D01*
G37*
G36*
G01X19922280Y08126300D02*
G02X19904940Y08119120I-00010158J00000005D01*
G01X19888920Y08135140D01*
Y08236200D01*
G03X19841200Y08283920I-00047720J0D01*
G01X19681200D01*
G03X19633480Y08236200I0J-00047720D01*
G01Y08136520D01*
X19267720D01*
Y09489610D01*
G03Y09552030I-00087310J00031210D01*
G01Y11096330D01*
X18586330Y11777720D01*
X17516330D01*
X17217700Y12076350D01*
Y13753650D01*
X17776890Y14312830D01*
G02X17794100Y14307300I00007186J-00007182D01*
G03X17843600Y14222360I00135899J00022304D01*
G01X17845490Y14220830D01*
Y14213320D01*
X17840000D01*
G03X17792280Y14165600I0J-00047720D01*
G01Y13985600D01*
G03X17840000Y13937880I00047720J0D01*
G01X18020000D01*
G03X18067720Y13985600I0J00047720D01*
G01Y13991090D01*
X18075230D01*
X18076760Y13989200D01*
G03X18302270Y14005050I00107239J00086403D01*
G02X18319730I00008730J-00005209D01*
G03X18556270I00118270J00070550D01*
G02X18573730I00008730J-00005209D01*
G03X18810270I00118270J00070550D01*
G02X18827730I00008730J-00005209D01*
G03X19016550Y14193870I00118270J00070550D01*
G02Y14211330I00005209J00008730D01*
G03X19035500Y14434270I-00070552J00118272D01*
G01X19033720Y14435800D01*
Y14460330D01*
X18876330Y14617720D01*
X17833670D01*
X17042260Y13826310D01*
Y12003690D01*
X17443670Y11602280D01*
X18513670D01*
X19092280Y11023670D01*
Y11006510D01*
X18898470D01*
G02X18889090Y11020560I00000005J00010160D01*
G03X18892720Y11038800I-00044092J00018256D01*
G01Y11118820D01*
G03X18845000Y11166540I-00047725J-00000005D01*
G01X18755000D01*
G03X18725000Y11155920I00000014J-00047721D01*
G03X18695000Y11166540I-00030014J-00037101D01*
G01X18605000D01*
G03X18575000Y11155920I00000014J-00047721D01*
G03X18545000Y11166540I-00030014J-00037101D01*
G01X18455000D01*
G03X18425000Y11155920I00000014J-00047721D01*
G03X18395000Y11166540I-00030014J-00037101D01*
G01X18305000D01*
G03X18257280Y11118820I00000005J-00047725D01*
G01Y11038800D01*
G03X18270520Y11005820I00047722J00000011D01*
G02Y10991780I-00007344J-00007020D01*
G03X18257280Y10958800I00034482J-00032991D01*
G01Y10878780D01*
G03X18257290Y10878000I00047722J00000222D01*
G02X18247460Y10867680I-00010157J-00000167D01*
G03X18191560Y10841240I00002539J-00077680D01*
G02X18176740Y10840750I-00007639J00006695D01*
G01X18149770Y10867720D01*
X18120980D01*
X18118170Y10870530D01*
G02X18126940Y10887750I00007182J00007185D01*
G03X18173800Y11046110I00013057J00082249D01*
G01X18167720Y11052190D01*
Y11129660D01*
G03X18154160Y11162980I-00047717J0D01*
G02Y11177160I00007278J00007090D01*
G03X18167720Y11210480I-00034157J00033320D01*
G01Y11340480D01*
G03X18120000Y11388200I-00047720J0D01*
G01X17980000D01*
G03X17932280Y11340480I0J-00047720D01*
G01Y11210480D01*
G03X17945840Y11177160I00047717J0D01*
G02Y11162980I-00007278J-00007090D01*
G03X17932280Y11129660I00034157J-00033320D01*
G01Y11079730D01*
G02X17914940Y11072550I-00010159J00000006D01*
G01X17829770Y11157720D01*
X16790230D01*
X16722280Y11089770D01*
Y10880230D01*
X16752510Y10850000D01*
X16722280Y10819770D01*
Y10630230D01*
X16757510Y10595000D01*
X16722280Y10559770D01*
Y10370230D01*
X16747510Y10345000D01*
X16722280Y10319770D01*
Y10100230D01*
X16800230Y10022280D01*
X17270230D01*
X17282450Y10010070D01*
G02X17275260Y09992720I-00007185J-00007187D01*
G01X17220000D01*
G03X17199730Y09988200I00000001J-00047717D01*
G01X17198700Y09987720D01*
X16872280D01*
Y09917720D01*
X16632720D01*
Y12623700D01*
X16632790Y12624120D01*
G03Y12680680I-00170390J00028280D01*
G01X16632720Y12681100D01*
Y13588460D01*
X17891540Y14847280D01*
X20422280D01*
Y14547720D01*
X20340230D01*
X20272280Y14479770D01*
Y13900230D01*
X20380230Y13792280D01*
X20390180D01*
G02X20396880Y13774480I00000004J-00010159D01*
G03X20380600Y13738580I00031443J-00035900D01*
G01Y13598580D01*
G03X20428320Y13550860I00047720J0D01*
G01X20572280D01*
Y13540230D01*
X20577450Y13535060D01*
G02X20570270Y13517720I-00007186J-00007181D01*
G01X20428320D01*
G03X20380600Y13470000I0J-00047720D01*
G01Y13330000D01*
G03X20428320Y13282280I00047720J0D01*
G01X20440100D01*
G02X20443700Y13273610I00000005J-00005080D01*
G01X20302280Y13132190D01*
Y12227810D01*
X20323890Y12206200D01*
G03X20457720Y12300030I00076112J00033797D01*
G01Y12596120D01*
G02X20475060Y12603310I00010159J00000003D01*
G01X20822280Y12256090D01*
Y11392050D01*
G03X20937720I00057720J-00052050D01*
G01Y12303910D01*
X20596110Y12645520D01*
G02X20599670Y12662200I00007181J00007187D01*
G03X20653030Y12746350I-00029679J00077812D01*
G02X20663160Y12757280I00010128J00000773D01*
G01X20770020D01*
G03X20817740Y12805000I-00000005J00047725D01*
G01Y12809740D01*
X20957790Y12949790D01*
G03X20990000Y12937280I00032210J00035211D01*
G01X21087280D01*
Y12840000D01*
G03X21087730Y12833450I00047721J-00000012D01*
G01X21087780Y12833100D01*
Y12828070D01*
X20977780Y12718070D01*
Y12714640D01*
X20974850Y12713270D01*
G03X20947280Y12670020I00020152J-00043258D01*
G01Y12590000D01*
G03X20960520Y12557020I00047722J00000011D01*
G02Y12542980I-00007344J-00007020D01*
G03X20947280Y12510000I00034482J-00032991D01*
G01Y12429980D01*
G03X20995000Y12382260I00047725J00000005D01*
G01X21085000D01*
G03X21099110Y12384400I-00000020J00047722D01*
G02X21112280Y12374700I00003010J-00009703D01*
G01Y12288480D01*
G03X21230400Y12179380I00027721J-00088480D01*
G01X21230720Y12180810D01*
X21267720Y12217810D01*
Y12374700D01*
G02X21280890Y12384400I00010160J-00000003D01*
G03X21295000Y12382260I00014130J00045582D01*
G01X21385000D01*
G03X21415000Y12392880I-00000014J00047721D01*
G03X21445000Y12382260I00030014J00037101D01*
G01X21535000D01*
G03X21582720Y12429980I-00000005J00047725D01*
G01Y12494020D01*
X21662720Y12574020D01*
Y12715980D01*
X21512720Y12865980D01*
Y12884050D01*
G02X21530060Y12891240I00010160J00000003D01*
G01X21674020Y12747280D01*
X21732270D01*
Y12695650D01*
G03X21732260Y12695000I00047709J-00001059D01*
G01Y12605000D01*
G03X21732270Y12604350I00047719J00000409D01*
G01Y12230060D01*
X21732010Y12229280D01*
G03X21907970I00087980J-00029270D01*
G01X21907710Y12230060D01*
Y12557280D01*
X22020020D01*
G03X22067740Y12605000I-00000005J00047725D01*
G01Y12695000D01*
G03X22057120Y12725000I-00047721J-00000014D01*
G03X22067740Y12755000I-00037101J00030014D01*
G01Y12812280D01*
X22116090D01*
X22362280Y12566090D01*
Y10903910D01*
X22102280Y10643910D01*
Y10290160D01*
X22033500Y10221380D01*
G02X22016160Y10228570I-00007181J00007187D01*
G01Y10340730D01*
G03X21968440Y10388450I-00047720J0D01*
G01X21937960D01*
G03X21928200Y10387440I00000006J-00047719D01*
G03X21918450Y10388450I-00009766J-00046708D01*
G01X21897520D01*
G02X21888560Y10403390I00000004J00010159D01*
G03X21751460Y10476630I-00068556J00036608D01*
G02X21738780Y10471970I-00008958J00004794D01*
G03X21735070Y10472670I-00003702J-00009439D01*
G01X21724250D01*
Y10480330D01*
X21726340Y10481850D01*
G03X21745940Y10520400I-00028123J00038556D01*
G01Y10610400D01*
G03X21740370Y10632760I-00047722J-00000014D01*
G02X21749340Y10647680I00008972J00004762D01*
G01X21863220D01*
G03X21910940Y10695400I-00000005J00047725D01*
G01Y10785400D01*
G03X21863220Y10833120I-00047725J-00000005D01*
G01X21725910D01*
Y11037210D01*
X21747780Y11059080D01*
G02X21762550Y11058660I00007187J-00007181D01*
G03X21798180Y11042680I00035634J00031740D01*
G01X22278200D01*
G03X22325920Y11090400I0J00047720D01*
G01Y11190400D01*
G03X22278200Y11238120I-00047720J0D01*
G01X21798180D01*
G03X21756010Y11212720I00000008J-00047719D01*
G01X21724020D01*
X21600470Y11089170D01*
Y10827360D01*
G03X21588160Y10817800I00022721J-00041962D01*
G02X21573240I-00007460J00006903D01*
G03X21560930Y10827360I-00035031J-00032402D01*
G01Y11077770D01*
X21425980Y11212720D01*
X21400390D01*
G03X21358220Y11238120I-00042178J-00022319D01*
G01X20878200D01*
G03X20830480Y11190400I0J-00047720D01*
G01Y11135670D01*
G02X20813140Y11128490I-00010158J00000003D01*
G01X20737720Y11203910D01*
Y11787950D01*
G03X20682630Y11917680I-00057718J00052052D01*
G02X20677720Y11922750I00000168J00005076D01*
G01Y12232050D01*
G03X20562500Y12305870I-00037722J00067952D01*
G01X20562360Y12303990D01*
X20562280Y12303910D01*
Y11916580D01*
G02X20544940Y11909390I-00010159J-00000003D01*
G01X20247720Y12206610D01*
Y12517950D01*
G03X20132280I-00057720J00052050D01*
G01Y12233880D01*
G02X20114940Y12226690I-00010159J-00000003D01*
G01X19977720Y12363910D01*
Y13467950D01*
G03X19862280I-00057720J00052050D01*
G01Y12316090D01*
X20442280Y11736090D01*
Y11289120D01*
G02X20424940Y11281940I-00010159J00000005D01*
G01X20367720Y11339160D01*
Y11567950D01*
G03X20252280I-00057720J00052050D01*
G01Y11433560D01*
G02X20234940Y11426370I-00010159J-00000003D01*
G01X19817720Y11843590D01*
Y12867950D01*
G03X19731590Y12992340I-00057718J00052049D01*
G02X19717720Y13001800I-00003710J00009459D01*
G01Y14443910D01*
X19637640Y14523990D01*
X19637500Y14525870D01*
G03X19579160Y14595320I-00077498J-00005872D01*
G02X19575480Y14601460I00001251J00004923D01*
G03X19532030Y14690810I-00075478J00018536D01*
G03X19382500Y14725870I-00072032J00029188D01*
G01X19382360Y14723990D01*
X19269580Y14611210D01*
Y11706580D01*
G02X19252240Y11699390I-00010159J-00000003D01*
G01X19237720Y11713910D01*
Y13303910D01*
X19217640Y13323990D01*
X19217500Y13325870D01*
G03X19118600Y13245280I-00077500J-00005872D01*
G01X19122280Y13244230D01*
Y11666090D01*
X19154260Y11634110D01*
G02X19148570Y11616880I-00007182J-00007183D01*
G03X19098810Y11587920I00011434J-00076876D01*
G02X19083630Y11587000I-00007998J00006265D01*
G01X18427290Y12243340D01*
G02X18434500Y12260680I00007186J00007181D01*
G03X18553070Y12327850I00000294J00137718D01*
G02X18570530I00008730J-00005209D01*
G03X18807070I00118270J00070550D01*
G02X18824530I00008730J-00005209D01*
G03X19013350Y12516670I00118270J00070550D01*
G02Y12534130I00005209J00008730D01*
G03X18824530Y12722950I-00070550J00118270D01*
G02X18807070I-00008730J00005209D01*
G03X18570530I-00118270J-00070550D01*
G02X18553070I-00008730J00005209D01*
G03X18316530I-00118270J-00070550D01*
G02X18299070I-00008730J00005209D01*
G03X18062530I-00118270J-00070550D01*
G02X18045070I-00008730J00005209D01*
G03X17808530I-00118270J-00070550D01*
G02X17791070I-00008730J00005209D01*
G03X17554530I-00118270J-00070550D01*
G02X17537070I-00008730J00005209D01*
G03X17332400Y12545160I-00118277J-00070542D01*
G01X17334290Y12543630D01*
Y12536120D01*
X17328800D01*
G03X17281080Y12488400I0J-00047720D01*
G01Y12308400D01*
G03X17328800Y12260680I00047720J0D01*
G01X17508800D01*
G03X17556520Y12308400I0J00047720D01*
G01Y12313890D01*
X17564030D01*
X17565560Y12312000D01*
G03X17791070Y12327850I00107239J00086403D01*
G02X17808530I00008730J-00005209D01*
G03X17977570Y12270380I00118275J00070550D01*
G02X17991480Y12260940I00003750J-00009442D01*
G01Y12256890D01*
X18101100Y12147270D01*
X18360100D01*
X19120100Y11387270D01*
X19121100D01*
X19622280Y10886090D01*
Y09192050D01*
G03X19737720I00057720J-00052050D01*
G01Y10516120D01*
G02X19755060Y10523310I00010159J00000003D01*
G01X20072360Y10206010D01*
X20072500Y10204130D01*
G03X20155870Y10287500I00077500J00005870D01*
G01X20153990Y10287640D01*
X20130770Y10310860D01*
X20134380Y10314470D01*
X20134400Y10314490D01*
G03X20085870Y10447500I-00054398J00055511D01*
G01X20083990Y10447640D01*
X19857720Y10673910D01*
Y11029870D01*
G02X19875060Y11037060I00010159J00000003D01*
G01X19955690Y10956430D01*
G02X19955700Y10942070I-00007182J-00007185D01*
G03X19952730Y10934900I00007170J-00007170D01*
G01Y10821090D01*
G03X19967250Y10811940I00010143J0D01*
G02X20084850Y10720300I00035951J-00075142D01*
G03X20094790Y10708150I00009940J-00002009D01*
G01X20179480D01*
G03X20186650Y10711120I0J00010140D01*
G02X20201010Y10711110I00007175J-00007193D01*
G01X20292280Y10619840D01*
Y10018710D01*
X20345520Y09965470D01*
G02X20338330Y09948130I-00007187J-00007181D01*
G01X20146500D01*
X19822280Y09623910D01*
Y09116090D01*
X19922280Y09016090D01*
Y08126300D01*
G37*
G36*
G01X17688390Y15132660D02*
X16387340Y13831610D01*
G02X16370000Y13838790I-00007182J00007184D01*
G01Y15150000D01*
X17681210D01*
G02X17688390Y15132660I-00000004J-00010158D01*
G37*
G36*
G01X16960000Y06910000D02*
X16930000Y06940000D01*
Y07300000D01*
X16920000Y07310000D01*
Y07340000D01*
X17172280D01*
Y06995000D01*
G03X17220000Y06947280I00047720J0D01*
G01X17380000D01*
G03X17427720Y06995000I0J00047720D01*
G01Y07262280D01*
X17930000D01*
Y07120000D01*
X17720000D01*
X17690000Y07090000D01*
Y06960000D01*
X17640000Y06910000D01*
X16960000D01*
G37*
G36*
G01X17987490Y07430000D02*
X18000000D01*
X18119940Y07549940D01*
G02X18137280Y07542750I00007180J-00007188D01*
G01Y07488800D01*
G03X18141800Y07468530I00047711J0D01*
G01X18142280Y07467500D01*
Y07392280D01*
X18123240Y07373240D01*
X18121100Y07373270D01*
G03X18043890Y07323800I-00001100J-00083271D01*
G01X18030090Y07310000D01*
X17450000D01*
X17427720Y07332280D01*
Y07345000D01*
G03X17380000Y07392720I-00047720J0D01*
G01X17367280D01*
X17290000Y07470000D01*
X16820000D01*
X16770000Y07520000D01*
Y07700000D01*
X16782280Y07712280D01*
X16837730D01*
X16838870Y07711660D01*
G03X16962260Y07712280I00061133J00112140D01*
G01X17077720D01*
X17180000Y07610000D01*
X17410000D01*
X17476990Y07543010D01*
X17477180Y07541220D01*
G03X17551220Y07467180I00082820J00008780D01*
G01X17553010Y07466990D01*
X17590000Y07430000D01*
X17732510D01*
X17750230Y07412280D01*
X17969770D01*
X17987490Y07430000D01*
G37*
G36*
G01X17220000Y07670000D02*
X17130000Y07760000D01*
X16800000D01*
X16770000Y07790000D01*
Y07940000D01*
X16800000Y07970000D01*
X16825570D01*
X16826880Y07969090D01*
G03X16974420Y07970000I00073127J00104711D01*
G01X17180000D01*
X17370000Y07780000D01*
X17432510D01*
X17440230Y07772280D01*
X17917720D01*
X17930000Y07760000D01*
X17931110D01*
G02X17934710Y07751330I00000005J-00005080D01*
G01X17918850Y07735470D01*
X17917520Y07735120D01*
G03X17861050Y07674150I00019953J-00075116D01*
G01X17860280Y07670000D01*
X17220000D01*
G37*
G36*
G01X17460000Y07820000D02*
X17250000Y08030000D01*
X16790000D01*
X16770000Y08050000D01*
Y08200000D01*
X16783120Y08213120D01*
X16786710Y08209620D01*
G03X16820000Y08196080I00033301J00034182D01*
G01X16980000D01*
G03X17021350Y08220000I-00000012J00047721D01*
G01X17360000D01*
X17478870Y08101130D01*
X17479220Y08099760D01*
G03X17539760Y08039220I00080780J00020240D01*
G01X17541130Y08038870D01*
X17562260Y08017740D01*
Y08005000D01*
G03X17609980Y07957280I00047725J00000005D01*
G01X17622720D01*
X17690000Y07890000D01*
X17742510D01*
X17750230Y07882280D01*
X17878660D01*
G03X17926550Y07853450I00061348J00047716D01*
G01X17928120Y07853180D01*
X17942280Y07839020D01*
Y07820000D01*
X17460000D01*
G37*
G36*
G01X18137280Y08108800D02*
Y08034730D01*
G02X18119940Y08027550I-00010159J00000006D01*
G01X17979770Y08167720D01*
X17962280D01*
X17860000Y08270000D01*
X16800000D01*
X16770000Y08300000D01*
Y08470000D01*
X16810000Y08510000D01*
X17810000D01*
X18100000Y08220000D01*
X18130000D01*
X18160000Y08190000D01*
Y08149450D01*
G03X18137280Y08108800I00025005J-00040650D01*
G37*
G36*
G01X16960000Y09510000D02*
X16930000Y09540000D01*
Y09900000D01*
X16920000Y09910000D01*
Y09940000D01*
X17172280D01*
Y09595000D01*
G03X17220000Y09547280I00047720J0D01*
G01X17380000D01*
G03X17427720Y09595000I0J00047720D01*
G01Y09862280D01*
X17930000D01*
Y09720000D01*
X17720000D01*
X17690000Y09690000D01*
Y09560000D01*
X17640000Y09510000D01*
X16960000D01*
G37*
G36*
G01X17987490Y10030000D02*
X18000000D01*
X18119940Y10149940D01*
G02X18137280Y10142750I00007180J-00007188D01*
G01Y10088800D01*
G03X18141800Y10068530I00047711J0D01*
G01X18142280Y10067500D01*
Y09992280D01*
X18123240Y09973240D01*
X18121100Y09973270D01*
G03X18043890Y09923800I-00001100J-00083271D01*
G01X18030090Y09910000D01*
X17450000D01*
X17427720Y09932280D01*
Y09945000D01*
G03X17380000Y09992720I-00047720J0D01*
G01X17367280D01*
X17290000Y10070000D01*
X16820000D01*
X16770000Y10120000D01*
Y10300000D01*
X16782280Y10312280D01*
X17077720D01*
X17180000Y10210000D01*
X17410000D01*
X17476990Y10143010D01*
X17477180Y10141220D01*
G03X17551220Y10067180I00082820J00008780D01*
G01X17553010Y10066990D01*
X17590000Y10030000D01*
X17732510D01*
X17750230Y10012280D01*
X17969770D01*
X17987490Y10030000D01*
G37*
G36*
G01X17460000Y10420000D02*
X17250000Y10630000D01*
X16790000D01*
X16770000Y10650000D01*
Y10800000D01*
X16790000Y10820000D01*
X17360000D01*
X17478870Y10701130D01*
X17479220Y10699760D01*
G03X17539760Y10639220I00080780J00020240D01*
G01X17541130Y10638870D01*
X17562260Y10617740D01*
Y10605000D01*
G03X17609980Y10557280I00047725J00000005D01*
G01X17622720D01*
X17690000Y10490000D01*
X17742510D01*
X17750230Y10482280D01*
X17878660D01*
G03X17927350Y10453320I00061341J00047721D01*
G01X17928960Y10453050D01*
X17947080Y10434930D01*
X17945810Y10431800D01*
G03X17943380Y10423990I00044181J-00018030D01*
G01X17942510Y10420000D01*
X17460000D01*
G37*
G36*
G01X17220000Y10270000D02*
X17130000Y10360000D01*
X16800000D01*
X16770000Y10390000D01*
Y10540000D01*
X16800000Y10570000D01*
X17180000D01*
X17370000Y10380000D01*
X17432510D01*
X17440230Y10372280D01*
X17917720D01*
X17930000Y10360000D01*
X17931110D01*
G02X17934710Y10351330I00000005J-00005080D01*
G01X17918850Y10335470D01*
X17917520Y10335120D01*
G03X17861050Y10274150I00019953J-00075116D01*
G01X17860280Y10270000D01*
X17220000D01*
G37*
G36*
G01X18119940Y10627550D02*
X17979770Y10767720D01*
X17962280D01*
X17860000Y10870000D01*
X16800000D01*
X16770000Y10900000D01*
Y11070000D01*
X16810000Y11110000D01*
X17810000D01*
X17934370Y10985630D01*
X17934750Y10984490D01*
G03X17964830Y10954410I00045250J00015170D01*
G01X17965970Y10954030D01*
X18100000Y10820000D01*
X18130000D01*
X18160000Y10790000D01*
Y10749450D01*
G03X18137280Y10708800I00025005J-00040650D01*
G01Y10634730D01*
G02X18119940Y10627550I-00010159J00000006D01*
G37*
G36*
G01X17544920Y07542560D02*
X17482550Y07604940D01*
G02X17489730Y07622280I00007186J00007181D01*
G01X17554700D01*
G02X17564400Y07609110I-00000003J-00010160D01*
G03X17562260Y07595000I00045582J-00014130D01*
G01Y07549750D01*
G02X17544920Y07542560I-00010159J-00000003D01*
G37*
G36*
G01X17770000Y07460000D02*
X17740000Y07490000D01*
Y07590000D01*
X17760000Y07610000D01*
X17877970D01*
G03X18005420Y07622280I00059499J00050001D01*
G01X18077220D01*
G02X18087360Y07611540I-00000004J-00010160D01*
G03X18087280Y07608800I00047639J-00002762D01*
G01Y07597280D01*
X17950000Y07460000D01*
X17770000D01*
G37*
G36*
G01X17546450Y08101030D02*
X17442550Y08204940D01*
G02X17449730Y08222280I00007186J00007181D01*
G01X17840230D01*
X17877450Y08185060D01*
G02X17870270Y08167720I-00007186J-00007181D01*
G01X17760230D01*
X17735230Y08142720D01*
X17609980D01*
G03X17563530Y08105900I00000009J-00047721D01*
G02X17546450Y08101030I-00009895J00002316D01*
G37*
G36*
G01X17770000Y07930000D02*
X17760000Y07940000D01*
Y08100000D01*
X17780000Y08120000D01*
X17960000D01*
X18087280Y07992720D01*
Y07988800D01*
G03X18089420Y07974680I00047718J00000010D01*
G02X18079710Y07961520I-00009708J-00002999D01*
G01X18011040D01*
G03X17862310Y07932310I-00071043J-00031518D01*
G01X17860000Y07930000D01*
X17770000D01*
G37*
G36*
G01Y10060000D02*
X17740000Y10090000D01*
Y10190000D01*
X17760000Y10210000D01*
X17877970D01*
G03X18005420Y10222280I00059499J00050001D01*
G01X18077220D01*
G02X18087360Y10211540I-00000004J-00010160D01*
G03X18087280Y10208800I00047639J-00002762D01*
G01Y10197280D01*
X17950000Y10060000D01*
X17770000D01*
G37*
G36*
G01X17544920Y10142560D02*
X17482550Y10204940D01*
G02X17489730Y10222280I00007186J00007181D01*
G01X17554700D01*
G02X17564400Y10209110I-00000003J-00010160D01*
G03X17562260Y10195000I00045582J-00014130D01*
G01Y10149750D01*
G02X17544920Y10142560I-00010159J-00000003D01*
G37*
G36*
G01X17770000Y10530000D02*
X17760000Y10540000D01*
Y10700000D01*
X17780000Y10720000D01*
X17960000D01*
X18087280Y10592720D01*
Y10588800D01*
G03X18089420Y10574680I00047718J00000010D01*
G02X18079710Y10561520I-00009708J-00002999D01*
G01X18011040D01*
G03X17862310Y10532310I-00071043J-00031518D01*
G01X17860000Y10530000D01*
X17770000D01*
G37*
G36*
G01X17546450Y10701030D02*
X17442550Y10804940D01*
G02X17449730Y10822280I00007186J00007181D01*
G01X17840230D01*
X17877450Y10785060D01*
G02X17870270Y10767720I-00007186J-00007181D01*
G01X17760230D01*
X17735230Y10742720D01*
X17609980D01*
G03X17563530Y10705900I00000009J-00047721D01*
G02X17546450Y10701030I-00009895J00002316D01*
G37*
G36*
G01X17556520Y12482910D02*
Y12488400D01*
G03X17508800Y12536120I-00047720J0D01*
G01X17503310D01*
Y12543630D01*
X17505200Y12545160D01*
G03X17537070Y12581850I-00086403J00107239D01*
G02X17554530I00008730J-00005209D01*
G03X17602250Y12534130I00118270J00070550D01*
G02Y12516670I-00005209J-00008730D01*
G03X17565560Y12484800I00070549J-00118273D01*
G01X17564030Y12482910D01*
X17556520D01*
G37*
G36*
G01X18372190Y06957720D02*
X18331660Y06998250D01*
G03X18342720Y07028780I-00036660J00030549D01*
G01Y07075820D01*
G02X18351390Y07079410I00005079J-00000001D01*
G01X18357280Y07073510D01*
Y07028780D01*
G03X18405000Y06981060I00047725J00000005D01*
G01X18495000D01*
G03X18525000Y06991680I-00000014J00047721D01*
G03X18555000Y06981060I00030014J00037101D01*
G01X18645000D01*
G03X18673260Y06990340I-00000017J00047721D01*
G03X18696880Y07151960I00027948J00078452D01*
G02X18687330Y07166790I-00000534J00010146D01*
G03X18692720Y07188800I-00042331J00022031D01*
G01Y07268820D01*
G03X18645000Y07316540I-00047725J-00000005D01*
G01X18631460D01*
X18495900Y07452090D01*
X18499360Y07455680D01*
G03X18512720Y07488800I-00034373J00033120D01*
G01Y07586080D01*
X18610000D01*
G03X18616550Y07586530I00000012J00047721D01*
G01X18616900Y07586580D01*
X18732260D01*
Y07555000D01*
G03X18779980Y07507280I00047725J00000005D01*
G01X19020020D01*
G03X19067740Y07555000I-00000005J00047725D01*
G01Y07645000D01*
G03X19067370Y07650870I-00047721J-00000061D01*
G02X19077450Y07662280I00010083J00001250D01*
G01X19102280D01*
Y07012190D01*
X19047810Y06957720D01*
X18372190D01*
G37*
G36*
G01X18067720Y14160110D02*
Y14165600D01*
G03X18020000Y14213320I-00047720J0D01*
G01X18014510D01*
Y14220830D01*
X18016400Y14222360D01*
G03X18048270Y14259050I-00086403J00107239D01*
G02X18065730I00008730J-00005209D01*
G03X18113450Y14211330I00118270J00070550D01*
G02Y14193870I-00005209J-00008730D01*
G03X18076760Y14162000I00070549J-00118273D01*
G01X18075230Y14160110D01*
X18067720D01*
G37*
G36*
G01X18692720Y09868820D02*
G03X18653500Y09915770I-00047721J-00000008D01*
G01X18651940Y09916050D01*
X18505190Y10062800D01*
X18506990Y10066130D01*
G03X18512720Y10088800I-00041980J00022670D01*
G01Y10186080D01*
X18610000D01*
G03X18616550Y10186530I00000012J00047721D01*
G01X18616900Y10186580D01*
X18705420D01*
X18732260Y10159730D01*
Y10115000D01*
G03X18779980Y10067280I00047725J00000005D01*
G01X19020020D01*
G03X19067740Y10115000I-00000005J00047725D01*
G01Y10205000D01*
G03X19065600Y10219110I-00047722J-00000020D01*
G02X19075300Y10232280I00009703J00003010D01*
G01X19092280D01*
Y09628130D01*
X18769530D01*
G02X18759930Y09641610I00000002J00010160D01*
G03X18694220Y09751050I-00078720J00027182D01*
G02X18686890Y09765950I00001586J00010033D01*
G03X18692720Y09788800I-00041893J00022857D01*
G01Y09868820D01*
G37*
G36*
G01X18810270Y14146150D02*
G03X18762550Y14193870I-00118270J-00070550D01*
G02Y14211330I00005209J00008730D01*
G03X18810270Y14259050I-00070550J00118270D01*
G02X18827730I00008730J-00005209D01*
G03X18875450Y14211330I00118270J00070550D01*
G02Y14193870I-00005209J-00008730D01*
G03X18827730Y14146150I00070550J-00118270D01*
G02X18810270I-00008730J00005209D01*
G37*
G36*
G01X20928200Y08787440D02*
G03X20918430Y08788450I-00009766J-00046710D01*
G01X20910920D01*
Y09330340D01*
X20935440Y09354860D01*
Y09767950D01*
G03X20809730Y09857650I-00057719J00052048D01*
G03X20771510Y09707420I-00013549J-00076530D01*
G01X20774980Y09706260D01*
Y09627110D01*
G02X20763480Y09617040I-00010159J0D01*
G03X20709150Y09604030I-00010275J-00077038D01*
G02X20701190Y09607970I-00002884J00004183D01*
G03X20700240Y09615400I-00047661J-00002318D01*
G03X20701250Y09625160I-00046709J00009766D01*
G01Y09655640D01*
G03X20700240Y09665400I-00047719J-00000006D01*
G03X20701250Y09675170I-00046710J00009766D01*
G01Y09705650D01*
G03X20700240Y09715400I-00047718J-00000016D01*
G03X20701250Y09725160I-00046709J00009766D01*
G01Y09755640D01*
G03X20700240Y09765400I-00047719J-00000006D01*
G03X20701250Y09775170I-00046710J00009766D01*
G01Y09805650D01*
G03X20700240Y09815400I-00047718J-00000016D01*
G03X20701250Y09825160I-00046709J00009766D01*
G01Y09855640D01*
G03X20700240Y09865400I-00047719J-00000006D01*
G03X20701250Y09875170I-00046710J00009766D01*
G01Y09905650D01*
G03X20700240Y09915400I-00047718J-00000016D01*
G03X20701250Y09925160I-00046709J00009766D01*
G01Y09955640D01*
G03X20700240Y09965400I-00047719J-00000006D01*
G03X20701250Y09975170I-00046710J00009766D01*
G01Y10005650D01*
G03X20700240Y10015400I-00047718J-00000016D01*
G03X20701250Y10025160I-00046709J00009766D01*
G01Y10055640D01*
G03X20681660Y10094190I-00047725J0D01*
G01X20679580Y10095710D01*
Y10103370D01*
X20685170D01*
G03X20690230Y10108430I0J00005060D01*
G01Y10114020D01*
X20697890D01*
X20699410Y10111940D01*
G03X20737960Y10092350I00038550J00028135D01*
G01X20818430D01*
G03X20828200Y10093360I00000004J00047720D01*
G03X20837960Y10092350I00009766J00046709D01*
G01X20918430D01*
G03X20928200Y10093360I00000004J00047720D01*
G03X20937960Y10092350I00009766J00046709D01*
G01X21018430D01*
G03X21028200Y10093360I00000004J00047720D01*
G03X21037960Y10092350I00009766J00046709D01*
G01X21118430D01*
G03X21128200Y10093360I00000004J00047720D01*
G03X21137960Y10092350I00009766J00046709D01*
G01X21218430D01*
G03X21228200Y10093360I00000004J00047720D01*
G03X21237960Y10092350I00009766J00046709D01*
G01X21318430D01*
G03X21328200Y10093360I00000004J00047720D01*
G03X21337960Y10092350I00009766J00046709D01*
G01X21418450D01*
G03X21428200Y10093360I-00000016J00047718D01*
G03X21437960Y10092350I00009766J00046709D01*
G01X21518450D01*
G03X21528200Y10093360I-00000016J00047718D01*
G03X21537960Y10092350I00009766J00046709D01*
G01X21618450D01*
G03X21628200Y10093360I-00000016J00047718D01*
G03X21635660Y10092410I00009739J00046714D01*
G02X21640490Y10087330I-00000251J-00005075D01*
G01Y09829190D01*
X21517280Y09705980D01*
Y09005900D01*
G03X21584710Y08882420I00062719J-00045902D01*
G02X21595480Y08872280I00000611J-00010140D01*
G01Y08788450D01*
X21537960D01*
G03X21528200Y08787440I00000006J-00047719D01*
G03X21518450Y08788450I-00009766J-00046708D01*
G01X21465680D01*
Y09907950D01*
G03X21350240I-00057720J00052050D01*
G01Y08788450D01*
X21337960D01*
G03X21328200Y08787440I00000006J-00047719D01*
G03X21318430Y08788450I-00009766J-00046710D01*
G01X21237960D01*
G03X21228200Y08787440I00000006J-00047719D01*
G03X21218430Y08788450I-00009766J-00046710D01*
G01X21137960D01*
G03X21128200Y08787440I00000006J-00047719D01*
G03X21118430Y08788450I-00009766J-00046710D01*
G01X21037960D01*
G03X21028200Y08787440I00000006J-00047719D01*
G03X21018430Y08788450I-00009766J-00046710D01*
G01X20937960D01*
G03X20928200Y08787440I00000006J-00047719D01*
G37*
G36*
G01X20806250Y13500000D02*
G03X20769140Y13517720I-00037110J-00029999D01*
G01X20662280D01*
X20620000Y13560000D01*
Y13820000D01*
X20600000Y13840000D01*
X20400000D01*
X20320000Y13920000D01*
Y14460000D01*
X20360000Y14500000D01*
X20760000D01*
X20850000Y14410000D01*
Y13530000D01*
X20820000Y13500000D01*
X20806250D01*
G37*
G36*
G01X22947300Y10888930D02*
G02X22930850Y10891940I-00007186J00007183D01*
G03X22917720Y10912050I-00070861J-00031924D01*
G01Y11727950D01*
G03X22802280I-00057720J00052050D01*
G01Y11677130D01*
G02X22787250Y11668210I-00010160J-00000003D01*
G03X22679590Y11632900I-00037249J-00068211D01*
G02X22672840Y11630440I-00004605J00002146D01*
G03X22576220Y11604410I-00032839J-00070440D01*
G02X22557720Y11610210I-00008340J00005803D01*
G01Y12893910D01*
X22193910Y13257720D01*
X21680950D01*
G02X21673760Y13275060I-00000003J00010160D01*
G01X21760910Y13362210D01*
G02X21777000Y13359920I00007186J-00007183D01*
G03X21834630Y13318150I00073001J00040079D01*
G03X21880860Y13282280I00046230J00011856D01*
G01X22221680D01*
G03X22269400Y13330000I0J00047720D01*
G01Y13470000D01*
G03X22221680Y13517720I-00047720J0D01*
G01X21939730D01*
G02X21932550Y13535060I00000006J00010159D01*
G01X21947720Y13550230D01*
Y14697720D01*
X21662280D01*
Y14689730D01*
G02X21644940Y14682550I-00010159J00000006D01*
G01X21629770Y14697720D01*
X21430230D01*
X21405000Y14672490D01*
X21369770Y14707720D01*
X21170230D01*
X21145000Y14682490D01*
X21109770Y14717720D01*
X20910230D01*
X20862280Y14669770D01*
Y14489730D01*
G02X20844940Y14482550I-00010159J00000006D01*
G01X20779770Y14547720D01*
X20717720D01*
Y14847280D01*
X23022280D01*
Y14547720D01*
X22940230D01*
X22852280Y14459770D01*
Y14374410D01*
G02X22835610Y14366610I-00010159J-00000001D01*
G03X22805000Y14377720I-00030610J-00036612D01*
G01X22455000D01*
G03X22407280Y14330000I0J-00047720D01*
G01Y14170000D01*
G03X22455000Y14122280I00047720J0D01*
G01X22805000D01*
G03X22835610Y14133390I0J00047722D01*
G02X22852280Y14125590I00006511J-00007799D01*
G01Y13920230D01*
X22980230Y13792280D01*
X23172280D01*
Y13736300D01*
X23028320D01*
G03X22980600Y13688580I0J-00047720D01*
G01Y13548580D01*
G03X22993280Y13516190I00047709J0D01*
G02Y13502390I-00007461J-00006900D01*
G03X22980600Y13470000I00035029J-00032390D01*
G01Y13330000D01*
G03X22995590Y13295270I00047728J0D01*
G02X22988620Y13277720I-00006970J-00007391D01*
G01X22967810D01*
X22822280Y13132190D01*
Y12229920D01*
G03X22977720I00077720J-00029920D01*
G01Y13067810D01*
X23032190Y13122280D01*
X23036120D01*
G02X23043310Y13104940I00000003J-00010159D01*
G01X23002280Y13063910D01*
Y12676090D01*
X23191070Y12487300D01*
G02X23188060Y12470850I-00007183J-00007186D01*
G03X23184000Y12468880I00031884J-00070878D01*
G02X23170130Y12473500I-00004705J00009004D01*
G03X23042280Y12387950I-00070129J-00033504D01*
G01Y11667040D01*
G02X23030720Y11656980I-00010159J00000002D01*
G03X22962280Y11527950I-00010722J-00076979D01*
G01Y10903910D01*
X22947300Y10888930D01*
G37*
G36*
G01X21393120Y10548510D02*
X21311290Y10630340D01*
G02X21318470Y10647680I00007183J00007182D01*
G01X21407060D01*
G02X21416030Y10632760I-00000002J-00010158D01*
G03X21410460Y10610400I00042152J-00022374D01*
G01Y10555690D01*
G02X21393120Y10548510I-00010158J00000003D01*
G37*
G36*
G01X21233120Y10708510D02*
X20916290Y11025340D01*
G02X20923480Y11042680I00007187J00007181D01*
G01X21358220D01*
G03X21391260Y11055970I-00000002J00047721D01*
G02X21405480Y11055820I00007033J-00007330D01*
G01X21435490Y11025810D01*
Y10833120D01*
X21298180D01*
G03X21250460Y10785400I00000005J-00047725D01*
G01Y10715690D01*
G02X21233120Y10708510I-00010158J00000003D01*
G37*
G36*
G01X21464420Y13432590D02*
Y13461740D01*
X21476780Y13474100D01*
X21478170Y13474430D01*
G03X21510000Y13609500I-00018170J00075567D01*
G01Y13730000D01*
X21520000Y13740000D01*
X21630000D01*
X21662280Y13707720D01*
Y13562280D01*
X21480060Y13380060D01*
G02X21462720Y13387250I-00007180J00007188D01*
G01Y13430890D01*
X21464420Y13432590D01*
G37*
G36*
G01X21124120Y13360580D02*
G03X21110000Y13362720I-00014130J-00045578D01*
G01X21104770D01*
X21057720Y13409770D01*
Y13687720D01*
X21090000Y13720000D01*
X21170000D01*
X21180000Y13710000D01*
Y13597720D01*
G03X21118910Y13471950I0J-00077722D01*
G01X21120000Y13470570D01*
Y13470000D01*
X21130000Y13460000D01*
X21130570D01*
X21131950Y13458910D01*
G03X21137280Y13455070I00048056J00061084D01*
G01Y13370290D01*
G02X21124120Y13360580I-00010161J-00000002D01*
G37*
G36*
G01X20952280Y13307720D02*
X20910000Y13350000D01*
Y14650000D01*
X20930000Y14670000D01*
X21090000D01*
X21110000Y14650000D01*
Y14030930D01*
X21106360Y14029850D01*
G03X21051960Y13920920I00023639J-00079854D01*
G01X21052280Y13920070D01*
Y13914810D01*
X21050840Y13913330D01*
G03X21043420Y13903420I00034166J-00033314D01*
G01X21010000Y13870000D01*
Y13390000D01*
X21069940Y13330060D01*
G02X21062750Y13312720I-00007188J-00007180D01*
G01X20990000D01*
G03X20969730Y13308200I0J-00047711D01*
G01X20968700Y13307720D01*
X20952280D01*
G37*
G36*
G01X21330000Y13527830D02*
Y13568230D01*
G03X21346220Y13604970I-00070006J00052857D01*
G01X21346510Y13606510D01*
X21350000Y13610000D01*
Y14110000D01*
X21430000Y14190000D01*
Y14630000D01*
X21450000Y14650000D01*
X21610000D01*
X21620000Y14640000D01*
Y14090000D01*
X21556040Y14026040D01*
G03X21514330Y13984770I00033963J-00076038D01*
G01X21513950Y13983950D01*
X21460000Y13930000D01*
Y13627720D01*
G03X21382650Y13557590I0J-00077722D01*
G01X21382470Y13555780D01*
X21347340Y13520650D01*
G02X21330000Y13527830I-00007182J00007183D01*
G37*
G36*
G01X21262220Y13507720D02*
Y13525770D01*
X21256950Y13531040D01*
X21256680Y13532650D01*
G03X21230000Y13579500I-00076683J-00012647D01*
G01Y13820000D01*
X21222720Y13827280D01*
Y13880020D01*
G03X21209160Y13913330I-00047721J-00000012D01*
G01X21207720Y13914810D01*
Y13920070D01*
X21208040Y13920920D01*
G03X21180000Y14016600I-00078039J00029079D01*
G01Y14650000D01*
X21190000Y14660000D01*
X21350000D01*
X21370000Y14640000D01*
Y14250000D01*
X21300000Y14180000D01*
Y14115980D01*
G03Y14044020I00080000J-00035980D01*
G01Y13627490D01*
X21282280Y13609770D01*
Y13507720D01*
X21262220D01*
G37*
G36*
G01X22424940Y12666690D02*
X22163910Y12927720D01*
X22162650D01*
G02X22152580Y12939200I00000002J00010159D01*
G03X22075950Y13033070I-00082579J00010801D01*
G02X22066730Y13045270I00000727J00010133D01*
G03X22067740Y13055000I-00046712J00009766D01*
G01Y13142280D01*
X22146090D01*
X22442280Y12846090D01*
Y12673880D01*
G02X22424940Y12666690I-00010159J-00000003D01*
G37*
G36*
G01X21900000Y14650000D02*
Y13570000D01*
X21635400Y13305400D01*
G03X21610000Y13312720I-00025400J-00040408D01*
G01X21527250D01*
G02X21520060Y13330060I-00000002J00010160D01*
G01X21710000Y13520000D01*
Y14650000D01*
X21900000D01*
G37*
G36*
G01X21529670Y13932180D02*
X21644940Y14047450D01*
G02X21662280Y14040270I00007181J-00007186D01*
G01Y13935300D01*
G02X21649110Y13925600I-00010160J00000003D01*
G03X21635000Y13927740I-00014130J-00045582D01*
G01X21545000D01*
G03X21537640Y13927160I00000058J-00047721D01*
G01X21535090Y13926760D01*
X21529670Y13932180D01*
G37*
G36*
G01X22584990Y08998120D02*
G02X22574940Y09009750I00000002J00010159D01*
G03X22571180Y09052470I-00091740J00013451D01*
G01X22570920Y09053250D01*
Y09139100D01*
X22571400Y09140120D01*
G03X22575920Y09160380I-00043202J00020273D01*
G01Y09240400D01*
G03X22528200Y09288120I-00047725J-00000005D01*
G01X22438200D01*
G03X22420390Y09284670I00000005J-00047723D01*
G01X22417280Y09283410D01*
X22364000Y09336690D01*
X22403990Y09376680D01*
X22405870Y09376820D01*
G03X22437690Y09522290I-00005869J00077499D01*
G03X22317030Y09584760I-00077687J-00002290D01*
G02X22301250Y09593220I-00005620J00008464D01*
G01Y09605650D01*
G03X22300240Y09615400I-00047718J-00000016D01*
G03X22301250Y09625160I-00046709J00009766D01*
G01Y09632690D01*
X22525680D01*
X22642280Y09516090D01*
Y09272050D01*
G03X22757720I00057720J-00052050D01*
G01Y09563910D01*
X22573500Y09748130D01*
X22474290D01*
G02X22467100Y09765470I-00000003J00010159D01*
G01X22684940Y09983310D01*
G02X22702280Y09976120I00007181J-00007187D01*
G01Y09793670D01*
X22833670Y09662280D01*
X22858700D01*
X22859720Y09661800D01*
G03X22879980Y09657280I00020273J00043202D01*
G01X22942280D01*
Y09642720D01*
X22879980D01*
G03X22832260Y09595000I00000005J-00047725D01*
G01Y09505000D01*
G03X22879980Y09457280I00047725J00000005D01*
G01X23022290D01*
Y09442720D01*
X22879980D01*
G03X22832260Y09395000I00000005J-00047725D01*
G01Y09305000D01*
G03X22879980Y09257280I00047725J00000005D01*
G01X23120020D01*
G03X23161990Y09282310I-00000011J00047721D01*
G03X23144240Y09436110I-00001991J00077695D01*
G03X23137730Y09439310I-00024246J-00041104D01*
G01Y09460690D01*
G03X23167740Y09505000I-00017713J00044314D01*
G01Y09595000D01*
G03X23137730Y09639310I-00047723J-00000004D01*
G01Y09660690D01*
G03X23167740Y09705000I-00017713J00044314D01*
G01Y09795000D01*
G03X23120020Y09842720I-00047725J-00000005D01*
G01X23057720D01*
Y09953280D01*
X23062120Y09957680D01*
X23113220D01*
G03X23160940Y10005400I-00000005J00047725D01*
G01Y10027020D01*
X23182110D01*
Y09999650D01*
G03X23229830Y09951930I00047720J0D01*
G01X23326440D01*
X23358220Y09920160D01*
G02X23356690Y09904540I-00007188J-00007181D01*
G03X23322300Y09841850I00043310J-00064537D01*
G03X23310480Y09810420I00035902J-00031439D01*
G01Y09730400D01*
G03X23323720Y09697420I00047722J00000011D01*
G02Y09683380I-00007344J-00007020D01*
G03X23310480Y09650400I00034482J-00032991D01*
G01Y09570380D01*
G03X23358200Y09522660I00047725J00000005D01*
G01X23448200D01*
G03X23477410Y09532660I-00000020J00047720D01*
G03X23508200Y09521400I00030787J00036459D01*
G01X23598200D01*
G03X23634410Y09538040I0J00047718D01*
G02X23652280Y09531420I00007710J-00006616D01*
G01Y09082160D01*
G02X23634940Y09074970I-00010160J-00000001D01*
G03X23597600Y09095700I-00054942J-00054970D01*
G03X23442500Y09105870I-00077601J00004300D01*
G01X23442360Y09103990D01*
X23436490Y09098120D01*
X23169350D01*
X23168140Y09101490D01*
G03X23123220Y09133120I-00044927J-00016092D01*
G01X22883180D01*
G03X22835460Y09085400I00000005J-00047725D01*
G01Y09034300D01*
X22799280Y08998120D01*
X22584990D01*
G37*
G36*
G01X23537720Y10143910D02*
Y12303910D01*
X23180560Y12661070D01*
G02X23185810Y12678230I00007184J00007185D01*
G03X23252950Y12752650I-00015816J00081765D01*
G01X23253360Y12757280D01*
X23370020D01*
G03X23417740Y12805000I-00000005J00047725D01*
G01Y12839740D01*
X23536060Y12958070D01*
G02X23551450Y12956870I00007181J-00007186D01*
G03X23590000Y12937280I00038550J00028135D01*
G01X23687280D01*
Y12840000D01*
G03X23687730Y12833450I00047721J-00000012D01*
G01X23687780Y12833100D01*
Y12717740D01*
X23655000D01*
G03X23607280Y12670020I00000005J-00047725D01*
G01Y12590000D01*
G03X23620520Y12557020I00047722J00000011D01*
G02Y12542980I-00007344J-00007020D01*
G03X23607280Y12510000I00034482J-00032991D01*
G01Y12429980D01*
G03X23655000Y12382260I00047725J00000005D01*
G01X23745000D01*
G03X23775000Y12392880I-00000014J00047721D01*
G03X23805000Y12382260I00030014J00037101D01*
G01X23889280D01*
Y12219160D01*
X23889180Y12218660D01*
G03Y12181340I00090820J-00018660D01*
G01X23889280Y12180840D01*
Y10930170D01*
G03X23853490Y10884920I00087725J-00106164D01*
G02X23835430Y10884590I-00009115J00004492D01*
G03X23662410Y10711570I-00112430J-00060590D01*
G02X23662080Y10693510I-00004822J-00008945D01*
G03X23652450Y10451730I00060923J-00123508D01*
G02Y10434270I-00005209J-00008730D01*
G03X23665280Y10190960I00070553J-00118273D01*
G01Y10126910D01*
X23631290Y10092920D01*
G02X23616700Y10093160I-00007179J00007187D01*
G03X23565870Y10117500I-00056698J-00053160D01*
G01X23563990Y10117640D01*
X23537720Y10143910D01*
G37*
G36*
G01X23406250Y13500000D02*
G03X23369140Y13517720I-00037110J-00029999D01*
G01X23262280D01*
X23220000Y13560000D01*
Y13820000D01*
X23200000Y13840000D01*
X23000000D01*
X22900000Y13940000D01*
Y14440000D01*
X22960000Y14500000D01*
X23360000D01*
X23450000Y14410000D01*
Y13530000D01*
X23420000Y13500000D01*
X23406250D01*
G37*
G36*
G01X23912280Y08361300D02*
G02X23894940Y08354120I-00010158J00000005D01*
G01X23827720Y08421330D01*
Y09573670D01*
X23918870Y09664820D01*
G02X23936220Y09657630I00007188J-00007184D01*
G01Y09500000D01*
G03X23983940Y09452280I00047720J0D01*
G01X24163940D01*
G03X24172470Y09453050I-00000008J00047719D01*
G01X24175090Y09453520D01*
X24180560Y09448050D01*
X24092280Y09359770D01*
Y08900230D01*
X24210230Y08782280D01*
X25267280D01*
Y08729070D01*
X25261020Y08726470D01*
X25259770Y08727720D01*
X24240230D01*
X23912280Y08399770D01*
Y08361300D01*
G37*
G36*
G01X23644550Y09660440D02*
G03X23632680Y09682110I-00046360J-00011308D01*
G02Y09696150I00007344J00007020D01*
G03X23645920Y09729140I-00034482J00032991D01*
G01Y09809140D01*
G03X23598200Y09856860I-00047720J0D01*
G01X23508200D01*
G03X23489100Y09852870I00000001J-00047717D01*
G02X23475200Y09859620I-00004067J00009312D01*
G03X23462580Y09886090I-00075204J-00019612D01*
G02X23470760Y09902280I00008176J00006031D01*
G01X23603910D01*
X23780720Y10079090D01*
Y10190960D01*
G03X23841270Y10245450I-00057728J00125035D01*
G02X23858730I00008730J-00005209D01*
G03X24074900Y10219140I00118273J00070552D01*
G02X24092280Y10211990I00007220J-00007149D01*
G01Y10086330D01*
X23661610Y09655660D01*
G02X23644550Y09660440I-00007187J00007185D01*
G37*
G36*
G01X23841270Y10386550D02*
G03X23793550Y10434270I-00118270J-00070550D01*
G02Y10451730I00005209J00008730D01*
G03X23841270Y10499450I-00070550J00118270D01*
G02X23858730I00008730J-00005209D01*
G03X23906450Y10451730I00118270J00070550D01*
G02Y10434270I-00005209J-00008730D01*
G03X23858730Y10386550I00070550J-00118270D01*
G02X23841270I-00008730J00005209D01*
G37*
G36*
G01X23680810Y13390810D02*
G03X23666590Y13401230I-00040825J-00040800D01*
G01X23665890Y13401590D01*
X23660000Y13407490D01*
Y13690000D01*
X23690000Y13720000D01*
X23770000D01*
X23780000Y13710000D01*
Y13597720D01*
G03X23718910Y13471950I0J-00077722D01*
G01X23720000Y13470570D01*
Y13470000D01*
X23730000Y13460000D01*
X23730570D01*
X23731950Y13458910D01*
G03X23737280Y13455070I00048056J00061084D01*
G01Y13372230D01*
G02X23723060Y13362910I-00010161J-00000005D01*
G03X23705820Y13367430I-00023083J-00052904D01*
G01X23704020Y13367610D01*
X23680810Y13390810D01*
G37*
G36*
G01X23862220Y13507720D02*
Y13525770D01*
X23856950Y13531040D01*
X23856680Y13532650D01*
G03X23830000Y13579500I-00076683J-00012647D01*
G01Y13820000D01*
X23822720Y13827280D01*
Y13870020D01*
G03X23811130Y13901190I-00047723J-00000005D01*
G03X23780000Y13986600I-00081129J00018808D01*
G01Y14650000D01*
X23790000Y14660000D01*
X23950000D01*
X23970000Y14640000D01*
Y14250000D01*
X23900000Y14180000D01*
Y14115980D01*
G03Y14044020I00080000J-00035980D01*
G01Y13600000D01*
X23890000Y13590000D01*
Y13587490D01*
X23882280Y13579770D01*
Y13507720D01*
X23862220D01*
G37*
G36*
G01X23552280Y13307720D02*
X23520000Y13340000D01*
Y14660000D01*
X23530000Y14670000D01*
X23690000D01*
X23710000Y14650000D01*
Y14000930D01*
X23706360Y13999850D01*
G03X23647320Y13910060I00023642J-00079851D01*
G01X23647610Y13907610D01*
X23610000Y13870000D01*
Y13390000D01*
X23669940Y13330060D01*
G02X23662750Y13312720I-00007188J-00007180D01*
G01X23590000D01*
G03X23569730Y13308200I0J-00047711D01*
G01X23568700Y13307720D01*
X23552280D01*
G37*
G36*
G01X24200000Y06960000D02*
X23960000Y07200000D01*
Y08380000D01*
X24232280Y08652280D01*
X25267280D01*
Y08359600D01*
G03X25296850Y08315470I00047715J0D01*
G01X25300000Y08314170D01*
Y07940000D01*
X25260000Y07900000D01*
X25060000D01*
X24940000Y07780000D01*
Y07120000D01*
X24780000Y06960000D01*
X24200000D01*
G37*
G36*
G01X24400000Y09730000D02*
X24910000D01*
X25000000Y09640000D01*
Y09160000D01*
X25080000Y09080000D01*
X25152510D01*
X25240230Y08992280D01*
X25258360D01*
G02X25268300Y08980030I-00000001J-00010159D01*
G03X25267280Y08970200I00046702J-00009814D01*
G01Y08870200D01*
G03X25268370Y08860040I00047722J-00000019D01*
G02X25258450Y08847720I-00009926J-00002162D01*
G01X24212280D01*
X24140000Y08920000D01*
Y09340000D01*
X24300000Y09500000D01*
Y09603400D01*
G03X24332820Y09661220I-00049997J00066604D01*
G01X24333010Y09663010D01*
X24400000Y09730000D01*
G37*
G36*
G01X25099770Y09127720D02*
X25047720Y09179770D01*
Y09659770D01*
X24929770Y09777720D01*
X24380230D01*
X24252280Y09649770D01*
Y09519770D01*
X24215900Y09483380D01*
X24210420Y09488850D01*
X24210900Y09491470D01*
G03X24211660Y09500000I-00046959J00008483D01*
G01Y09700000D01*
G03X24163940Y09747720I-00047720J0D01*
G01X24026300D01*
G02X24019120Y09765060I00000005J00010158D01*
G01X24267720Y10013670D01*
Y10736330D01*
X24092330Y10911720D01*
X24083200D01*
X24081670Y10913500D01*
G03X24064720Y10930170I-00104682J-00089488D01*
G01Y12060250D01*
X24064880Y12060880D01*
G03X24067720Y12083000I-00084877J00022140D01*
G01Y12169950D01*
X24067980Y12170730D01*
G03X24064720Y12237680I-00087980J00029270D01*
G01Y12386530D01*
G03X24075000Y12392880I-00019737J00043448D01*
G03X24105000Y12382260I00030014J00037101D01*
G01X24195000D01*
G03X24242720Y12429980I-00000005J00047725D01*
G01Y12487420D01*
X24302220Y12546930D01*
Y12750360D01*
G02X24319560Y12757540I00010158J-00000003D01*
G01X24332270Y12744840D01*
Y12695650D01*
G03X24332260Y12695000I00047709J-00001059D01*
G01Y12605000D01*
G03X24332270Y12604350I00047719J00000409D01*
G01Y12230050D01*
X24332010Y12229270D01*
G03X24430920Y12107930I00087979J-00029267D01*
G02X24442280Y12097840I00001199J-00010090D01*
G01Y12083910D01*
X24362280Y12003910D01*
Y10341340D01*
G03X24473780Y10235590I00047717J-00061345D01*
G02X24492280Y10229790I00008340J-00005803D01*
G01Y09970230D01*
X24650230Y09812280D01*
X24766920D01*
G03X24833080I00033080J00089930D01*
G01X25140230D01*
X25152280Y09800230D01*
Y09127720D01*
X25099770D01*
G37*
G36*
G01X24062720Y13387250D02*
Y13453130D01*
X24066710Y13454010D01*
G03X24110000Y13579380I-00016661J00075912D01*
G01Y13730000D01*
X24120000Y13740000D01*
X24230000D01*
X24262280Y13707720D01*
Y13562280D01*
X24080060Y13380060D01*
G02X24062720Y13387250I-00007180J00007188D01*
G37*
G36*
G01X24455030Y13515030D02*
X24454010Y13514650D01*
G03X24426210Y13486850I00016850J-00044650D01*
G01X24425830Y13485830D01*
X24241290Y13301290D01*
X24237790Y13303800D01*
G03X24210000Y13312720I-00027781J-00038803D01*
G01X24127250D01*
G02X24120060Y13330060I-00000002J00010160D01*
G01X24310000Y13520000D01*
Y14650000D01*
X24500000D01*
Y13560000D01*
X24455030Y13515030D01*
G37*
G36*
G01X24220000Y14090000D02*
X24060000Y13930000D01*
Y13617800D01*
G02X24049860Y13607640I-00010160J0D01*
G03X23973390Y13542720I00000189J-00077720D01*
G01X23973120Y13541120D01*
X23947340Y13515340D01*
G02X23930000Y13522520I-00007182J00007183D01*
G01Y13560000D01*
X23950000Y13580000D01*
Y14110000D01*
X24030000Y14190000D01*
Y14630000D01*
X24050000Y14650000D01*
X24210000D01*
X24220000Y14640000D01*
Y14090000D01*
G37*
G36*
G01X24132300Y13934810D02*
X24244940Y14047450D01*
G02X24262280Y14040270I00007181J-00007186D01*
G01Y13925300D01*
G02X24249110Y13915600I-00010160J00000003D01*
G03X24235000Y13917740I-00014130J-00045582D01*
G01X24145000D01*
G03X24140450Y13917520I00000027J-00047724D01*
G02X24132300Y13934810I-00000962J00010112D01*
G37*
G36*
G01X25260000Y09040000D02*
X25200000Y09100000D01*
Y09820000D01*
X25160000Y09860000D01*
X24670000D01*
X24540000Y09990000D01*
Y10280000D01*
X24640000Y10380000D01*
X25840000D01*
X25880000Y10340000D01*
Y09622030D01*
G02X25868110Y09612020I-00010160J00000001D01*
G03X25860000Y09612720I-00008144J-00047023D01*
G01X25779980D01*
G03X25732260Y09565000I00000005J-00047725D01*
G01Y09475000D01*
G03X25779980Y09427280I00047725J00000005D01*
G01X25860000D01*
G03X25868110Y09427980I-00000034J00047723D01*
G02X25880000Y09417970I00001730J-00010011D01*
G01Y09120000D01*
X25800000Y09040000D01*
X25260000D01*
G37*
G36*
G01X26006250Y13500000D02*
G03X25969140Y13517720I-00037110J-00029999D01*
G01X25862280D01*
X25834220Y13545780D01*
X25839310Y13550870D01*
X25841430Y13550860D01*
X25971680D01*
G03X26019400Y13598580I0J00047720D01*
G01Y13738580D01*
G03X25971680Y13786300I-00047720J0D01*
G01X25841680D01*
G03X25832180Y13785350I-00000025J-00047723D01*
G02X25820000Y13795300I-00002022J00009955D01*
G01Y13820000D01*
X25800000Y13840000D01*
X25600000D01*
X25520000Y13920000D01*
Y14460000D01*
X25560000Y14500000D01*
X25960000D01*
X26060000Y14400000D01*
Y13540000D01*
X26020000Y13500000D01*
X26006250D01*
G37*
G36*
G01X26152280Y13307720D02*
X26110000Y13350000D01*
Y14650000D01*
X26130000Y14670000D01*
X26290000D01*
X26310000Y14650000D01*
Y13982790D01*
X26305790Y13982060D01*
G03X26236730Y13898900I00014212J-00082058D01*
G01X26236760Y13896760D01*
X26220000Y13880000D01*
Y13717490D01*
X26202280Y13699770D01*
Y13390230D01*
X26262450Y13330060D01*
G02X26255270Y13312720I-00007186J-00007181D01*
G01X26190000D01*
G03X26169730Y13308200I0J-00047711D01*
G01X26168700Y13307720D01*
X26152280D01*
G37*
G36*
G01X27328520Y13404650D02*
G03X27311680Y13407720I-00016840J-00044652D01*
G01X27029730D01*
G02X27022550Y13425060I00000006J00010159D01*
G01X27147720Y13550230D01*
Y14697720D01*
X26862280D01*
Y14689730D01*
G02X26844940Y14682550I-00010159J00000006D01*
G01X26829770Y14697720D01*
X26630230D01*
X26605000Y14672490D01*
X26569770Y14707720D01*
X26370230D01*
X26345000Y14682490D01*
X26309770Y14717720D01*
X26110230D01*
X26062280Y14669770D01*
Y14489730D01*
G02X26044940Y14482550I-00010159J00000006D01*
G01X25979770Y14547720D01*
X25847720D01*
Y14847280D01*
X27228460D01*
X27337280Y14738460D01*
Y14688950D01*
X27342270Y14683960D01*
Y13414150D01*
G02X27328520Y13404650I-00010160J00000004D01*
G37*
G36*
G01X26547720Y12287720D02*
Y12344700D01*
G02X26560890Y12354400I00010160J-00000003D01*
G03X26575000Y12352260I00014130J00045582D01*
G01X26665000D01*
G03X26679110Y12354400I-00000020J00047722D01*
G02X26692280Y12344700I00003010J-00009703D01*
G01Y12287720D01*
X26547720D01*
G37*
G36*
G01X26660000Y13620000D02*
X26647710Y13607710D01*
X26645770Y13607600D01*
G03X26576480Y13555200I00004228J-00077603D01*
G01X26576100Y13554090D01*
X26547340Y13525340D01*
G02X26530000Y13532520I-00007182J00007183D01*
G01Y13568230D01*
G03X26543150Y13593150I-00070000J00052868D01*
G01X26550000Y13600000D01*
Y14110000D01*
X26630000Y14190000D01*
Y14630000D01*
X26650000Y14650000D01*
X26810000D01*
X26820000Y14640000D01*
Y14090000D01*
X26660000Y13930000D01*
Y13620000D01*
G37*
G36*
G01X26430000Y13579500D02*
Y13820000D01*
X26412080Y13837920D01*
X26411780Y13839420D01*
G03X26399160Y13863330I-00046784J-00009407D01*
G01X26397720Y13864810D01*
Y13870070D01*
X26398040Y13870920D01*
G03X26380000Y13957750I-00078039J00029075D01*
G01Y14650000D01*
X26390000Y14660000D01*
X26550000D01*
X26570000Y14640000D01*
Y14250000D01*
X26500000Y14180000D01*
Y14115980D01*
G03Y14044020I00080000J-00035980D01*
G01Y13617490D01*
X26482280Y13599770D01*
Y13507720D01*
X26462220D01*
Y13525770D01*
X26456950Y13531040D01*
X26456680Y13532650D01*
G03X26430000Y13579500I-00076683J-00012647D01*
G37*
G36*
G01X26662720Y13387250D02*
Y13453220D01*
X26666710Y13454100D01*
G03X26710000Y13579400I-00016710J00075901D01*
G01Y13694060D01*
G02X26722770Y13703880I00010160J00000001D01*
G03X26735000Y13702280I00012254J00046123D01*
G01X26825000D01*
G03X26852780Y13711210I-00000015J00047721D01*
G01X26856280Y13713720D01*
X26862280Y13707720D01*
Y13562280D01*
X26680060Y13380060D01*
G02X26662720Y13387250I-00007180J00007188D01*
G37*
G36*
G01X26257720Y13687720D02*
X26272310Y13702310D01*
X26274450Y13702290D01*
G03X26275000Y13702280I00001142J00047704D01*
G01X26365000D01*
G03X26368990Y13702450I-00000035J00047722D01*
G02X26380000Y13692330I00000851J-00010123D01*
G01Y13597720D01*
G03X26318910Y13471950I0J-00077722D01*
G01X26320000Y13470570D01*
Y13470000D01*
X26330000Y13460000D01*
X26330570D01*
X26331950Y13458910D01*
G03X26337280Y13455070I00048056J00061084D01*
G01Y13370290D01*
G02X26324120Y13360580I-00010161J-00000002D01*
G03X26310000Y13362720I-00014130J-00045578D01*
G01X26297280D01*
X26257720Y13402280D01*
Y13687720D01*
G37*
G36*
G01X27100000Y14650000D02*
Y13570000D01*
X26835400Y13305400D01*
G03X26810000Y13312720I-00025400J-00040408D01*
G01X26727250D01*
G02X26720060Y13330060I-00000002J00010160D01*
G01X26910000Y13520000D01*
Y14650000D01*
X27100000D01*
G37*
G36*
G01X26847360Y13872170D02*
G03X26825000Y13877740I-00022374J-00042152D01*
G01X26735000D01*
G03X26720890Y13875600I00000020J-00047722D01*
G02X26707720Y13885300I-00003010J00009703D01*
G01Y13910230D01*
X26844940Y14047450D01*
G02X26862280Y14040270I00007181J-00007186D01*
G01Y13881140D01*
G02X26847360Y13872170I-00010160J00000005D01*
G37*
G36*
G01X27380000Y11140000D02*
X27310000Y11210000D01*
Y12050000D01*
X27440000Y12180000D01*
X27980000D01*
X28080000Y12080000D01*
Y11900000D01*
X27670000Y11490000D01*
Y11230000D01*
X27580000Y11140000D01*
X27380000D01*
G37*
G36*
G01X28555650Y10551650D02*
G03X28542050Y10531300I00044345J-00044356D01*
G01X28541670Y10530370D01*
X28199020Y10187720D01*
X28100950D01*
G02X28093760Y10205060I-00000003J00010160D01*
G01X28112720Y10224020D01*
Y10475680D01*
G03X28142720Y10519980I-00017721J00044309D01*
G01Y10600000D01*
G03X28129480Y10632980I-00047722J-00000011D01*
G02Y10647020I00007344J00007020D01*
G03X28142720Y10680000I-00034482J00032991D01*
G01Y10760020D01*
G03X28095000Y10807740I-00047725J-00000005D01*
G01X28005000D01*
G03X27975000Y10797120I00000014J-00047721D01*
G03X27945000Y10807740I-00030014J-00037101D01*
G01X27855000D01*
G03X27825000Y10797120I00000014J-00047721D01*
G03X27795000Y10807740I-00030014J-00037101D01*
G01X27705000D01*
G03X27672020Y10794500I00000011J-00047722D01*
G02X27657980I-00007020J00007344D01*
G03X27625000Y10807740I-00032991J-00034482D01*
G01X27537720D01*
Y10862280D01*
X28952190D01*
X29457540Y11367630D01*
X29461090Y11364830D01*
G03X29486440Y11349210I00079218J00100185D01*
G02Y11330790I-00004285J-00009210D01*
G03X29477580Y11103720I00053859J-00115809D01*
G01Y11006280D01*
X29319020Y10847720D01*
X29135760D01*
G03X28992280Y10780000I-00055759J-00067720D01*
G01Y10761300D01*
X28991800Y10760280D01*
G03X28987280Y10740020I00043202J-00020273D01*
G01Y10660000D01*
G03X29000840Y10626690I00047721J00000012D01*
G01X29002280Y10625210D01*
Y10614790D01*
X29000840Y10613310D01*
G03X28993040Y10602710I00034168J-00033312D01*
G01X28904330D01*
G03X28860020Y10632720I-00044314J-00017713D01*
G01X28619980D01*
G03X28572260Y10585000I00000005J-00047725D01*
G01Y10568260D01*
X28555650Y10551650D01*
G37*
G36*
G01X28047720Y13741190D02*
Y14238810D01*
X28241040Y14432130D01*
G03X28247990Y14436830I-00079243J00124667D01*
G02X28264080Y14428580I00005931J-00008249D01*
G01Y14242990D01*
X28105550Y14084450D01*
G03X28314450Y13875550I00104450J-00104450D01*
G01X28559520Y14120610D01*
Y14750610D01*
X28677620Y14868710D01*
X29322380D01*
X29377280Y14813810D01*
Y14702590D01*
G02X29360330Y14695030I-00010160J-00000001D01*
G03X29384230Y14533810I-00085330J-00095031D01*
G02X29393110Y14533470I00004346J-00002631D01*
G03X29396620Y14526930I00131872J00066563D01*
G01X29397280Y14525760D01*
Y14520000D01*
G03X29445000Y14472280I00047725J00000005D01*
G01X29450760D01*
X29451930Y14471620D01*
G03X29598070I00073070J00128380D01*
G01X29599240Y14472280D01*
X29605000D01*
G03X29652720Y14520000I-00000005J00047725D01*
G01Y14525760D01*
X29653380Y14526930D01*
G03X29672720Y14600000I-00128379J00073074D01*
G01Y14936190D01*
X29476250Y15132660D01*
G02X29483440Y15150000I00007186J00007181D01*
G01X29770000D01*
Y14347720D01*
X29530230D01*
X29402280Y14219770D01*
Y13439730D01*
G02X29384940Y13432550I-00010159J00000006D01*
G01X29269770Y13547720D01*
X28360230D01*
X28300200Y13487680D01*
X28126390Y13661250D01*
Y13662520D01*
X28047720Y13741190D01*
G37*
G36*
G01X28170000Y11180000D02*
X28160000Y11190000D01*
Y12047640D01*
G03X28172290Y12100530I-00160002J00065052D01*
G01X28172420Y12102420D01*
X28220000Y12150000D01*
X28276720D01*
G02X28281430Y12130840I-00000004J-00010160D01*
G03X28259760Y11883040I00068568J-00130844D01*
G02Y11866960I-00006202J-00008040D01*
G03X28440240I00090240J-00116960D01*
G02Y11883040I00006202J00008040D01*
G03X28418570Y12130840I-00090238J00116956D01*
G02X28423280Y12150000I00004714J00009000D01*
G01X28630000D01*
X28730000Y12050000D01*
Y11240000D01*
X28670000Y11180000D01*
X28170000D01*
G37*
G36*
G01X28370000Y12320000D02*
X28210000Y12480000D01*
Y12660180D01*
G02X28228520Y12665960I00010161J00000003D01*
G03Y12834040I00121480J00084040D01*
G02X28210000Y12839820I-00008359J00005777D01*
G01Y13032280D01*
G03X28229520Y13326420I0J00147718D01*
G02X28223680Y13343680I00001342J00010072D01*
G01X28380000Y13500000D01*
X29250000D01*
X29360000Y13390000D01*
Y12510000D01*
X29370000Y12500000D01*
Y12380000D01*
X29310000Y12320000D01*
X28370000D01*
G37*
G36*
G01X29804300Y10787480D02*
G03X30065440Y10943830I00206989J-00049463D01*
G02X30060840Y10960840I00002587J00009827D01*
G01X30100000Y11000000D01*
Y11650000D01*
X30035900Y11714100D01*
G02X30041640Y11731340I00007188J00007182D01*
G03X29798850Y11954770I-00030354J00210644D01*
G01X29798570Y11950000D01*
X29500000D01*
X29450000Y12000000D01*
Y12102280D01*
X29520020D01*
G03X29567740Y12150000I0J00047720D01*
G01Y12250000D01*
G03X29520020Y12297720I-00047720J0D01*
G01X29450000D01*
Y14200000D01*
X29550000Y14300000D01*
X29800000D01*
X29900000Y14400000D01*
Y15050000D01*
X30000000Y15150000D01*
X30600000D01*
X30700000Y15050000D01*
Y05350000D01*
X30600000Y05250000D01*
X29850000D01*
X29750000Y05350000D01*
Y08450000D01*
X29700000Y08500000D01*
X29250000D01*
X29200000Y08550000D01*
Y08950000D01*
X29250000Y09000000D01*
X30200000D01*
X30300000Y09100000D01*
Y09137280D01*
G03Y09402720I0J00132720D01*
G01Y09637280D01*
G03Y09902720I0J00132720D01*
G01Y10097280D01*
G03X30119500Y10214310I0J00197711D01*
G02X30110220Y10200000I-00009276J-00004149D01*
G01X29639780D01*
G02X29630500Y10214310I-00000004J00010161D01*
G03X29269500I-00180500J00080690D01*
G02X29260220Y10200000I-00009276J-00004149D01*
G01X29172720D01*
Y10324020D01*
X29648700Y10800000D01*
X29794420D01*
G02X29804300Y10787480I-00000003J-00010161D01*
G37*
%LPC*%
G75*
G36*
G01X27786220Y11200000D02*
Y11400000D01*
G02X27833940Y11447720I00047720J0D01*
G01X28013940D01*
G02X28061660Y11400000I0J-00047720D01*
G01Y11200000D01*
G02X28013940Y11152280I-00047720J0D01*
G01X27833940D01*
G02X27786220Y11200000I0J00047720D01*
G37*
G36*
G01X26886220D02*
Y11400000D01*
G02X26933940Y11447720I00047720J0D01*
G01X27113940D01*
G02X27161660Y11400000I0J-00047720D01*
G01Y11200000D01*
G02X27113940Y11152280I-00047720J0D01*
G01X26933940D01*
G02X26886220Y11200000I0J00047720D01*
G37*
G36*
G01X25954780Y08225000D02*
Y09275000D01*
G02X26002500Y09322720I00047720J0D01*
G01X26852500D01*
G02X26900220Y09275000I0J-00047720D01*
G01Y08225000D01*
G02X26852500Y08177280I-00047720J0D01*
G01X26002500D01*
G02X25954780Y08225000I0J00047720D01*
G37*
G36*
G01X25022280Y07260000D02*
Y07540000D01*
G02X25070000Y07587720I00047720J0D01*
G01X25250000D01*
G02X25297720Y07540000I0J-00047720D01*
G01Y07260000D01*
G02X25250000Y07212280I-00047720J0D01*
G01X25070000D01*
G02X25022280Y07260000I0J00047720D01*
G37*
G36*
G01X21136220Y06150000D02*
Y06350000D01*
G02X21183940Y06397720I00047720J0D01*
G01X21363940D01*
G02X21411660Y06350000I0J-00047720D01*
G01Y06150000D01*
G02X21363940Y06102280I-00047720J0D01*
G01X21183940D01*
G02X21136220Y06150000I0J00047720D01*
G37*
G36*
G01X27413910Y08182280D02*
X27377640Y08146010D01*
X27377500Y08144130D01*
G02X27377250Y08141440I-00077501J00005846D01*
G03X27383380Y08135920I00005049J-00000557D01*
G02X27443020Y08124730I00016625J-00075921D01*
G03X27458540Y08130880I00005626J00008459D01*
G02X27505000Y08167740I00046469J-00010861D01*
G01X27595000D01*
G02X27639310Y08137730I-00000004J-00047723D01*
G01X27660690D01*
G02X27705000Y08167740I00044314J-00017713D01*
G01X27795000D01*
G02X27839310Y08137730I-00000004J-00047723D01*
G01X27860690D01*
G02X27905000Y08167740I00044314J-00017713D01*
G01X27995000D01*
G02X28042720Y08120020I-00000005J-00047725D01*
G01Y08040000D01*
G02X28029480Y08007020I-00047722J00000011D01*
G03Y07992980I00007344J-00007020D01*
G02X28042720Y07960000I-00034482J-00032991D01*
G01Y07879980D01*
G02X27995000Y07832260I-00047725J00000005D01*
G01X27905000D01*
G02X27857280Y07879980I00000005J00047725D01*
G01Y07960000D01*
G02X27870520Y07992980I00047722J-00000011D01*
G03Y08007020I-00007344J00007020D01*
G02X27860690Y08022290I00034478J00032994D01*
G01X27839310D01*
G02X27829480Y08007020I-00044308J00017724D01*
G03Y07992980I00007344J-00007020D01*
G02X27842720Y07960000I-00034482J-00032991D01*
G01Y07879980D01*
G02X27795000Y07832260I-00047725J00000005D01*
G01X27705000D01*
G02X27657280Y07879980I00000005J00047725D01*
G01Y07960000D01*
G02X27670520Y07992980I00047722J-00000011D01*
G03Y08007020I-00007344J00007020D01*
G02X27660690Y08022290I00034478J00032994D01*
G01X27639310D01*
G02X27629480Y08007020I-00044308J00017724D01*
G03Y07992980I00007344J-00007020D01*
G02X27642720Y07960000I-00034482J-00032991D01*
G01Y07879980D01*
G02X27637220Y07857750I-00047722J00000012D01*
G01Y07797720D01*
X27975500D01*
G02X28023220Y07750000I0J-00047720D01*
G01Y07630000D01*
G02X27975500Y07582280I-00047720J0D01*
G01X27524500D01*
G02X27476780Y07630000I0J00047720D01*
G01Y07750000D01*
G02X27481300Y07770270I00047711J0D01*
G01X27481780Y07771300D01*
Y07838300D01*
G02X27457280Y07879980I00023221J00041690D01*
G01Y07960000D01*
G02X27465310Y07986480I00047721J-00000014D01*
G03X27456860Y08002280I-00008451J00005640D01*
G01X27452080D01*
X27450650Y08001050D01*
G02X27322320Y08062620I-00050653J00058949D01*
G03X27310760Y08073030I-00010153J00000349D01*
G02X27294130Y08227500I-00010758J00076972D01*
G01X27296010Y08227640D01*
X27366090Y08297720D01*
X28123910D01*
X28283900Y08137730D01*
X28660690D01*
G02X28705000Y08167740I00044314J-00017713D01*
G01X28795000D01*
G02X28839310Y08137730I-00000004J-00047723D01*
G01X28860690D01*
G02X28905000Y08167740I00044314J-00017713D01*
G01X28995000D01*
G02X29039310Y08137730I-00000004J-00047723D01*
G01X29060690D01*
G02X29105000Y08167740I00044314J-00017713D01*
G01X29195000D01*
G02X29242720Y08120020I-00000005J-00047725D01*
G01Y08040000D01*
G02X29229480Y08007020I-00047722J00000011D01*
G03Y07992980I00007344J-00007020D01*
G02X29242720Y07960000I-00034482J-00032991D01*
G01Y07879980D01*
G02X29195000Y07832260I-00047725J00000005D01*
G01X29105000D01*
G02X29057280Y07879980I00000005J00047725D01*
G01Y07960000D01*
G02X29070520Y07992980I00047722J-00000011D01*
G03Y08007020I-00007344J00007020D01*
G02X29060690Y08022290I00034478J00032994D01*
G01X29039310D01*
G02X29029480Y08007020I-00044308J00017724D01*
G03Y07992980I00007344J-00007020D01*
G02X29042720Y07960000I-00034482J-00032991D01*
G01Y07879980D01*
G02X28995000Y07832260I-00047725J00000005D01*
G01X28905000D01*
G02X28857280Y07879980I00000005J00047725D01*
G01Y07960000D01*
G02X28870520Y07992980I00047722J-00000011D01*
G03Y08007020I-00007344J00007020D01*
G02X28860690Y08022290I00034478J00032994D01*
G01X28839310D01*
G02X28829480Y08007020I-00044308J00017724D01*
G03Y07992980I00007344J-00007020D01*
G02X28842720Y07960000I-00034482J-00032991D01*
G01Y07879980D01*
G02X28837220Y07857750I-00047722J00000012D01*
G01Y07797720D01*
X29175500D01*
G02X29223220Y07750000I0J-00047720D01*
G01Y07630000D01*
G02X29175500Y07582280I-00047720J0D01*
G01X28724500D01*
G02X28676780Y07630000I0J00047720D01*
G01Y07750000D01*
G02X28681300Y07770270I00047711J0D01*
G01X28681780Y07771300D01*
Y07838300D01*
G02X28657280Y07879980I00023221J00041690D01*
G01Y07960000D01*
G02X28670520Y07992980I00047722J-00000011D01*
G03Y08007020I-00007344J00007020D01*
G02X28660690Y08022290I00034478J00032994D01*
G01X28236080D01*
X28076090Y08182280D01*
X27413910D01*
G37*
G36*
G01X20982720Y06749980D02*
G02X20935000Y06702260I-00047725J00000005D01*
G01X20845000D01*
G02X20797280Y06749980I00000005J00047725D01*
G01Y06830000D01*
G02X20810520Y06862980I00047722J-00000011D01*
G03Y06877020I-00007344J00007020D01*
G02X20797280Y06910000I00034482J00032991D01*
G01Y06990020D01*
G02X20801800Y07010280I00047722J-00000013D01*
G01X20802280Y07011300D01*
Y07039950D01*
X20802020Y07040730D01*
G02X20980550Y07050060I00087979J00029270D01*
G03X20990470Y07037720I00009923J-00002180D01*
G01X21027280D01*
Y07150000D01*
G02X21075000Y07197720I00047720J0D01*
G01X21295000D01*
G02X21342720Y07150000I0J-00047720D01*
G01Y06750000D01*
G02X21295000Y06702280I-00047720J0D01*
G01X21075000D01*
G02X21027280Y06750000I0J00047720D01*
G01Y06862280D01*
X20988480D01*
G03X20979090Y06848240I-00000001J-00010160D01*
G02X20982720Y06830000I-00044092J-00018256D01*
G01Y06749980D01*
G37*
G36*
G01X27470550Y05745550D02*
X27376220Y05839870D01*
Y07135130D01*
X27452280Y07211190D01*
Y07520000D01*
G02X27500000Y07567720I00047720J0D01*
G01X28000000D01*
G02X28047720Y07520000I0J-00047720D01*
G01Y07080000D01*
G02X28000000Y07032280I-00047720J0D01*
G01X27691190D01*
X27671660Y07012750D01*
Y05962250D01*
X27679450Y05954450D01*
G02X27470550Y05745550I-00104450J-00104450D01*
G37*
G36*
G01X24297280Y05670000D02*
Y05692640D01*
X24289160D01*
X24287720Y05689950D01*
G02Y05810050I-00112720J00060050D01*
G01X24289160Y05807360D01*
X24297280D01*
Y05830000D01*
G02X24345000Y05877720I00047725J-00000005D01*
G01X24505000D01*
G02X24552720Y05830000I-00000005J-00047725D01*
G01Y05670000D01*
G02X24505000Y05622280I-00047725J00000005D01*
G01X24345000D01*
G02X24297280Y05670000I00000005J00047725D01*
G37*
G36*
G01X23547280D02*
Y05692640D01*
X23539160D01*
X23537720Y05689950D01*
G02Y05810050I-00112720J00060050D01*
G01X23539160Y05807360D01*
X23547280D01*
Y05830000D01*
G02X23595000Y05877720I00047725J-00000005D01*
G01X23755000D01*
G02X23802720Y05830000I-00000005J-00047725D01*
G01Y05670000D01*
G02X23755000Y05622280I-00047725J00000005D01*
G01X23595000D01*
G02X23547280Y05670000I00000005J00047725D01*
G37*
G36*
G01X22797280D02*
Y05692640D01*
X22789160D01*
X22787720Y05689950D01*
G02Y05810050I-00112720J00060050D01*
G01X22789160Y05807360D01*
X22797280D01*
Y05830000D01*
G02X22845000Y05877720I00047725J-00000005D01*
G01X23005000D01*
G02X23052720Y05830000I-00000005J-00047725D01*
G01Y05670000D01*
G02X23005000Y05622280I-00047725J00000005D01*
G01X22845000D01*
G02X22797280Y05670000I00000005J00047725D01*
G37*
G36*
G01X25811090Y06135060D02*
X25807720Y06133850D01*
Y05827840D01*
X25812050Y05827190D01*
G02X25852720Y05780000I-00007051J-00047198D01*
G01Y05620000D01*
G02X25805000Y05572280I-00047725J00000005D01*
G01X25645000D01*
G02X25597280Y05620000I00000005J00047725D01*
G01Y05642640D01*
X25589160D01*
X25587720Y05639950D01*
G02Y05760050I-00112720J00060050D01*
G01X25589160Y05757360D01*
X25597280D01*
Y05780000D01*
G02X25645000Y05827720I00047725J-00000005D01*
G01X25672280D01*
Y06145250D01*
G02X25657280Y06179980I00032723J00034737D01*
G01Y06186940D01*
X25651390Y06192840D01*
G03X25642720Y06189250I-00003592J-00003590D01*
G01Y06179980D01*
G02X25595000Y06132260I-00047725J00000005D01*
G01X25505000D01*
G02X25457280Y06179980I00000005J00047725D01*
G01Y06260000D01*
G02X25470520Y06292980I00047722J-00000011D01*
G03Y06307020I-00007344J00007020D01*
G02X25457280Y06340000I00034482J00032991D01*
G01Y06420020D01*
G02X25505000Y06467740I00047725J-00000005D01*
G01X25595000D01*
G02X25642720Y06420020I-00000005J-00047725D01*
G01Y06393060D01*
X25648610Y06387160D01*
G03X25657280Y06390750I00003592J00003590D01*
G01Y06420020D01*
G02X25661800Y06440280I00047722J-00000013D01*
G01X25662280Y06441300D01*
Y07389440D01*
G02X25827050Y07471940I00077725J00050557D01*
G02X25837720Y07430000I-00077052J-00041930D01*
G01Y06607720D01*
X26476330D01*
X26637720Y06446330D01*
Y06441300D01*
X26638200Y06440280D01*
G02X26642720Y06420020I-00043202J-00020273D01*
G01Y06340000D01*
G02X26629480Y06307020I-00047722J00000011D01*
G03Y06292980I00007344J-00007020D01*
G02X26642720Y06260000I-00034482J-00032991D01*
G01Y05827720D01*
X26655000D01*
G02X26702720Y05780000I-00000005J-00047725D01*
G01Y05620000D01*
G02X26655000Y05572280I-00047725J00000005D01*
G01X26495000D01*
G02X26447280Y05620000I00000005J00047725D01*
G01Y05642640D01*
X26439160D01*
X26437720Y05639950D01*
G02Y05760050I-00112720J00060050D01*
G01X26439160Y05757360D01*
X26447280D01*
Y05780000D01*
G02X26495000Y05827720I00047725J-00000005D01*
G01X26507280D01*
Y06127260D01*
G03X26502470Y06132330I-00005079J-00000002D01*
G02X26457280Y06179980I00002532J00047655D01*
G01Y06196940D01*
X26451390Y06202840D01*
G03X26442720Y06199250I-00003592J-00003590D01*
G01Y06179980D01*
G02X26395000Y06132260I-00047725J00000005D01*
G01X26305000D01*
G02X26257280Y06179980I00000005J00047725D01*
G01Y06260000D01*
G02X26270520Y06292980I00047722J-00000011D01*
G03Y06307020I-00007344J00007020D01*
G02X26257280Y06340000I00034482J00032991D01*
G01Y06420020D01*
G02X26257320Y06421750I00047720J-00000238D01*
G03X26247160Y06432280I-00010154J00000369D01*
G01X25852840D01*
G03X25842680Y06421750I-00000006J-00010161D01*
G02X25842720Y06420020I-00047680J-00001968D01*
G01Y06340000D01*
G02X25829480Y06307020I-00047722J00000011D01*
G03Y06292980I00007344J-00007020D01*
G02X25842720Y06260000I-00034482J-00032991D01*
G01Y06179980D01*
G02X25811090Y06135060I-00047722J00000007D01*
G37*
G36*
G01X29040230Y05362280D02*
X28932280Y05470230D01*
Y05725530D01*
G03X28915870Y05733540I-00010161J-00000002D01*
G02X28698180Y05774240I-00090876J00116460D01*
G02X28626220Y05901060I00075772J00126820D01*
G01Y07185130D01*
X28652280Y07211190D01*
Y07520000D01*
G02X28700000Y07567720I00047720J0D01*
G01X29200000D01*
G02X29247720Y07520000I0J-00047720D01*
G01Y07080000D01*
G02X29200000Y07032280I-00047720J0D01*
G01X28921660D01*
Y05961710D01*
G02X28957910Y05914470I-00096664J-00111704D01*
G03X28974230Y05911720I00009139J00004435D01*
G01X29030990Y05968480D01*
X29031380Y05969340D01*
G02X29042280Y05984740I00043631J-00019324D01*
G01Y06749770D01*
X29088340Y06795820D01*
Y06800000D01*
G02X29136060Y06847720I00047720J0D01*
G01X29140230D01*
X29210230Y06917720D01*
X29429770D01*
X29557720Y06789770D01*
Y05480230D01*
X29439770Y05362280D01*
X29040230D01*
G37*
G36*
G01X28347720Y05410230D02*
X28289770Y05352280D01*
X27810230D01*
X27752280Y05410230D01*
Y06739770D01*
X27870230Y06857720D01*
X27905650D01*
X27906620Y06858150D01*
G02X28046460Y06857720I00069434J-00158150D01*
G01X28229770D01*
X28347720Y06739770D01*
Y05410230D01*
G37*
G36*
G01X19807280Y14120000D02*
Y14280000D01*
G02X19855000Y14327720I00047720J0D01*
G01X20205000D01*
G02X20252720Y14280000I0J-00047720D01*
G01Y14120000D01*
G02X20205000Y14072280I-00047720J0D01*
G01X19855000D01*
G02X19807280Y14120000I0J00047720D01*
G37*
G36*
G01X19633480Y08426200D02*
Y08776200D01*
G02X19681200Y08823920I00047720J0D01*
G01X19841200D01*
G02X19888920Y08776200I0J-00047720D01*
G01Y08426200D01*
G02X19841200Y08378480I-00047720J0D01*
G01X19681200D01*
G02X19633480Y08426200I0J00047720D01*
G37*
G36*
G01X20347280Y14120000D02*
Y14280000D01*
G02X20395000Y14327720I00047720J0D01*
G01X20745000D01*
G02X20792720Y14280000I0J-00047720D01*
G01Y14120000D01*
G02X20745000Y14072280I-00047720J0D01*
G01X20395000D01*
G02X20347280Y14120000I0J00047720D01*
G37*
G36*
G01X22947280Y14170000D02*
Y14330000D01*
G02X22995000Y14377720I00047720J0D01*
G01X23345000D01*
G02X23392720Y14330000I0J-00047720D01*
G01Y14170000D01*
G02X23345000Y14122280I-00047720J0D01*
G01X22995000D01*
G02X22947280Y14170000I0J00047720D01*
G37*
G36*
G01X24182280Y07935000D02*
Y08235000D01*
G02X24230000Y08282720I00047720J0D01*
G01X24770000D01*
G02X24817720Y08235000I0J-00047720D01*
G01Y07935000D01*
G02X24770000Y07887280I-00047720J0D01*
G01X24230000D01*
G02X24182280Y07935000I0J00047720D01*
G37*
G36*
G01X25472280Y09955000D02*
Y10305000D01*
G02X25520000Y10352720I00047720J0D01*
G01X25680000D01*
G02X25727720Y10305000I0J-00047720D01*
G01Y09955000D01*
G02X25680000Y09907280I-00047720J0D01*
G01X25520000D01*
G02X25472280Y09955000I0J00047720D01*
G37*
G36*
G01X24672280D02*
Y10305000D01*
G02X24720000Y10352720I00047720J0D01*
G01X24880000D01*
G02X24927720Y10305000I0J-00047720D01*
G01Y09955000D01*
G02X24880000Y09907280I-00047720J0D01*
G01X24720000D01*
G02X24672280Y09955000I0J00047720D01*
G37*
G36*
G01X25547280Y14120000D02*
Y14280000D01*
G02X25595000Y14327720I00047720J0D01*
G01X25945000D01*
G02X25992720Y14280000I0J-00047720D01*
G01Y14120000D01*
G02X25945000Y14072280I-00047720J0D01*
G01X25595000D01*
G02X25547280Y14120000I0J00047720D01*
G37*
G36*
G01X27743190Y11885380D02*
G03Y11869620I00006408J-00007880D01*
G02X27556810I-00093190J-00114620D01*
G03Y11885380I-00006408J00007880D01*
G02X27743190I00093190J00114620D01*
G37*
G36*
G01X28994280Y12487000D02*
Y12713000D01*
G02X29042000Y12760720I00047720J0D01*
G01X29258000D01*
G02X29305720Y12713000I0J-00047720D01*
G01Y12487000D01*
G02X29258000Y12439280I-00047720J0D01*
G01X29042000D01*
G02X28994280Y12487000I0J00047720D01*
G37*
G36*
G01X29484280D02*
Y12713000D01*
G02X29532000Y12760720I00047720J0D01*
G01X29748000D01*
G02X29795720Y12713000I0J-00047720D01*
G01Y12487000D01*
G02X29748000Y12439280I-00047720J0D01*
G01X29532000D01*
G02X29484280Y12487000I0J00047720D01*
G37*
G54D67*
X16750000Y05700000D03*
Y14700000D03*
X30250000Y05700000D03*
Y14700000D03*
G54D68*
X28710000Y13830000D03*
Y13330000D03*
G54D69*
X29450000Y08745000D03*
X30300000D03*
%LPD*%
G75*
G36*
G01X27800000Y06720000D02*
X27890000Y06810000D01*
X28210000D01*
X28300000Y06720000D01*
Y05430000D01*
X28270000Y05400000D01*
X27830000D01*
X27800000Y05430000D01*
Y06720000D01*
G37*
G36*
G01X29080000Y05950000D02*
X29090000D01*
Y06730000D01*
X29230000Y06870000D01*
X29410000D01*
X29510000Y06770000D01*
Y05500000D01*
X29420000Y05410000D01*
X29060000D01*
X28980000Y05490000D01*
Y05850000D01*
X29080000Y05950000D01*
G37*
G54D10*
X16750000Y05700000D03*
Y14700000D03*
X30250000Y05700000D03*
Y14700000D03*
G54D20*
X18250000Y07068790D03*
X18450000D03*
X18250000Y07228810D03*
X18450000D03*
X18350000Y08478810D03*
Y08318790D03*
X18500000D03*
Y08478810D03*
X18250000Y09828810D03*
Y09668790D03*
X18450000D03*
Y09828810D03*
X18350000Y11078810D03*
Y10918790D03*
X18500000D03*
Y11078810D03*
X18600000Y07068790D03*
Y07228810D03*
X18650000Y08478810D03*
Y08318790D03*
X18800000Y08478810D03*
Y08318790D03*
X18600000Y09828810D03*
Y09668790D03*
X18650000Y11078810D03*
Y10918790D03*
X18800000Y11078810D03*
Y10918790D03*
X20173200Y09360390D03*
Y09520410D03*
X20890000Y06789990D03*
Y06950010D03*
X20780000Y08300010D03*
Y08139990D03*
X21490000Y12469990D03*
X21340000D03*
X21190000D03*
X21040000D03*
X21490000Y12630010D03*
X21340000D03*
X21190000D03*
X21040000D03*
X21130000Y13679990D03*
Y13840010D03*
X22100000Y07879990D03*
Y08040010D03*
X21590000Y13679990D03*
Y13840010D03*
X22483200Y09360410D03*
Y09200390D03*
X23403200Y09610390D03*
Y09770410D03*
X23553200Y09769140D03*
Y09609120D03*
X23850000Y12469990D03*
X23700000D03*
X23850000Y12630010D03*
X23700000D03*
X23730000Y13669990D03*
Y13830010D03*
X24150000Y12469990D03*
X24000000D03*
X24150000Y12630010D03*
X24000000D03*
X24190000Y13669990D03*
Y13830010D03*
X25550000Y06219990D03*
Y06380010D03*
X25750000Y06219990D03*
Y06380010D03*
X26300000Y12439990D03*
Y12600010D03*
X26550000Y06219990D03*
Y06380010D03*
X26350000Y06219990D03*
Y06380010D03*
X26460000Y12439990D03*
X26620000D03*
X26780000D03*
X26460000Y12600010D03*
X26620000D03*
X26780000D03*
X26320000Y13629990D03*
X26780000D03*
X26320000Y13790010D03*
X26780000D03*
X27200000Y10069990D03*
Y10230010D03*
X27550000Y07919990D03*
Y08080010D03*
X27750000Y07919990D03*
Y08080010D03*
X27950000Y07919990D03*
Y08080010D03*
X27580000Y10559990D03*
X27750000D03*
X27900000D03*
X28050000D03*
X27580000Y10720010D03*
X27750000D03*
X27900000D03*
X28050000D03*
X28750000Y07919990D03*
Y08080010D03*
X28950000Y07919990D03*
Y08080010D03*
X29150000Y07919990D03*
Y08080010D03*
X29080000Y10539990D03*
Y10320010D03*
Y10159990D03*
Y10700010D03*
G54D11*
X16462400Y12652400D03*
X17100000Y09770000D03*
X17650000Y07170000D03*
X17500000D03*
X17650000Y09770000D03*
X17500000D03*
X18170000Y08660000D03*
X19081200Y07591200D03*
Y07898800D03*
X19180410Y09520820D03*
X19900000Y08000000D03*
X20059590Y09520410D03*
X20890000Y07070000D03*
X20780000Y08000000D03*
X20570000Y14070000D03*
X20590000Y14390000D03*
X20750000D03*
X21140000Y12200000D03*
X21819990Y12200010D03*
X22483200Y09023200D03*
X23170000Y14070000D03*
X23190000Y14430000D03*
X23320000Y11040000D03*
X23350000Y14430000D03*
X24320000Y07440000D03*
X24360000Y08750000D03*
X23980000Y12200000D03*
X24419990D03*
X24560000Y08750000D03*
X24760000D03*
X25610000Y14390000D03*
X25740000Y07440000D03*
X26100000Y08760000D03*
Y08350000D03*
Y09180000D03*
X25770000Y14070000D03*
X25950000Y14390000D03*
X25790000D03*
X26700000Y08760000D03*
X26400000D03*
X26700000Y08350000D03*
X26400000D03*
Y09180000D03*
X26700000D03*
X26460000Y12200000D03*
G54D12*
X17300000Y06630000D03*
Y07170000D03*
Y09230000D03*
Y09770000D03*
X19761200Y08061200D03*
Y08601200D03*
X24800000Y10130000D03*
Y10670000D03*
X25600000Y10130000D03*
Y10670000D03*
G54D30*
X20704140Y13400000D03*
X20493320D03*
X20706680Y13668580D03*
X20493320D03*
X21945860Y13400000D03*
X22156680D03*
X23304140D03*
X23093320D03*
X23306680Y13618580D03*
X23093320D03*
X24535860Y13400000D03*
X24746680D03*
X25693320D03*
Y13668580D03*
X25904140Y13400000D03*
X25906680Y13668580D03*
X27035860Y13290000D03*
X27246680D03*
G54D21*
X18300000Y07798800D03*
Y10398800D03*
G54D31*
X21273940Y06250000D03*
X21726060D03*
X24073940Y09600000D03*
X24526060D03*
X27523940Y06700000D03*
X27023940Y11300000D03*
X27476060D03*
X27976060Y06700000D03*
X27923940Y11300000D03*
X28376060D03*
X28773940Y06700000D03*
X29226060D03*
G54D40*
X25430000Y08409600D03*
Y08579800D03*
Y08750000D03*
Y08920200D03*
Y09090400D03*
G54D13*
X17110000Y06490000D03*
Y06620000D03*
Y06750000D03*
Y09200000D03*
Y09070000D03*
Y09330000D03*
X17140000Y11710000D03*
X16910000D03*
X16920000Y13510000D03*
X16930000Y13140000D03*
X17490000Y06500000D03*
Y06620000D03*
Y06760000D03*
X17560000Y07550000D03*
X17880000D03*
X17560000Y08120000D03*
X17900000Y08050000D03*
X17560000Y08670000D03*
X17840000Y09410000D03*
X17490000Y09080000D03*
Y09200000D03*
Y09340000D03*
X17560000Y10150000D03*
X17900000Y10650000D03*
X17880000Y10150000D03*
X17560000Y11270000D03*
Y10720000D03*
X17470000Y13460000D03*
X17720000Y13450000D03*
X18290000Y05890000D03*
X18270000Y06400000D03*
X18120000Y07290000D03*
X18140000Y08370000D03*
X18200000Y09160000D03*
X18050000Y09420000D03*
X18120000Y09890000D03*
X18140000Y10970000D03*
X18360000Y11330000D03*
X18760000Y05890000D03*
X18770000Y06400000D03*
X18701210Y07068790D03*
X18980000Y07400000D03*
X18670000D03*
X18821200Y08838800D03*
X18840000Y09170000D03*
X18550000Y09160000D03*
X18860000Y09870000D03*
X19030000Y09880000D03*
X18681210Y09668790D03*
X19060000Y10480000D03*
X18760000Y11270000D03*
X19260000Y05890000D03*
X19240000Y06400000D03*
X19581200Y08601200D03*
X19480000Y09250000D03*
X19490000Y08990000D03*
X19460000Y10090000D03*
Y09860000D03*
X19250000Y11190000D03*
X19480000Y10780000D03*
X19180000Y11050000D03*
X20173200Y08606800D03*
X19761200Y08838800D03*
X19918800Y08601200D03*
X20170000Y09200000D03*
X20050000Y10030000D03*
X19830000Y10270000D03*
X20160000Y14000000D03*
X19900000D03*
X20030000D03*
X20150000Y14380000D03*
X19890000D03*
X20030000D03*
X20470000Y07550000D03*
X20520000Y08300000D03*
X20470000Y07760000D03*
X20580000Y08640000D03*
X20400000Y12240000D03*
X20569990Y12740010D03*
X20811420Y13668580D03*
X20710000Y13560000D03*
X20810000Y13400000D03*
X20706680Y13766680D03*
X20930000Y06120000D03*
Y06550000D03*
X21220000Y07540000D03*
X21460000D03*
X20920000Y07550000D03*
X21140010Y08200010D03*
X21140000Y08380000D03*
X21480000Y09360000D03*
X21150000Y09330000D03*
Y08990000D03*
Y09650000D03*
X21338190Y10858190D03*
X21220000Y11550000D03*
X21100000Y13590000D03*
X21130000Y13950000D03*
X22019990Y08200010D03*
X21600000Y10040000D03*
X22030000Y10600000D03*
X22060000Y10330000D03*
X22040000Y10850000D03*
X21821810Y10858190D03*
X21660000Y11550000D03*
X22080000Y11540000D03*
X22090000Y12800000D03*
X21820000Y12720000D03*
X22070000Y12950000D03*
X22090000Y13100000D03*
X21580000Y13540000D03*
X21850000Y13400000D03*
X21590000Y13950000D03*
X22170000Y05670000D03*
X22150000Y06240000D03*
X22160000Y05970000D03*
X22330000Y07700000D03*
X22340000Y07450000D03*
X22300000Y08170000D03*
X22320000Y08690000D03*
X22300000Y08380000D03*
X22580000Y09350000D03*
X22680000Y13050000D03*
Y12720000D03*
X22500000Y14050000D03*
X22630000D03*
X22160000Y13950000D03*
X22490000Y14430000D03*
X22630000D03*
X22980000Y08240000D03*
Y08110000D03*
Y08370000D03*
X22830000Y09350000D03*
X22913190Y09966810D03*
X22980000Y11790000D03*
X22810000Y12030000D03*
X22900000Y12200000D03*
X23169990Y12759990D03*
X22910000Y13610000D03*
Y13390000D03*
X22760000Y14050000D03*
X22750000Y14430000D03*
X23770000Y07230000D03*
X23360000Y08240000D03*
Y08120000D03*
Y08380000D03*
X23730000Y11270000D03*
Y11580000D03*
X23560000Y12460000D03*
X23700000Y12360000D03*
X23730000Y11980000D03*
X23340000Y12690000D03*
X23530000D03*
X23411420Y13668580D03*
X23700000Y13570000D03*
X23420000Y13400000D03*
X23730000Y13920000D03*
X23306680Y13766680D03*
X23990000Y08880000D03*
Y08650000D03*
Y09090000D03*
X23980000Y09240000D03*
X24390000Y10080000D03*
X24250000Y09670000D03*
X24210000Y11200000D03*
Y11600000D03*
X24290000Y12470000D03*
X24210000Y12000000D03*
X24420000Y12720000D03*
X24180000Y13540000D03*
X24440000Y13380000D03*
X24190000Y13920000D03*
X24970000Y05550000D03*
X24960000Y06280000D03*
Y05920000D03*
X25000000Y10550000D03*
Y10670000D03*
X24620000D03*
Y10540000D03*
X25000000Y10810000D03*
X24620000Y10800000D03*
X24860000Y11600000D03*
Y11470000D03*
Y11730000D03*
X24810000Y12450000D03*
X24650000D03*
X24670000Y12950000D03*
X24750000Y13600000D03*
X24740000Y13240000D03*
X24900000Y13400000D03*
X24580000Y13240000D03*
X24760000Y13920000D03*
X25090000Y14380000D03*
X25390000Y06220000D03*
X25550000Y06050000D03*
X25440000Y07700000D03*
X25170000D03*
X25580000Y07220000D03*
X25410000Y07340000D03*
X25420000Y10660000D03*
Y10530000D03*
Y10790000D03*
X25620000Y11600000D03*
Y11470000D03*
Y11730000D03*
X25240000Y11480000D03*
Y11600000D03*
Y11740000D03*
X25420000Y12200000D03*
X25190000Y12630000D03*
X25490000Y13670000D03*
X25180000Y13630000D03*
X25500000Y13400000D03*
X25190000Y13130000D03*
X25230000Y14000000D03*
X25360000D03*
X25100000D03*
X25350000Y14380000D03*
X25230000D03*
X26160000Y06210000D03*
X26080000Y07440000D03*
Y07310000D03*
Y07180000D03*
X26190000Y09660000D03*
X25800000Y10540000D03*
Y10660000D03*
Y10800000D03*
X26000000Y11480000D03*
Y11600000D03*
Y11740000D03*
X25840000Y12460000D03*
X26070000Y12450000D03*
X25769990Y12749990D03*
X25700000Y13530000D03*
X26020000Y13400000D03*
X25906680Y13573320D03*
X26290000Y13540000D03*
X26011420Y13668580D03*
X25906680Y13766680D03*
X26350000Y06050000D03*
X26460000Y07450000D03*
X26780000Y07440000D03*
X26460000Y07190000D03*
Y07310000D03*
X26780000D03*
Y07180000D03*
X26750000Y09700000D03*
X26620000Y12340000D03*
X26300000D03*
X26780000Y13540000D03*
X26320000Y13900000D03*
X26780000D03*
X27100000Y05570000D03*
X27090000Y05940000D03*
Y06300000D03*
X27160000Y07450000D03*
Y07190000D03*
Y07310000D03*
X27350000Y08760000D03*
Y08630000D03*
Y08890000D03*
X27200000Y09890000D03*
Y10410000D03*
X27020000Y11050000D03*
X27200000Y10740000D03*
X27030000Y11510000D03*
X27210000Y11300000D03*
X27190000Y12220000D03*
X27200000Y11970000D03*
X27310000Y12790000D03*
X26940000Y13290000D03*
X27250000Y13900000D03*
X27730000Y08900000D03*
Y08640000D03*
Y08760000D03*
Y10010000D03*
X27570000D03*
X27650000Y10110000D03*
X27730000Y10190000D03*
X27560000D03*
X27860000Y11100000D03*
X27580000Y10840000D03*
X27750000Y10830000D03*
X28060000Y11710000D03*
X27800000Y11300000D03*
X27900000Y14760000D03*
Y15010000D03*
X28500000Y05670000D03*
X28490000Y06040000D03*
Y06400000D03*
X28440000Y06990000D03*
X28430000Y07360000D03*
Y07720000D03*
X28800000Y08560000D03*
X29070000Y08550000D03*
X28790000Y08930000D03*
Y09290000D03*
X29060000Y08920000D03*
Y09280000D03*
X29080000Y10780000D03*
X29140000Y12190000D03*
Y12020000D03*
X28770000Y14060000D03*
X29030000D03*
X28760000Y14430000D03*
Y14790000D03*
X29020000Y14430000D03*
Y14790000D03*
X29570000Y07400000D03*
X29560000Y07770000D03*
Y08130000D03*
X29300000Y07910000D03*
X29690000Y11840000D03*
X29680000Y11640000D03*
X29500000Y11630000D03*
X29490000Y11840000D03*
X29320000Y12020000D03*
X29570000Y12050000D03*
X29670000Y12200000D03*
Y12840000D03*
Y13000000D03*
Y13350000D03*
Y13700000D03*
Y14050000D03*
X29728800Y14451200D03*
Y15060800D03*
X30470000Y06250000D03*
X30120000D03*
X30470000Y06600000D03*
X30120000D03*
X30470000Y06900000D03*
X30120000D03*
X30470000Y07250000D03*
X30120000D03*
X30470000Y07700000D03*
X30120000D03*
X30470000Y08050000D03*
X30120000D03*
X29910000Y12600000D03*
X30070000Y13000000D03*
X30420000D03*
X30070000Y13350000D03*
X30420000D03*
X30070000Y13700000D03*
X30420000D03*
Y14050000D03*
X30070000D03*
G54D22*
X18050000Y07648800D03*
Y07698800D03*
Y07748800D03*
Y07798800D03*
Y07848800D03*
Y07898800D03*
Y07948800D03*
Y10248800D03*
Y10298800D03*
Y10348800D03*
Y10398800D03*
Y10448800D03*
Y10498800D03*
Y10548800D03*
X18550000Y07648800D03*
Y07948800D03*
Y07898800D03*
Y07848800D03*
Y07798800D03*
Y07748800D03*
Y07698800D03*
Y10548800D03*
Y10498800D03*
Y10448800D03*
Y10398800D03*
Y10348800D03*
Y10298800D03*
Y10248800D03*
X21050000Y13000000D03*
Y13050000D03*
Y13100000D03*
Y13150000D03*
Y13200000D03*
Y13250000D03*
Y13300000D03*
X21550000Y13050000D03*
Y13000000D03*
Y13300000D03*
Y13250000D03*
Y13200000D03*
Y13150000D03*
Y13100000D03*
X23650000Y13000000D03*
Y13050000D03*
Y13100000D03*
Y13150000D03*
Y13200000D03*
Y13250000D03*
Y13300000D03*
X24150000Y13050000D03*
Y13000000D03*
Y13300000D03*
Y13250000D03*
Y13200000D03*
Y13150000D03*
Y13100000D03*
X26250000Y13000000D03*
Y13050000D03*
Y13100000D03*
Y13150000D03*
Y13200000D03*
Y13250000D03*
Y13300000D03*
X26750000Y13050000D03*
Y13000000D03*
Y13300000D03*
Y13250000D03*
Y13200000D03*
Y13150000D03*
Y13100000D03*
G54D14*
X16900000Y07573800D03*
Y08073800D03*
Y07823800D03*
Y10223800D03*
Y10723800D03*
Y10473800D03*
X21375000Y05700000D03*
X21025000Y14550000D03*
X21525000D03*
X21275000D03*
X22675000Y05750000D03*
X23425000D03*
X23723000Y10824000D03*
X23625000Y14550000D03*
X23875000D03*
X24175000Y05750000D03*
X24125000Y14550000D03*
X25475000Y05700000D03*
X26325000D03*
X26225000Y14550000D03*
X26725000D03*
X26475000D03*
X28161800Y14556800D03*
X29275000Y14600000D03*
X29540300Y11214980D03*
X29740300D03*
X29540300Y11465020D03*
X29740300D03*
G54D50*
X29150000Y12600000D03*
X29640000D03*
G54D32*
X21185000Y06950000D03*
G54D41*
X26427500Y08750000D03*
G54D23*
X18450000Y07548800D03*
X18400000D03*
X18350000D03*
X18300000D03*
X18250000D03*
X18200000D03*
X18150000D03*
Y08048800D03*
X18200000D03*
X18250000D03*
X18300000D03*
X18350000D03*
X18400000D03*
X18450000D03*
X18150000Y10648800D03*
X18200000D03*
X18250000D03*
X18300000D03*
X18350000D03*
X18400000D03*
X18450000D03*
Y10148800D03*
X18400000D03*
X18350000D03*
X18300000D03*
X18250000D03*
X18200000D03*
X18150000D03*
X21450000Y12900000D03*
X21400000D03*
X21350000D03*
X21300000D03*
X21250000D03*
X21200000D03*
X21150000D03*
Y13400000D03*
X21200000D03*
X21250000D03*
X21300000D03*
X21350000D03*
X21400000D03*
X21450000D03*
X23850000Y12900000D03*
X23800000D03*
X23750000D03*
Y13400000D03*
X23800000D03*
X23850000D03*
X24050000Y12900000D03*
X24000000D03*
X23950000D03*
X23900000D03*
Y13400000D03*
X23950000D03*
X24000000D03*
X24050000D03*
X26650000Y12900000D03*
X26600000D03*
X26550000D03*
X26500000D03*
X26450000D03*
X26400000D03*
X26350000D03*
Y13400000D03*
X26400000D03*
X26450000D03*
X26500000D03*
X26550000D03*
X26600000D03*
X26650000D03*
G54D60*
G01X-00050000Y0D02*
X0D01*
Y-00050000D01*
G01Y00050000D02*
Y0D01*
X00050000D01*
G54D15*
X16900000Y08323800D03*
Y10973800D03*
X21625000Y05700000D03*
X21775000Y14550000D03*
X22925000Y05750000D03*
X23675000D03*
X24425000D03*
X24375000Y14550000D03*
X25725000Y05700000D03*
X26575000D03*
X26975000Y14550000D03*
X28411800Y14556800D03*
X29525000Y14600000D03*
G54D51*
X29450000Y08745000D03*
X29950000Y09270000D03*
X29590000Y09230000D03*
X29950000Y09770000D03*
X29590000Y09810000D03*
X29450000Y10295000D03*
X30300000Y08745000D03*
X30500000Y09520000D03*
X30300000Y10295000D03*
G54D33*
X21118210Y11140400D03*
X22038190D03*
G54D42*
X26550000Y11273940D03*
Y11726060D03*
G54D24*
X18300000Y07698800D03*
X18200000D03*
X18400000D03*
X18260000Y07300000D03*
X17937470Y07660000D03*
X18300000Y07798800D03*
Y07898800D03*
X18200000Y07798800D03*
Y07898800D03*
X18400000D03*
Y07798800D03*
X18450000Y08200000D03*
X18260000Y08220000D03*
X17940000Y07930000D03*
X18240000Y09940000D03*
X18300000Y10398800D03*
Y10498800D03*
Y10298800D03*
X18200000D03*
Y10398800D03*
Y10498800D03*
X18400000D03*
Y10398800D03*
Y10298800D03*
X17937470Y10260000D03*
X17940000Y10530000D03*
X18250000Y10790000D03*
X18420000Y10780000D03*
X19680000Y09140000D03*
X19160000Y11540000D03*
X19140000Y13320000D03*
X19520000Y13400000D03*
X19380000Y13320000D03*
X19500000Y14620000D03*
Y14440000D03*
X19460000Y14720000D03*
X19560000Y14520000D03*
X20170000Y06930210D03*
X20080420Y06850000D03*
X19980000Y06770000D03*
X20265240Y07620000D03*
X20080000Y10370000D03*
X20150000Y10210000D03*
X20310000Y11620000D03*
X19760000Y12920000D03*
X20190000Y12570000D03*
X19920000Y13520000D03*
X20320000Y08280000D03*
X20380000Y08500000D03*
X20877720Y09820000D03*
X20796180Y09781120D03*
X20753200Y09540000D03*
X20680000Y11840000D03*
X20880000Y11340000D03*
X20640000Y12300000D03*
X21407960Y09960000D03*
X21200000Y13050000D03*
X21300000D03*
X21400000D03*
Y13250000D03*
X21300000D03*
X21200000D03*
Y13150000D03*
X21400000D03*
X21300000D03*
X21460000Y13550000D03*
X21180000Y13520000D03*
X21710000Y07600000D03*
X21840000D03*
X22020000Y08410000D03*
X22000000Y08560000D03*
X21903210Y09084790D03*
X21970000Y09460000D03*
X21580000Y08960000D03*
X21880000Y09710000D03*
X21753200Y09550000D03*
X21880000Y10020000D03*
X21830000Y09520000D03*
X21820000Y10440000D03*
X22153200Y08780000D03*
X22400000Y09454320D03*
X22329610Y09090390D03*
X22700000Y09220000D03*
X22360000Y09520000D03*
X22600000Y10460000D03*
X22640000Y11560000D03*
X23160000Y09360000D03*
X22840000Y10570000D03*
X23080000Y10140000D03*
X22860000Y10860000D03*
Y11780000D03*
X23020000Y11580000D03*
X22750000Y11600000D03*
X23100000Y12440000D03*
X23220000Y12400000D03*
X23520000Y09100000D03*
X23580000Y09020000D03*
X23560000Y10040000D03*
X23400000Y09840000D03*
X23800000Y13050000D03*
Y13150000D03*
Y13250000D03*
X23780000Y13520000D03*
X24080000Y09950000D03*
X24410000Y10280000D03*
X24000000Y13050000D03*
X23900000D03*
Y13150000D03*
X24000000D03*
X23900000Y13250000D03*
X24000000D03*
X24300000Y13200000D03*
X24050050Y13529920D03*
X25550000Y12400000D03*
X26350000Y09930000D03*
X26600000Y13050000D03*
X26500000D03*
X26400000D03*
X26500000Y13150000D03*
X26600000D03*
X26400000D03*
Y13250000D03*
X26500000D03*
X26600000D03*
X26860000Y13200000D03*
X26380000Y13520000D03*
X26650000Y13530000D03*
X27400000Y08060000D03*
X27300000Y08150000D03*
X26920000Y13020000D03*
X27740000Y09760000D03*
X27580000Y09740000D03*
X27640000Y09640000D03*
G54D61*
G01X18946000Y14329600D02*
Y14424000D01*
X18840000Y14530000D01*
X17870000D01*
X17129980Y13789980D01*
Y12040020D01*
X17480000Y11690000D01*
X18550000D01*
X19180000Y11060000D01*
Y11050000D01*
G01Y09540410D02*
X18292290D01*
X18250000Y09582700D01*
Y09668790D01*
G01X18980010Y07750000D02*
X19180000D01*
G01Y08048800D02*
X18980010D01*
G01X18650000Y08318790D02*
X18800000D01*
G01D02*
X19178790D01*
X19180000Y08320000D01*
G01X18980010Y10320000D02*
X19160000D01*
X19180000Y10300000D01*
G01Y10640000D02*
X18980010D01*
G01X18650000Y10918790D02*
X18800000D01*
G01D02*
X19168790D01*
X19180000Y10930000D01*
G01X19761200Y08061200D02*
X19748800Y08048800D01*
X19180000D01*
G01D02*
Y08320000D01*
G01Y08048800D02*
Y07750000D01*
G01Y08320000D02*
Y09520410D01*
G01Y09540410D02*
Y09520410D01*
G01D02*
X19180410Y09520820D01*
G01X19180000Y10300000D02*
Y09540410D01*
G01Y10300000D02*
Y10640000D01*
G01Y10930000D02*
Y10640000D01*
G01Y10930000D02*
Y11050000D01*
G01X19900000Y08000000D02*
X19838800Y08061200D01*
X19761200D01*
G01X20173200Y09520410D02*
X20059590D01*
G01X21185000Y06950000D02*
X20930010D01*
X20890000Y06950010D01*
G01D02*
Y07070000D01*
G01X20780000Y08139990D02*
Y08000000D01*
G01Y08139990D02*
X20780010Y08140000D01*
X20920000D01*
X20979990Y08199990D01*
Y08300000D01*
G01X21275000Y14550000D02*
X21260000Y14535000D01*
Y13621100D01*
G01X21380000Y14080000D02*
X21525000Y14225000D01*
Y14550000D01*
G01X20970000Y14495000D02*
X21025000Y14550000D01*
G01X21819990Y12650000D02*
Y12200010D01*
G01Y12800000D02*
Y12650000D01*
G01X21765000Y13555000D02*
X21775000D01*
Y14550000D01*
G01X22483200Y09200390D02*
Y09023200D01*
G01X22913190Y10230400D02*
X22790000Y10107210D01*
Y09830000D01*
X22870000Y09750000D01*
X22919990D01*
G01X23320000Y10432720D02*
X23292720Y10460000D01*
X22980000D01*
X22913190Y10393190D01*
Y10230400D01*
G01X24040000Y08085000D02*
X23740000Y08385000D01*
Y09610000D01*
X24080000Y09950000D01*
G01X23320000Y10432720D02*
Y11040000D01*
G01X23850000Y12469990D02*
X24000000D01*
G01X23860000Y13621100D02*
Y14535000D01*
X23875000Y14550000D01*
G01X23625000D02*
X23570000Y14495000D01*
G01X24500000Y08085000D02*
X24540000Y08045000D01*
Y07400000D01*
G01X24500000Y08085000D02*
X24040000D01*
G01X24080000Y09950000D02*
X24180000Y10050000D01*
Y10700000D01*
X24056000Y10824000D01*
X23977000D01*
G01D02*
Y12080000D01*
G01D02*
Y12446990D01*
X24000000Y12469990D01*
G01X23980000Y12200000D02*
Y12083000D01*
X23977000Y12080000D01*
G01X24419990Y12650000D02*
Y12200000D01*
G01Y12800000D02*
Y12650000D01*
G01X23980000Y14080000D02*
X24125000Y14225000D01*
Y14550000D01*
G01X25750000Y06540000D02*
X25770000Y06520000D01*
X26440000D01*
X26550000Y06410000D01*
Y06380010D01*
G01X25750000Y06540000D02*
Y06380010D01*
G01X25740000Y07440000D02*
X25750000Y07430000D01*
Y06540000D01*
G01X26225000Y14550000D02*
X26170000Y14495000D01*
Y13350000D01*
G01X26780000Y12220000D02*
X26760000Y12200000D01*
X26460000D01*
G01X26780000Y12220000D02*
Y12439990D01*
G01X27019990Y12650000D02*
Y12279990D01*
X26940000Y12200000D01*
X26800000D01*
X26780000Y12220000D01*
G01X26460000Y12200000D02*
Y12439990D01*
G01Y13621100D02*
Y14535000D01*
X26475000Y14550000D01*
G01X26580000Y14080000D02*
X26725000Y14225000D01*
Y14550000D01*
G01X27019990Y12800000D02*
Y12650000D01*
G01X27686500Y07690000D02*
Y07856490D01*
X27750000Y07919990D01*
G01X27813500Y07690000D02*
Y07856490D01*
X27750000Y07919990D01*
G01X27940500Y07690000D02*
Y07910490D01*
X27950000Y07919990D01*
G01X27750000D02*
X27950000D01*
G01X29013500Y07690000D02*
Y07856490D01*
X28950000Y07919990D01*
G01X28886500Y07690000D02*
Y07856490D01*
X28950000Y07919990D01*
G01X29140500Y07690000D02*
Y07910490D01*
X29150000Y07919990D01*
G01X28950000D02*
X29150000D01*
G01X29080000Y10159990D02*
X29314990D01*
X29450000Y10295000D01*
G01X29080000Y10700010D02*
Y10780000D01*
G54D25*
X20073000Y05700000D03*
G54D52*
X30011290Y10738020D03*
Y11941980D03*
G54D16*
X17831420Y06993320D03*
Y07206680D03*
Y09806680D03*
Y09593320D03*
X18050000Y06992120D03*
Y07202940D03*
Y08474660D03*
Y08685480D03*
Y09802940D03*
Y09592120D03*
Y11064660D03*
Y11275480D03*
G54D34*
X21300000Y13150000D03*
X23900000D03*
X26500000D03*
G54D43*
X27440000Y09975000D03*
Y10025000D03*
Y10075000D03*
Y10125000D03*
Y10175000D03*
Y10225000D03*
X27860000Y10075000D03*
Y10025000D03*
Y09975000D03*
Y10225000D03*
Y10175000D03*
Y10125000D03*
G54D62*
G01X18450000Y07068790D02*
X18360000Y07158790D01*
Y07322630D01*
X18300000Y07382630D01*
Y07548800D01*
G01X18250000D02*
Y07748800D01*
X18300000Y07798800D01*
G01X18400000Y07548800D02*
Y07460000D01*
X18600000Y07260000D01*
Y07228810D01*
G01X17937470Y07660000D02*
Y07666100D01*
X17970170Y07698800D01*
X18050000D01*
G01X18350000Y07548800D02*
Y07408270D01*
X18450000Y07308270D01*
Y07228810D01*
G01X18300000Y08048800D02*
Y07898800D01*
G01D02*
Y07798800D01*
G01X18350000Y08048800D02*
Y08318790D01*
G01X18450000Y09828810D02*
Y09930000D01*
X18350000Y10030000D01*
Y10148800D01*
G01X18300000D02*
Y09990000D01*
X18360000Y09930000D01*
Y09758790D01*
X18450000Y09668790D01*
G01X18400000Y10148800D02*
Y10080000D01*
X18600000Y09880000D01*
Y09828810D01*
G01X18300000Y10498800D02*
Y10648800D01*
G01X18250000Y10148800D02*
Y10348800D01*
X18300000Y10398800D01*
G01X18450000Y10648800D02*
Y10680000D01*
X18650000Y10880000D01*
Y10918790D01*
G01X17937470Y10260000D02*
Y10266100D01*
X17970170Y10298800D01*
X18050000D01*
G01X17940000Y10530000D02*
X17971200Y10498800D01*
X18050000D01*
G01X18350000Y10648800D02*
Y10918790D01*
G01X18550000Y07648800D02*
X18771190D01*
X18819990Y07600000D01*
G01X18550000Y07848800D02*
X18691200D01*
X18713400Y07826600D01*
X18871260D01*
X18900000Y07855340D01*
Y07968790D01*
X18819990Y08048800D01*
G01X18550000Y07948800D02*
X18719990D01*
X18819990Y08048800D01*
G01X18550000Y07898800D02*
X18819990D01*
G01X18550000Y07748800D02*
X18600000D01*
G01D02*
X18650000D01*
G01X18800000D02*
X18650000D01*
G01X18819990Y10480000D02*
X18801190Y10498800D01*
X18550000D01*
G01Y10448800D02*
X18671200D01*
X18712200Y10407800D01*
X18871260D01*
X18900000Y10436540D01*
Y10559990D01*
X18819990Y10640000D01*
G01X18550000Y10548800D02*
X18728790D01*
X18819990Y10640000D01*
G01X18550000Y10248800D02*
X18731190D01*
X18819990Y10160000D01*
G01X21050000Y13100000D02*
X20900000D01*
X20800000Y13000000D01*
X20730010D01*
G01X21050000Y13050000D02*
X20970000D01*
X20770000Y12850000D01*
X20730010D01*
G01X21050000Y13150000D02*
X20850000D01*
X20780000Y13080000D01*
X20649990D01*
X20569990Y13000000D01*
G01X21150000Y12900000D02*
Y12802300D01*
X21040000Y12692300D01*
Y12630010D01*
G01X21550000Y13150000D02*
X21400000D01*
G01D02*
X21300000D01*
G01X21050000Y13200000D02*
X21250000D01*
X21300000Y13150000D01*
G01X21400000Y13400000D02*
Y13456160D01*
X21402200Y13458360D01*
Y13487510D01*
X21460000Y13545310D01*
Y13550000D01*
G01X21200000Y13400000D02*
Y13500000D01*
X21180000Y13520000D01*
G01X21550000Y13100000D02*
X21819990D01*
G01X23650000Y13150000D02*
X23410000D01*
X23340000Y13080000D01*
X23260000D01*
X23180000Y13000000D01*
X23169990D01*
G01X23650000Y13050000D02*
X23540000D01*
X23340000Y12850000D01*
X23330010D01*
G01X23650000Y13100000D02*
X23440000D01*
X23340000Y13000000D01*
X23330010D01*
G01X23750000Y12900000D02*
Y12680010D01*
X23700000Y12630010D01*
G01X23800000Y12900000D02*
Y12680010D01*
X23850000Y12630010D01*
G01X23650000Y13200000D02*
X23850000D01*
X23900000Y13150000D01*
G01X23780000Y13520000D02*
X23800000Y13500000D01*
Y13400000D01*
G01X24419990Y12800000D02*
X24365100D01*
X24165100Y13000000D01*
X24150000D01*
G01X24000000Y12900000D02*
Y12810000D01*
X24150000Y12660000D01*
Y12630010D01*
G01X24050000Y12900000D02*
X24080000D01*
X24240000Y12740000D01*
Y12572700D01*
X24217300Y12550000D01*
X24050000D01*
X24000000Y12600000D01*
Y12630010D01*
G01X23950000Y12900000D02*
Y12680010D01*
X24000000Y12630010D01*
G01X24150000Y13150000D02*
X24000000D01*
G01Y13400000D02*
Y13480000D01*
X24049920Y13529920D01*
X24050050D01*
G01X24150000Y13100000D02*
X24419990D01*
G01X26250000Y13050000D02*
X26150000D01*
X25950000Y12850000D01*
X25930010D01*
G01X26250000Y13150000D02*
X26070000D01*
X26000000Y13080000D01*
X25849990D01*
X25769990Y13000000D01*
G01X26250000Y13100000D02*
X26100000D01*
X26000000Y13000000D01*
X25930010D01*
G01X26750000D02*
X26800000D01*
X27000000Y12800000D01*
X27019990D01*
G01X26600000Y12900000D02*
Y12620010D01*
X26620000Y12600010D01*
G01X26350000Y12900000D02*
Y12840000D01*
X26300000Y12790000D01*
Y12600010D01*
G01X26550000Y12900000D02*
Y12670000D01*
X26540000Y12660000D01*
Y12556540D01*
X26576540Y12520000D01*
X26680000D01*
X26760010Y12600010D01*
X26780000D01*
G01X26650000Y12900000D02*
Y12800000D01*
X26780000Y12670000D01*
Y12600010D01*
G01X26400000Y13400000D02*
Y13500000D01*
X26380000Y13520000D01*
G01X26650000Y13530000D02*
X26640000D01*
X26600000Y13490000D01*
Y13400000D01*
G01X26750000Y13100000D02*
X27019990D01*
G54D17*
X17649990Y07550000D03*
X17810010D03*
X17649990Y08050000D03*
X17810010D03*
X17649990Y10150000D03*
X17810010D03*
X17649990Y10650000D03*
X17810010D03*
X18980010Y07600000D03*
X18819990D03*
X18980010Y07898800D03*
X18819990D03*
X18980010Y08048800D03*
X18819990D03*
Y07750000D03*
X18980010D03*
X18819990Y10320000D03*
X18980010D03*
Y10480000D03*
X18819990D03*
X18980010Y10640000D03*
X18819990D03*
X18980010Y10160000D03*
X18819990D03*
X20730010Y12850000D03*
X20569990D03*
Y13000000D03*
X20730010D03*
Y13200000D03*
X20569990D03*
X21140010Y08300000D03*
X20979990D03*
X21498190Y10565400D03*
X21338190Y10740400D03*
X21498210D03*
X22069990Y06710000D03*
X22013210Y08330400D03*
X21853190D03*
X21658210Y10565400D03*
X21823210Y10740400D03*
X21663190D03*
X21819990Y12950000D03*
X21980010D03*
Y12800000D03*
X21819990D03*
X21980010Y12650000D03*
X21819990D03*
X21980010Y13100000D03*
X21819990D03*
X22230010Y06710000D03*
X23083210Y08890400D03*
X22923190D03*
X23080010Y09350000D03*
X22919990D03*
X23083210Y09040400D03*
X22923190D03*
X22919990Y09750000D03*
X23080010D03*
X22913190Y10050400D03*
X23073210D03*
X22919990Y09550000D03*
X23080010D03*
X23073210Y10230400D03*
X22913190D03*
X23169990Y12850000D03*
Y13000000D03*
Y13200000D03*
X23330010Y12850000D03*
Y13000000D03*
Y13200000D03*
X24419990Y12950000D03*
Y12800000D03*
Y12650000D03*
Y13100000D03*
X24580010Y12950000D03*
Y12800000D03*
Y12650000D03*
Y13100000D03*
X25980010Y09520000D03*
X25819990D03*
X25930010Y12850000D03*
X25769990D03*
Y13000000D03*
X25930010D03*
Y13200000D03*
X25769990D03*
X27019990Y12950000D03*
X27180010D03*
Y12800000D03*
X27019990D03*
X27180010Y12650000D03*
X27019990D03*
X27180010Y13100000D03*
X27019990D03*
X27769990Y09250000D03*
X27930010D03*
X27928740Y09450000D03*
X27768720D03*
X28659990Y10540000D03*
Y10340000D03*
X28820010Y10540000D03*
Y10340000D03*
G54D26*
X20327000Y05700000D03*
G54D44*
G01X17300000Y07170000D02*
X16492700D01*
X16460000Y07137300D01*
G01Y09770000D02*
X17100000D01*
G01D02*
X17300000D01*
G01X17820000Y15020000D02*
X17840000Y15040000D01*
X20570000D01*
G01Y14410000D02*
Y14200000D01*
G01Y15040000D02*
Y14410000D01*
G01X23170000Y14370000D02*
Y14970000D01*
X23100000Y15040000D01*
X20570000D01*
G01X23170000Y14250000D02*
Y14370000D01*
G01X25467220Y10130000D02*
X25477220Y10140000D01*
X25981000D01*
X26550000Y10709000D01*
Y11273940D01*
G01X25700000Y15020000D02*
Y14270000D01*
X25770000Y14200000D01*
G01X26550000Y11726060D02*
X27621060D01*
G01X27523940Y06700000D02*
Y05901060D01*
X27575000Y05850000D01*
G01X27523940Y06700000D02*
Y07073940D01*
X27750000Y07300000D01*
G01X28210000Y13180000D02*
Y13368990D01*
X27978670Y13600000D01*
Y13601330D01*
X27900000Y13680000D01*
Y14300000D01*
X28156800Y14556800D01*
X28161800D01*
G01X28773940Y06700000D02*
Y07123940D01*
X28950000Y07300000D01*
G01X28376060Y11300000D02*
Y11723940D01*
X28350000Y11750000D01*
G01Y12000000D02*
Y11750000D01*
G01X28411800Y14556800D02*
Y14181800D01*
X28210000Y13980000D01*
G01X28411800Y14556800D02*
Y14811800D01*
X28616430Y15016430D01*
X29383570D01*
X29525000Y14875000D01*
Y14600000D01*
G01X28773940Y06700000D02*
Y05901060D01*
G01X29175000Y05850000D02*
X29226060Y05901060D01*
Y06700000D01*
G01X29360000Y09220000D02*
X29370000Y09230000D01*
G01X29590000D02*
X29910000D01*
X29950000Y09270000D01*
G01X29370000Y09230000D02*
X29590000D01*
X27575000Y05850000D03*
X27650000Y11755000D03*
Y12000000D03*
Y12500000D03*
Y12755000D03*
X28350000Y11750000D03*
Y12000000D03*
Y12500000D03*
Y12750000D03*
X28710000Y13330000D03*
X28210000Y13180000D03*
Y13980000D03*
X28710000Y13830000D03*
X28825000Y05850000D03*
G54D35*
X21815000Y06950000D03*
Y06720000D03*
Y07180000D03*
G54D53*
X29319990Y12200000D03*
X29480010D03*
G54D63*
G01X16513130Y05463130D02*
X16750000Y05700000D01*
G01D02*
X16986870Y05936870D01*
G01X16513130D02*
X16750000Y05700000D01*
G01D02*
X16986870Y05463130D01*
G01X16513130Y14463130D02*
X16750000Y14700000D01*
G01D02*
X16986870Y14936870D01*
G01X16513130D02*
X16750000Y14700000D01*
G01D02*
X16986870Y14463130D01*
G01X17300000Y06402190D02*
Y06630000D01*
G01X17167200D02*
X17300000D01*
G01D02*
X17432800D01*
G01X17300000Y06942190D02*
Y07170000D01*
G01D02*
X17432800D01*
G01X17300000Y09002190D02*
Y09230000D01*
G01X17167200D02*
X17300000D01*
G01D02*
X17432800D01*
G01X17300000Y09542190D02*
Y09770000D01*
G01D02*
X17432800D01*
G01X17276000Y12255600D02*
X17418800Y12398400D01*
G01X17276000Y12541200D02*
X17418800Y12398400D01*
G01X17927200Y08685480D02*
X18050000D01*
G01X17927200Y11275480D02*
X18050000D01*
G01X17418800Y12398400D02*
X17561600Y12541200D01*
G01X17418800Y12398400D02*
X17561600Y12255600D01*
G01X17787200Y13932800D02*
X17930000Y14075600D01*
G01D02*
X18072800Y14218400D01*
G01X17787200D02*
X17930000Y14075600D01*
G01D02*
X18072800Y13932800D01*
G01X18050000Y08685480D02*
Y08803280D01*
G01Y08685480D02*
X18172800D01*
G01X18350000Y11078810D02*
Y11171620D01*
G01X18252200Y11078810D02*
X18350000D01*
G01X18050000Y11275480D02*
Y11393280D01*
G01Y11275480D02*
X18172800D01*
G01X18980010Y07502200D02*
Y07600000D01*
G01D02*
X19072820D01*
G01X18800000Y08478810D02*
Y08571620D01*
G01Y08478810D02*
X18897800D01*
G01X18980010Y10062200D02*
Y10160000D01*
G01D02*
X19072820D01*
G01X18800000Y11078810D02*
Y11171620D01*
G01Y11078810D02*
X18897800D01*
G01X18839950Y14181650D02*
X18946000Y14075600D01*
G01X18839950Y13969550D02*
X18946000Y14075600D01*
G01D02*
X19052050Y14181650D01*
G01X18946000Y14075600D02*
X19052050Y13969550D01*
G01X19967720Y05594720D02*
X20073000Y05700000D01*
G01D02*
X20178280Y05805280D01*
G01X19967720D02*
X20073000Y05700000D01*
G01D02*
X20178280Y05594720D01*
G01X20075400Y09360390D02*
X20173200D01*
G01D02*
X20271000D01*
G01X20030000Y14067200D02*
Y14200000D01*
G01D02*
Y14332800D01*
G01X19802190Y14200000D02*
X20030000D01*
G01D02*
X20257810D01*
G01X20890000Y06697180D02*
Y06789990D01*
G01X20792200D02*
X20890000D01*
G01D02*
X20987800D01*
G01X20493320Y13400000D02*
Y13522800D01*
G01X20375520Y13400000D02*
X20493320D01*
G01Y13545780D02*
Y13668580D01*
G01X20375520D02*
X20493320D01*
G01X21276020Y05601020D02*
X21375000Y05700000D01*
G01D02*
X21473980Y05798980D01*
G01X21276020D02*
X21375000Y05700000D01*
G01D02*
X21473980Y05601020D01*
G01X21273940Y06097200D02*
Y06250000D01*
G01D02*
Y06402800D01*
G01X21131130Y06250000D02*
X21273940D01*
G01D02*
X21416750D01*
G01X21338190Y10642600D02*
Y10740400D01*
G01X21245380D02*
X21338190D01*
G01X21040000Y12377180D02*
Y12469990D01*
G01X20942200D02*
X21040000D01*
G01X21490000Y12377180D02*
Y12469990D01*
G01D02*
X21587800D01*
G01X21652200Y06950000D02*
X21815000D01*
G01D02*
X21977800D01*
G01X21823210Y10642600D02*
Y10740400D01*
G01D02*
Y10838200D01*
G01Y10740400D02*
X21916020D01*
G01X21980010Y12552200D02*
Y12650000D01*
G01D02*
X22072820D01*
G01X22576020Y05651020D02*
X22675000Y05750000D01*
G01D02*
X22773980Y05848980D01*
G01X22576020D02*
X22675000Y05750000D01*
G01D02*
X22773980Y05651020D01*
G01X22230010Y06612200D02*
Y06710000D01*
G01D02*
Y06807800D01*
G01Y06710000D02*
X22322820D01*
G01X22156680Y13277200D02*
Y13400000D01*
G01D02*
Y13522800D01*
G01Y13400000D02*
X22274480D01*
G01X22630000Y14117200D02*
Y14250000D01*
G01D02*
Y14382800D01*
G01X22402190Y14250000D02*
X22630000D01*
G01X23326020Y05651020D02*
X23425000Y05750000D01*
G01X23326020Y05848980D02*
X23425000Y05750000D01*
G01X23093320Y13618580D02*
Y13741380D01*
G01X22975520Y13618580D02*
X23093320D01*
G01X22942190Y14250000D02*
X23170000D01*
G01D02*
X23397810D01*
G01X23425000Y05750000D02*
X23523980Y05848980D01*
G01X23425000Y05750000D02*
X23523980Y05651020D01*
G01X23870950Y10422050D02*
X23977000Y10316000D01*
G01X23870950Y10209950D02*
X23977000Y10316000D01*
G01X23700000Y12377180D02*
Y12469990D01*
G01X23602200D02*
X23700000D01*
G01X24076020Y05651020D02*
X24175000Y05750000D01*
G01D02*
X24273980Y05848980D01*
G01X24076020D02*
X24175000Y05750000D01*
G01D02*
X24273980Y05651020D01*
G01X24500000Y07882200D02*
Y08085000D01*
G01D02*
Y08287800D01*
G01X24073940Y09600000D02*
Y09752800D01*
G01X23931130Y09600000D02*
X24073940D01*
G01D02*
X24216750D01*
G01X24150000Y12377180D02*
Y12469990D01*
G01D02*
X24247800D01*
G01X25017200Y07400000D02*
X25160000D01*
G01X24800000Y09902190D02*
Y10130000D01*
G01Y10670000D02*
Y10897810D01*
G01X24667200Y10670000D02*
X24800000D01*
G01D02*
X24932800D01*
G01X24800000Y10130000D02*
Y10357810D01*
G01X24667200Y10130000D02*
X24800000D01*
G01D02*
X24932800D01*
G01X24580010Y12552200D02*
Y12650000D01*
G01D02*
X24672820D01*
G01X24580010Y13100000D02*
Y13197800D01*
G01Y13100000D02*
X24672820D01*
G01X24746680Y13277200D02*
Y13400000D01*
G01D02*
Y13522800D01*
G01Y13400000D02*
X24864480D01*
G01X25002190Y14200000D02*
X25230000D01*
G01X25376020Y05601020D02*
X25475000Y05700000D01*
G01D02*
X25573980Y05798980D01*
G01X25376020D02*
X25475000Y05700000D01*
G01D02*
X25573980Y05601020D01*
G01X25550000Y06127180D02*
Y06219990D01*
G01X25452200D02*
X25550000D01*
G01X25160000Y07207200D02*
Y07400000D01*
G01D02*
Y07592800D01*
G01Y07400000D02*
X25302800D01*
G01X25600000Y09902190D02*
Y10130000D01*
G01Y10670000D02*
Y10897810D01*
G01X25467200Y10670000D02*
X25600000D01*
G01D02*
X25732800D01*
G01X25600000Y10130000D02*
Y10357810D01*
G01Y10130000D02*
X25732800D01*
G01X25693320Y13400000D02*
Y13522800D01*
G01X25575520Y13400000D02*
X25693320D01*
G01Y13545780D02*
Y13668580D01*
G01X25575520D02*
X25693320D01*
G01X25230000Y14067200D02*
Y14200000D01*
G01D02*
Y14332800D01*
G01X25542190Y14200000D02*
X25770000D01*
G01X26226020Y05601020D02*
X26325000Y05700000D01*
G01X26226020Y05798980D02*
X26325000Y05700000D01*
G01X26252200Y06219990D02*
X26350000D01*
G01X25980010Y09422200D02*
Y09520000D01*
G01X25819990Y09422200D02*
Y09520000D01*
G01X25980010D02*
Y09617800D01*
G01Y09520000D02*
X26072820D01*
G01X25819990D02*
Y09617800D01*
G01X25727180Y09520000D02*
X25819990D01*
G01X25770000Y14200000D02*
Y14332800D01*
G01Y14200000D02*
X25997810D01*
G01X26325000Y05700000D02*
X26423980Y05798980D01*
G01X26325000Y05700000D02*
X26423980Y05601020D01*
G01X26350000Y06127180D02*
Y06219990D01*
G01X26427500Y08172200D02*
Y08750000D01*
G01D02*
Y09327800D01*
G01Y08750000D02*
X26905300D01*
G01X26881130Y11300000D02*
X27023940D01*
G01X27200000Y10230010D02*
Y10322820D01*
G01X27102200Y10230010D02*
X27200000D01*
G01D02*
X27297800D01*
G01X27023940Y11147200D02*
Y11300000D01*
G01D02*
Y11452800D01*
G01Y11300000D02*
X27166750D01*
G01X27180010Y12552200D02*
Y12650000D01*
G01D02*
X27272820D01*
G01X27246680Y13290000D02*
Y13412800D01*
G01Y13290000D02*
X27364480D01*
G01X27950000Y07827180D02*
Y07919990D01*
G01D02*
X28047800D01*
G01X27928740Y09450000D02*
Y09547800D01*
G01Y09450000D02*
X28021550D01*
G01X27923940Y11147200D02*
Y11300000D01*
G01D02*
Y11452800D01*
G01Y11300000D02*
X28066750D01*
G01X28050000Y10720010D02*
Y10812820D01*
G01Y10720010D02*
X28147800D01*
G01X27650000Y12000000D02*
X27763130Y11886870D01*
G01X27536870Y11868130D02*
X27650000Y11755000D01*
G01D02*
X27763130Y11641870D01*
G01X27650000Y12000000D02*
X27763130Y12113130D01*
G01X27536870D02*
X27650000Y12000000D01*
G01X28236870Y11886870D02*
X28350000Y12000000D01*
G01D02*
X28463130Y11886870D01*
G01X28236870Y11636870D02*
X28350000Y11750000D01*
G01D02*
X28463130Y11863130D01*
G01X28236870D02*
X28350000Y11750000D01*
G01Y12000000D02*
X28463130Y12113130D01*
G01X28236870D02*
X28350000Y12000000D01*
G01X28210000Y13180000D02*
X28323130Y13066870D01*
G01X28236870Y12636870D02*
X28350000Y12750000D01*
G01D02*
X28463130Y12863130D01*
G01X28236870D02*
X28350000Y12750000D01*
G01D02*
X28463130Y12636870D01*
G01X28210000Y13180000D02*
X28323130Y13293130D01*
G01X28596870Y13216870D02*
X28710000Y13330000D01*
G01D02*
X28823130Y13443130D01*
G01X28596870D02*
X28710000Y13330000D01*
G01D02*
X28823130Y13216870D01*
G01X29150000Y07827180D02*
Y07919990D01*
G01D02*
X29247800D01*
G01X29301520Y08596520D02*
X29450000Y08745000D01*
G01X29301520Y08893480D02*
X29450000Y08745000D01*
G01X29227180Y12200000D02*
X29319990D01*
G01X29150000Y12434200D02*
Y12600000D01*
G01D02*
Y12765800D01*
G01X28989200Y12600000D02*
X29150000D01*
G01D02*
X29310800D01*
G01X29176020Y14501020D02*
X29275000Y14600000D01*
G01X29176020Y14698980D02*
X29275000Y14600000D01*
G01D02*
X29373980Y14501020D01*
G01X29450000Y08745000D02*
X29598480Y08893480D01*
G01X29450000Y08745000D02*
X29598480Y08596520D01*
G01X29441520Y09081520D02*
X29590000Y09230000D01*
G01D02*
X29738480Y09378480D01*
G01X29441520D02*
X29590000Y09230000D01*
G01X29852130Y10578860D02*
X30011290Y10738020D01*
G01X29319990Y12097200D02*
Y12200000D01*
G01X29640000Y12434200D02*
Y12600000D01*
G01X29480010Y12097200D02*
Y12200000D01*
G01D02*
Y12302800D01*
G01Y12200000D02*
X29572820D01*
G01X29852130Y12101140D02*
X30011290Y11941980D01*
G01X29640000Y12600000D02*
Y12765800D01*
G01X29479200Y12600000D02*
X29640000D01*
G01D02*
X29800800D01*
G01X30013130Y05463130D02*
X30250000Y05700000D01*
G01D02*
X30486870Y05936870D01*
G01X30013130D02*
X30250000Y05700000D01*
G01D02*
X30486870Y05463130D01*
G01X30151520Y08596520D02*
X30300000Y08745000D01*
G01D02*
X30448480Y08893480D01*
G01X30151520D02*
X30300000Y08745000D01*
G01D02*
X30448480Y08596520D01*
G01X30300000Y10295000D02*
X30448480Y10443480D01*
G01X30151520D02*
X30300000Y10295000D01*
G01D02*
X30448480Y10146520D01*
G01X30011290Y10738020D02*
X30170450Y10578860D01*
G01X30011290Y10738020D02*
X30170450Y10897180D01*
G01X30011290Y11941980D02*
X30170450Y11782820D01*
G01X30011290Y11941980D02*
X30170450Y12101140D01*
G01X30013130Y14463130D02*
X30250000Y14700000D01*
G01D02*
X30486870Y14936870D01*
G01X30013130D02*
X30250000Y14700000D01*
G01D02*
X30486870Y14463130D01*
G54D27*
X20030000Y14200000D03*
X20570000D03*
X22630000Y14250000D03*
X23170000D03*
X25230000Y14200000D03*
X25770000D03*
G54D18*
X17418800Y12398400D03*
X17930000Y14075600D03*
G54D45*
X27925000Y05850000D03*
X29175000D03*
G54D54*
X30300000Y09270000D03*
Y09770000D03*
G54D36*
X22153200Y08840400D03*
G54D64*
G01X25139800Y08579800D02*
X24645000Y08085000D01*
X24500000D01*
G01X24560000Y08750000D02*
X24360000D01*
G01X24100000Y08760000D02*
X24110000Y08750000D01*
X24360000D01*
G01X24500000Y09115000D02*
X24694800Y08920200D01*
G01X24526060Y09600000D02*
Y09141060D01*
X24500000Y09115000D01*
G01X24760000Y08750000D02*
X24560000D01*
G01X25430000D02*
X24760000D01*
G01X24694800Y08920200D02*
X25430000D01*
G01Y08409600D02*
X26087100D01*
X26427500Y08750000D01*
G01X25430000D02*
X26427500D01*
G01X25430000Y08579800D02*
X25139800D01*
G01X28773940Y05901060D02*
X28825000Y05850000D01*
G01X29740300Y11465020D02*
X29755020D01*
G01D02*
X29800000Y11510000D01*
Y11640000D01*
X29710000Y11730000D01*
G54D55*
G01X17560000Y07550000D02*
X17570000Y07540000D01*
X17660000D01*
X17650000Y07550000D01*
X17649990D01*
G01X18260000Y07300000D02*
Y07238810D01*
X18250000Y07228810D01*
G01X18200000Y07548800D02*
Y07360000D01*
X18260000Y07300000D01*
G01X18450000Y08200000D02*
X18400000Y08150000D01*
Y08048800D01*
G01X18250000D02*
Y08210000D01*
X18260000Y08220000D01*
G01X18050000Y07948800D02*
Y07970000D01*
G01Y08474660D02*
Y08464660D01*
G01X18240000Y09940000D02*
Y09838810D01*
X18250000Y09828810D01*
G01X18200000Y10148800D02*
Y09980000D01*
X18240000Y09940000D01*
G01X18150000Y10040000D02*
X18120000Y10010000D01*
G01X18250000Y10790000D02*
Y10648800D01*
G01X18420000Y10780000D02*
X18400000Y10760000D01*
Y10648800D01*
G01X19680000Y09140000D02*
Y10910000D01*
X19145010Y11444990D01*
X19144010D01*
X18384010Y12204990D01*
X18125010D01*
X18049200Y12280800D01*
Y12530000D01*
X17926800Y12652400D01*
G01X18550000Y07798800D02*
X18600000D01*
X18650000Y07748800D01*
G01X18600000D02*
X18601200Y07750000D01*
X18650000D01*
X18598800Y07698800D01*
X18550000D01*
G01X18819990Y07750000D02*
X18798800D01*
X18800000Y07748800D01*
G01X18550000Y10348800D02*
X18700000D01*
G01D02*
X18791190D01*
X18819990Y10320000D01*
G01X18550000Y10398800D02*
X18650000D01*
X18700000Y10348800D01*
G01X18550000Y10298800D02*
X18650000D01*
X18700000Y10348800D01*
G01X20080000Y10370000D02*
X19800000Y10650000D01*
Y11070000D01*
X19180000Y11690000D01*
Y13280000D01*
X19140000Y13320000D01*
G01X20150000Y10210000D02*
X19750000Y10610000D01*
Y11000000D01*
X19210000Y11540000D01*
X19160000D01*
G01X20753200Y10240400D02*
Y10526800D01*
X19447300Y11832700D01*
Y14567300D01*
X19500000Y14620000D01*
G01Y14440000D02*
X19600000Y14340000D01*
Y11880000D01*
X21003190Y10476810D01*
Y10240400D01*
G01X20953200D02*
Y10446800D01*
X19530480Y11869520D01*
Y13389520D01*
X19520000Y13400000D01*
G01X19460000Y14720000D02*
X19327300Y14587300D01*
Y11666450D01*
X20350000Y10643750D01*
Y10042620D01*
X20402210Y09990410D01*
X20553200D01*
G01X19380000Y13320000D02*
Y11700000D01*
X20460000Y10620000D01*
Y10073100D01*
X20492700Y10040400D01*
X20553200D01*
G01X19560000Y14520000D02*
X19660000Y14420000D01*
Y11869840D01*
X21153200Y10376640D01*
Y10240400D01*
G01X20170000Y06930210D02*
X20100000Y07000210D01*
Y09060000D01*
X19980000Y09180000D01*
Y09580000D01*
X20090410Y09690410D01*
X20553200D01*
G01X20080420Y06850000D02*
X20027300Y06903120D01*
Y09052700D01*
X19940000Y09140000D01*
Y09600000D01*
X20130410Y09790410D01*
X20553200D01*
G01X19980000Y06770000D02*
Y09040000D01*
X19880000Y09140000D01*
Y09600000D01*
X20170410Y09890410D01*
X20553200D01*
G01X20265240Y07620000D02*
Y08805240D01*
X20400400Y08940400D01*
X20553200D01*
G01X21203190Y10240400D02*
Y10375780D01*
X20387300Y11191700D01*
X20239340Y11339660D01*
Y11340340D01*
X19760000Y11819680D01*
Y12920000D01*
G01X21403210Y10240400D02*
Y10350530D01*
X20560000Y11193740D01*
Y11812700D01*
X20190000Y12182700D01*
Y12570000D01*
G01X21353200Y10240400D02*
Y10346800D01*
X20500000Y11200000D01*
Y11760000D01*
X19920000Y12340000D01*
Y13520000D01*
G01X20327000Y05700000D02*
X20622090Y05995090D01*
Y05997090D01*
X20660000Y06035000D01*
Y08200000D01*
X20760010Y08300010D01*
X20780000D01*
G01X20877720Y09820000D02*
Y09378770D01*
X20853200Y09354250D01*
Y08640400D01*
G01X20320000Y08280000D02*
Y08780000D01*
X20430390Y08890390D01*
X20553200D01*
G01X20796180Y09781120D02*
X20800000D01*
X20832700Y09748420D01*
Y09380000D01*
X20803190Y09350490D01*
Y08640400D01*
G01X20380000Y08500000D02*
Y08740000D01*
X20480400Y08840400D01*
X20553200D01*
G01X20753200Y08640400D02*
Y09540000D01*
G01X20903190Y08640400D02*
Y08423200D01*
X20780000Y08300010D01*
G01X20680000Y11840000D02*
Y11180000D01*
X21503210Y10356790D01*
Y10240400D01*
G01X20310000Y11620000D02*
Y11315250D01*
X20467290Y11157960D01*
X21233230Y10391990D01*
X21253200Y10372020D01*
Y10240400D01*
G01X20640000Y12300000D02*
X20620000Y12280000D01*
Y11180000D01*
X21453200Y10346800D01*
Y10240400D01*
G01X20880000Y11340000D02*
Y12280000D01*
X20460000Y12700000D01*
Y13020000D01*
X20560000Y13120000D01*
X20640000D01*
X20720000Y13200000D01*
X20730010D01*
G01X21050000Y13250000D02*
X20780010D01*
X20730010Y13200000D01*
G01X21710000Y07600000D02*
Y07950000D01*
X21180000Y08480000D01*
X21100000D01*
X21053200Y08526800D01*
Y08640400D01*
G01X21840000Y07600000D02*
X21780000Y07660000D01*
Y07940000D01*
X21253200Y08466800D01*
Y08640400D01*
G01X21407960Y09960000D02*
Y08645150D01*
X21403210Y08640400D01*
G01X21200000Y12900000D02*
Y12740000D01*
G01D02*
Y12640010D01*
X21190000Y12630010D01*
G01X21200000Y12740000D02*
X21250000D01*
G01D02*
X21270000D01*
X21300000Y12770000D01*
Y12900000D01*
G01X21250000D02*
Y12740000D01*
G01X21753200Y08640400D02*
Y09550000D01*
G01X21653200Y08640400D02*
Y09643200D01*
X21947290Y09937290D01*
Y10053540D01*
X22160000Y10266250D01*
Y10620000D01*
X22420000Y10880000D01*
Y12590000D01*
X22140000Y12870000D01*
X21770000D01*
X21700000Y12940000D01*
Y12994410D01*
X21644410Y13050000D01*
X21550000D01*
G01X21703210Y08640400D02*
Y09525460D01*
X21700500Y09528170D01*
Y09571830D01*
X21703210Y09574540D01*
Y09623210D01*
X22000000Y09920000D01*
Y10050000D01*
X22230000Y10280000D01*
Y10570000D01*
X22500000Y10840000D01*
Y12870000D01*
X22170000Y13200000D01*
X21550000D01*
G01X21830000Y09520000D02*
X21803210Y09493210D01*
Y08640400D01*
G01X22100000Y08040010D02*
Y08700000D01*
X22000000Y08800000D01*
Y09190000D01*
X21890000Y09300000D01*
Y09480000D01*
X22000410Y09590410D01*
X22153200D01*
G01X21970000Y09460000D02*
Y09470000D01*
X22040400Y09540400D01*
X22153200D01*
G01X21880000Y09710000D02*
X21890000D01*
X21959600Y09640400D01*
X22153200D01*
G01X21880000Y10020000D02*
Y10052500D01*
X21953200Y10125700D01*
Y10240400D01*
G01X21753200D02*
Y10373200D01*
X21820000Y10440000D01*
G01X22153200Y08840400D02*
Y08780000D01*
G01Y09440400D02*
X22280400D01*
X22360000Y09520000D01*
G01X22400000Y09454320D02*
X22333380Y09387700D01*
X22298170D01*
X22295480Y09390390D01*
X22153200D01*
G01Y08890390D02*
X22923180D01*
X22923190Y08890400D01*
G01X22153200Y09090390D02*
X22329610D01*
G01X22153200Y08940400D02*
X22823190D01*
X22923190Y09040400D01*
G01X22153200Y09890410D02*
X22280410D01*
X22500000Y10110000D01*
Y10520000D01*
X22840000Y10860000D01*
X22860000D01*
G01X22153200Y09790410D02*
X22340410D01*
X22640000Y10090000D01*
Y10370000D01*
X22840000Y10570000D01*
G01X22296960Y09840400D02*
X22320400D01*
X22580000Y10100000D01*
Y10440000D01*
X22600000Y10460000D01*
G01X22247790Y09840400D02*
X22296960D01*
G01X22153200D02*
X22247790D01*
G01X22296960D02*
X22295890Y09839330D01*
X22248860D01*
X22247790Y09840400D01*
G01X22153200Y09740400D02*
X22360400D01*
X22700000Y10080000D01*
Y10320370D01*
X23220000Y10840370D01*
Y12400000D01*
G01X22700000Y09220000D02*
Y09540000D01*
X22549590Y09690410D01*
X22153200D01*
G01X22640000Y11560000D02*
Y10880000D01*
X22320000Y10560000D01*
Y10140000D01*
X22220400Y10040400D01*
X22153200D01*
G01X22750000Y11600000D02*
Y10890000D01*
X22400000Y10540000D01*
Y10120000D01*
X22270410Y09990410D01*
X22153200D01*
G01X23020000Y11580000D02*
Y10880000D01*
X22600000Y10460000D01*
G01X23080010Y09550000D02*
Y09350000D01*
G01X23160000Y09360000D02*
X23090010D01*
X23080010Y09350000D01*
G01X23520000Y09100000D02*
X23460400Y09040400D01*
X23083210D01*
G01X23580000Y09020000D02*
X23450400Y08890400D01*
X23083210D01*
G01X23080010Y09750000D02*
Y09550000D01*
G01X23073210Y10230400D02*
Y10050400D01*
G01X23320000Y10084740D02*
X23107550D01*
X23073210Y10050400D01*
G01D02*
X23000000Y09977190D01*
Y09600000D01*
X22950000Y09550000D01*
X22919990D01*
G01X22840000Y10570000D02*
X23100000Y10830000D01*
Y12440000D01*
G01X23080000Y10140000D02*
Y10223610D01*
X23073210Y10230400D01*
G01X22860000Y11780000D02*
Y10860000D01*
G01X23330010Y13200000D02*
X23310000D01*
X23230000Y13120000D01*
X23140000D01*
X23060000Y13040000D01*
Y12700000D01*
X23480000Y12280000D01*
Y10120000D01*
X23560000Y10040000D01*
G01X23170000Y14250000D02*
Y14200000D01*
G01Y14370000D02*
X23190000Y14390000D01*
G01X23553200Y09609120D02*
X23404470D01*
X23403200Y09610390D01*
G01X23400000Y09840000D02*
X23403200Y09836800D01*
Y09770410D01*
G01X23723000Y10316000D02*
Y10103000D01*
X23580000Y09960000D01*
X23400000D01*
X23320000Y10040000D01*
Y10084740D01*
G01X23850000Y12900000D02*
Y12630010D01*
G01X23900000Y12900000D02*
Y12680010D01*
X23850000Y12630010D01*
G01X23650000Y13250000D02*
X23380010D01*
X23330010Y13200000D01*
G01X23640000Y13350000D02*
X23680000Y13310000D01*
X23700000D01*
X23690000Y13300000D01*
X23650000D01*
G01X23550000Y13330000D02*
X23580000Y13300000D01*
X23620000D01*
G01X24150000Y13050000D02*
X24300000D01*
X24328930Y13021070D01*
Y12923950D01*
X24370580Y12882300D01*
X24454800D01*
X24500000Y12837100D01*
Y12060000D01*
X24420000Y11980000D01*
Y10290000D01*
X24410000Y10280000D01*
G01X24300000Y13200000D02*
X24150000D01*
G01X23950000Y13510000D02*
X24017700Y13577700D01*
G01X25550000Y12400000D02*
Y12970000D01*
X25680000Y13100000D01*
X25800000D01*
X25887200Y13187200D01*
X25917210D01*
X25930010Y13200000D01*
G01X26250000Y13250000D02*
X25980010D01*
X25930010Y13200000D01*
G01X26920000Y13020000D02*
X26890000Y13050000D01*
X26750000D01*
G01X26400000Y12900000D02*
Y12660010D01*
X26450000Y12610010D01*
G01D02*
X26460000Y12600010D01*
G01X26450000Y12900000D02*
Y12610010D01*
G01X26500000Y12900000D02*
Y12660000D01*
X26460000Y12620000D01*
Y12600010D01*
G01X26860000Y13200000D02*
X26750000D01*
G01X26950000Y13430000D02*
X26820000Y13300000D01*
X26750000D01*
G01X27400000Y08060000D02*
X27529990D01*
X27550000Y08080010D01*
G01X27300000Y08150000D02*
X27390000Y08240000D01*
X28100000D01*
X28259990Y08080010D01*
X28750000D01*
G01X27750000D02*
X27550000D01*
G01X27950000D02*
X27750000D01*
G01X27769990Y09250000D02*
Y09448730D01*
X27768720Y09450000D01*
G01X27725000Y09890000D02*
Y09775000D01*
X27740000Y09760000D01*
G01X27580000Y09740000D02*
Y09885000D01*
X27575000Y09890000D01*
G01X27640000Y09640000D02*
Y09785000D01*
X27625000Y09800000D01*
Y09890000D01*
G01X28950000Y08080010D02*
X28750000D01*
G01X29150000D02*
X28950000D01*
G54D37*
X23320000Y10084740D03*
Y10432720D03*
G54D19*
X17672800Y12398400D03*
X17926800D03*
X17418800Y12652400D03*
X17672800D03*
X17926800D03*
X17930000Y14329600D03*
X18180800Y12398400D03*
X18434800D03*
X18180800Y12652400D03*
X18434800D03*
X18438000Y14329600D03*
Y14075600D03*
X18184000Y14329600D03*
Y14075600D03*
X18688800Y12398400D03*
X18942800D03*
X18688800Y12652400D03*
X18942800D03*
X18946000Y14329600D03*
Y14075600D03*
X18692000Y14329600D03*
Y14075600D03*
X23723000Y10316000D03*
Y10570000D03*
X23977000Y10316000D03*
Y10570000D03*
Y10824000D03*
G54D46*
X27750000Y07300000D03*
X28950000D03*
G54D28*
X20553200Y08840400D03*
Y09440400D03*
Y09390390D03*
Y09340400D03*
Y09290390D03*
Y09240400D03*
Y09190390D03*
Y09140400D03*
Y09090390D03*
Y09040400D03*
Y08990390D03*
Y08940400D03*
Y08890390D03*
Y10040400D03*
Y09990410D03*
Y09940400D03*
Y09890410D03*
Y09840400D03*
Y09790410D03*
Y09740400D03*
Y09690410D03*
Y09640400D03*
Y09590410D03*
Y09540400D03*
Y09490410D03*
X22153200Y08890390D03*
Y08940400D03*
Y08990390D03*
Y09040400D03*
Y09090390D03*
Y09140400D03*
Y09190390D03*
Y09240400D03*
Y09290390D03*
Y09340400D03*
Y09390390D03*
Y09440400D03*
Y09490410D03*
Y09540400D03*
Y09590410D03*
Y09640400D03*
Y09690410D03*
Y09740400D03*
Y09790410D03*
Y09840400D03*
Y09890410D03*
Y09940400D03*
Y09990410D03*
Y10040400D03*
G54D65*
G01X16460000Y07137300D02*
Y09770000D01*
G01Y12650000D02*
Y09770000D01*
G01Y12650000D02*
X16462400Y12652400D01*
G01X16460000Y12650000D02*
Y13660000D01*
X17820000Y15020000D01*
G01X25700000D02*
X17820000D01*
G01X28000000Y12112700D02*
X27929980Y12182730D01*
Y12970020D01*
X27864990Y13035010D01*
Y13045500D01*
X27550260Y13360230D01*
Y13367020D01*
X27514990Y13402290D01*
Y14755500D01*
X27510000Y14760490D01*
Y14810000D01*
X27300000Y15020000D01*
X25700000D01*
G01X27621060Y11726060D02*
X27650000Y11755000D01*
G01X27476060Y11826060D02*
Y11300000D01*
G01X27650000Y12000000D02*
X27476060Y11826060D01*
G01X27976060Y06700000D02*
Y05901060D01*
X27925000Y05850000D01*
G01X27650000Y11755000D02*
X27920000Y12025000D01*
G01X27887300Y12000000D02*
X27920000Y12032700D01*
G01X27650000Y12000000D02*
X27887300D01*
G01X27920000Y12032700D02*
X28000000Y12112700D01*
G01X27920000Y12025000D02*
Y12032700D01*
G54D56*
G01X17880000Y07550000D02*
X17990000D01*
G01X17900000Y08050000D02*
X17950000D01*
G01X17810010D02*
X17900000D01*
G01X17851200Y07748800D02*
X18050000D01*
G01X17871200Y07848800D02*
X18050000D01*
G01X17810010Y10650000D02*
X17900000D01*
G01D02*
X17950000D01*
X17960000Y10660000D01*
X18050000Y10570000D01*
G01X17810010Y10150000D02*
X17880000D01*
G01D02*
X17990000D01*
X18050000Y10210000D01*
G01X17870000Y10450000D02*
X17871200Y10448800D01*
G01D02*
X18050000D01*
G01X17850000Y10350000D02*
X17851200Y10348800D01*
G01D02*
X18050000D01*
G01X18010000Y07620000D02*
X18038800Y07648800D01*
X18050000D01*
G01X18070000Y07600000D02*
Y07630000D01*
X18051200Y07648800D01*
X18050000D01*
G01D02*
Y07610000D01*
G01D02*
X18020000Y07580000D01*
G01X18120000Y07390000D02*
X18150000Y07420000D01*
Y07548800D01*
G01X18650000Y08318790D02*
X18640000Y08308790D01*
Y08260000D01*
X18450000Y08070000D01*
Y08048800D01*
G01X18050000Y07970000D02*
X17960000Y08060000D01*
G01X18150000Y08048800D02*
Y08180000D01*
G01D02*
X18120000Y08210000D01*
G01X18050000Y07898800D02*
X17971200D01*
X17940000Y07930000D01*
G01X18150000Y10148800D02*
Y10040000D01*
G01X18120000Y09990000D02*
X18150000Y10020000D01*
Y10040000D01*
G01X18070000Y10200000D02*
Y10230000D01*
X18051200Y10248800D01*
X18050000D01*
G01X18010000Y10220000D02*
X18038800Y10248800D01*
X18050000D01*
G01Y10210000D02*
Y10248800D01*
G01Y10570000D02*
Y10548800D01*
G01X18150000Y10750000D02*
Y10648800D01*
G01X18030000Y10870000D02*
X18150000Y10750000D01*
G01X20553200Y09490410D02*
X20303220D01*
X20173200Y09360390D01*
G01X20553200Y09540400D02*
X20193190D01*
X20173200Y09520410D01*
G01X21031200Y08839200D02*
X21003190Y08811190D01*
G01X21140000Y08300010D02*
X21003190Y08436820D01*
Y08640400D01*
G01Y08811190D02*
Y08640400D01*
G01X20953200D02*
Y08326790D01*
X20979990Y08300000D01*
G01X21118210Y11140400D02*
X21127810Y11150000D01*
X21400000D01*
X21498210Y11051790D01*
Y10740400D01*
G01X21450000Y12900000D02*
Y12840000D01*
X21600000Y12690000D01*
Y12600000D01*
X21550000Y12550000D01*
X21420010D01*
X21340000Y12630010D01*
G01X21350000Y12900000D02*
Y12640010D01*
X21340000Y12630010D01*
G01X21400000Y12900000D02*
Y12720010D01*
X21490000Y12630010D01*
G01X21450000Y13400000D02*
Y13410000D01*
X21580000Y13540000D01*
G01X21150000Y13400000D02*
Y13410000D01*
X21090000Y13470000D01*
G01D02*
Y13580000D01*
X21100000Y13590000D01*
G01X20990000Y13330000D02*
X21020000Y13300000D01*
X21050000D01*
G01X21430000Y13630000D02*
X21350000Y13550000D01*
G01D02*
Y13400000D01*
G01X21260000Y13520000D02*
Y13478400D01*
X21250000Y13468400D01*
Y13400000D01*
G01X21903210Y08640400D02*
Y09084790D01*
G01X22020000Y08410000D02*
X22013210Y08403210D01*
Y08360000D01*
G01D02*
X21990000D01*
X21903210Y08446790D01*
Y08640400D01*
G01X22013210Y08360000D02*
Y08330400D01*
G01X21953200Y08640400D02*
Y08606800D01*
X22000000Y08560000D01*
G01X21853200Y08640400D02*
Y08330410D01*
X21853190Y08330400D01*
G01X21580000Y08960000D02*
Y09680000D01*
X21703210Y09803210D01*
Y10240400D01*
G01X21653200D02*
Y10093200D01*
X21600000Y10040000D01*
G01X21653200Y10240400D02*
Y10373200D01*
X21840000Y10560000D01*
G01D02*
Y10723610D01*
X21823210Y10740400D01*
G01X21498190Y10565400D02*
Y10740380D01*
X21498210Y10740400D01*
G01X21553200Y10240400D02*
Y10510390D01*
X21498190Y10565400D01*
G01X21603210Y10240400D02*
Y10510400D01*
X21658210Y10565400D01*
G01X21663190Y10740400D02*
Y10570380D01*
X21658210Y10565400D01*
G01X22038190Y11140400D02*
X22028590Y11150000D01*
X21750000D01*
X21663190Y11063190D01*
Y10740400D01*
G01X21819990Y12800000D02*
X21809990Y12810000D01*
X21700000D01*
X21550000Y12960000D01*
Y13000000D01*
G01X21830000Y13520000D02*
X21610000Y13300000D01*
X21550000D01*
G01X22483200Y09360410D02*
X22463190Y09340400D01*
G01D02*
X22153200D01*
G01X22483200Y09200390D02*
X22411600D01*
X22321600Y09290390D01*
X22153200D01*
G01X23750000Y13400000D02*
X23690000Y13460000D01*
G01D02*
Y13600000D01*
X23730000Y13640000D01*
G01X23850000Y13400000D02*
Y13468400D01*
X23860000Y13478400D01*
Y13520000D01*
G01X23590000Y13330000D02*
X23620000Y13300000D01*
G01D02*
X23650000D01*
G01X24180000Y13500000D02*
X24080000Y13400000D01*
G01D02*
X24050000D01*
G01X24420000Y13510000D02*
X24210000Y13300000D01*
X24150000D01*
G01X24017700Y13577700D02*
X24040000Y13600000D01*
G01X24017700Y13577700D02*
X24016100D01*
X23950000Y13511600D01*
G01Y13510000D02*
Y13511600D01*
G01Y13400000D02*
Y13510000D01*
G01X24010000Y13600000D02*
X23950000Y13540000D01*
G01D02*
Y13511600D01*
G01X26250000Y13200000D02*
X26450000D01*
X26500000Y13150000D01*
G01X26190000Y13330000D02*
X26220000Y13300000D01*
X26250000D01*
G01X27930010Y09250000D02*
X27920000D01*
X27850000Y09320000D01*
Y09530000D01*
X27820000Y09560000D01*
X27160000D01*
X26790000Y09930000D01*
X26350000D01*
G01X26750000Y13150000D02*
X26600000D01*
G01X26580000Y13580000D02*
X26550000Y13550000D01*
G01D02*
Y13400000D01*
G01X26450000D02*
Y13468400D01*
G01D02*
X26460000Y13478400D01*
Y13520000D01*
G01Y13621100D02*
X26450000Y13611100D01*
G01D02*
Y13468400D01*
G01X26290000Y13540000D02*
X26320000Y13570000D01*
Y13629990D01*
G01X26650000Y13400000D02*
Y13410000D01*
X26780000Y13540000D01*
G01Y13629990D02*
Y13540000D01*
G01X26280000Y13460000D02*
X26340000Y13400000D01*
X26350000D01*
G01X27440000Y10075000D02*
X27205010D01*
X27200000Y10069990D01*
G01X27180010Y12950000D02*
X27169990D01*
X27019990Y12800000D01*
G01X27860000Y10025000D02*
X27725000D01*
X27650000Y10100000D01*
G01X27860000Y10075000D02*
X28275000D01*
X28540000Y10340000D01*
X28659990D01*
G01X27860000Y10125000D02*
X28225000D01*
X28600000Y10500000D01*
Y10507300D01*
X28632700Y10540000D01*
X28659990D01*
G01X27725000Y10310000D02*
Y10534990D01*
X27750000Y10559990D01*
G01X27775000Y10310000D02*
Y10534990D01*
X27750000Y10559990D01*
G01X28050000D02*
Y10250000D01*
X27975000Y10175000D01*
X27860000D01*
G01Y10225000D02*
X27900000Y10265000D01*
Y10559990D01*
G01X28820010Y10540000D02*
X28820020Y10539990D01*
X29080000D01*
G01X29540300Y11214980D02*
Y10980300D01*
X29099990Y10539990D01*
X29080000D01*
G01Y10320010D02*
X29080010D01*
X29740000Y10980000D01*
Y11214680D01*
X29740300Y11214980D01*
G01X28820010Y10340000D02*
X28840000Y10320010D01*
X29080000D01*
G54D38*
X24540000Y07400000D03*
X25160000D03*
G54D29*
X20753200Y08640400D03*
X20803190D03*
X20853200D03*
Y10240400D03*
X20803190D03*
X20753200D03*
X20903190Y08640400D03*
X20953200D03*
X21003190D03*
X21053200D03*
X21103190D03*
X21153200D03*
X21203190D03*
X21253200D03*
X21303190D03*
X21353200D03*
X21403210D03*
X21453200D03*
Y10240400D03*
X21403210D03*
X21353200D03*
X21303190D03*
X21253200D03*
X21203190D03*
X21153200D03*
X21103190D03*
X21053200D03*
X21003190D03*
X20953200D03*
X20903190D03*
X21503210Y08640400D03*
X21553200D03*
X21603210D03*
X21653200D03*
X21703210D03*
X21753200D03*
X21803210D03*
X21853200D03*
X21903210D03*
X21953200D03*
Y10240400D03*
X21903210D03*
X21853200D03*
X21803210D03*
X21753200D03*
X21703210D03*
X21653200D03*
X21603210D03*
X21553200D03*
X21503210D03*
G54D47*
X27559500Y07690000D03*
X27686500D03*
X27813500D03*
X27940500D03*
X28759500D03*
X28886500D03*
X29013500D03*
X29140500D03*
G54D66*
G01X30750000Y15200000D02*
X16250000D01*
Y05200000D01*
X30750000D01*
Y15190000D01*
X30740000Y15200000D01*
G54D57*
G01X18500000Y08478810D02*
Y08468790D01*
X18650000Y08318790D01*
G01X18500000Y11078810D02*
Y11068790D01*
X18650000Y10918790D01*
G01X25750000Y06219990D02*
X25720010D01*
X25559990Y06380010D01*
X25550000D01*
G01X25750000Y06219990D02*
X25740000Y06209990D01*
Y05715000D01*
X25725000Y05700000D01*
G01X26550000Y06219990D02*
X26575000Y06194990D01*
Y05700000D01*
G01X26550000Y06219990D02*
X26530010D01*
X26369990Y06380010D01*
X26350000D01*
G54D48*
X27650000Y10100000D03*
G54D39*
X24500000Y08085000D03*
Y09115000D03*
G54D58*
G01X20970000Y13350000D02*
X20990000Y13330000D01*
G01X21260000Y13621100D02*
Y13520000D01*
G01X21726060Y06250000D02*
Y06112300D01*
X21720000Y06106240D01*
Y05940000D01*
X21625000Y05845000D01*
Y05700000D01*
G01X22069990Y06710000D02*
Y06627300D01*
X22070000Y06627290D01*
Y06466230D01*
X21853770Y06250000D01*
X21726060D01*
G01X22069990Y06710000D02*
X21972700D01*
X21962700Y06720000D01*
X21815000D01*
G01X22100000Y07879990D02*
Y07280000D01*
X22000000Y07180000D01*
X21815000D01*
G01X23860000Y13520000D02*
Y13621100D01*
G01X26170000Y13350000D02*
X26190000Y13330000D01*
G01X26460000Y13520000D02*
Y13621100D01*
G54D49*
X27775000Y09890000D03*
X27725000D03*
X27675000D03*
X27625000D03*
X27575000D03*
X27525000D03*
Y10310000D03*
X27575000D03*
X27625000D03*
X27675000D03*
X27725000D03*
X27775000D03*
G54D59*
G01X18050000Y06992120D02*
X17832620D01*
X17831420Y06993320D01*
G01X17820000Y06840000D02*
X17831420Y06851420D01*
G01D02*
Y06993320D01*
G01X17649990Y07550000D02*
X17560000D01*
G01X17650000Y07170000D02*
X17686680Y07206680D01*
X17831420D01*
G01X17649990Y08050000D02*
X17579990Y08120000D01*
X17560000D01*
G01X18034520Y08670000D02*
X17560000D01*
G01X17850000Y09430000D02*
X17831420Y09448580D01*
G01D02*
Y09593320D01*
G01D02*
X18048800D01*
X18050000Y09592120D01*
G01X17650000Y09770000D02*
X17686680Y09806680D01*
X17831420D01*
G01X17650000Y09770000D02*
X17500000D01*
G01X17560000Y10720000D02*
X17579990D01*
X17649990Y10650000D01*
G01Y10150000D02*
X17560000D01*
G01Y11270000D02*
X18044520D01*
X18050000Y11275480D01*
G01X18170000Y06920000D02*
X18097880Y06992120D01*
X18050000D01*
G01X18040000Y06830000D02*
X18050000Y06840000D01*
G01D02*
Y06992120D01*
G01X19180000Y07750000D02*
Y06980000D01*
X19080000Y06880000D01*
X18340000D01*
X18250000Y06970000D01*
Y07068790D01*
G01X18050000Y07202940D02*
Y07220000D01*
X18120000Y07290000D01*
G01X18050000Y08685480D02*
X18034520Y08670000D01*
G01D02*
X18044520D01*
X18050000Y08675480D01*
G01X18350000Y08478810D02*
Y08620000D01*
G01D02*
X18310000Y08660000D01*
X18170000D01*
G01X18050000Y08464660D02*
Y08460000D01*
X18140000Y08370000D01*
G01X18500000Y08318790D02*
X18350000D01*
G01X18180000Y09480000D02*
X18067880Y09592120D01*
X18050000D01*
G01X18040000Y09440000D02*
X18050000Y09450000D01*
G01D02*
Y09592120D01*
G01Y09802940D02*
Y09820000D01*
X18120000Y09890000D01*
G01X18050000Y11064660D02*
Y11060000D01*
X18140000Y10970000D01*
G01X18500000Y10918790D02*
X18350000D01*
G01X18600000Y07068790D02*
X18701210D01*
G01X19081200Y07591200D02*
X18988810D01*
X18980010Y07600000D01*
G01Y07898800D02*
X19081200D01*
G01X18650000Y08478810D02*
X18800000D01*
G01X18821200Y08838800D02*
Y08500010D01*
X18800000Y08478810D01*
G01X18600000Y09668790D02*
X18681210D01*
G01X18980010Y10480000D02*
X19060000D01*
G01X18650000Y11078810D02*
X18800000D01*
G01X18670000Y11200000D02*
X18650000Y11180000D01*
G01D02*
Y11078810D01*
G01X19761200Y08601200D02*
X19581200D01*
G01X20173200Y09360390D02*
Y08606800D01*
G01X19761200Y08601200D02*
X19918800D01*
G01X19761200D02*
Y08838800D01*
G01X20400000Y12240000D02*
X20380000Y12260000D01*
Y13100000D01*
X20480000Y13200000D01*
X20569990D01*
G01Y12850000D02*
Y12740010D01*
G01X20706680Y13668580D02*
Y13573320D01*
G01Y13668580D02*
Y13766680D01*
G01Y13668580D02*
X20811420D01*
G01X20704140Y13400000D02*
X20810000D01*
G01X20570000Y14200000D02*
Y14070000D01*
G01X20590000Y14390000D02*
Y14090000D01*
X20570000Y14070000D01*
G01Y14410000D02*
X20590000Y14390000D01*
G01X21140010Y08300000D02*
Y08200010D01*
G01Y08300000D02*
X21140000Y08300010D01*
G01Y07760000D02*
Y08200000D01*
X21140010Y08200010D01*
G01X21140000Y08380000D02*
Y08300010D01*
G01X21600000Y10040000D02*
Y09960000D01*
X21480000Y09840000D01*
Y09360000D01*
G01X21338190Y10740400D02*
Y10858190D01*
G01X21340000Y12469990D02*
X21190000D01*
G01D02*
Y12250000D01*
X21140000Y12200000D01*
G01X21100000Y13590000D02*
X21130000Y13620000D01*
Y13679990D01*
G01Y13840010D02*
Y13950000D01*
G01X22019990Y08200010D02*
Y08323620D01*
X22013210Y08330400D01*
G01X21821810Y10858190D02*
Y10741800D01*
X21823210Y10740400D01*
G01X22090000Y12800000D02*
X21980010D01*
G01X21820000Y12720000D02*
Y12650010D01*
X21819990Y12650000D01*
G01X21980010Y12950000D02*
X22070000D01*
G01X21819990Y13100000D02*
Y12950000D01*
G01X21980010Y13100000D02*
X22090000D01*
G01X21580000Y13540000D02*
X21590000Y13550000D01*
Y13679990D01*
G01X21945860Y13400000D02*
X21850000D01*
G01X21590000Y13950000D02*
Y13840010D01*
G01X22580000Y09350000D02*
X22570000Y09360000D01*
X22483610D01*
X22483200Y09360410D01*
G01X22160000Y13950000D02*
Y13403320D01*
X22156680Y13400000D01*
G01X22919990Y09350000D02*
X22830000D01*
G01X22913190Y10050400D02*
Y09966810D01*
G01X22900000Y12200000D02*
Y13100000D01*
X23000000Y13200000D01*
X23169990D01*
G01Y12850000D02*
Y12759990D01*
G01X23093320Y13400000D02*
X22940000D01*
G01X23306680Y13766680D02*
X23290000Y13783360D01*
Y13930000D01*
X23170000Y14050000D01*
Y14070000D01*
G01Y14200000D02*
Y14070000D01*
G01X23980000Y10140000D02*
X23609140Y09769140D01*
X23553200D01*
G01X23306680Y13618580D02*
Y13573320D01*
G01Y13618580D02*
Y13766680D01*
G01X23730000Y13669990D02*
Y13640000D01*
G01D02*
Y13600000D01*
X23700000Y13570000D01*
G01X23304140Y13400000D02*
X23420000D01*
G01X23730000Y13830010D02*
Y13920000D01*
G01X23980000Y09240000D02*
X24073940Y09333940D01*
G01D02*
Y09600000D01*
G01X23977000Y10316000D02*
X23980000Y10313000D01*
Y10140000D01*
G01X24420000Y12720000D02*
Y12650010D01*
X24419990Y12650000D01*
G01Y13100000D02*
Y12950000D01*
G01X24180000Y13540000D02*
X24190000Y13550000D01*
Y13669990D01*
G01X24440000Y13380000D02*
X24515860D01*
X24535860Y13400000D01*
G01X24190000Y13920000D02*
Y13830010D01*
G01X24580010Y12800000D02*
X24710000D01*
G01X24580010Y12950000D02*
X24670000D01*
G01X24760000Y13920000D02*
Y13413320D01*
X24746680Y13400000D01*
G01X25420000Y12200000D02*
Y13000000D01*
X25620000Y13200000D01*
X25769990D01*
G01Y12850000D02*
Y12749990D01*
G01X25904140Y13400000D02*
X26020000D01*
G01X25906680Y13668580D02*
X26011420D01*
G01X25906680D02*
Y13766680D01*
G01Y13668580D02*
Y13573320D01*
G01X25770000Y14200000D02*
Y14070000D01*
G01X26620000Y12439990D02*
Y12340000D01*
G01X26300000D02*
Y12439990D01*
G01X26320000Y13790010D02*
Y13900000D01*
G01X26780000D02*
Y13790010D01*
G01X27580000Y10559990D02*
X27512710D01*
X27460000Y10612700D01*
Y10900000D01*
X27500000Y10940000D01*
X28920000D01*
X29445020Y11465020D01*
X29540300D01*
G01X27180010Y12800000D02*
Y12650000D01*
G01X27019990Y13100000D02*
Y12950000D01*
G01X27246680Y13290000D02*
X27240000Y13283320D01*
Y13170000D01*
X27180010Y13110010D01*
Y13100000D01*
G01X27250000Y13900000D02*
Y13293320D01*
X27246680Y13290000D01*
G01X26940000D02*
X27035860D01*
G01X27559500Y07690000D02*
Y07910490D01*
X27550000Y07919990D01*
G01X27750000Y10559990D02*
X27580000D01*
G01X27900000D02*
X28050000D01*
G01X27750000Y10720010D02*
X27900000D01*
G01X27580000D02*
X27750000D01*
G01X27900000D02*
X28050000D01*
G01X27750000D02*
Y10830000D01*
G01X27580000Y10720010D02*
Y10840000D01*
G01X27800000Y11300000D02*
X27923940D01*
G01X28759500Y07690000D02*
Y07910490D01*
X28750000Y07919990D01*
M02*
