G04 ================== begin FILE IDENTIFICATION RECORD ==================*
G04 Layout Name:  D:/CRETAM/ATEAMVENTURES/MAINBOARD_02_20181023.brd*
G04 Film Name:    TOPSOL*
G04 File Format:  Gerber RS274X*
G04 File Origin:  Cadence Allegro 17.2-S018*
G04 Origin Date:  Tue Oct 23 17:21:51 2018*
G04 *
G04 Layer:  PIN/SOLDERMASK_TOP*
G04 Layer:  PACKAGE GEOMETRY/SOLDERMASK_TOP*
G04 Layer:  BOARD GEOMETRY/OUTLINE*
G04 *
G04 Offset:    (0.0000 0.0000)*
G04 Mirror:    No*
G04 Mode:      Positive*
G04 Rotation:  0*
G04 FullContactRelief:  No*
G04 UndefLineWidth:     0.0100*
G04 ================== end FILE IDENTIFICATION RECORD ====================*
%FSAX35Y35*MOMM*%
%IR0*IPPOS*OFA0.00000B0.00000*MIA0B0*SFA1.00000B1.00000*%
%ADD40R,1.X.3*%
%ADD46R,.3X1.*%
%ADD20R,1.2X.3*%
%ADD21R,.3X1.2*%
%ADD44R,.7X1.2*%
%ADD38R,8.5X10.5*%
%ADD33O,2.0066X.3048*%
%ADD26R,.3556X2.0574*%
%ADD25R,2.0574X.3556*%
%ADD50R,.8999X1.1001*%
%ADD37R,2.3X1.*%
%ADD19R,3.X3.*%
%ADD31R,3.X3.*%
%ADD29R,2.2X4.*%
%ADD14R,1.4X1.3*%
%ADD32R,2.2X1.5*%
%ADD27R,1.3X1.4*%
%ADD36R,5.4X3.*%
%ADD43R,5.X4.4*%
%ADD30R,4.8001X1.*%
%ADD41C,2.*%
%ADD48C,3.*%
%ADD47R,2.16X2.26*%
%ADD35R,1.8X2.8*%
%ADD42R,2.X2.*%
%ADD17C,1.8*%
%ADD10C,5.5*%
%ADD45R,2.5X2.5*%
%ADD22C,1.905*%
%ADD16R,1.8X1.8*%
%ADD49C,3.429*%
%ADD23R,1.905X1.905*%
%ADD39R,2.1001X1.8999*%
%ADD28R,1.8999X2.1001*%
%ADD11R,1.5999X3.5001*%
%ADD24R,3.5001X1.5999*%
%ADD34R,1.9304X1.8288*%
%ADD12C,1.5999*%
%ADD18R,.8999X.8001*%
%ADD15R,.8001X.8999*%
%ADD13R,1.5999X1.5999*%
%ADD51C,.15*%
%ADD52C,.01*%
G75*
%LPD*%
G75*
G54D10*
X16750000Y05700000D03*
Y14700000D03*
X30250000Y05700000D03*
Y14700000D03*
G54D11*
X17300000Y06630000D03*
Y07170000D03*
Y09230000D03*
Y09770000D03*
X19761200Y08061200D03*
Y08601200D03*
X24800000Y10130000D03*
Y10670000D03*
X25600000Y10130000D03*
Y10670000D03*
G54D20*
X18050000Y07648800D03*
Y07698800D03*
Y07748800D03*
Y07798800D03*
Y07848800D03*
Y07898800D03*
Y07948800D03*
Y10248800D03*
Y10298800D03*
Y10348800D03*
Y10398800D03*
Y10448800D03*
Y10498800D03*
Y10548800D03*
X18550000Y07648800D03*
Y07948800D03*
Y07898800D03*
Y07848800D03*
Y07798800D03*
Y07748800D03*
Y07698800D03*
Y10548800D03*
Y10498800D03*
Y10448800D03*
Y10398800D03*
Y10348800D03*
Y10298800D03*
Y10248800D03*
X21050000Y13000000D03*
Y13050000D03*
Y13100000D03*
Y13150000D03*
Y13200000D03*
Y13250000D03*
Y13300000D03*
X21550000Y13050000D03*
Y13000000D03*
Y13300000D03*
Y13250000D03*
Y13200000D03*
Y13150000D03*
Y13100000D03*
X23650000Y13000000D03*
Y13050000D03*
Y13100000D03*
Y13150000D03*
Y13200000D03*
Y13250000D03*
Y13300000D03*
X24150000Y13050000D03*
Y13000000D03*
Y13300000D03*
Y13250000D03*
Y13200000D03*
Y13150000D03*
Y13100000D03*
X26250000Y13000000D03*
Y13050000D03*
Y13100000D03*
Y13150000D03*
Y13200000D03*
Y13250000D03*
Y13300000D03*
X26750000Y13050000D03*
Y13000000D03*
Y13300000D03*
Y13250000D03*
Y13200000D03*
Y13150000D03*
Y13100000D03*
G54D12*
X16900000Y07573800D03*
Y08073800D03*
Y07823800D03*
Y10223800D03*
Y10723800D03*
Y10473800D03*
X21375000Y05700000D03*
X21025000Y14550000D03*
X21525000D03*
X21275000D03*
X22675000Y05750000D03*
X23425000D03*
X23723000Y10824000D03*
X23625000Y14550000D03*
X23875000D03*
X24175000Y05750000D03*
X24125000Y14550000D03*
X25475000Y05700000D03*
X26325000D03*
X26225000Y14550000D03*
X26725000D03*
X26475000D03*
X28161800Y14556800D03*
X29275000Y14600000D03*
X29540300Y11214980D03*
X29740300D03*
X29540300Y11465020D03*
X29740300D03*
G54D30*
X21118210Y11140400D03*
X22038190D03*
G54D21*
X18450000Y07548800D03*
X18400000D03*
X18350000D03*
X18300000D03*
X18250000D03*
X18200000D03*
X18150000D03*
Y08048800D03*
X18200000D03*
X18250000D03*
X18300000D03*
X18350000D03*
X18400000D03*
X18450000D03*
X18150000Y10648800D03*
X18200000D03*
X18250000D03*
X18300000D03*
X18350000D03*
X18400000D03*
X18450000D03*
Y10148800D03*
X18400000D03*
X18350000D03*
X18300000D03*
X18250000D03*
X18200000D03*
X18150000D03*
X21450000Y12900000D03*
X21400000D03*
X21350000D03*
X21300000D03*
X21250000D03*
X21200000D03*
X21150000D03*
Y13400000D03*
X21200000D03*
X21250000D03*
X21300000D03*
X21350000D03*
X21400000D03*
X21450000D03*
X23850000Y12900000D03*
X23800000D03*
X23750000D03*
Y13400000D03*
X23800000D03*
X23850000D03*
X24050000Y12900000D03*
X24000000D03*
X23950000D03*
X23900000D03*
Y13400000D03*
X23950000D03*
X24000000D03*
X24050000D03*
X26650000Y12900000D03*
X26600000D03*
X26550000D03*
X26500000D03*
X26450000D03*
X26400000D03*
X26350000D03*
Y13400000D03*
X26400000D03*
X26450000D03*
X26500000D03*
X26550000D03*
X26600000D03*
X26650000D03*
G54D13*
X16900000Y08323800D03*
Y10973800D03*
X21625000Y05700000D03*
X21775000Y14550000D03*
X22925000Y05750000D03*
X23675000D03*
X24425000D03*
X24375000Y14550000D03*
X25725000Y05700000D03*
X26575000D03*
X26975000Y14550000D03*
X28411800Y14556800D03*
X29525000Y14600000D03*
G54D22*
X20073000Y05700000D03*
G54D31*
X21300000Y13150000D03*
X23900000D03*
X26500000D03*
G54D40*
X27440000Y09975000D03*
Y10025000D03*
Y10075000D03*
Y10125000D03*
Y10175000D03*
Y10225000D03*
X27860000Y10075000D03*
Y10025000D03*
Y09975000D03*
Y10225000D03*
Y10175000D03*
Y10125000D03*
G54D23*
X20327000Y05700000D03*
G54D41*
X27575000Y05850000D03*
X27650000Y11755000D03*
Y12000000D03*
Y12500000D03*
Y12755000D03*
X28350000Y11750000D03*
Y12000000D03*
Y12500000D03*
Y12750000D03*
X28710000Y13330000D03*
X28210000Y13180000D03*
Y13980000D03*
X28710000Y13830000D03*
X28825000Y05850000D03*
G54D32*
X21815000Y06950000D03*
Y06720000D03*
Y07180000D03*
G54D14*
X17831420Y06993320D03*
Y07206680D03*
Y09806680D03*
Y09593320D03*
X18050000Y06992120D03*
Y07202940D03*
Y08474660D03*
Y08685480D03*
Y09802940D03*
Y09592120D03*
Y11064660D03*
Y11275480D03*
G54D50*
X29319990Y12200000D03*
X29480010D03*
G54D51*
G01X-00050000Y0D02*
X0D01*
Y-00050000D01*
G01Y00050000D02*
Y0D01*
X00050000D01*
G54D15*
X17649990Y07550000D03*
X17810010D03*
X17649990Y08050000D03*
X17810010D03*
X17649990Y10150000D03*
X17810010D03*
X17649990Y10650000D03*
X17810010D03*
X18980010Y07600000D03*
X18819990D03*
X18980010Y07898800D03*
X18819990D03*
X18980010Y08048800D03*
X18819990D03*
Y07750000D03*
X18980010D03*
X18819990Y10320000D03*
X18980010D03*
Y10480000D03*
X18819990D03*
X18980010Y10640000D03*
X18819990D03*
X18980010Y10160000D03*
X18819990D03*
X20730010Y12850000D03*
X20569990D03*
Y13000000D03*
X20730010D03*
Y13200000D03*
X20569990D03*
X21140010Y08300000D03*
X20979990D03*
X21498190Y10565400D03*
X21338190Y10740400D03*
X21498210D03*
X22069990Y06710000D03*
X22013210Y08330400D03*
X21853190D03*
X21658210Y10565400D03*
X21823210Y10740400D03*
X21663190D03*
X21819990Y12950000D03*
X21980010D03*
Y12800000D03*
X21819990D03*
X21980010Y12650000D03*
X21819990D03*
X21980010Y13100000D03*
X21819990D03*
X22230010Y06710000D03*
X23083210Y08890400D03*
X22923190D03*
X23080010Y09350000D03*
X22919990D03*
X23083210Y09040400D03*
X22923190D03*
X22919990Y09750000D03*
X23080010D03*
X22913190Y10050400D03*
X23073210D03*
X22919990Y09550000D03*
X23080010D03*
X23073210Y10230400D03*
X22913190D03*
X23169990Y12850000D03*
Y13000000D03*
Y13200000D03*
X23330010Y12850000D03*
Y13000000D03*
Y13200000D03*
X24419990Y12950000D03*
Y12800000D03*
Y12650000D03*
Y13100000D03*
X24580010Y12950000D03*
Y12800000D03*
Y12650000D03*
Y13100000D03*
X25980010Y09520000D03*
X25819990D03*
X25930010Y12850000D03*
X25769990D03*
Y13000000D03*
X25930010D03*
Y13200000D03*
X25769990D03*
X27019990Y12950000D03*
X27180010D03*
Y12800000D03*
X27019990D03*
X27180010Y12650000D03*
X27019990D03*
X27180010Y13100000D03*
X27019990D03*
X27769990Y09250000D03*
X27930010D03*
X27928740Y09450000D03*
X27768720D03*
X28659990Y10540000D03*
Y10340000D03*
X28820010Y10540000D03*
Y10340000D03*
G54D24*
X20030000Y14200000D03*
X20570000D03*
X22630000Y14250000D03*
X23170000D03*
X25230000Y14200000D03*
X25770000D03*
G54D42*
X27925000Y05850000D03*
X29175000D03*
G54D33*
X22153200Y08840400D03*
G54D52*
G01X30750000Y15200000D02*
X16250000D01*
Y05200000D01*
X30750000D01*
Y15190000D01*
X30740000Y15200000D01*
G54D34*
X23320000Y10084740D03*
Y10432720D03*
G54D16*
X17418800Y12398400D03*
X17930000Y14075600D03*
G54D43*
X27750000Y07300000D03*
X28950000D03*
G54D25*
X20553200Y08840400D03*
Y09440400D03*
Y09390390D03*
Y09340400D03*
Y09290390D03*
Y09240400D03*
Y09190390D03*
Y09140400D03*
Y09090390D03*
Y09040400D03*
Y08990390D03*
Y08940400D03*
Y08890390D03*
Y10040400D03*
Y09990410D03*
Y09940400D03*
Y09890410D03*
Y09840400D03*
Y09790410D03*
Y09740400D03*
Y09690410D03*
Y09640400D03*
Y09590410D03*
Y09540400D03*
Y09490410D03*
X22153200Y08890390D03*
Y08940400D03*
Y08990390D03*
Y09040400D03*
Y09090390D03*
Y09140400D03*
Y09190390D03*
Y09240400D03*
Y09290390D03*
Y09340400D03*
Y09390390D03*
Y09440400D03*
Y09490410D03*
Y09540400D03*
Y09590410D03*
Y09640400D03*
Y09690410D03*
Y09740400D03*
Y09790410D03*
Y09840400D03*
Y09890410D03*
Y09940400D03*
Y09990410D03*
Y10040400D03*
G54D17*
X17672800Y12398400D03*
X17926800D03*
X17418800Y12652400D03*
X17672800D03*
X17926800D03*
X17930000Y14329600D03*
X18180800Y12398400D03*
X18434800D03*
X18180800Y12652400D03*
X18434800D03*
X18438000Y14329600D03*
Y14075600D03*
X18184000Y14329600D03*
Y14075600D03*
X18688800Y12398400D03*
X18942800D03*
X18688800Y12652400D03*
X18942800D03*
X18946000Y14329600D03*
Y14075600D03*
X18692000Y14329600D03*
Y14075600D03*
X23723000Y10316000D03*
Y10570000D03*
X23977000Y10316000D03*
Y10570000D03*
Y10824000D03*
G54D35*
X24540000Y07400000D03*
X25160000D03*
G54D26*
X20753200Y08640400D03*
X20803190D03*
X20853200D03*
Y10240400D03*
X20803190D03*
X20753200D03*
X20903190Y08640400D03*
X20953200D03*
X21003190D03*
X21053200D03*
X21103190D03*
X21153200D03*
X21203190D03*
X21253200D03*
X21303190D03*
X21353200D03*
X21403210D03*
X21453200D03*
Y10240400D03*
X21403210D03*
X21353200D03*
X21303190D03*
X21253200D03*
X21203190D03*
X21153200D03*
X21103190D03*
X21053200D03*
X21003190D03*
X20953200D03*
X20903190D03*
X21503210Y08640400D03*
X21553200D03*
X21603210D03*
X21653200D03*
X21703210D03*
X21753200D03*
X21803210D03*
X21853200D03*
X21903210D03*
X21953200D03*
Y10240400D03*
X21903210D03*
X21853200D03*
X21803210D03*
X21753200D03*
X21703210D03*
X21653200D03*
X21603210D03*
X21553200D03*
X21503210D03*
G54D44*
X27559500Y07690000D03*
X27686500D03*
X27813500D03*
X27940500D03*
X28759500D03*
X28886500D03*
X29013500D03*
X29140500D03*
G54D18*
X18250000Y07068790D03*
X18450000D03*
X18250000Y07228810D03*
X18450000D03*
X18350000Y08478810D03*
Y08318790D03*
X18500000D03*
Y08478810D03*
X18250000Y09828810D03*
Y09668790D03*
X18450000D03*
Y09828810D03*
X18350000Y11078810D03*
Y10918790D03*
X18500000D03*
Y11078810D03*
X18600000Y07068790D03*
Y07228810D03*
X18650000Y08478810D03*
Y08318790D03*
X18800000Y08478810D03*
Y08318790D03*
X18600000Y09828810D03*
Y09668790D03*
X18650000Y11078810D03*
Y10918790D03*
X18800000Y11078810D03*
Y10918790D03*
X20173200Y09360390D03*
Y09520410D03*
X20890000Y06789990D03*
Y06950010D03*
X20780000Y08300010D03*
Y08139990D03*
X21490000Y12469990D03*
X21340000D03*
X21190000D03*
X21040000D03*
X21490000Y12630010D03*
X21340000D03*
X21190000D03*
X21040000D03*
X21130000Y13679990D03*
Y13840010D03*
X22100000Y07879990D03*
Y08040010D03*
X21590000Y13679990D03*
Y13840010D03*
X22483200Y09360410D03*
Y09200390D03*
X23403200Y09610390D03*
Y09770410D03*
X23553200Y09769140D03*
Y09609120D03*
X23850000Y12469990D03*
X23700000D03*
X23850000Y12630010D03*
X23700000D03*
X23730000Y13669990D03*
Y13830010D03*
X24150000Y12469990D03*
X24000000D03*
X24150000Y12630010D03*
X24000000D03*
X24190000Y13669990D03*
Y13830010D03*
X25550000Y06219990D03*
Y06380010D03*
X25750000Y06219990D03*
Y06380010D03*
X26300000Y12439990D03*
Y12600010D03*
X26550000Y06219990D03*
Y06380010D03*
X26350000Y06219990D03*
Y06380010D03*
X26460000Y12439990D03*
X26620000D03*
X26780000D03*
X26460000Y12600010D03*
X26620000D03*
X26780000D03*
X26320000Y13629990D03*
X26780000D03*
X26320000Y13790010D03*
X26780000D03*
X27200000Y10069990D03*
Y10230010D03*
X27550000Y07919990D03*
Y08080010D03*
X27750000Y07919990D03*
Y08080010D03*
X27950000Y07919990D03*
Y08080010D03*
X27580000Y10559990D03*
X27750000D03*
X27900000D03*
X28050000D03*
X27580000Y10720010D03*
X27750000D03*
X27900000D03*
X28050000D03*
X28750000Y07919990D03*
Y08080010D03*
X28950000Y07919990D03*
Y08080010D03*
X29150000Y07919990D03*
Y08080010D03*
X29080000Y10539990D03*
Y10320010D03*
Y10159990D03*
Y10700010D03*
G54D45*
X27650000Y10100000D03*
G54D36*
X24500000Y08085000D03*
Y09115000D03*
G54D27*
X20704140Y13400000D03*
X20493320D03*
X20706680Y13668580D03*
X20493320D03*
X21945860Y13400000D03*
X22156680D03*
X23304140D03*
X23093320D03*
X23306680Y13618580D03*
X23093320D03*
X24535860Y13400000D03*
X24746680D03*
X25693320D03*
Y13668580D03*
X25904140Y13400000D03*
X25906680Y13668580D03*
X27035860Y13290000D03*
X27246680D03*
G54D28*
X21273940Y06250000D03*
X21726060D03*
X24073940Y09600000D03*
X24526060D03*
X27523940Y06700000D03*
X27023940Y11300000D03*
X27476060D03*
X27976060Y06700000D03*
X27923940Y11300000D03*
X28376060D03*
X28773940Y06700000D03*
X29226060D03*
G54D19*
X18300000Y07798800D03*
Y10398800D03*
G54D37*
X25430000Y08409600D03*
Y08579800D03*
Y08750000D03*
Y08920200D03*
Y09090400D03*
G54D46*
X27775000Y09890000D03*
X27725000D03*
X27675000D03*
X27625000D03*
X27575000D03*
X27525000D03*
Y10310000D03*
X27575000D03*
X27625000D03*
X27675000D03*
X27725000D03*
X27775000D03*
G54D47*
X29150000Y12600000D03*
X29640000D03*
G54D29*
X21185000Y06950000D03*
G54D38*
X26427500Y08750000D03*
G54D39*
X26550000Y11273940D03*
Y11726060D03*
G54D48*
X29450000Y08745000D03*
X29950000Y09270000D03*
X29590000Y09230000D03*
X29950000Y09770000D03*
X29590000Y09810000D03*
X29450000Y10295000D03*
X30300000Y08745000D03*
X30500000Y09520000D03*
X30300000Y10295000D03*
G54D49*
X30011290Y10738020D03*
Y11941980D03*
M02*
