G75*
%MOIN*%
%OFA0B0*%
%FSLAX25Y25*%
%IPPOS*%
%LPD*%
%AMOC8*
5,1,8,0,0,1.08239X$1,22.5*
%
%ADD10R,0.07087X0.13780*%
%ADD11R,0.05118X0.09843*%
%ADD12R,0.19685X0.08661*%
%ADD13R,0.02756X0.03543*%
%ADD14C,0.03200*%
%ADD15C,0.05000*%
D10*
G36*
X0244947Y0947116D02*
X0251368Y0950110D01*
X0257191Y0937622D01*
X0250770Y0934628D01*
X0244947Y0947116D01*
G37*
G36*
X0274920Y0961092D02*
X0281341Y0964086D01*
X0287164Y0951598D01*
X0280743Y0948604D01*
X0274920Y0961092D01*
G37*
D11*
G36*
X0280760Y0923415D02*
X0285397Y0925578D01*
X0289556Y0916659D01*
X0284919Y0914496D01*
X0280760Y0923415D01*
G37*
G36*
X0271839Y0919256D02*
X0276476Y0921419D01*
X0280635Y0912500D01*
X0275998Y0910337D01*
X0271839Y0919256D01*
G37*
D12*
G36*
X0316933Y0923931D02*
X0308615Y0941769D01*
X0316463Y0945429D01*
X0324781Y0927591D01*
X0316933Y0923931D01*
G37*
G36*
X0331206Y0930587D02*
X0322888Y0948425D01*
X0330736Y0952085D01*
X0339054Y0934247D01*
X0331206Y0930587D01*
G37*
D13*
X0309071Y0908087D03*
X0303953Y0908087D03*
D14*
X0280528Y0908087D01*
X0276237Y0915878D01*
X0285158Y0920037D02*
X0288402Y0914386D01*
X0296276Y0914386D01*
X0299031Y0917535D01*
X0305331Y0917535D01*
X0308874Y0914386D01*
X0308874Y0908087D01*
D15*
X0194524Y0228156D02*
X0481315Y0228156D01*
X0481315Y0208013D01*
X0216587Y0208013D01*
X0242179Y0187871D01*
X0469504Y0187871D01*
X0445882Y0167728D01*
X0272547Y0167728D01*
X0310104Y0147585D01*
X0430134Y0147585D01*
X0430134Y0127442D01*
X0361022Y0127442D01*
X0418323Y0107299D01*
X0449819Y0107299D01*
X0449819Y0146669D01*
X0477378Y0170291D01*
X0516748Y0170291D01*
X0544307Y0146669D01*
X0544307Y0107299D01*
X0575803Y0107299D01*
X0633104Y0127442D01*
X0563992Y0127442D01*
X0563992Y0147585D01*
X0684022Y0147585D01*
X0721579Y0167728D01*
X0548244Y0167728D01*
X0524622Y0187871D01*
X0751947Y0187871D01*
X0777539Y0208013D01*
X0512811Y0208013D01*
X0512811Y0228156D01*
X0799602Y0228156D01*
X0818881Y0248299D01*
X0512811Y0248299D01*
X0512811Y0268442D01*
X0835863Y0268442D01*
X0850886Y0288585D01*
X0512811Y0288585D01*
X0512811Y0308728D01*
X0864197Y0308728D01*
X0875979Y0328870D01*
X0512811Y0328870D01*
X0512811Y0349013D01*
X0886374Y0349013D01*
X0895493Y0369156D01*
X0512811Y0369156D01*
X0512811Y0389299D01*
X0903424Y0389299D01*
X0910237Y0409442D01*
X0512811Y0409442D01*
X0512811Y0429585D01*
X0915986Y0429585D01*
X0920716Y0449727D01*
X0512811Y0449727D01*
X0512811Y0469870D01*
X0924462Y0469870D01*
X0927250Y0490013D01*
X0512811Y0490013D01*
X0512811Y0510156D01*
X0929098Y0510156D01*
X0930019Y0530299D01*
X0512811Y0530299D01*
X0512811Y0550441D01*
X0930019Y0550441D01*
X0929098Y0570584D01*
X0512811Y0570584D01*
X0512811Y0590727D01*
X0927250Y0590727D01*
X0924462Y0610870D01*
X0512811Y0610870D01*
X0512811Y0631013D01*
X0920716Y0631013D01*
X0915986Y0651156D01*
X0512811Y0651156D01*
X0512811Y0671298D01*
X0910237Y0671298D01*
X0903424Y0691441D01*
X0512811Y0691441D01*
X0512811Y0711584D01*
X0836438Y0711584D01*
X0823835Y0731727D01*
X0512811Y0731727D01*
X0512811Y0751870D01*
X0815961Y0751870D01*
X0821866Y0772013D01*
X0512811Y0772013D01*
X0512811Y0792155D01*
X0827264Y0792155D01*
X0835863Y0812298D01*
X0512811Y0812298D01*
X0512811Y0832441D01*
X0818881Y0832441D01*
X0799602Y0852584D01*
X0512811Y0852584D01*
X0512811Y0872727D01*
X0777539Y0872727D01*
X0751947Y0892870D01*
X0512811Y0892870D01*
X0512811Y0913012D01*
X0721579Y0913012D01*
X0684022Y0933155D01*
X0512811Y0933155D01*
X0512811Y0953298D01*
X0633104Y0953298D01*
X0575803Y0973441D01*
X0422260Y0973441D01*
X0375016Y0930134D01*
X0336433Y0930134D01*
X0330971Y0941336D01*
X0316698Y0934680D02*
X0327772Y0913012D01*
X0386827Y0913012D01*
X0427951Y0953298D01*
X0481315Y0953298D01*
X0481315Y0933155D01*
X0436088Y0933155D01*
X0414279Y0913012D01*
X0481315Y0913012D01*
X0481315Y0892870D01*
X0242179Y0892870D01*
X0216587Y0872727D01*
X0481315Y0872727D01*
X0481315Y0852584D01*
X0194524Y0852584D01*
X0175245Y0832441D01*
X0481315Y0832441D01*
X0481315Y0812298D01*
X0158263Y0812298D01*
X0166862Y0792155D01*
X0481315Y0792155D01*
X0481315Y0772013D01*
X0172260Y0772013D01*
X0178165Y0751870D01*
X0481315Y0751870D01*
X0481315Y0731727D01*
X0170291Y0731727D01*
X0157688Y0711584D01*
X0481315Y0711584D01*
X0481315Y0691441D01*
X0090702Y0691441D01*
X0083889Y0671298D01*
X0481315Y0671298D01*
X0481315Y0651156D01*
X0078140Y0651156D01*
X0073410Y0631013D01*
X0481315Y0631013D01*
X0481315Y0610870D01*
X0069664Y0610870D01*
X0066876Y0590727D01*
X0481315Y0590727D01*
X0481315Y0570584D01*
X0065028Y0570584D01*
X0064107Y0550441D01*
X0481315Y0550441D01*
X0481315Y0530299D01*
X0064107Y0530299D01*
X0065028Y0510156D01*
X0481315Y0510156D01*
X0481315Y0490013D01*
X0066876Y0490013D01*
X0069664Y0469870D01*
X0481315Y0469870D01*
X0481315Y0449727D01*
X0073410Y0449727D01*
X0078140Y0429585D01*
X0481315Y0429585D01*
X0481315Y0409442D01*
X0083889Y0409442D01*
X0090702Y0389299D01*
X0481315Y0389299D01*
X0481315Y0369156D01*
X0098632Y0369156D01*
X0107752Y0349013D01*
X0481315Y0349013D01*
X0481315Y0328870D01*
X0118147Y0328870D01*
X0129929Y0308728D01*
X0481315Y0308728D01*
X0481315Y0288585D01*
X0143240Y0288585D01*
X0158263Y0268442D01*
X0481315Y0268442D01*
X0481315Y0248299D01*
X0175245Y0248299D01*
X0194524Y0228156D01*
M02*
