G75*
%MOIN*%
%OFA0B0*%
%FSLAX25Y25*%
%IPPOS*%
%LPD*%
%AMOC8*
5,1,8,0,0,1.08239X$1,22.5*
%
%ADD10C,0.00000*%
%ADD11C,0.00400*%
%ADD12C,0.00500*%
%ADD13C,0.00300*%
%ADD14C,0.00800*%
%ADD15C,0.01600*%
D10*
X0003469Y0003469D02*
X0003469Y0239689D01*
X0239689Y0239689D01*
X0239689Y0263311D01*
X0377484Y0263311D01*
X0377484Y0239689D01*
X0613705Y0239689D01*
X0613705Y0003469D01*
X0003469Y0003469D01*
X0258528Y0240083D02*
X0258530Y0240193D01*
X0258536Y0240303D01*
X0258546Y0240413D01*
X0258560Y0240522D01*
X0258578Y0240631D01*
X0258599Y0240739D01*
X0258625Y0240846D01*
X0258654Y0240952D01*
X0258688Y0241057D01*
X0258725Y0241161D01*
X0258766Y0241263D01*
X0258810Y0241364D01*
X0258858Y0241463D01*
X0258910Y0241561D01*
X0258965Y0241656D01*
X0259023Y0241749D01*
X0259085Y0241840D01*
X0259150Y0241929D01*
X0259218Y0242016D01*
X0259290Y0242100D01*
X0259364Y0242181D01*
X0259441Y0242260D01*
X0259521Y0242336D01*
X0259604Y0242408D01*
X0259689Y0242478D01*
X0259777Y0242545D01*
X0259867Y0242608D01*
X0259959Y0242668D01*
X0260053Y0242725D01*
X0260150Y0242779D01*
X0260248Y0242828D01*
X0260348Y0242875D01*
X0260450Y0242917D01*
X0260553Y0242956D01*
X0260657Y0242991D01*
X0260763Y0243023D01*
X0260869Y0243050D01*
X0260977Y0243074D01*
X0261085Y0243094D01*
X0261194Y0243110D01*
X0261304Y0243122D01*
X0261414Y0243130D01*
X0261524Y0243134D01*
X0261634Y0243134D01*
X0261744Y0243130D01*
X0261854Y0243122D01*
X0261964Y0243110D01*
X0262073Y0243094D01*
X0262181Y0243074D01*
X0262289Y0243050D01*
X0262395Y0243023D01*
X0262501Y0242991D01*
X0262605Y0242956D01*
X0262708Y0242917D01*
X0262810Y0242875D01*
X0262910Y0242828D01*
X0263008Y0242779D01*
X0263104Y0242725D01*
X0263199Y0242668D01*
X0263291Y0242608D01*
X0263381Y0242545D01*
X0263469Y0242478D01*
X0263554Y0242408D01*
X0263637Y0242336D01*
X0263717Y0242260D01*
X0263794Y0242181D01*
X0263868Y0242100D01*
X0263940Y0242016D01*
X0264008Y0241929D01*
X0264073Y0241840D01*
X0264135Y0241749D01*
X0264193Y0241656D01*
X0264248Y0241561D01*
X0264300Y0241463D01*
X0264348Y0241364D01*
X0264392Y0241263D01*
X0264433Y0241161D01*
X0264470Y0241057D01*
X0264504Y0240952D01*
X0264533Y0240846D01*
X0264559Y0240739D01*
X0264580Y0240631D01*
X0264598Y0240522D01*
X0264612Y0240413D01*
X0264622Y0240303D01*
X0264628Y0240193D01*
X0264630Y0240083D01*
X0264628Y0239973D01*
X0264622Y0239863D01*
X0264612Y0239753D01*
X0264598Y0239644D01*
X0264580Y0239535D01*
X0264559Y0239427D01*
X0264533Y0239320D01*
X0264504Y0239214D01*
X0264470Y0239109D01*
X0264433Y0239005D01*
X0264392Y0238903D01*
X0264348Y0238802D01*
X0264300Y0238703D01*
X0264248Y0238605D01*
X0264193Y0238510D01*
X0264135Y0238417D01*
X0264073Y0238326D01*
X0264008Y0238237D01*
X0263940Y0238150D01*
X0263868Y0238066D01*
X0263794Y0237985D01*
X0263717Y0237906D01*
X0263637Y0237830D01*
X0263554Y0237758D01*
X0263469Y0237688D01*
X0263381Y0237621D01*
X0263291Y0237558D01*
X0263199Y0237498D01*
X0263105Y0237441D01*
X0263008Y0237387D01*
X0262910Y0237338D01*
X0262810Y0237291D01*
X0262708Y0237249D01*
X0262605Y0237210D01*
X0262501Y0237175D01*
X0262395Y0237143D01*
X0262289Y0237116D01*
X0262181Y0237092D01*
X0262073Y0237072D01*
X0261964Y0237056D01*
X0261854Y0237044D01*
X0261744Y0237036D01*
X0261634Y0237032D01*
X0261524Y0237032D01*
X0261414Y0237036D01*
X0261304Y0237044D01*
X0261194Y0237056D01*
X0261085Y0237072D01*
X0260977Y0237092D01*
X0260869Y0237116D01*
X0260763Y0237143D01*
X0260657Y0237175D01*
X0260553Y0237210D01*
X0260450Y0237249D01*
X0260348Y0237291D01*
X0260248Y0237338D01*
X0260150Y0237387D01*
X0260053Y0237441D01*
X0259959Y0237498D01*
X0259867Y0237558D01*
X0259777Y0237621D01*
X0259689Y0237688D01*
X0259604Y0237758D01*
X0259521Y0237830D01*
X0259441Y0237906D01*
X0259364Y0237985D01*
X0259290Y0238066D01*
X0259218Y0238150D01*
X0259150Y0238237D01*
X0259085Y0238326D01*
X0259023Y0238417D01*
X0258965Y0238510D01*
X0258910Y0238605D01*
X0258858Y0238703D01*
X0258810Y0238802D01*
X0258766Y0238903D01*
X0258725Y0239005D01*
X0258688Y0239109D01*
X0258654Y0239214D01*
X0258625Y0239320D01*
X0258599Y0239427D01*
X0258578Y0239535D01*
X0258560Y0239644D01*
X0258546Y0239753D01*
X0258536Y0239863D01*
X0258530Y0239973D01*
X0258528Y0240083D01*
X0354040Y0240083D02*
X0354042Y0240193D01*
X0354048Y0240303D01*
X0354058Y0240413D01*
X0354072Y0240522D01*
X0354090Y0240631D01*
X0354111Y0240739D01*
X0354137Y0240846D01*
X0354166Y0240952D01*
X0354200Y0241057D01*
X0354237Y0241161D01*
X0354278Y0241263D01*
X0354322Y0241364D01*
X0354370Y0241463D01*
X0354422Y0241561D01*
X0354477Y0241656D01*
X0354535Y0241749D01*
X0354597Y0241840D01*
X0354662Y0241929D01*
X0354730Y0242016D01*
X0354802Y0242100D01*
X0354876Y0242181D01*
X0354953Y0242260D01*
X0355033Y0242336D01*
X0355116Y0242408D01*
X0355201Y0242478D01*
X0355289Y0242545D01*
X0355379Y0242608D01*
X0355471Y0242668D01*
X0355565Y0242725D01*
X0355662Y0242779D01*
X0355760Y0242828D01*
X0355860Y0242875D01*
X0355962Y0242917D01*
X0356065Y0242956D01*
X0356169Y0242991D01*
X0356275Y0243023D01*
X0356381Y0243050D01*
X0356489Y0243074D01*
X0356597Y0243094D01*
X0356706Y0243110D01*
X0356816Y0243122D01*
X0356926Y0243130D01*
X0357036Y0243134D01*
X0357146Y0243134D01*
X0357256Y0243130D01*
X0357366Y0243122D01*
X0357476Y0243110D01*
X0357585Y0243094D01*
X0357693Y0243074D01*
X0357801Y0243050D01*
X0357907Y0243023D01*
X0358013Y0242991D01*
X0358117Y0242956D01*
X0358220Y0242917D01*
X0358322Y0242875D01*
X0358422Y0242828D01*
X0358520Y0242779D01*
X0358616Y0242725D01*
X0358711Y0242668D01*
X0358803Y0242608D01*
X0358893Y0242545D01*
X0358981Y0242478D01*
X0359066Y0242408D01*
X0359149Y0242336D01*
X0359229Y0242260D01*
X0359306Y0242181D01*
X0359380Y0242100D01*
X0359452Y0242016D01*
X0359520Y0241929D01*
X0359585Y0241840D01*
X0359647Y0241749D01*
X0359705Y0241656D01*
X0359760Y0241561D01*
X0359812Y0241463D01*
X0359860Y0241364D01*
X0359904Y0241263D01*
X0359945Y0241161D01*
X0359982Y0241057D01*
X0360016Y0240952D01*
X0360045Y0240846D01*
X0360071Y0240739D01*
X0360092Y0240631D01*
X0360110Y0240522D01*
X0360124Y0240413D01*
X0360134Y0240303D01*
X0360140Y0240193D01*
X0360142Y0240083D01*
X0360140Y0239973D01*
X0360134Y0239863D01*
X0360124Y0239753D01*
X0360110Y0239644D01*
X0360092Y0239535D01*
X0360071Y0239427D01*
X0360045Y0239320D01*
X0360016Y0239214D01*
X0359982Y0239109D01*
X0359945Y0239005D01*
X0359904Y0238903D01*
X0359860Y0238802D01*
X0359812Y0238703D01*
X0359760Y0238605D01*
X0359705Y0238510D01*
X0359647Y0238417D01*
X0359585Y0238326D01*
X0359520Y0238237D01*
X0359452Y0238150D01*
X0359380Y0238066D01*
X0359306Y0237985D01*
X0359229Y0237906D01*
X0359149Y0237830D01*
X0359066Y0237758D01*
X0358981Y0237688D01*
X0358893Y0237621D01*
X0358803Y0237558D01*
X0358711Y0237498D01*
X0358617Y0237441D01*
X0358520Y0237387D01*
X0358422Y0237338D01*
X0358322Y0237291D01*
X0358220Y0237249D01*
X0358117Y0237210D01*
X0358013Y0237175D01*
X0357907Y0237143D01*
X0357801Y0237116D01*
X0357693Y0237092D01*
X0357585Y0237072D01*
X0357476Y0237056D01*
X0357366Y0237044D01*
X0357256Y0237036D01*
X0357146Y0237032D01*
X0357036Y0237032D01*
X0356926Y0237036D01*
X0356816Y0237044D01*
X0356706Y0237056D01*
X0356597Y0237072D01*
X0356489Y0237092D01*
X0356381Y0237116D01*
X0356275Y0237143D01*
X0356169Y0237175D01*
X0356065Y0237210D01*
X0355962Y0237249D01*
X0355860Y0237291D01*
X0355760Y0237338D01*
X0355662Y0237387D01*
X0355565Y0237441D01*
X0355471Y0237498D01*
X0355379Y0237558D01*
X0355289Y0237621D01*
X0355201Y0237688D01*
X0355116Y0237758D01*
X0355033Y0237830D01*
X0354953Y0237906D01*
X0354876Y0237985D01*
X0354802Y0238066D01*
X0354730Y0238150D01*
X0354662Y0238237D01*
X0354597Y0238326D01*
X0354535Y0238417D01*
X0354477Y0238510D01*
X0354422Y0238605D01*
X0354370Y0238703D01*
X0354322Y0238802D01*
X0354278Y0238903D01*
X0354237Y0239005D01*
X0354200Y0239109D01*
X0354166Y0239214D01*
X0354137Y0239320D01*
X0354111Y0239427D01*
X0354090Y0239535D01*
X0354072Y0239644D01*
X0354058Y0239753D01*
X0354048Y0239863D01*
X0354042Y0239973D01*
X0354040Y0240083D01*
D11*
X0524296Y0221865D02*
X0524296Y0218395D01*
X0526031Y0216661D01*
X0527765Y0218395D01*
X0527765Y0221865D01*
X0530320Y0221865D02*
X0532922Y0219263D01*
X0529452Y0219263D01*
X0530320Y0216661D02*
X0530320Y0221865D01*
X0534609Y0220998D02*
X0534609Y0220130D01*
X0538078Y0216661D01*
X0534609Y0216661D01*
X0534609Y0220998D02*
X0535476Y0221865D01*
X0537211Y0221865D01*
X0538078Y0220998D01*
X0544921Y0220998D02*
X0545789Y0221865D01*
X0547524Y0221865D01*
X0548391Y0220998D01*
X0548391Y0217528D01*
X0547524Y0216661D01*
X0545789Y0216661D01*
X0544921Y0217528D01*
X0544921Y0219263D01*
X0546656Y0219263D01*
X0555234Y0219263D02*
X0555234Y0220998D01*
X0556102Y0221865D01*
X0558704Y0221865D01*
X0558704Y0216661D01*
X0558704Y0218395D02*
X0556102Y0218395D01*
X0555234Y0219263D01*
X0556969Y0218395D02*
X0555234Y0216661D01*
X0565547Y0217528D02*
X0566414Y0216661D01*
X0569017Y0216661D01*
X0569017Y0221865D01*
X0566414Y0221865D01*
X0565547Y0220998D01*
X0565547Y0220130D01*
X0566414Y0219263D01*
X0569017Y0219263D01*
X0566414Y0219263D02*
X0565547Y0218395D01*
X0565547Y0217528D01*
D12*
X0572256Y0209571D02*
X0572256Y0190280D01*
X0529539Y0190280D01*
X0523437Y0196382D01*
X0523437Y0196579D02*
X0523437Y0209571D01*
X0572256Y0209571D01*
X0557689Y0192445D02*
X0559657Y0190476D01*
X0557689Y0192445D02*
X0555720Y0190476D01*
X0549815Y0190476D02*
X0547846Y0192445D01*
X0545878Y0190476D01*
X0539972Y0190476D02*
X0538004Y0192445D01*
X0536035Y0190476D01*
D13*
X0536264Y0183755D02*
X0538732Y0183755D01*
X0538732Y0181903D01*
X0537498Y0182520D01*
X0536881Y0182520D01*
X0536264Y0181903D01*
X0536264Y0180669D01*
X0536881Y0180052D01*
X0538115Y0180052D01*
X0538732Y0180669D01*
X0535049Y0180052D02*
X0532580Y0182520D01*
X0532580Y0183138D01*
X0533198Y0183755D01*
X0534432Y0183755D01*
X0535049Y0183138D01*
X0535049Y0180052D02*
X0532580Y0180052D01*
X0531366Y0180669D02*
X0530749Y0180052D01*
X0529514Y0180052D01*
X0528897Y0180669D01*
X0528897Y0181286D01*
X0529514Y0181903D01*
X0531366Y0181903D01*
X0531366Y0180669D01*
X0531366Y0181903D02*
X0530132Y0183138D01*
X0528897Y0183755D01*
X0527683Y0183755D02*
X0525214Y0183755D01*
X0525214Y0183138D01*
X0527683Y0180669D01*
X0527683Y0180052D01*
X0524000Y0181903D02*
X0521531Y0181903D01*
X0520317Y0181903D02*
X0517848Y0181903D01*
X0518465Y0180052D02*
X0518465Y0183755D01*
X0520317Y0181903D01*
X0520502Y0192260D02*
X0519884Y0192877D01*
X0519884Y0195963D01*
X0519267Y0195963D02*
X0520502Y0195963D01*
X0518053Y0195346D02*
X0517436Y0195963D01*
X0516201Y0195963D01*
X0515584Y0195346D01*
X0515584Y0194729D01*
X0518053Y0192260D01*
X0515584Y0192260D01*
X0520502Y0192260D02*
X0521119Y0192260D01*
X0521736Y0192877D01*
X0325130Y0069605D02*
X0322661Y0065902D01*
X0321446Y0065902D02*
X0318978Y0068371D01*
X0318978Y0068988D01*
X0319595Y0069605D01*
X0320829Y0069605D01*
X0321446Y0068988D01*
X0322661Y0069605D02*
X0325130Y0065902D01*
X0321446Y0065902D02*
X0318978Y0065902D01*
X0185720Y0066689D02*
X0183251Y0070393D01*
X0182037Y0069158D02*
X0180803Y0070393D01*
X0180803Y0066689D01*
X0182037Y0066689D02*
X0179568Y0066689D01*
X0183251Y0066689D02*
X0185720Y0070393D01*
D14*
X0186185Y0074335D02*
X0183035Y0077484D01*
X0153469Y0077484D01*
X0153469Y0077406D02*
X0153469Y0074610D01*
X0138508Y0074610D02*
X0138508Y0077406D01*
X0138508Y0077484D02*
X0108941Y0077484D01*
X0105791Y0074335D01*
X0105791Y0106618D01*
X0108941Y0103469D01*
X0108941Y0077484D01*
X0105791Y0074335D02*
X0186185Y0074335D01*
X0186185Y0106618D01*
X0183035Y0103469D01*
X0108941Y0103469D01*
X0105791Y0106618D02*
X0186185Y0106618D01*
X0183035Y0103469D02*
X0183035Y0077484D01*
X0225319Y0074335D02*
X0228469Y0077484D01*
X0268035Y0077484D01*
X0268035Y0077406D02*
X0268035Y0074610D01*
X0282996Y0074610D02*
X0282996Y0077406D01*
X0282996Y0077484D02*
X0322563Y0077484D01*
X0325713Y0074335D01*
X0225319Y0074335D01*
X0225319Y0106618D01*
X0228469Y0103469D01*
X0228469Y0077484D01*
X0228469Y0103469D02*
X0322563Y0103469D01*
X0325713Y0106618D01*
X0225319Y0106618D01*
X0322563Y0103469D02*
X0322563Y0077484D01*
X0325713Y0074335D02*
X0325713Y0106618D01*
D15*
X0315043Y0082720D02*
X0309531Y0082720D01*
X0312287Y0078508D01*
X0315043Y0082720D01*
X0175516Y0082720D02*
X0170004Y0082720D01*
X0172760Y0078508D01*
X0175516Y0082720D01*
M02*
