G75*
%MOIN*%
%OFA0B0*%
%FSLAX25Y25*%
%IPPOS*%
%LPD*%
%AMOC8*
5,1,8,0,0,1.08239X$1,22.5*
%
%ADD10R,0.05937X0.05937*%
%ADD11R,0.12661X0.12661*%
%ADD12R,0.05118X0.05906*%
%ADD13C,0.06000*%
%ADD14C,0.19685*%
%ADD15C,0.07874*%
%ADD16C,0.05150*%
%ADD17OC8,0.08500*%
%ADD18R,0.08800X0.04800*%
%ADD19R,0.08661X0.14173*%
%ADD20R,0.08000X0.02600*%
%ADD21R,0.03543X0.07087*%
%ADD22R,0.05512X0.07874*%
%ADD23R,0.04331X0.07087*%
%ADD24R,0.05906X0.05118*%
%ADD25R,0.07874X0.04724*%
%ADD26C,0.23000*%
%ADD27R,0.05906X0.09449*%
%ADD28OC8,0.05937*%
%ADD29R,0.09449X0.05906*%
%ADD30C,0.01000*%
%ADD31C,0.04000*%
%ADD32C,0.01600*%
%ADD33C,0.03569*%
%ADD34C,0.02400*%
D10*
X0466067Y0111736D03*
X0466067Y0121579D03*
X0466067Y0131421D03*
X0523154Y0131421D03*
X0523154Y0111736D03*
D11*
X0495594Y0097563D03*
X0495594Y0145594D03*
D12*
X0417051Y0198232D03*
X0410358Y0198232D03*
X0387406Y0146343D03*
X0380713Y0146343D03*
X0566657Y0073020D03*
X0573350Y0073020D03*
X0426894Y0040866D03*
X0420201Y0040866D03*
X0092051Y0202287D03*
X0084571Y0202287D03*
D13*
X0443224Y0198193D02*
X0449224Y0198193D01*
X0449224Y0208193D02*
X0443224Y0208193D01*
X0443224Y0218193D02*
X0449224Y0218193D01*
X0573390Y0095681D02*
X0573390Y0089681D01*
X0583390Y0089681D02*
X0583390Y0095681D01*
X0593390Y0095681D02*
X0593390Y0089681D01*
X0449224Y0041028D02*
X0443224Y0041028D01*
X0443224Y0031028D02*
X0449224Y0031028D01*
X0449224Y0021028D02*
X0443224Y0021028D01*
D14*
X0418823Y0013311D03*
X0052681Y0013311D03*
X0052681Y0229846D03*
X0418823Y0229846D03*
D15*
X0232209Y0225909D02*
X0232209Y0233783D01*
X0222209Y0233783D02*
X0222209Y0225909D01*
X0212209Y0225909D02*
X0212209Y0233783D01*
X0202209Y0233783D02*
X0202209Y0225909D01*
X0192209Y0225909D02*
X0192209Y0233783D01*
X0182209Y0233783D02*
X0182209Y0225909D01*
X0172209Y0225909D02*
X0172209Y0233783D01*
X0162209Y0233783D02*
X0162209Y0225909D01*
X0152209Y0225909D02*
X0152209Y0233783D01*
X0142209Y0233783D02*
X0142209Y0225909D01*
X0132209Y0225909D02*
X0132209Y0233783D01*
X0122209Y0233783D02*
X0122209Y0225909D01*
X0112209Y0225909D02*
X0112209Y0233783D01*
X0102209Y0233783D02*
X0102209Y0225909D01*
X0092209Y0225909D02*
X0092209Y0233783D01*
X0082209Y0233783D02*
X0082209Y0225909D01*
D16*
X0533083Y0199941D02*
X0533083Y0194791D01*
X0542925Y0194791D02*
X0542925Y0199941D01*
X0552768Y0199941D02*
X0552768Y0194791D01*
X0562610Y0194791D02*
X0562610Y0199941D01*
D17*
X0555240Y0033941D03*
X0525240Y0033941D03*
D18*
X0108473Y0034369D03*
X0108473Y0043469D03*
X0108473Y0052569D03*
D19*
X0132874Y0043469D03*
D20*
X0380699Y0100339D03*
X0380699Y0105339D03*
X0380699Y0110339D03*
X0380699Y0115339D03*
X0380699Y0120339D03*
X0380699Y0125339D03*
X0380699Y0130339D03*
X0380699Y0135339D03*
X0404899Y0135339D03*
X0404899Y0130339D03*
X0404899Y0125339D03*
X0404899Y0120339D03*
X0404899Y0115339D03*
X0404899Y0110339D03*
X0404899Y0105339D03*
X0404899Y0100339D03*
D21*
X0347366Y0144413D03*
X0340673Y0144413D03*
X0331146Y0144413D03*
X0321303Y0144413D03*
X0311461Y0144413D03*
X0304571Y0144413D03*
X0298665Y0144413D03*
X0291776Y0144413D03*
X0281933Y0144413D03*
X0272091Y0144413D03*
D22*
X0250516Y0227091D03*
X0366657Y0231618D03*
D23*
X0359768Y0144413D03*
D24*
X0177406Y0043350D03*
X0177406Y0036657D03*
D25*
X0107445Y0021972D03*
X0096421Y0021972D03*
D26*
X0023154Y0023154D03*
X0023154Y0220004D03*
X0594020Y0220004D03*
X0594020Y0023154D03*
D27*
X0092051Y0187720D03*
X0073941Y0187720D03*
D28*
X0125988Y0095476D03*
X0135988Y0095476D03*
X0145988Y0095476D03*
X0155988Y0095476D03*
X0165988Y0095476D03*
X0165988Y0085476D03*
X0155988Y0085476D03*
X0145988Y0085476D03*
X0135988Y0085476D03*
X0125988Y0085476D03*
X0245516Y0085476D03*
X0255516Y0085476D03*
X0265516Y0085476D03*
X0275516Y0085476D03*
X0285516Y0085476D03*
X0295516Y0085476D03*
X0305516Y0085476D03*
X0305516Y0095476D03*
X0295516Y0095476D03*
X0285516Y0095476D03*
X0275516Y0095476D03*
X0265516Y0095476D03*
X0255516Y0095476D03*
X0245516Y0095476D03*
D29*
X0153862Y0043626D03*
X0153862Y0025516D03*
D30*
X0007968Y0007968D02*
X0007968Y0235189D01*
X0042899Y0235189D01*
X0042298Y0234147D01*
X0041539Y0231313D01*
X0041539Y0228380D01*
X0042298Y0225546D01*
X0043765Y0223005D01*
X0045839Y0220930D01*
X0048380Y0219463D01*
X0051214Y0218704D01*
X0054148Y0218704D01*
X0056982Y0219463D01*
X0059523Y0220930D01*
X0061597Y0223005D01*
X0063064Y0225546D01*
X0063824Y0228380D01*
X0063824Y0231313D01*
X0063064Y0234147D01*
X0062463Y0235189D01*
X0076949Y0235189D01*
X0076906Y0235057D01*
X0076772Y0234211D01*
X0076772Y0230331D01*
X0081724Y0230331D01*
X0081724Y0229362D01*
X0076772Y0229362D01*
X0076772Y0225482D01*
X0076906Y0224636D01*
X0077170Y0223822D01*
X0077559Y0223060D01*
X0078062Y0222367D01*
X0078667Y0221762D01*
X0079359Y0221259D01*
X0080122Y0220871D01*
X0080935Y0220606D01*
X0081724Y0220481D01*
X0081724Y0229362D01*
X0082693Y0229362D01*
X0082693Y0220481D01*
X0083482Y0220606D01*
X0084296Y0220871D01*
X0085058Y0221259D01*
X0085751Y0221762D01*
X0086356Y0222367D01*
X0086859Y0223060D01*
X0087247Y0223822D01*
X0087316Y0224035D01*
X0087769Y0222943D01*
X0088909Y0221803D01*
X0088909Y0206495D01*
X0088420Y0206006D01*
X0088330Y0206161D01*
X0088051Y0206440D01*
X0087709Y0206638D01*
X0087327Y0206740D01*
X0085071Y0206740D01*
X0085071Y0202787D01*
X0084071Y0202787D01*
X0084071Y0201787D01*
X0085071Y0201787D01*
X0085071Y0197835D01*
X0087327Y0197835D01*
X0087709Y0197937D01*
X0088051Y0198134D01*
X0088330Y0198414D01*
X0088420Y0198569D01*
X0088751Y0198237D01*
X0088751Y0193745D01*
X0088560Y0193745D01*
X0087798Y0192983D01*
X0087798Y0182458D01*
X0088357Y0181899D01*
X0088357Y0153206D01*
X0088860Y0151993D01*
X0089788Y0151065D01*
X0122688Y0118165D01*
X0122688Y0098776D01*
X0102300Y0098776D01*
X0101087Y0098274D01*
X0094513Y0091699D01*
X0093584Y0090771D01*
X0093082Y0089558D01*
X0093082Y0038245D01*
X0093584Y0037032D01*
X0098309Y0032308D01*
X0099237Y0031380D01*
X0100450Y0030877D01*
X0103326Y0030877D01*
X0103535Y0030669D01*
X0104982Y0030669D01*
X0104982Y0025635D01*
X0102969Y0025635D01*
X0102208Y0024873D01*
X0102208Y0019072D01*
X0102969Y0018310D01*
X0111920Y0018310D01*
X0112682Y0019072D01*
X0112682Y0024873D01*
X0111920Y0025635D01*
X0111582Y0025635D01*
X0111582Y0030669D01*
X0113412Y0030669D01*
X0114173Y0031430D01*
X0114173Y0037307D01*
X0113412Y0038068D01*
X0103535Y0038068D01*
X0102943Y0037477D01*
X0102473Y0037477D01*
X0099682Y0040268D01*
X0099682Y0087535D01*
X0104324Y0092176D01*
X0123252Y0092176D01*
X0124220Y0091208D01*
X0127756Y0091208D01*
X0130257Y0093708D01*
X0130257Y0097244D01*
X0129288Y0098213D01*
X0129288Y0120188D01*
X0128786Y0121401D01*
X0094957Y0155229D01*
X0094957Y0181696D01*
X0095542Y0181696D01*
X0096304Y0182458D01*
X0096304Y0192983D01*
X0095542Y0193745D01*
X0095351Y0193745D01*
X0095351Y0198237D01*
X0095910Y0198796D01*
X0095910Y0205779D01*
X0095509Y0206180D01*
X0095509Y0221803D01*
X0096648Y0222943D01*
X0097209Y0224296D01*
X0097769Y0222943D01*
X0099242Y0221470D01*
X0101167Y0220672D01*
X0103250Y0220672D01*
X0105175Y0221470D01*
X0106648Y0222943D01*
X0107209Y0224296D01*
X0107769Y0222943D01*
X0109242Y0221470D01*
X0110030Y0221143D01*
X0110030Y0158898D01*
X0111260Y0157668D01*
X0133888Y0135040D01*
X0133888Y0099413D01*
X0131720Y0097244D01*
X0131720Y0093708D01*
X0134220Y0091208D01*
X0137756Y0091208D01*
X0140257Y0093708D01*
X0140257Y0097244D01*
X0138088Y0099413D01*
X0138088Y0136779D01*
X0114230Y0160638D01*
X0114230Y0221078D01*
X0115175Y0221470D01*
X0116648Y0222943D01*
X0117209Y0224296D01*
X0117769Y0222943D01*
X0119242Y0221470D01*
X0121167Y0220672D01*
X0123250Y0220672D01*
X0125175Y0221470D01*
X0126648Y0222943D01*
X0127209Y0224296D01*
X0127769Y0222943D01*
X0129242Y0221470D01*
X0130109Y0221111D01*
X0130109Y0171103D01*
X0131339Y0169872D01*
X0143888Y0157323D01*
X0143888Y0099413D01*
X0141720Y0097244D01*
X0141720Y0093708D01*
X0144220Y0091208D01*
X0147756Y0091208D01*
X0150257Y0093708D01*
X0150257Y0097244D01*
X0148088Y0099413D01*
X0148088Y0159063D01*
X0134309Y0172842D01*
X0134309Y0221111D01*
X0135175Y0221470D01*
X0136648Y0222943D01*
X0137101Y0224035D01*
X0137170Y0223822D01*
X0137559Y0223060D01*
X0138062Y0222367D01*
X0138667Y0221762D01*
X0139359Y0221259D01*
X0140122Y0220871D01*
X0140935Y0220606D01*
X0141724Y0220481D01*
X0141724Y0229362D01*
X0142693Y0229362D01*
X0142693Y0220481D01*
X0143482Y0220606D01*
X0144296Y0220871D01*
X0145058Y0221259D01*
X0145751Y0221762D01*
X0146356Y0222367D01*
X0146859Y0223060D01*
X0147209Y0223746D01*
X0147559Y0223060D01*
X0148062Y0222367D01*
X0148667Y0221762D01*
X0149359Y0221259D01*
X0150122Y0220871D01*
X0150935Y0220606D01*
X0151724Y0220481D01*
X0151724Y0229362D01*
X0147646Y0229362D01*
X0142693Y0229362D01*
X0142693Y0230331D01*
X0151724Y0230331D01*
X0151724Y0229362D01*
X0152693Y0229362D01*
X0152693Y0220481D01*
X0153482Y0220606D01*
X0154296Y0220871D01*
X0155058Y0221259D01*
X0155751Y0221762D01*
X0156356Y0222367D01*
X0156859Y0223060D01*
X0157209Y0223746D01*
X0157559Y0223060D01*
X0158062Y0222367D01*
X0158667Y0221762D01*
X0159359Y0221259D01*
X0160122Y0220871D01*
X0160935Y0220606D01*
X0161724Y0220481D01*
X0161724Y0229362D01*
X0156772Y0229362D01*
X0152693Y0229362D01*
X0152693Y0230331D01*
X0161724Y0230331D01*
X0161724Y0229362D01*
X0162693Y0229362D01*
X0162693Y0220481D01*
X0163482Y0220606D01*
X0164296Y0220871D01*
X0165058Y0221259D01*
X0165751Y0221762D01*
X0166356Y0222367D01*
X0166859Y0223060D01*
X0167209Y0223746D01*
X0167559Y0223060D01*
X0168062Y0222367D01*
X0168667Y0221762D01*
X0169359Y0221259D01*
X0170122Y0220871D01*
X0170935Y0220606D01*
X0171724Y0220481D01*
X0171724Y0229362D01*
X0166772Y0229362D01*
X0162693Y0229362D01*
X0162693Y0230331D01*
X0171724Y0230331D01*
X0171724Y0229362D01*
X0172693Y0229362D01*
X0172693Y0220481D01*
X0173482Y0220606D01*
X0174296Y0220871D01*
X0175058Y0221259D01*
X0175751Y0221762D01*
X0176356Y0222367D01*
X0176859Y0223060D01*
X0177247Y0223822D01*
X0177316Y0224035D01*
X0177769Y0222943D01*
X0179242Y0221470D01*
X0181167Y0220672D01*
X0183250Y0220672D01*
X0185175Y0221470D01*
X0186648Y0222943D01*
X0187209Y0224296D01*
X0187769Y0222943D01*
X0189242Y0221470D01*
X0189951Y0221176D01*
X0189951Y0204732D01*
X0153888Y0168669D01*
X0153888Y0099413D01*
X0151720Y0097244D01*
X0151720Y0093708D01*
X0154220Y0091208D01*
X0157756Y0091208D01*
X0160257Y0093708D01*
X0160257Y0097244D01*
X0158088Y0099413D01*
X0158088Y0166929D01*
X0192921Y0201762D01*
X0194151Y0202992D01*
X0194151Y0221046D01*
X0195175Y0221470D01*
X0196648Y0222943D01*
X0197209Y0224296D01*
X0197769Y0222943D01*
X0199242Y0221470D01*
X0201167Y0220672D01*
X0203250Y0220672D01*
X0205175Y0221470D01*
X0206648Y0222943D01*
X0207209Y0224296D01*
X0207769Y0222943D01*
X0209242Y0221470D01*
X0210030Y0221143D01*
X0210030Y0209456D01*
X0163888Y0163315D01*
X0163888Y0099413D01*
X0161720Y0097244D01*
X0161720Y0093708D01*
X0164220Y0091208D01*
X0167756Y0091208D01*
X0170257Y0093708D01*
X0170257Y0097244D01*
X0168088Y0099413D01*
X0168088Y0161575D01*
X0213000Y0206487D01*
X0214230Y0207717D01*
X0214230Y0221078D01*
X0215175Y0221470D01*
X0216648Y0222943D01*
X0217209Y0224296D01*
X0217769Y0222943D01*
X0219242Y0221470D01*
X0221167Y0220672D01*
X0223250Y0220672D01*
X0225175Y0221470D01*
X0226648Y0222943D01*
X0227209Y0224296D01*
X0227769Y0222943D01*
X0229242Y0221470D01*
X0231167Y0220672D01*
X0233250Y0220672D01*
X0235175Y0221470D01*
X0236648Y0222943D01*
X0237446Y0224868D01*
X0237446Y0234825D01*
X0237295Y0235189D01*
X0240584Y0235189D01*
X0242238Y0235874D01*
X0243504Y0237140D01*
X0244189Y0238794D01*
X0244189Y0258811D01*
X0372984Y0258811D01*
X0372984Y0238794D01*
X0373669Y0237140D01*
X0374935Y0235874D01*
X0376589Y0235189D01*
X0409041Y0235189D01*
X0408440Y0234147D01*
X0407680Y0231313D01*
X0407680Y0228380D01*
X0408440Y0225546D01*
X0409907Y0223005D01*
X0411981Y0220930D01*
X0414522Y0219463D01*
X0417356Y0218704D01*
X0420290Y0218704D01*
X0423124Y0219463D01*
X0425664Y0220930D01*
X0427739Y0223005D01*
X0429206Y0225546D01*
X0429965Y0228380D01*
X0429965Y0231313D01*
X0429206Y0234147D01*
X0428605Y0235189D01*
X0609205Y0235189D01*
X0609205Y0007968D01*
X0428605Y0007968D01*
X0429206Y0009010D01*
X0429965Y0011844D01*
X0429965Y0014778D01*
X0429206Y0017612D01*
X0427739Y0020153D01*
X0425664Y0022227D01*
X0423124Y0023694D01*
X0420290Y0024454D01*
X0417356Y0024454D01*
X0414522Y0023694D01*
X0411981Y0022227D01*
X0409907Y0020153D01*
X0408440Y0017612D01*
X0407680Y0014778D01*
X0407680Y0011844D01*
X0408440Y0009010D01*
X0409041Y0007968D01*
X0062463Y0007968D01*
X0063064Y0009010D01*
X0063824Y0011844D01*
X0063824Y0014778D01*
X0063064Y0017612D01*
X0061597Y0020153D01*
X0059523Y0022227D01*
X0056982Y0023694D01*
X0054148Y0024454D01*
X0051214Y0024454D01*
X0048380Y0023694D01*
X0045839Y0022227D01*
X0043765Y0020153D01*
X0042298Y0017612D01*
X0041539Y0014778D01*
X0041539Y0011844D01*
X0042298Y0009010D01*
X0042899Y0007968D01*
X0007968Y0007968D01*
X0007968Y0008461D02*
X0042615Y0008461D01*
X0042177Y0009460D02*
X0007968Y0009460D01*
X0007968Y0010458D02*
X0020342Y0010458D01*
X0019991Y0010528D02*
X0021244Y0010279D01*
X0022515Y0010154D01*
X0022654Y0010154D01*
X0022654Y0022653D01*
X0023654Y0022653D01*
X0023654Y0022654D02*
X0023654Y0023654D01*
X0036154Y0023654D01*
X0036154Y0023792D01*
X0036028Y0025063D01*
X0035779Y0026316D01*
X0035408Y0027538D01*
X0034920Y0028718D01*
X0034317Y0029845D01*
X0033608Y0030907D01*
X0032798Y0031894D01*
X0031894Y0032798D01*
X0030907Y0033608D01*
X0029845Y0034317D01*
X0028718Y0034920D01*
X0027538Y0035408D01*
X0026316Y0035779D01*
X0025063Y0036028D01*
X0023792Y0036154D01*
X0023654Y0036154D01*
X0023654Y0023654D01*
X0022654Y0023654D01*
X0022654Y0036154D01*
X0022515Y0036154D01*
X0021244Y0036028D01*
X0019991Y0035779D01*
X0018769Y0035408D01*
X0017589Y0034920D01*
X0016462Y0034317D01*
X0015400Y0033608D01*
X0014413Y0032798D01*
X0013510Y0031894D01*
X0012699Y0030907D01*
X0011990Y0029845D01*
X0011388Y0028718D01*
X0010899Y0027538D01*
X0010528Y0026316D01*
X0010279Y0025063D01*
X0010154Y0023792D01*
X0010154Y0023654D01*
X0022653Y0023654D01*
X0022653Y0022654D01*
X0010154Y0022654D01*
X0010154Y0022515D01*
X0010279Y0021244D01*
X0010528Y0019991D01*
X0010899Y0018769D01*
X0011388Y0017589D01*
X0011990Y0016462D01*
X0012699Y0015400D01*
X0013510Y0014413D01*
X0014413Y0013510D01*
X0015400Y0012699D01*
X0016462Y0011990D01*
X0017589Y0011388D01*
X0018769Y0010899D01*
X0019991Y0010528D01*
X0022654Y0010458D02*
X0023654Y0010458D01*
X0023654Y0010154D02*
X0023792Y0010154D01*
X0025063Y0010279D01*
X0026316Y0010528D01*
X0027538Y0010899D01*
X0028718Y0011388D01*
X0029845Y0011990D01*
X0030907Y0012699D01*
X0031894Y0013510D01*
X0032798Y0014413D01*
X0033608Y0015400D01*
X0034317Y0016462D01*
X0034920Y0017589D01*
X0035408Y0018769D01*
X0035779Y0019991D01*
X0036028Y0021244D01*
X0036154Y0022515D01*
X0036154Y0022654D01*
X0023654Y0022654D01*
X0023654Y0022653D02*
X0023654Y0010154D01*
X0023654Y0011457D02*
X0022654Y0011457D01*
X0022654Y0012455D02*
X0023654Y0012455D01*
X0023654Y0013454D02*
X0022654Y0013454D01*
X0022654Y0014452D02*
X0023654Y0014452D01*
X0023654Y0015451D02*
X0022654Y0015451D01*
X0022654Y0016449D02*
X0023654Y0016449D01*
X0023654Y0017448D02*
X0022654Y0017448D01*
X0022654Y0018446D02*
X0023654Y0018446D01*
X0023654Y0019445D02*
X0022654Y0019445D01*
X0022654Y0020443D02*
X0023654Y0020443D01*
X0023654Y0021442D02*
X0022654Y0021442D01*
X0022654Y0022440D02*
X0023654Y0022440D01*
X0023654Y0023439D02*
X0047938Y0023439D01*
X0046208Y0022440D02*
X0036146Y0022440D01*
X0036048Y0021442D02*
X0045054Y0021442D01*
X0044055Y0020443D02*
X0035869Y0020443D01*
X0035613Y0019445D02*
X0043356Y0019445D01*
X0042780Y0018446D02*
X0035275Y0018446D01*
X0034844Y0017448D02*
X0042254Y0017448D01*
X0041986Y0016449D02*
X0034309Y0016449D01*
X0033642Y0015451D02*
X0041719Y0015451D01*
X0041539Y0014452D02*
X0032830Y0014452D01*
X0031826Y0013454D02*
X0041539Y0013454D01*
X0041539Y0012455D02*
X0030542Y0012455D01*
X0028848Y0011457D02*
X0041642Y0011457D01*
X0041910Y0010458D02*
X0025965Y0010458D01*
X0017459Y0011457D02*
X0007968Y0011457D01*
X0007968Y0012455D02*
X0015765Y0012455D01*
X0014481Y0013454D02*
X0007968Y0013454D01*
X0007968Y0014452D02*
X0013477Y0014452D01*
X0012665Y0015451D02*
X0007968Y0015451D01*
X0007968Y0016449D02*
X0011998Y0016449D01*
X0011463Y0017448D02*
X0007968Y0017448D01*
X0007968Y0018446D02*
X0011032Y0018446D01*
X0010694Y0019445D02*
X0007968Y0019445D01*
X0007968Y0020443D02*
X0010438Y0020443D01*
X0010259Y0021442D02*
X0007968Y0021442D01*
X0007968Y0022440D02*
X0010161Y0022440D01*
X0010217Y0024437D02*
X0007968Y0024437D01*
X0007968Y0023439D02*
X0022653Y0023439D01*
X0022654Y0024437D02*
X0023654Y0024437D01*
X0023654Y0025436D02*
X0022654Y0025436D01*
X0022654Y0026434D02*
X0023654Y0026434D01*
X0023654Y0027433D02*
X0022654Y0027433D01*
X0022654Y0028431D02*
X0023654Y0028431D01*
X0023654Y0029430D02*
X0022654Y0029430D01*
X0022654Y0030428D02*
X0023654Y0030428D01*
X0023654Y0031427D02*
X0022654Y0031427D01*
X0022654Y0032425D02*
X0023654Y0032425D01*
X0023654Y0033424D02*
X0022654Y0033424D01*
X0022654Y0034422D02*
X0023654Y0034422D01*
X0023654Y0035421D02*
X0022654Y0035421D01*
X0018810Y0035421D02*
X0007968Y0035421D01*
X0007968Y0036419D02*
X0094197Y0036419D01*
X0093425Y0037418D02*
X0007968Y0037418D01*
X0007968Y0038416D02*
X0093082Y0038416D01*
X0093082Y0039415D02*
X0007968Y0039415D01*
X0007968Y0040413D02*
X0093082Y0040413D01*
X0093082Y0041412D02*
X0007968Y0041412D01*
X0007968Y0042410D02*
X0093082Y0042410D01*
X0093082Y0043409D02*
X0007968Y0043409D01*
X0007968Y0044407D02*
X0093082Y0044407D01*
X0093082Y0045406D02*
X0007968Y0045406D01*
X0007968Y0046404D02*
X0093082Y0046404D01*
X0093082Y0047403D02*
X0007968Y0047403D01*
X0007968Y0048402D02*
X0093082Y0048402D01*
X0093082Y0049400D02*
X0007968Y0049400D01*
X0007968Y0050399D02*
X0093082Y0050399D01*
X0093082Y0051397D02*
X0007968Y0051397D01*
X0007968Y0052396D02*
X0093082Y0052396D01*
X0093082Y0053394D02*
X0007968Y0053394D01*
X0007968Y0054393D02*
X0093082Y0054393D01*
X0093082Y0055391D02*
X0007968Y0055391D01*
X0007968Y0056390D02*
X0093082Y0056390D01*
X0093082Y0057388D02*
X0007968Y0057388D01*
X0007968Y0058387D02*
X0093082Y0058387D01*
X0093082Y0059385D02*
X0007968Y0059385D01*
X0007968Y0060384D02*
X0093082Y0060384D01*
X0093082Y0061382D02*
X0007968Y0061382D01*
X0007968Y0062381D02*
X0093082Y0062381D01*
X0093082Y0063379D02*
X0007968Y0063379D01*
X0007968Y0064378D02*
X0093082Y0064378D01*
X0093082Y0065376D02*
X0007968Y0065376D01*
X0007968Y0066375D02*
X0093082Y0066375D01*
X0093082Y0067373D02*
X0007968Y0067373D01*
X0007968Y0068372D02*
X0093082Y0068372D01*
X0093082Y0069370D02*
X0007968Y0069370D01*
X0007968Y0070369D02*
X0093082Y0070369D01*
X0093082Y0071367D02*
X0007968Y0071367D01*
X0007968Y0072366D02*
X0093082Y0072366D01*
X0093082Y0073364D02*
X0007968Y0073364D01*
X0007968Y0074363D02*
X0093082Y0074363D01*
X0093082Y0075361D02*
X0007968Y0075361D01*
X0007968Y0076360D02*
X0093082Y0076360D01*
X0093082Y0077358D02*
X0007968Y0077358D01*
X0007968Y0078357D02*
X0093082Y0078357D01*
X0093082Y0079355D02*
X0007968Y0079355D01*
X0007968Y0080354D02*
X0093082Y0080354D01*
X0093082Y0081352D02*
X0007968Y0081352D01*
X0007968Y0082351D02*
X0093082Y0082351D01*
X0093082Y0083349D02*
X0007968Y0083349D01*
X0007968Y0084348D02*
X0093082Y0084348D01*
X0093082Y0085346D02*
X0007968Y0085346D01*
X0007968Y0086345D02*
X0093082Y0086345D01*
X0093082Y0087343D02*
X0007968Y0087343D01*
X0007968Y0088342D02*
X0093082Y0088342D01*
X0093082Y0089340D02*
X0007968Y0089340D01*
X0007968Y0090339D02*
X0093405Y0090339D01*
X0094151Y0091337D02*
X0007968Y0091337D01*
X0007968Y0092336D02*
X0095149Y0092336D01*
X0096148Y0093335D02*
X0007968Y0093335D01*
X0007968Y0094333D02*
X0097146Y0094333D01*
X0098145Y0095332D02*
X0007968Y0095332D01*
X0007968Y0096330D02*
X0099143Y0096330D01*
X0100142Y0097329D02*
X0007968Y0097329D01*
X0007968Y0098327D02*
X0101216Y0098327D01*
X0103485Y0091337D02*
X0124090Y0091337D01*
X0124137Y0089945D02*
X0121520Y0087327D01*
X0121520Y0085961D01*
X0125504Y0085961D01*
X0125504Y0089945D01*
X0124137Y0089945D01*
X0123533Y0089340D02*
X0101488Y0089340D01*
X0100489Y0088342D02*
X0122534Y0088342D01*
X0121536Y0087343D02*
X0099682Y0087343D01*
X0099682Y0086345D02*
X0121520Y0086345D01*
X0121520Y0084992D02*
X0121520Y0083625D01*
X0124137Y0081008D01*
X0125504Y0081008D01*
X0125504Y0084992D01*
X0126472Y0084992D01*
X0126472Y0081008D01*
X0127839Y0081008D01*
X0130457Y0083625D01*
X0130457Y0084992D01*
X0126473Y0084992D01*
X0126473Y0085961D01*
X0130457Y0085961D01*
X0130457Y0087327D01*
X0127839Y0089945D01*
X0126472Y0089945D01*
X0126472Y0085961D01*
X0125504Y0085961D01*
X0125504Y0084992D01*
X0121520Y0084992D01*
X0121520Y0084348D02*
X0099682Y0084348D01*
X0099682Y0085346D02*
X0125504Y0085346D01*
X0126473Y0085346D02*
X0131720Y0085346D01*
X0131720Y0084348D02*
X0130457Y0084348D01*
X0130181Y0083349D02*
X0132079Y0083349D01*
X0131720Y0083708D02*
X0134220Y0081208D01*
X0137756Y0081208D01*
X0140257Y0083708D01*
X0140257Y0087244D01*
X0137756Y0089745D01*
X0134220Y0089745D01*
X0131720Y0087244D01*
X0131720Y0083708D01*
X0133077Y0082351D02*
X0129182Y0082351D01*
X0128184Y0081352D02*
X0134076Y0081352D01*
X0137901Y0081352D02*
X0144076Y0081352D01*
X0144220Y0081208D02*
X0147756Y0081208D01*
X0150257Y0083708D01*
X0150257Y0087244D01*
X0147756Y0089745D01*
X0144220Y0089745D01*
X0141720Y0087244D01*
X0141720Y0083708D01*
X0144220Y0081208D01*
X0143077Y0082351D02*
X0138899Y0082351D01*
X0139898Y0083349D02*
X0142079Y0083349D01*
X0141720Y0084348D02*
X0140257Y0084348D01*
X0140257Y0085346D02*
X0141720Y0085346D01*
X0141720Y0086345D02*
X0140257Y0086345D01*
X0140158Y0087343D02*
X0141819Y0087343D01*
X0142817Y0088342D02*
X0139159Y0088342D01*
X0138161Y0089340D02*
X0143816Y0089340D01*
X0144090Y0091337D02*
X0137886Y0091337D01*
X0138884Y0092336D02*
X0143092Y0092336D01*
X0142093Y0093335D02*
X0139883Y0093335D01*
X0140257Y0094333D02*
X0141720Y0094333D01*
X0141720Y0095332D02*
X0140257Y0095332D01*
X0140257Y0096330D02*
X0141720Y0096330D01*
X0141804Y0097329D02*
X0140173Y0097329D01*
X0139174Y0098327D02*
X0142802Y0098327D01*
X0143801Y0099326D02*
X0138176Y0099326D01*
X0138088Y0100324D02*
X0143888Y0100324D01*
X0143888Y0101323D02*
X0138088Y0101323D01*
X0138088Y0102321D02*
X0143888Y0102321D01*
X0143888Y0103320D02*
X0138088Y0103320D01*
X0138088Y0104318D02*
X0143888Y0104318D01*
X0143888Y0105317D02*
X0138088Y0105317D01*
X0138088Y0106315D02*
X0143888Y0106315D01*
X0143888Y0107314D02*
X0138088Y0107314D01*
X0138088Y0108312D02*
X0143888Y0108312D01*
X0143888Y0109311D02*
X0138088Y0109311D01*
X0138088Y0110309D02*
X0143888Y0110309D01*
X0143888Y0111308D02*
X0138088Y0111308D01*
X0138088Y0112306D02*
X0143888Y0112306D01*
X0143888Y0113305D02*
X0138088Y0113305D01*
X0138088Y0114303D02*
X0143888Y0114303D01*
X0143888Y0115302D02*
X0138088Y0115302D01*
X0138088Y0116300D02*
X0143888Y0116300D01*
X0143888Y0117299D02*
X0138088Y0117299D01*
X0138088Y0118297D02*
X0143888Y0118297D01*
X0143888Y0119296D02*
X0138088Y0119296D01*
X0138088Y0120294D02*
X0143888Y0120294D01*
X0143888Y0121293D02*
X0138088Y0121293D01*
X0138088Y0122291D02*
X0143888Y0122291D01*
X0143888Y0123290D02*
X0138088Y0123290D01*
X0138088Y0124288D02*
X0143888Y0124288D01*
X0143888Y0125287D02*
X0138088Y0125287D01*
X0138088Y0126285D02*
X0143888Y0126285D01*
X0143888Y0127284D02*
X0138088Y0127284D01*
X0138088Y0128282D02*
X0143888Y0128282D01*
X0143888Y0129281D02*
X0138088Y0129281D01*
X0138088Y0130279D02*
X0143888Y0130279D01*
X0143888Y0131278D02*
X0138088Y0131278D01*
X0138088Y0132276D02*
X0143888Y0132276D01*
X0143888Y0133275D02*
X0138088Y0133275D01*
X0138088Y0134273D02*
X0143888Y0134273D01*
X0143888Y0135272D02*
X0138088Y0135272D01*
X0138088Y0136271D02*
X0143888Y0136271D01*
X0143888Y0137269D02*
X0137598Y0137269D01*
X0136600Y0138268D02*
X0143888Y0138268D01*
X0143888Y0139266D02*
X0135601Y0139266D01*
X0134603Y0140265D02*
X0143888Y0140265D01*
X0143888Y0141263D02*
X0133604Y0141263D01*
X0132606Y0142262D02*
X0143888Y0142262D01*
X0143888Y0143260D02*
X0131607Y0143260D01*
X0130609Y0144259D02*
X0143888Y0144259D01*
X0143888Y0145257D02*
X0129610Y0145257D01*
X0128612Y0146256D02*
X0143888Y0146256D01*
X0143888Y0147254D02*
X0127613Y0147254D01*
X0126615Y0148253D02*
X0143888Y0148253D01*
X0143888Y0149251D02*
X0125616Y0149251D01*
X0124618Y0150250D02*
X0143888Y0150250D01*
X0143888Y0151248D02*
X0123619Y0151248D01*
X0122621Y0152247D02*
X0143888Y0152247D01*
X0143888Y0153245D02*
X0121622Y0153245D01*
X0120624Y0154244D02*
X0143888Y0154244D01*
X0143888Y0155242D02*
X0119625Y0155242D01*
X0118627Y0156241D02*
X0143888Y0156241D01*
X0143888Y0157239D02*
X0117628Y0157239D01*
X0116630Y0158238D02*
X0142973Y0158238D01*
X0141975Y0159236D02*
X0115631Y0159236D01*
X0114633Y0160235D02*
X0140976Y0160235D01*
X0139978Y0161233D02*
X0114230Y0161233D01*
X0114230Y0162232D02*
X0138979Y0162232D01*
X0137981Y0163230D02*
X0114230Y0163230D01*
X0114230Y0164229D02*
X0136982Y0164229D01*
X0135984Y0165227D02*
X0114230Y0165227D01*
X0114230Y0166226D02*
X0134985Y0166226D01*
X0133987Y0167224D02*
X0114230Y0167224D01*
X0114230Y0168223D02*
X0132988Y0168223D01*
X0131990Y0169221D02*
X0114230Y0169221D01*
X0114230Y0170220D02*
X0130991Y0170220D01*
X0130109Y0171218D02*
X0114230Y0171218D01*
X0114230Y0172217D02*
X0130109Y0172217D01*
X0130109Y0173215D02*
X0114230Y0173215D01*
X0114230Y0174214D02*
X0130109Y0174214D01*
X0130109Y0175212D02*
X0114230Y0175212D01*
X0114230Y0176211D02*
X0130109Y0176211D01*
X0130109Y0177209D02*
X0114230Y0177209D01*
X0114230Y0178208D02*
X0130109Y0178208D01*
X0130109Y0179206D02*
X0114230Y0179206D01*
X0114230Y0180205D02*
X0130109Y0180205D01*
X0130109Y0181204D02*
X0114230Y0181204D01*
X0114230Y0182202D02*
X0130109Y0182202D01*
X0130109Y0183201D02*
X0114230Y0183201D01*
X0114230Y0184199D02*
X0130109Y0184199D01*
X0130109Y0185198D02*
X0114230Y0185198D01*
X0114230Y0186196D02*
X0130109Y0186196D01*
X0130109Y0187195D02*
X0114230Y0187195D01*
X0114230Y0188193D02*
X0130109Y0188193D01*
X0130109Y0189192D02*
X0114230Y0189192D01*
X0114230Y0190190D02*
X0130109Y0190190D01*
X0130109Y0191189D02*
X0114230Y0191189D01*
X0114230Y0192187D02*
X0130109Y0192187D01*
X0130109Y0193186D02*
X0114230Y0193186D01*
X0114230Y0194184D02*
X0130109Y0194184D01*
X0130109Y0195183D02*
X0114230Y0195183D01*
X0114230Y0196181D02*
X0130109Y0196181D01*
X0130109Y0197180D02*
X0114230Y0197180D01*
X0114230Y0198178D02*
X0130109Y0198178D01*
X0130109Y0199177D02*
X0114230Y0199177D01*
X0114230Y0200175D02*
X0130109Y0200175D01*
X0130109Y0201174D02*
X0114230Y0201174D01*
X0114230Y0202172D02*
X0130109Y0202172D01*
X0130109Y0203171D02*
X0114230Y0203171D01*
X0114230Y0204169D02*
X0130109Y0204169D01*
X0130109Y0205168D02*
X0114230Y0205168D01*
X0114230Y0206166D02*
X0130109Y0206166D01*
X0130109Y0207165D02*
X0114230Y0207165D01*
X0114230Y0208163D02*
X0130109Y0208163D01*
X0130109Y0209162D02*
X0114230Y0209162D01*
X0114230Y0210160D02*
X0130109Y0210160D01*
X0130109Y0211159D02*
X0114230Y0211159D01*
X0114230Y0212157D02*
X0130109Y0212157D01*
X0130109Y0213156D02*
X0114230Y0213156D01*
X0114230Y0214154D02*
X0130109Y0214154D01*
X0130109Y0215153D02*
X0114230Y0215153D01*
X0114230Y0216151D02*
X0130109Y0216151D01*
X0130109Y0217150D02*
X0114230Y0217150D01*
X0114230Y0218148D02*
X0130109Y0218148D01*
X0130109Y0219147D02*
X0114230Y0219147D01*
X0114230Y0220145D02*
X0130109Y0220145D01*
X0130029Y0221144D02*
X0124389Y0221144D01*
X0125848Y0222142D02*
X0128569Y0222142D01*
X0127687Y0223141D02*
X0126730Y0223141D01*
X0127144Y0224140D02*
X0127273Y0224140D01*
X0134389Y0221144D02*
X0139585Y0221144D01*
X0138287Y0222142D02*
X0135848Y0222142D01*
X0136730Y0223141D02*
X0137517Y0223141D01*
X0141724Y0223141D02*
X0142693Y0223141D01*
X0142693Y0224140D02*
X0141724Y0224140D01*
X0141724Y0225138D02*
X0142693Y0225138D01*
X0142693Y0226137D02*
X0141724Y0226137D01*
X0141724Y0227135D02*
X0142693Y0227135D01*
X0142693Y0228134D02*
X0141724Y0228134D01*
X0141724Y0229132D02*
X0142693Y0229132D01*
X0142693Y0230131D02*
X0151724Y0230131D01*
X0152693Y0230131D02*
X0161724Y0230131D01*
X0162693Y0230131D02*
X0171724Y0230131D01*
X0171724Y0229132D02*
X0172693Y0229132D01*
X0172693Y0228134D02*
X0171724Y0228134D01*
X0171724Y0227135D02*
X0172693Y0227135D01*
X0172693Y0226137D02*
X0171724Y0226137D01*
X0171724Y0225138D02*
X0172693Y0225138D01*
X0172693Y0224140D02*
X0171724Y0224140D01*
X0171724Y0223141D02*
X0172693Y0223141D01*
X0172693Y0222142D02*
X0171724Y0222142D01*
X0171724Y0221144D02*
X0172693Y0221144D01*
X0174832Y0221144D02*
X0180029Y0221144D01*
X0178569Y0222142D02*
X0176131Y0222142D01*
X0176900Y0223141D02*
X0177687Y0223141D01*
X0184389Y0221144D02*
X0189951Y0221144D01*
X0189951Y0220145D02*
X0134309Y0220145D01*
X0134309Y0219147D02*
X0189951Y0219147D01*
X0189951Y0218148D02*
X0134309Y0218148D01*
X0134309Y0217150D02*
X0189951Y0217150D01*
X0189951Y0216151D02*
X0134309Y0216151D01*
X0134309Y0215153D02*
X0189951Y0215153D01*
X0189951Y0214154D02*
X0134309Y0214154D01*
X0134309Y0213156D02*
X0189951Y0213156D01*
X0189951Y0212157D02*
X0134309Y0212157D01*
X0134309Y0211159D02*
X0189951Y0211159D01*
X0189951Y0210160D02*
X0134309Y0210160D01*
X0134309Y0209162D02*
X0189951Y0209162D01*
X0189951Y0208163D02*
X0134309Y0208163D01*
X0134309Y0207165D02*
X0189951Y0207165D01*
X0189951Y0206166D02*
X0134309Y0206166D01*
X0134309Y0205168D02*
X0189951Y0205168D01*
X0189388Y0204169D02*
X0134309Y0204169D01*
X0134309Y0203171D02*
X0188390Y0203171D01*
X0187391Y0202172D02*
X0134309Y0202172D01*
X0134309Y0201174D02*
X0186393Y0201174D01*
X0185394Y0200175D02*
X0134309Y0200175D01*
X0134309Y0199177D02*
X0184396Y0199177D01*
X0183397Y0198178D02*
X0134309Y0198178D01*
X0134309Y0197180D02*
X0182399Y0197180D01*
X0181400Y0196181D02*
X0134309Y0196181D01*
X0134309Y0195183D02*
X0180402Y0195183D01*
X0179403Y0194184D02*
X0134309Y0194184D01*
X0134309Y0193186D02*
X0178405Y0193186D01*
X0177406Y0192187D02*
X0134309Y0192187D01*
X0134309Y0191189D02*
X0176408Y0191189D01*
X0175409Y0190190D02*
X0134309Y0190190D01*
X0134309Y0189192D02*
X0174411Y0189192D01*
X0173412Y0188193D02*
X0134309Y0188193D01*
X0134309Y0187195D02*
X0172414Y0187195D01*
X0171415Y0186196D02*
X0134309Y0186196D01*
X0134309Y0185198D02*
X0170417Y0185198D01*
X0169418Y0184199D02*
X0134309Y0184199D01*
X0134309Y0183201D02*
X0168420Y0183201D01*
X0167421Y0182202D02*
X0134309Y0182202D01*
X0134309Y0181204D02*
X0166423Y0181204D01*
X0165424Y0180205D02*
X0134309Y0180205D01*
X0134309Y0179206D02*
X0164426Y0179206D01*
X0163427Y0178208D02*
X0134309Y0178208D01*
X0134309Y0177209D02*
X0162429Y0177209D01*
X0161430Y0176211D02*
X0134309Y0176211D01*
X0134309Y0175212D02*
X0160432Y0175212D01*
X0159433Y0174214D02*
X0134309Y0174214D01*
X0134309Y0173215D02*
X0158435Y0173215D01*
X0157436Y0172217D02*
X0134934Y0172217D01*
X0135933Y0171218D02*
X0156438Y0171218D01*
X0155439Y0170220D02*
X0136931Y0170220D01*
X0137930Y0169221D02*
X0154441Y0169221D01*
X0153888Y0168223D02*
X0138928Y0168223D01*
X0139927Y0167224D02*
X0153888Y0167224D01*
X0153888Y0166226D02*
X0140925Y0166226D01*
X0141924Y0165227D02*
X0153888Y0165227D01*
X0153888Y0164229D02*
X0142922Y0164229D01*
X0143921Y0163230D02*
X0153888Y0163230D01*
X0153888Y0162232D02*
X0144919Y0162232D01*
X0145918Y0161233D02*
X0153888Y0161233D01*
X0153888Y0160235D02*
X0146916Y0160235D01*
X0147915Y0159236D02*
X0153888Y0159236D01*
X0153888Y0158238D02*
X0148088Y0158238D01*
X0148088Y0157239D02*
X0153888Y0157239D01*
X0153888Y0156241D02*
X0148088Y0156241D01*
X0148088Y0155242D02*
X0153888Y0155242D01*
X0153888Y0154244D02*
X0148088Y0154244D01*
X0148088Y0153245D02*
X0153888Y0153245D01*
X0153888Y0152247D02*
X0148088Y0152247D01*
X0148088Y0151248D02*
X0153888Y0151248D01*
X0153888Y0150250D02*
X0148088Y0150250D01*
X0148088Y0149251D02*
X0153888Y0149251D01*
X0153888Y0148253D02*
X0148088Y0148253D01*
X0148088Y0147254D02*
X0153888Y0147254D01*
X0153888Y0146256D02*
X0148088Y0146256D01*
X0148088Y0145257D02*
X0153888Y0145257D01*
X0153888Y0144259D02*
X0148088Y0144259D01*
X0148088Y0143260D02*
X0153888Y0143260D01*
X0153888Y0142262D02*
X0148088Y0142262D01*
X0148088Y0141263D02*
X0153888Y0141263D01*
X0153888Y0140265D02*
X0148088Y0140265D01*
X0148088Y0139266D02*
X0153888Y0139266D01*
X0153888Y0138268D02*
X0148088Y0138268D01*
X0148088Y0137269D02*
X0153888Y0137269D01*
X0153888Y0136271D02*
X0148088Y0136271D01*
X0148088Y0135272D02*
X0153888Y0135272D01*
X0153888Y0134273D02*
X0148088Y0134273D01*
X0148088Y0133275D02*
X0153888Y0133275D01*
X0153888Y0132276D02*
X0148088Y0132276D01*
X0148088Y0131278D02*
X0153888Y0131278D01*
X0153888Y0130279D02*
X0148088Y0130279D01*
X0148088Y0129281D02*
X0153888Y0129281D01*
X0153888Y0128282D02*
X0148088Y0128282D01*
X0148088Y0127284D02*
X0153888Y0127284D01*
X0153888Y0126285D02*
X0148088Y0126285D01*
X0148088Y0125287D02*
X0153888Y0125287D01*
X0153888Y0124288D02*
X0148088Y0124288D01*
X0148088Y0123290D02*
X0153888Y0123290D01*
X0153888Y0122291D02*
X0148088Y0122291D01*
X0148088Y0121293D02*
X0153888Y0121293D01*
X0153888Y0120294D02*
X0148088Y0120294D01*
X0148088Y0119296D02*
X0153888Y0119296D01*
X0153888Y0118297D02*
X0148088Y0118297D01*
X0148088Y0117299D02*
X0153888Y0117299D01*
X0153888Y0116300D02*
X0148088Y0116300D01*
X0148088Y0115302D02*
X0153888Y0115302D01*
X0153888Y0114303D02*
X0148088Y0114303D01*
X0148088Y0113305D02*
X0153888Y0113305D01*
X0153888Y0112306D02*
X0148088Y0112306D01*
X0148088Y0111308D02*
X0153888Y0111308D01*
X0153888Y0110309D02*
X0148088Y0110309D01*
X0148088Y0109311D02*
X0153888Y0109311D01*
X0153888Y0108312D02*
X0148088Y0108312D01*
X0148088Y0107314D02*
X0153888Y0107314D01*
X0153888Y0106315D02*
X0148088Y0106315D01*
X0148088Y0105317D02*
X0153888Y0105317D01*
X0153888Y0104318D02*
X0148088Y0104318D01*
X0148088Y0103320D02*
X0153888Y0103320D01*
X0153888Y0102321D02*
X0148088Y0102321D01*
X0148088Y0101323D02*
X0153888Y0101323D01*
X0153888Y0100324D02*
X0148088Y0100324D01*
X0148176Y0099326D02*
X0153801Y0099326D01*
X0152802Y0098327D02*
X0149174Y0098327D01*
X0150173Y0097329D02*
X0151804Y0097329D01*
X0151720Y0096330D02*
X0150257Y0096330D01*
X0150257Y0095332D02*
X0151720Y0095332D01*
X0151720Y0094333D02*
X0150257Y0094333D01*
X0149883Y0093335D02*
X0152093Y0093335D01*
X0153092Y0092336D02*
X0148884Y0092336D01*
X0147886Y0091337D02*
X0154090Y0091337D01*
X0154220Y0089745D02*
X0151720Y0087244D01*
X0151720Y0083708D01*
X0154220Y0081208D01*
X0157756Y0081208D01*
X0160257Y0083708D01*
X0160257Y0087244D01*
X0157756Y0089745D01*
X0154220Y0089745D01*
X0153816Y0089340D02*
X0148161Y0089340D01*
X0149159Y0088342D02*
X0152817Y0088342D01*
X0151819Y0087343D02*
X0150158Y0087343D01*
X0150257Y0086345D02*
X0151720Y0086345D01*
X0151720Y0085346D02*
X0150257Y0085346D01*
X0150257Y0084348D02*
X0151720Y0084348D01*
X0152079Y0083349D02*
X0149898Y0083349D01*
X0148899Y0082351D02*
X0153077Y0082351D01*
X0154076Y0081352D02*
X0147901Y0081352D01*
X0157901Y0081352D02*
X0163793Y0081352D01*
X0164137Y0081008D02*
X0161520Y0083625D01*
X0161520Y0084992D01*
X0165504Y0084992D01*
X0166472Y0084992D01*
X0166472Y0081008D01*
X0167839Y0081008D01*
X0170457Y0083625D01*
X0170457Y0084992D01*
X0166473Y0084992D01*
X0166473Y0085961D01*
X0170457Y0085961D01*
X0170457Y0087327D01*
X0167839Y0089945D01*
X0166472Y0089945D01*
X0166472Y0085961D01*
X0165504Y0085961D01*
X0165504Y0089945D01*
X0164137Y0089945D01*
X0161520Y0087327D01*
X0161520Y0085961D01*
X0165504Y0085961D01*
X0165504Y0084992D01*
X0165504Y0081008D01*
X0164137Y0081008D01*
X0165504Y0081352D02*
X0166472Y0081352D01*
X0166472Y0082351D02*
X0165504Y0082351D01*
X0165504Y0083349D02*
X0166472Y0083349D01*
X0166472Y0084348D02*
X0165504Y0084348D01*
X0165504Y0085346D02*
X0160257Y0085346D01*
X0160257Y0084348D02*
X0161520Y0084348D01*
X0161796Y0083349D02*
X0159898Y0083349D01*
X0158899Y0082351D02*
X0162794Y0082351D01*
X0161520Y0086345D02*
X0160257Y0086345D01*
X0160158Y0087343D02*
X0161536Y0087343D01*
X0162534Y0088342D02*
X0159159Y0088342D01*
X0158161Y0089340D02*
X0163533Y0089340D01*
X0165504Y0089340D02*
X0166472Y0089340D01*
X0166472Y0088342D02*
X0165504Y0088342D01*
X0165504Y0087343D02*
X0166472Y0087343D01*
X0166472Y0086345D02*
X0165504Y0086345D01*
X0166473Y0085346D02*
X0225378Y0085346D01*
X0225378Y0084348D02*
X0170457Y0084348D01*
X0170181Y0083349D02*
X0225378Y0083349D01*
X0225378Y0082351D02*
X0169182Y0082351D01*
X0168184Y0081352D02*
X0225378Y0081352D01*
X0225378Y0080354D02*
X0099682Y0080354D01*
X0099682Y0081352D02*
X0123793Y0081352D01*
X0122794Y0082351D02*
X0099682Y0082351D01*
X0099682Y0083349D02*
X0121796Y0083349D01*
X0125504Y0083349D02*
X0126472Y0083349D01*
X0126472Y0082351D02*
X0125504Y0082351D01*
X0125504Y0081352D02*
X0126472Y0081352D01*
X0126472Y0084348D02*
X0125504Y0084348D01*
X0125504Y0086345D02*
X0126472Y0086345D01*
X0126472Y0087343D02*
X0125504Y0087343D01*
X0125504Y0088342D02*
X0126472Y0088342D01*
X0126472Y0089340D02*
X0125504Y0089340D01*
X0128443Y0089340D02*
X0133816Y0089340D01*
X0132817Y0088342D02*
X0129442Y0088342D01*
X0130441Y0087343D02*
X0131819Y0087343D01*
X0131720Y0086345D02*
X0130457Y0086345D01*
X0127886Y0091337D02*
X0134090Y0091337D01*
X0133092Y0092336D02*
X0128884Y0092336D01*
X0129883Y0093335D02*
X0132093Y0093335D01*
X0131720Y0094333D02*
X0130257Y0094333D01*
X0130257Y0095332D02*
X0131720Y0095332D01*
X0131720Y0096330D02*
X0130257Y0096330D01*
X0130173Y0097329D02*
X0131804Y0097329D01*
X0132802Y0098327D02*
X0129288Y0098327D01*
X0129288Y0099326D02*
X0133801Y0099326D01*
X0133888Y0100324D02*
X0129288Y0100324D01*
X0129288Y0101323D02*
X0133888Y0101323D01*
X0133888Y0102321D02*
X0129288Y0102321D01*
X0129288Y0103320D02*
X0133888Y0103320D01*
X0133888Y0104318D02*
X0129288Y0104318D01*
X0129288Y0105317D02*
X0133888Y0105317D01*
X0133888Y0106315D02*
X0129288Y0106315D01*
X0129288Y0107314D02*
X0133888Y0107314D01*
X0133888Y0108312D02*
X0129288Y0108312D01*
X0129288Y0109311D02*
X0133888Y0109311D01*
X0133888Y0110309D02*
X0129288Y0110309D01*
X0129288Y0111308D02*
X0133888Y0111308D01*
X0133888Y0112306D02*
X0129288Y0112306D01*
X0129288Y0113305D02*
X0133888Y0113305D01*
X0133888Y0114303D02*
X0129288Y0114303D01*
X0129288Y0115302D02*
X0133888Y0115302D01*
X0133888Y0116300D02*
X0129288Y0116300D01*
X0129288Y0117299D02*
X0133888Y0117299D01*
X0133888Y0118297D02*
X0129288Y0118297D01*
X0129288Y0119296D02*
X0133888Y0119296D01*
X0133888Y0120294D02*
X0129244Y0120294D01*
X0128830Y0121293D02*
X0133888Y0121293D01*
X0133888Y0122291D02*
X0127895Y0122291D01*
X0126897Y0123290D02*
X0133888Y0123290D01*
X0133888Y0124288D02*
X0125898Y0124288D01*
X0124900Y0125287D02*
X0133888Y0125287D01*
X0133888Y0126285D02*
X0123901Y0126285D01*
X0122903Y0127284D02*
X0133888Y0127284D01*
X0133888Y0128282D02*
X0121904Y0128282D01*
X0120906Y0129281D02*
X0133888Y0129281D01*
X0133888Y0130279D02*
X0119907Y0130279D01*
X0118909Y0131278D02*
X0133888Y0131278D01*
X0133888Y0132276D02*
X0117910Y0132276D01*
X0116912Y0133275D02*
X0133888Y0133275D01*
X0133888Y0134273D02*
X0115913Y0134273D01*
X0114915Y0135272D02*
X0133656Y0135272D01*
X0132657Y0136271D02*
X0113916Y0136271D01*
X0112918Y0137269D02*
X0131659Y0137269D01*
X0130660Y0138268D02*
X0111919Y0138268D01*
X0110921Y0139266D02*
X0129662Y0139266D01*
X0128663Y0140265D02*
X0109922Y0140265D01*
X0108923Y0141263D02*
X0127665Y0141263D01*
X0126666Y0142262D02*
X0107925Y0142262D01*
X0106926Y0143260D02*
X0125668Y0143260D01*
X0124669Y0144259D02*
X0105928Y0144259D01*
X0104929Y0145257D02*
X0123671Y0145257D01*
X0122672Y0146256D02*
X0103931Y0146256D01*
X0102932Y0147254D02*
X0121674Y0147254D01*
X0120675Y0148253D02*
X0101934Y0148253D01*
X0100935Y0149251D02*
X0119677Y0149251D01*
X0118678Y0150250D02*
X0099937Y0150250D01*
X0098938Y0151248D02*
X0117680Y0151248D01*
X0116681Y0152247D02*
X0097940Y0152247D01*
X0096941Y0153245D02*
X0115683Y0153245D01*
X0114684Y0154244D02*
X0095943Y0154244D01*
X0094957Y0155242D02*
X0113686Y0155242D01*
X0112687Y0156241D02*
X0094957Y0156241D01*
X0094957Y0157239D02*
X0111689Y0157239D01*
X0110690Y0158238D02*
X0094957Y0158238D01*
X0094957Y0159236D02*
X0110030Y0159236D01*
X0110030Y0160235D02*
X0094957Y0160235D01*
X0094957Y0161233D02*
X0110030Y0161233D01*
X0110030Y0162232D02*
X0094957Y0162232D01*
X0094957Y0163230D02*
X0110030Y0163230D01*
X0110030Y0164229D02*
X0094957Y0164229D01*
X0094957Y0165227D02*
X0110030Y0165227D01*
X0110030Y0166226D02*
X0094957Y0166226D01*
X0094957Y0167224D02*
X0110030Y0167224D01*
X0110030Y0168223D02*
X0094957Y0168223D01*
X0094957Y0169221D02*
X0110030Y0169221D01*
X0110030Y0170220D02*
X0094957Y0170220D01*
X0094957Y0171218D02*
X0110030Y0171218D01*
X0110030Y0172217D02*
X0094957Y0172217D01*
X0094957Y0173215D02*
X0110030Y0173215D01*
X0110030Y0174214D02*
X0094957Y0174214D01*
X0094957Y0175212D02*
X0110030Y0175212D01*
X0110030Y0176211D02*
X0094957Y0176211D01*
X0094957Y0177209D02*
X0110030Y0177209D01*
X0110030Y0178208D02*
X0094957Y0178208D01*
X0094957Y0179206D02*
X0110030Y0179206D01*
X0110030Y0180205D02*
X0094957Y0180205D01*
X0094957Y0181204D02*
X0110030Y0181204D01*
X0110030Y0182202D02*
X0096048Y0182202D01*
X0096304Y0183201D02*
X0110030Y0183201D01*
X0110030Y0184199D02*
X0096304Y0184199D01*
X0096304Y0185198D02*
X0110030Y0185198D01*
X0110030Y0186196D02*
X0096304Y0186196D01*
X0096304Y0187195D02*
X0110030Y0187195D01*
X0110030Y0188193D02*
X0096304Y0188193D01*
X0096304Y0189192D02*
X0110030Y0189192D01*
X0110030Y0190190D02*
X0096304Y0190190D01*
X0096304Y0191189D02*
X0110030Y0191189D01*
X0110030Y0192187D02*
X0096304Y0192187D01*
X0096102Y0193186D02*
X0110030Y0193186D01*
X0110030Y0194184D02*
X0095351Y0194184D01*
X0095351Y0195183D02*
X0110030Y0195183D01*
X0110030Y0196181D02*
X0095351Y0196181D01*
X0095351Y0197180D02*
X0110030Y0197180D01*
X0110030Y0198178D02*
X0095351Y0198178D01*
X0095910Y0199177D02*
X0110030Y0199177D01*
X0110030Y0200175D02*
X0095910Y0200175D01*
X0095910Y0201174D02*
X0110030Y0201174D01*
X0110030Y0202172D02*
X0095910Y0202172D01*
X0095910Y0203171D02*
X0110030Y0203171D01*
X0110030Y0204169D02*
X0095910Y0204169D01*
X0095910Y0205168D02*
X0110030Y0205168D01*
X0110030Y0206166D02*
X0095523Y0206166D01*
X0095509Y0207165D02*
X0110030Y0207165D01*
X0110030Y0208163D02*
X0095509Y0208163D01*
X0095509Y0209162D02*
X0110030Y0209162D01*
X0110030Y0210160D02*
X0095509Y0210160D01*
X0095509Y0211159D02*
X0110030Y0211159D01*
X0110030Y0212157D02*
X0095509Y0212157D01*
X0095509Y0213156D02*
X0110030Y0213156D01*
X0110030Y0214154D02*
X0095509Y0214154D01*
X0095509Y0215153D02*
X0110030Y0215153D01*
X0110030Y0216151D02*
X0095509Y0216151D01*
X0095509Y0217150D02*
X0110030Y0217150D01*
X0110030Y0218148D02*
X0095509Y0218148D01*
X0095509Y0219147D02*
X0110030Y0219147D01*
X0110030Y0220145D02*
X0095509Y0220145D01*
X0095509Y0221144D02*
X0100029Y0221144D01*
X0098569Y0222142D02*
X0095848Y0222142D01*
X0096730Y0223141D02*
X0097687Y0223141D01*
X0097273Y0224140D02*
X0097144Y0224140D01*
X0104389Y0221144D02*
X0110029Y0221144D01*
X0108569Y0222142D02*
X0105848Y0222142D01*
X0106730Y0223141D02*
X0107687Y0223141D01*
X0107273Y0224140D02*
X0107144Y0224140D01*
X0114389Y0221144D02*
X0120029Y0221144D01*
X0118569Y0222142D02*
X0115848Y0222142D01*
X0116730Y0223141D02*
X0117687Y0223141D01*
X0117273Y0224140D02*
X0117144Y0224140D01*
X0141724Y0222142D02*
X0142693Y0222142D01*
X0142693Y0221144D02*
X0141724Y0221144D01*
X0144832Y0221144D02*
X0149585Y0221144D01*
X0148287Y0222142D02*
X0146131Y0222142D01*
X0146900Y0223141D02*
X0147517Y0223141D01*
X0151724Y0223141D02*
X0152693Y0223141D01*
X0152693Y0224140D02*
X0151724Y0224140D01*
X0151724Y0225138D02*
X0152693Y0225138D01*
X0152693Y0226137D02*
X0151724Y0226137D01*
X0151724Y0227135D02*
X0152693Y0227135D01*
X0152693Y0228134D02*
X0151724Y0228134D01*
X0151724Y0229132D02*
X0152693Y0229132D01*
X0156900Y0223141D02*
X0157517Y0223141D01*
X0158287Y0222142D02*
X0156131Y0222142D01*
X0154832Y0221144D02*
X0159585Y0221144D01*
X0161724Y0221144D02*
X0162693Y0221144D01*
X0162693Y0222142D02*
X0161724Y0222142D01*
X0161724Y0223141D02*
X0162693Y0223141D01*
X0162693Y0224140D02*
X0161724Y0224140D01*
X0161724Y0225138D02*
X0162693Y0225138D01*
X0162693Y0226137D02*
X0161724Y0226137D01*
X0161724Y0227135D02*
X0162693Y0227135D01*
X0162693Y0228134D02*
X0161724Y0228134D01*
X0161724Y0229132D02*
X0162693Y0229132D01*
X0166900Y0223141D02*
X0167517Y0223141D01*
X0168287Y0222142D02*
X0166131Y0222142D01*
X0164832Y0221144D02*
X0169585Y0221144D01*
X0185848Y0222142D02*
X0188569Y0222142D01*
X0187687Y0223141D02*
X0186730Y0223141D01*
X0187144Y0224140D02*
X0187273Y0224140D01*
X0194389Y0221144D02*
X0200029Y0221144D01*
X0198569Y0222142D02*
X0195848Y0222142D01*
X0196730Y0223141D02*
X0197687Y0223141D01*
X0197273Y0224140D02*
X0197144Y0224140D01*
X0194151Y0220145D02*
X0210030Y0220145D01*
X0210030Y0219147D02*
X0194151Y0219147D01*
X0194151Y0218148D02*
X0210030Y0218148D01*
X0210030Y0217150D02*
X0194151Y0217150D01*
X0194151Y0216151D02*
X0210030Y0216151D01*
X0210030Y0215153D02*
X0194151Y0215153D01*
X0194151Y0214154D02*
X0210030Y0214154D01*
X0210030Y0213156D02*
X0194151Y0213156D01*
X0194151Y0212157D02*
X0210030Y0212157D01*
X0210030Y0211159D02*
X0194151Y0211159D01*
X0194151Y0210160D02*
X0210030Y0210160D01*
X0209735Y0209162D02*
X0194151Y0209162D01*
X0194151Y0208163D02*
X0208737Y0208163D01*
X0207738Y0207165D02*
X0194151Y0207165D01*
X0194151Y0206166D02*
X0206740Y0206166D01*
X0205741Y0205168D02*
X0194151Y0205168D01*
X0194151Y0204169D02*
X0204743Y0204169D01*
X0203744Y0203171D02*
X0194151Y0203171D01*
X0193331Y0202172D02*
X0202746Y0202172D01*
X0201747Y0201174D02*
X0192333Y0201174D01*
X0191334Y0200175D02*
X0200749Y0200175D01*
X0199750Y0199177D02*
X0190336Y0199177D01*
X0189337Y0198178D02*
X0198752Y0198178D01*
X0197753Y0197180D02*
X0188339Y0197180D01*
X0187340Y0196181D02*
X0196755Y0196181D01*
X0195756Y0195183D02*
X0186341Y0195183D01*
X0185343Y0194184D02*
X0194758Y0194184D01*
X0193759Y0193186D02*
X0184344Y0193186D01*
X0183346Y0192187D02*
X0192761Y0192187D01*
X0191762Y0191189D02*
X0182347Y0191189D01*
X0181349Y0190190D02*
X0190764Y0190190D01*
X0189765Y0189192D02*
X0180350Y0189192D01*
X0179352Y0188193D02*
X0188767Y0188193D01*
X0187768Y0187195D02*
X0178353Y0187195D01*
X0177355Y0186196D02*
X0186770Y0186196D01*
X0185771Y0185198D02*
X0176356Y0185198D01*
X0175358Y0184199D02*
X0184773Y0184199D01*
X0183774Y0183201D02*
X0174359Y0183201D01*
X0173361Y0182202D02*
X0182775Y0182202D01*
X0181777Y0181204D02*
X0172362Y0181204D01*
X0171364Y0180205D02*
X0180778Y0180205D01*
X0179780Y0179206D02*
X0170365Y0179206D01*
X0169367Y0178208D02*
X0178781Y0178208D01*
X0177783Y0177209D02*
X0168368Y0177209D01*
X0167370Y0176211D02*
X0176784Y0176211D01*
X0175786Y0175212D02*
X0166371Y0175212D01*
X0165373Y0174214D02*
X0174787Y0174214D01*
X0173789Y0173215D02*
X0164374Y0173215D01*
X0163376Y0172217D02*
X0172790Y0172217D01*
X0171792Y0171218D02*
X0162377Y0171218D01*
X0161379Y0170220D02*
X0170793Y0170220D01*
X0169795Y0169221D02*
X0160380Y0169221D01*
X0159382Y0168223D02*
X0168796Y0168223D01*
X0167798Y0167224D02*
X0158383Y0167224D01*
X0158088Y0166226D02*
X0166799Y0166226D01*
X0165801Y0165227D02*
X0158088Y0165227D01*
X0158088Y0164229D02*
X0164802Y0164229D01*
X0163888Y0163230D02*
X0158088Y0163230D01*
X0158088Y0162232D02*
X0163888Y0162232D01*
X0163888Y0161233D02*
X0158088Y0161233D01*
X0158088Y0160235D02*
X0163888Y0160235D01*
X0163888Y0159236D02*
X0158088Y0159236D01*
X0158088Y0158238D02*
X0163888Y0158238D01*
X0163888Y0157239D02*
X0158088Y0157239D01*
X0158088Y0156241D02*
X0163888Y0156241D01*
X0163888Y0155242D02*
X0158088Y0155242D01*
X0158088Y0154244D02*
X0163888Y0154244D01*
X0163888Y0153245D02*
X0158088Y0153245D01*
X0158088Y0152247D02*
X0163888Y0152247D01*
X0163888Y0151248D02*
X0158088Y0151248D01*
X0158088Y0150250D02*
X0163888Y0150250D01*
X0163888Y0149251D02*
X0158088Y0149251D01*
X0158088Y0148253D02*
X0163888Y0148253D01*
X0163888Y0147254D02*
X0158088Y0147254D01*
X0158088Y0146256D02*
X0163888Y0146256D01*
X0163888Y0145257D02*
X0158088Y0145257D01*
X0158088Y0144259D02*
X0163888Y0144259D01*
X0163888Y0143260D02*
X0158088Y0143260D01*
X0158088Y0142262D02*
X0163888Y0142262D01*
X0163888Y0141263D02*
X0158088Y0141263D01*
X0158088Y0140265D02*
X0163888Y0140265D01*
X0163888Y0139266D02*
X0158088Y0139266D01*
X0158088Y0138268D02*
X0163888Y0138268D01*
X0163888Y0137269D02*
X0158088Y0137269D01*
X0158088Y0136271D02*
X0163888Y0136271D01*
X0163888Y0135272D02*
X0158088Y0135272D01*
X0158088Y0134273D02*
X0163888Y0134273D01*
X0163888Y0133275D02*
X0158088Y0133275D01*
X0158088Y0132276D02*
X0163888Y0132276D01*
X0163888Y0131278D02*
X0158088Y0131278D01*
X0158088Y0130279D02*
X0163888Y0130279D01*
X0163888Y0129281D02*
X0158088Y0129281D01*
X0158088Y0128282D02*
X0163888Y0128282D01*
X0163888Y0127284D02*
X0158088Y0127284D01*
X0158088Y0126285D02*
X0163888Y0126285D01*
X0163888Y0125287D02*
X0158088Y0125287D01*
X0158088Y0124288D02*
X0163888Y0124288D01*
X0163888Y0123290D02*
X0158088Y0123290D01*
X0158088Y0122291D02*
X0163888Y0122291D01*
X0163888Y0121293D02*
X0158088Y0121293D01*
X0158088Y0120294D02*
X0163888Y0120294D01*
X0163888Y0119296D02*
X0158088Y0119296D01*
X0158088Y0118297D02*
X0163888Y0118297D01*
X0163888Y0117299D02*
X0158088Y0117299D01*
X0158088Y0116300D02*
X0163888Y0116300D01*
X0163888Y0115302D02*
X0158088Y0115302D01*
X0158088Y0114303D02*
X0163888Y0114303D01*
X0163888Y0113305D02*
X0158088Y0113305D01*
X0158088Y0112306D02*
X0163888Y0112306D01*
X0163888Y0111308D02*
X0158088Y0111308D01*
X0158088Y0110309D02*
X0163888Y0110309D01*
X0163888Y0109311D02*
X0158088Y0109311D01*
X0158088Y0108312D02*
X0163888Y0108312D01*
X0163888Y0107314D02*
X0158088Y0107314D01*
X0158088Y0106315D02*
X0163888Y0106315D01*
X0163888Y0105317D02*
X0158088Y0105317D01*
X0158088Y0104318D02*
X0163888Y0104318D01*
X0163888Y0103320D02*
X0158088Y0103320D01*
X0158088Y0102321D02*
X0163888Y0102321D01*
X0163888Y0101323D02*
X0158088Y0101323D01*
X0158088Y0100324D02*
X0163888Y0100324D01*
X0163801Y0099326D02*
X0158176Y0099326D01*
X0159174Y0098327D02*
X0162802Y0098327D01*
X0161804Y0097329D02*
X0160173Y0097329D01*
X0160257Y0096330D02*
X0161720Y0096330D01*
X0161720Y0095332D02*
X0160257Y0095332D01*
X0160257Y0094333D02*
X0161720Y0094333D01*
X0162093Y0093335D02*
X0159883Y0093335D01*
X0158884Y0092336D02*
X0163092Y0092336D01*
X0164090Y0091337D02*
X0157886Y0091337D01*
X0167886Y0091337D02*
X0225378Y0091337D01*
X0225378Y0090339D02*
X0102486Y0090339D01*
X0122688Y0099326D02*
X0007968Y0099326D01*
X0007968Y0100324D02*
X0122688Y0100324D01*
X0122688Y0101323D02*
X0007968Y0101323D01*
X0007968Y0102321D02*
X0122688Y0102321D01*
X0122688Y0103320D02*
X0007968Y0103320D01*
X0007968Y0104318D02*
X0122688Y0104318D01*
X0122688Y0105317D02*
X0007968Y0105317D01*
X0007968Y0106315D02*
X0122688Y0106315D01*
X0122688Y0107314D02*
X0007968Y0107314D01*
X0007968Y0108312D02*
X0122688Y0108312D01*
X0122688Y0109311D02*
X0007968Y0109311D01*
X0007968Y0110309D02*
X0122688Y0110309D01*
X0122688Y0111308D02*
X0007968Y0111308D01*
X0007968Y0112306D02*
X0122688Y0112306D01*
X0122688Y0113305D02*
X0007968Y0113305D01*
X0007968Y0114303D02*
X0122688Y0114303D01*
X0122688Y0115302D02*
X0007968Y0115302D01*
X0007968Y0116300D02*
X0122688Y0116300D01*
X0122688Y0117299D02*
X0007968Y0117299D01*
X0007968Y0118297D02*
X0122555Y0118297D01*
X0121557Y0119296D02*
X0007968Y0119296D01*
X0007968Y0120294D02*
X0120558Y0120294D01*
X0119560Y0121293D02*
X0007968Y0121293D01*
X0007968Y0122291D02*
X0118561Y0122291D01*
X0117563Y0123290D02*
X0007968Y0123290D01*
X0007968Y0124288D02*
X0116564Y0124288D01*
X0115566Y0125287D02*
X0007968Y0125287D01*
X0007968Y0126285D02*
X0114567Y0126285D01*
X0113569Y0127284D02*
X0007968Y0127284D01*
X0007968Y0128282D02*
X0112570Y0128282D01*
X0111572Y0129281D02*
X0007968Y0129281D01*
X0007968Y0130279D02*
X0110573Y0130279D01*
X0109575Y0131278D02*
X0007968Y0131278D01*
X0007968Y0132276D02*
X0108576Y0132276D01*
X0107578Y0133275D02*
X0007968Y0133275D01*
X0007968Y0134273D02*
X0106579Y0134273D01*
X0105581Y0135272D02*
X0007968Y0135272D01*
X0007968Y0136271D02*
X0104582Y0136271D01*
X0103584Y0137269D02*
X0007968Y0137269D01*
X0007968Y0138268D02*
X0102585Y0138268D01*
X0101587Y0139266D02*
X0007968Y0139266D01*
X0007968Y0140265D02*
X0100588Y0140265D01*
X0099590Y0141263D02*
X0007968Y0141263D01*
X0007968Y0142262D02*
X0098591Y0142262D01*
X0097593Y0143260D02*
X0007968Y0143260D01*
X0007968Y0144259D02*
X0096594Y0144259D01*
X0095596Y0145257D02*
X0007968Y0145257D01*
X0007968Y0146256D02*
X0094597Y0146256D01*
X0093599Y0147254D02*
X0007968Y0147254D01*
X0007968Y0148253D02*
X0092600Y0148253D01*
X0091602Y0149251D02*
X0007968Y0149251D01*
X0007968Y0150250D02*
X0090603Y0150250D01*
X0089605Y0151248D02*
X0007968Y0151248D01*
X0007968Y0152247D02*
X0088755Y0152247D01*
X0088357Y0153245D02*
X0007968Y0153245D01*
X0007968Y0154244D02*
X0088357Y0154244D01*
X0088357Y0155242D02*
X0007968Y0155242D01*
X0007968Y0156241D02*
X0088357Y0156241D01*
X0088357Y0157239D02*
X0007968Y0157239D01*
X0007968Y0158238D02*
X0088357Y0158238D01*
X0088357Y0159236D02*
X0007968Y0159236D01*
X0007968Y0160235D02*
X0088357Y0160235D01*
X0088357Y0161233D02*
X0007968Y0161233D01*
X0007968Y0162232D02*
X0088357Y0162232D01*
X0088357Y0163230D02*
X0007968Y0163230D01*
X0007968Y0164229D02*
X0088357Y0164229D01*
X0088357Y0165227D02*
X0007968Y0165227D01*
X0007968Y0166226D02*
X0088357Y0166226D01*
X0088357Y0167224D02*
X0007968Y0167224D01*
X0007968Y0168223D02*
X0088357Y0168223D01*
X0088357Y0169221D02*
X0007968Y0169221D01*
X0007968Y0170220D02*
X0088357Y0170220D01*
X0088357Y0171218D02*
X0007968Y0171218D01*
X0007968Y0172217D02*
X0088357Y0172217D01*
X0088357Y0173215D02*
X0007968Y0173215D01*
X0007968Y0174214D02*
X0088357Y0174214D01*
X0088357Y0175212D02*
X0007968Y0175212D01*
X0007968Y0176211D02*
X0088357Y0176211D01*
X0088357Y0177209D02*
X0007968Y0177209D01*
X0007968Y0178208D02*
X0088357Y0178208D01*
X0088357Y0179206D02*
X0007968Y0179206D01*
X0007968Y0180205D02*
X0088357Y0180205D01*
X0088357Y0181204D02*
X0007968Y0181204D01*
X0007968Y0182202D02*
X0069715Y0182202D01*
X0069788Y0182075D02*
X0070067Y0181796D01*
X0070409Y0181598D01*
X0070791Y0181496D01*
X0073441Y0181496D01*
X0073441Y0187220D01*
X0074441Y0187220D01*
X0074441Y0181496D01*
X0077091Y0181496D01*
X0077473Y0181598D01*
X0077815Y0181796D01*
X0078094Y0182075D01*
X0078291Y0182417D01*
X0078394Y0182799D01*
X0078394Y0187220D01*
X0074441Y0187220D01*
X0074441Y0188220D01*
X0078394Y0188220D01*
X0078394Y0192642D01*
X0078291Y0193024D01*
X0078094Y0193366D01*
X0077815Y0193645D01*
X0077473Y0193843D01*
X0077091Y0193945D01*
X0074441Y0193945D01*
X0074441Y0188221D01*
X0073441Y0188221D01*
X0073441Y0193945D01*
X0070791Y0193945D01*
X0070409Y0193843D01*
X0070067Y0193645D01*
X0069788Y0193366D01*
X0069590Y0193024D01*
X0069488Y0192642D01*
X0069488Y0188220D01*
X0073441Y0188220D01*
X0073441Y0187220D01*
X0069488Y0187220D01*
X0069488Y0182799D01*
X0069590Y0182417D01*
X0069788Y0182075D01*
X0069488Y0183201D02*
X0007968Y0183201D01*
X0007968Y0184199D02*
X0069488Y0184199D01*
X0069488Y0185198D02*
X0007968Y0185198D01*
X0007968Y0186196D02*
X0069488Y0186196D01*
X0069488Y0187195D02*
X0007968Y0187195D01*
X0007968Y0188193D02*
X0073441Y0188193D01*
X0073441Y0187195D02*
X0074441Y0187195D01*
X0074441Y0188193D02*
X0087798Y0188193D01*
X0087798Y0187195D02*
X0078394Y0187195D01*
X0078394Y0186196D02*
X0087798Y0186196D01*
X0087798Y0185198D02*
X0078394Y0185198D01*
X0078394Y0184199D02*
X0087798Y0184199D01*
X0087798Y0183201D02*
X0078394Y0183201D01*
X0078167Y0182202D02*
X0088054Y0182202D01*
X0074441Y0182202D02*
X0073441Y0182202D01*
X0073441Y0183201D02*
X0074441Y0183201D01*
X0074441Y0184199D02*
X0073441Y0184199D01*
X0073441Y0185198D02*
X0074441Y0185198D01*
X0074441Y0186196D02*
X0073441Y0186196D01*
X0073441Y0189192D02*
X0074441Y0189192D01*
X0074441Y0190190D02*
X0073441Y0190190D01*
X0073441Y0191189D02*
X0074441Y0191189D01*
X0074441Y0192187D02*
X0073441Y0192187D01*
X0073441Y0193186D02*
X0074441Y0193186D01*
X0078198Y0193186D02*
X0088001Y0193186D01*
X0087798Y0192187D02*
X0078394Y0192187D01*
X0078394Y0191189D02*
X0087798Y0191189D01*
X0087798Y0190190D02*
X0078394Y0190190D01*
X0078394Y0189192D02*
X0087798Y0189192D01*
X0088751Y0194184D02*
X0007968Y0194184D01*
X0007968Y0193186D02*
X0069684Y0193186D01*
X0069488Y0192187D02*
X0007968Y0192187D01*
X0007968Y0191189D02*
X0069488Y0191189D01*
X0069488Y0190190D02*
X0007968Y0190190D01*
X0007968Y0189192D02*
X0069488Y0189192D01*
X0080812Y0198414D02*
X0081091Y0198134D01*
X0081433Y0197937D01*
X0081814Y0197835D01*
X0084071Y0197835D01*
X0084071Y0201787D01*
X0080512Y0201787D01*
X0080512Y0199137D01*
X0080614Y0198756D01*
X0080812Y0198414D01*
X0081047Y0198178D02*
X0007968Y0198178D01*
X0007968Y0197180D02*
X0088751Y0197180D01*
X0088751Y0198178D02*
X0088095Y0198178D01*
X0088751Y0196181D02*
X0007968Y0196181D01*
X0007968Y0195183D02*
X0088751Y0195183D01*
X0085071Y0198178D02*
X0084071Y0198178D01*
X0084071Y0199177D02*
X0085071Y0199177D01*
X0085071Y0200175D02*
X0084071Y0200175D01*
X0084071Y0201174D02*
X0085071Y0201174D01*
X0084071Y0202172D02*
X0007968Y0202172D01*
X0007968Y0201174D02*
X0080512Y0201174D01*
X0080512Y0200175D02*
X0007968Y0200175D01*
X0007968Y0199177D02*
X0080512Y0199177D01*
X0080512Y0202787D02*
X0084071Y0202787D01*
X0084071Y0206740D01*
X0081814Y0206740D01*
X0081433Y0206638D01*
X0081091Y0206440D01*
X0080812Y0206161D01*
X0080614Y0205819D01*
X0080512Y0205438D01*
X0080512Y0202787D01*
X0080512Y0203171D02*
X0007968Y0203171D01*
X0007968Y0204169D02*
X0080512Y0204169D01*
X0080512Y0205168D02*
X0007968Y0205168D01*
X0007968Y0206166D02*
X0080817Y0206166D01*
X0084071Y0206166D02*
X0085071Y0206166D01*
X0085071Y0205168D02*
X0084071Y0205168D01*
X0084071Y0204169D02*
X0085071Y0204169D01*
X0085071Y0203171D02*
X0084071Y0203171D01*
X0088325Y0206166D02*
X0088580Y0206166D01*
X0088909Y0207165D02*
X0025243Y0207165D01*
X0025063Y0207129D02*
X0026316Y0207378D01*
X0027538Y0207749D01*
X0028718Y0208238D01*
X0029845Y0208840D01*
X0030907Y0209550D01*
X0031894Y0210360D01*
X0032798Y0211263D01*
X0033608Y0212251D01*
X0034317Y0213313D01*
X0034920Y0214439D01*
X0035408Y0215619D01*
X0035779Y0216841D01*
X0036028Y0218094D01*
X0036154Y0219365D01*
X0036154Y0219504D01*
X0023654Y0219504D01*
X0023654Y0220504D01*
X0036154Y0220504D01*
X0036154Y0220643D01*
X0036028Y0221914D01*
X0035779Y0223166D01*
X0035408Y0224389D01*
X0034920Y0225569D01*
X0034317Y0226695D01*
X0033608Y0227757D01*
X0032798Y0228745D01*
X0031894Y0229648D01*
X0030907Y0230458D01*
X0029845Y0231168D01*
X0028718Y0231770D01*
X0027538Y0232259D01*
X0026316Y0232630D01*
X0025063Y0232879D01*
X0023792Y0233004D01*
X0023654Y0233004D01*
X0023654Y0220504D01*
X0022654Y0220504D01*
X0022654Y0233004D01*
X0022515Y0233004D01*
X0021244Y0232879D01*
X0019991Y0232630D01*
X0018769Y0232259D01*
X0017589Y0231770D01*
X0016462Y0231168D01*
X0015400Y0230458D01*
X0014413Y0229648D01*
X0013510Y0228745D01*
X0012699Y0227757D01*
X0011990Y0226695D01*
X0011388Y0225569D01*
X0010899Y0224389D01*
X0010528Y0223166D01*
X0010279Y0221914D01*
X0010154Y0220643D01*
X0010154Y0220504D01*
X0022653Y0220504D01*
X0022653Y0219504D01*
X0010154Y0219504D01*
X0010154Y0219365D01*
X0010279Y0218094D01*
X0010528Y0216841D01*
X0010899Y0215619D01*
X0011388Y0214439D01*
X0011990Y0213313D01*
X0012699Y0212251D01*
X0013510Y0211263D01*
X0014413Y0210360D01*
X0015400Y0209550D01*
X0016462Y0208840D01*
X0017589Y0208238D01*
X0018769Y0207749D01*
X0019991Y0207378D01*
X0021244Y0207129D01*
X0022515Y0207004D01*
X0022654Y0207004D01*
X0022654Y0219504D01*
X0023654Y0219504D01*
X0023654Y0207004D01*
X0023792Y0207004D01*
X0025063Y0207129D01*
X0023654Y0207165D02*
X0022654Y0207165D01*
X0022654Y0208163D02*
X0023654Y0208163D01*
X0023654Y0209162D02*
X0022654Y0209162D01*
X0022654Y0210160D02*
X0023654Y0210160D01*
X0023654Y0211159D02*
X0022654Y0211159D01*
X0022654Y0212157D02*
X0023654Y0212157D01*
X0023654Y0213156D02*
X0022654Y0213156D01*
X0022654Y0214154D02*
X0023654Y0214154D01*
X0023654Y0215153D02*
X0022654Y0215153D01*
X0022654Y0216151D02*
X0023654Y0216151D01*
X0023654Y0217150D02*
X0022654Y0217150D01*
X0022654Y0218148D02*
X0023654Y0218148D01*
X0023654Y0219147D02*
X0022654Y0219147D01*
X0022653Y0220145D02*
X0007968Y0220145D01*
X0007968Y0219147D02*
X0010175Y0219147D01*
X0010273Y0218148D02*
X0007968Y0218148D01*
X0007968Y0217150D02*
X0010467Y0217150D01*
X0010737Y0216151D02*
X0007968Y0216151D01*
X0007968Y0215153D02*
X0011092Y0215153D01*
X0011540Y0214154D02*
X0007968Y0214154D01*
X0007968Y0213156D02*
X0012094Y0213156D01*
X0012776Y0212157D02*
X0007968Y0212157D01*
X0007968Y0211159D02*
X0013614Y0211159D01*
X0014656Y0210160D02*
X0007968Y0210160D01*
X0007968Y0209162D02*
X0015980Y0209162D01*
X0017769Y0208163D02*
X0007968Y0208163D01*
X0007968Y0207165D02*
X0021064Y0207165D01*
X0028538Y0208163D02*
X0088909Y0208163D01*
X0088909Y0209162D02*
X0030327Y0209162D01*
X0031651Y0210160D02*
X0088909Y0210160D01*
X0088909Y0211159D02*
X0032693Y0211159D01*
X0033531Y0212157D02*
X0088909Y0212157D01*
X0088909Y0213156D02*
X0034213Y0213156D01*
X0034767Y0214154D02*
X0088909Y0214154D01*
X0088909Y0215153D02*
X0035215Y0215153D01*
X0035570Y0216151D02*
X0088909Y0216151D01*
X0088909Y0217150D02*
X0035841Y0217150D01*
X0036034Y0218148D02*
X0088909Y0218148D01*
X0088909Y0219147D02*
X0055801Y0219147D01*
X0058164Y0220145D02*
X0088909Y0220145D01*
X0088909Y0221144D02*
X0084832Y0221144D01*
X0086131Y0222142D02*
X0088569Y0222142D01*
X0087687Y0223141D02*
X0086900Y0223141D01*
X0082693Y0223141D02*
X0081724Y0223141D01*
X0081724Y0224140D02*
X0082693Y0224140D01*
X0082693Y0225138D02*
X0081724Y0225138D01*
X0081724Y0226137D02*
X0082693Y0226137D01*
X0082693Y0227135D02*
X0081724Y0227135D01*
X0081724Y0228134D02*
X0082693Y0228134D01*
X0082693Y0229132D02*
X0081724Y0229132D01*
X0081724Y0230131D02*
X0063824Y0230131D01*
X0063824Y0231129D02*
X0076772Y0231129D01*
X0076772Y0232128D02*
X0063605Y0232128D01*
X0063338Y0233126D02*
X0076772Y0233126D01*
X0076772Y0234125D02*
X0063070Y0234125D01*
X0062501Y0235123D02*
X0076927Y0235123D01*
X0076772Y0229132D02*
X0063824Y0229132D01*
X0063758Y0228134D02*
X0076772Y0228134D01*
X0076772Y0227135D02*
X0063490Y0227135D01*
X0063223Y0226137D02*
X0076772Y0226137D01*
X0076826Y0225138D02*
X0062829Y0225138D01*
X0062252Y0224140D02*
X0077067Y0224140D01*
X0077517Y0223141D02*
X0061676Y0223141D01*
X0060735Y0222142D02*
X0078287Y0222142D01*
X0079585Y0221144D02*
X0059737Y0221144D01*
X0049561Y0219147D02*
X0036132Y0219147D01*
X0036104Y0221144D02*
X0045626Y0221144D01*
X0044627Y0222142D02*
X0035983Y0222142D01*
X0035784Y0223141D02*
X0043686Y0223141D01*
X0043110Y0224140D02*
X0035484Y0224140D01*
X0035098Y0225138D02*
X0042533Y0225138D01*
X0042140Y0226137D02*
X0034616Y0226137D01*
X0034024Y0227135D02*
X0041872Y0227135D01*
X0041604Y0228134D02*
X0033299Y0228134D01*
X0032410Y0229132D02*
X0041539Y0229132D01*
X0041539Y0230131D02*
X0031306Y0230131D01*
X0029903Y0231129D02*
X0041539Y0231129D01*
X0041757Y0232128D02*
X0027855Y0232128D01*
X0023654Y0232128D02*
X0022654Y0232128D01*
X0022654Y0231129D02*
X0023654Y0231129D01*
X0023654Y0230131D02*
X0022654Y0230131D01*
X0022654Y0229132D02*
X0023654Y0229132D01*
X0023654Y0228134D02*
X0022654Y0228134D01*
X0022654Y0227135D02*
X0023654Y0227135D01*
X0023654Y0226137D02*
X0022654Y0226137D01*
X0022654Y0225138D02*
X0023654Y0225138D01*
X0023654Y0224140D02*
X0022654Y0224140D01*
X0022654Y0223141D02*
X0023654Y0223141D01*
X0023654Y0222142D02*
X0022654Y0222142D01*
X0022654Y0221144D02*
X0023654Y0221144D01*
X0023654Y0220145D02*
X0047199Y0220145D01*
X0042024Y0233126D02*
X0007968Y0233126D01*
X0007968Y0232128D02*
X0018452Y0232128D01*
X0016404Y0231129D02*
X0007968Y0231129D01*
X0007968Y0230131D02*
X0015001Y0230131D01*
X0013897Y0229132D02*
X0007968Y0229132D01*
X0007968Y0228134D02*
X0013008Y0228134D01*
X0012283Y0227135D02*
X0007968Y0227135D01*
X0007968Y0226137D02*
X0011691Y0226137D01*
X0011209Y0225138D02*
X0007968Y0225138D01*
X0007968Y0224140D02*
X0010823Y0224140D01*
X0010523Y0223141D02*
X0007968Y0223141D01*
X0007968Y0222142D02*
X0010324Y0222142D01*
X0010203Y0221144D02*
X0007968Y0221144D01*
X0007968Y0234125D02*
X0042292Y0234125D01*
X0042861Y0235123D02*
X0007968Y0235123D01*
X0081724Y0222142D02*
X0082693Y0222142D01*
X0082693Y0221144D02*
X0081724Y0221144D01*
X0151724Y0221144D02*
X0152693Y0221144D01*
X0152693Y0222142D02*
X0151724Y0222142D01*
X0203693Y0197180D02*
X0406499Y0197180D01*
X0406499Y0198178D02*
X0204691Y0198178D01*
X0205690Y0199177D02*
X0406499Y0199177D01*
X0406499Y0200175D02*
X0206688Y0200175D01*
X0207687Y0201174D02*
X0406499Y0201174D01*
X0406499Y0201724D02*
X0406499Y0194741D01*
X0407261Y0193980D01*
X0408061Y0193980D01*
X0408061Y0188590D01*
X0399646Y0180175D01*
X0398918Y0180175D01*
X0397784Y0179705D01*
X0396917Y0178838D01*
X0396447Y0177704D01*
X0396447Y0176477D01*
X0396917Y0175343D01*
X0397784Y0174476D01*
X0398918Y0174006D01*
X0400145Y0174006D01*
X0401279Y0174476D01*
X0402146Y0175343D01*
X0402616Y0176477D01*
X0402616Y0177205D01*
X0411031Y0185620D01*
X0412261Y0186851D01*
X0412261Y0193980D01*
X0413456Y0193980D01*
X0413705Y0194228D01*
X0413954Y0193980D01*
X0420149Y0193980D01*
X0420910Y0194741D01*
X0420910Y0195732D01*
X0421171Y0195732D01*
X0422089Y0196113D01*
X0422793Y0196816D01*
X0440656Y0214680D01*
X0440789Y0214548D01*
X0442369Y0213893D01*
X0450080Y0213893D01*
X0451660Y0214548D01*
X0452870Y0215757D01*
X0453524Y0217338D01*
X0453524Y0219048D01*
X0452870Y0220629D01*
X0451660Y0221838D01*
X0450080Y0222493D01*
X0442369Y0222493D01*
X0440789Y0221838D01*
X0439579Y0220629D01*
X0439496Y0220427D01*
X0439218Y0220312D01*
X0420770Y0201864D01*
X0420149Y0202485D01*
X0413954Y0202485D01*
X0413705Y0202236D01*
X0413456Y0202485D01*
X0407261Y0202485D01*
X0406499Y0201724D01*
X0406948Y0202172D02*
X0208685Y0202172D01*
X0209684Y0203171D02*
X0422076Y0203171D01*
X0423075Y0204169D02*
X0210682Y0204169D01*
X0211681Y0205168D02*
X0424073Y0205168D01*
X0425072Y0206166D02*
X0212679Y0206166D01*
X0213678Y0207165D02*
X0426070Y0207165D01*
X0427069Y0208163D02*
X0214230Y0208163D01*
X0214230Y0209162D02*
X0428067Y0209162D01*
X0429066Y0210160D02*
X0214230Y0210160D01*
X0214230Y0211159D02*
X0430064Y0211159D01*
X0431063Y0212157D02*
X0214230Y0212157D01*
X0214230Y0213156D02*
X0432061Y0213156D01*
X0433060Y0214154D02*
X0214230Y0214154D01*
X0214230Y0215153D02*
X0434058Y0215153D01*
X0435057Y0216151D02*
X0214230Y0216151D01*
X0214230Y0217150D02*
X0436055Y0217150D01*
X0437054Y0218148D02*
X0214230Y0218148D01*
X0214230Y0219147D02*
X0415703Y0219147D01*
X0413340Y0220145D02*
X0214230Y0220145D01*
X0214389Y0221144D02*
X0220029Y0221144D01*
X0218569Y0222142D02*
X0215848Y0222142D01*
X0216730Y0223141D02*
X0217687Y0223141D01*
X0217273Y0224140D02*
X0217144Y0224140D01*
X0224389Y0221144D02*
X0230029Y0221144D01*
X0228569Y0222142D02*
X0225848Y0222142D01*
X0226730Y0223141D02*
X0227687Y0223141D01*
X0227273Y0224140D02*
X0227144Y0224140D01*
X0234389Y0221144D02*
X0411767Y0221144D01*
X0410769Y0222142D02*
X0254382Y0222142D01*
X0254472Y0222233D02*
X0254669Y0222575D01*
X0254772Y0222956D01*
X0254772Y0226591D01*
X0251016Y0226591D01*
X0251016Y0227591D01*
X0250016Y0227591D01*
X0250016Y0232528D01*
X0247562Y0232528D01*
X0247181Y0232425D01*
X0246839Y0232228D01*
X0246560Y0231949D01*
X0246362Y0231607D01*
X0246260Y0231225D01*
X0246260Y0227591D01*
X0250016Y0227591D01*
X0250016Y0226591D01*
X0246260Y0226591D01*
X0246260Y0222956D01*
X0246362Y0222575D01*
X0246560Y0222233D01*
X0246839Y0221953D01*
X0247181Y0221756D01*
X0247562Y0221654D01*
X0250016Y0221654D01*
X0250016Y0226591D01*
X0251016Y0226591D01*
X0251016Y0221654D01*
X0253469Y0221654D01*
X0253851Y0221756D01*
X0254193Y0221953D01*
X0254472Y0222233D01*
X0254772Y0223141D02*
X0409828Y0223141D01*
X0409251Y0224140D02*
X0254772Y0224140D01*
X0254772Y0225138D02*
X0408675Y0225138D01*
X0408281Y0226137D02*
X0254772Y0226137D01*
X0254772Y0227591D02*
X0254772Y0231225D01*
X0254669Y0231607D01*
X0254472Y0231949D01*
X0254193Y0232228D01*
X0253851Y0232425D01*
X0253469Y0232528D01*
X0251016Y0232528D01*
X0251016Y0227591D01*
X0254772Y0227591D01*
X0254772Y0228134D02*
X0362402Y0228134D01*
X0362402Y0227484D02*
X0362504Y0227102D01*
X0362701Y0226760D01*
X0362981Y0226481D01*
X0363323Y0226283D01*
X0363704Y0226181D01*
X0366157Y0226181D01*
X0366157Y0231118D01*
X0362402Y0231118D01*
X0362402Y0227484D01*
X0362495Y0227135D02*
X0251016Y0227135D01*
X0251016Y0226137D02*
X0250016Y0226137D01*
X0250016Y0227135D02*
X0237446Y0227135D01*
X0237446Y0226137D02*
X0246260Y0226137D01*
X0246260Y0225138D02*
X0237446Y0225138D01*
X0237144Y0224140D02*
X0246260Y0224140D01*
X0246260Y0223141D02*
X0236730Y0223141D01*
X0235848Y0222142D02*
X0246650Y0222142D01*
X0250016Y0222142D02*
X0251016Y0222142D01*
X0251016Y0223141D02*
X0250016Y0223141D01*
X0250016Y0224140D02*
X0251016Y0224140D01*
X0251016Y0225138D02*
X0250016Y0225138D01*
X0250016Y0228134D02*
X0251016Y0228134D01*
X0251016Y0229132D02*
X0250016Y0229132D01*
X0250016Y0230131D02*
X0251016Y0230131D01*
X0251016Y0231129D02*
X0250016Y0231129D01*
X0250016Y0232128D02*
X0251016Y0232128D01*
X0254293Y0232128D02*
X0362402Y0232128D01*
X0362402Y0232118D02*
X0362402Y0234715D01*
X0361368Y0233681D01*
X0358593Y0232531D01*
X0355589Y0232531D01*
X0352813Y0233681D01*
X0350689Y0235805D01*
X0349539Y0238581D01*
X0349539Y0241585D01*
X0350689Y0244360D01*
X0352813Y0246484D01*
X0355589Y0247634D01*
X0358593Y0247634D01*
X0361368Y0246484D01*
X0363492Y0244360D01*
X0364642Y0241585D01*
X0364642Y0238581D01*
X0364010Y0237055D01*
X0366157Y0237055D01*
X0366157Y0232118D01*
X0366157Y0231118D01*
X0367157Y0231118D01*
X0367157Y0226181D01*
X0369611Y0226181D01*
X0369992Y0226283D01*
X0370334Y0226481D01*
X0370614Y0226760D01*
X0370811Y0227102D01*
X0370913Y0227484D01*
X0370913Y0231118D01*
X0367158Y0231118D01*
X0367158Y0232118D01*
X0370913Y0232118D01*
X0370913Y0235753D01*
X0370811Y0236134D01*
X0370614Y0236476D01*
X0370334Y0236755D01*
X0369992Y0236953D01*
X0369611Y0237055D01*
X0367157Y0237055D01*
X0367157Y0232118D01*
X0366157Y0232118D01*
X0362402Y0232118D01*
X0362402Y0233126D02*
X0360028Y0233126D01*
X0361811Y0234125D02*
X0362402Y0234125D01*
X0364037Y0237120D02*
X0373689Y0237120D01*
X0373264Y0238119D02*
X0364450Y0238119D01*
X0364642Y0239117D02*
X0372984Y0239117D01*
X0372984Y0240116D02*
X0364642Y0240116D01*
X0364642Y0241114D02*
X0372984Y0241114D01*
X0372984Y0242113D02*
X0364423Y0242113D01*
X0364009Y0243111D02*
X0372984Y0243111D01*
X0372984Y0244110D02*
X0363596Y0244110D01*
X0362744Y0245108D02*
X0372984Y0245108D01*
X0372984Y0246107D02*
X0361745Y0246107D01*
X0359869Y0247105D02*
X0372984Y0247105D01*
X0372984Y0248104D02*
X0244189Y0248104D01*
X0244189Y0249102D02*
X0372984Y0249102D01*
X0372984Y0250101D02*
X0244189Y0250101D01*
X0244189Y0251099D02*
X0372984Y0251099D01*
X0372984Y0252098D02*
X0244189Y0252098D01*
X0244189Y0253096D02*
X0372984Y0253096D01*
X0372984Y0254095D02*
X0244189Y0254095D01*
X0244189Y0255093D02*
X0372984Y0255093D01*
X0372984Y0256092D02*
X0244189Y0256092D01*
X0244189Y0257090D02*
X0372984Y0257090D01*
X0372984Y0258089D02*
X0244189Y0258089D01*
X0244189Y0247105D02*
X0258801Y0247105D01*
X0260077Y0247634D02*
X0257301Y0246484D01*
X0255177Y0244360D01*
X0254028Y0241585D01*
X0254028Y0238581D01*
X0255177Y0235805D01*
X0257301Y0233681D01*
X0260077Y0232531D01*
X0263081Y0232531D01*
X0265856Y0233681D01*
X0267980Y0235805D01*
X0269130Y0238581D01*
X0269130Y0241585D01*
X0267980Y0244360D01*
X0265856Y0246484D01*
X0263081Y0247634D01*
X0260077Y0247634D01*
X0256924Y0246107D02*
X0244189Y0246107D01*
X0244189Y0245108D02*
X0255925Y0245108D01*
X0255073Y0244110D02*
X0244189Y0244110D01*
X0244189Y0243111D02*
X0254660Y0243111D01*
X0254246Y0242113D02*
X0244189Y0242113D01*
X0244189Y0241114D02*
X0254028Y0241114D01*
X0254028Y0240116D02*
X0244189Y0240116D01*
X0244189Y0239117D02*
X0254028Y0239117D01*
X0254219Y0238119D02*
X0243909Y0238119D01*
X0243484Y0237120D02*
X0254633Y0237120D01*
X0255046Y0236122D02*
X0242486Y0236122D01*
X0237322Y0235123D02*
X0255859Y0235123D01*
X0256858Y0234125D02*
X0237446Y0234125D01*
X0237446Y0233126D02*
X0258641Y0233126D01*
X0254772Y0231129D02*
X0366157Y0231129D01*
X0366157Y0230131D02*
X0367157Y0230131D01*
X0367158Y0231129D02*
X0407680Y0231129D01*
X0407680Y0230131D02*
X0370913Y0230131D01*
X0370913Y0229132D02*
X0407680Y0229132D01*
X0407746Y0228134D02*
X0370913Y0228134D01*
X0370820Y0227135D02*
X0408014Y0227135D01*
X0407898Y0232128D02*
X0370913Y0232128D01*
X0370913Y0233126D02*
X0408166Y0233126D01*
X0408434Y0234125D02*
X0370913Y0234125D01*
X0370913Y0235123D02*
X0409003Y0235123D01*
X0428643Y0235123D02*
X0609205Y0235123D01*
X0609205Y0234125D02*
X0429212Y0234125D01*
X0429480Y0233126D02*
X0609205Y0233126D01*
X0609205Y0232128D02*
X0598721Y0232128D01*
X0598405Y0232259D02*
X0597182Y0232630D01*
X0595929Y0232879D01*
X0594658Y0233004D01*
X0594520Y0233004D01*
X0594520Y0220504D01*
X0607020Y0220504D01*
X0607020Y0220643D01*
X0606894Y0221914D01*
X0606645Y0223166D01*
X0606275Y0224389D01*
X0605786Y0225569D01*
X0605184Y0226695D01*
X0604474Y0227757D01*
X0603664Y0228745D01*
X0602760Y0229648D01*
X0601773Y0230458D01*
X0600711Y0231168D01*
X0599585Y0231770D01*
X0598405Y0232259D01*
X0600769Y0231129D02*
X0609205Y0231129D01*
X0609205Y0230131D02*
X0602172Y0230131D01*
X0603276Y0229132D02*
X0609205Y0229132D01*
X0609205Y0228134D02*
X0604165Y0228134D01*
X0604890Y0227135D02*
X0609205Y0227135D01*
X0609205Y0226137D02*
X0605482Y0226137D01*
X0605964Y0225138D02*
X0609205Y0225138D01*
X0609205Y0224140D02*
X0606350Y0224140D01*
X0606650Y0223141D02*
X0609205Y0223141D01*
X0609205Y0222142D02*
X0606849Y0222142D01*
X0606970Y0221144D02*
X0609205Y0221144D01*
X0609205Y0220145D02*
X0594520Y0220145D01*
X0594520Y0220504D02*
X0594520Y0219504D01*
X0607020Y0219504D01*
X0607020Y0219365D01*
X0606894Y0218094D01*
X0606645Y0216841D01*
X0606275Y0215619D01*
X0605786Y0214439D01*
X0605184Y0213313D01*
X0604474Y0212251D01*
X0603664Y0211263D01*
X0602760Y0210360D01*
X0601773Y0209550D01*
X0600711Y0208840D01*
X0599585Y0208238D01*
X0598405Y0207749D01*
X0597182Y0207378D01*
X0595929Y0207129D01*
X0594658Y0207004D01*
X0594520Y0207004D01*
X0594520Y0219504D01*
X0593520Y0219504D01*
X0593520Y0207004D01*
X0593381Y0207004D01*
X0592110Y0207129D01*
X0590857Y0207378D01*
X0589635Y0207749D01*
X0588455Y0208238D01*
X0587328Y0208840D01*
X0586266Y0209550D01*
X0585279Y0210360D01*
X0584376Y0211263D01*
X0583565Y0212251D01*
X0582856Y0213313D01*
X0582254Y0214439D01*
X0581765Y0215619D01*
X0581394Y0216841D01*
X0581145Y0218094D01*
X0581020Y0219365D01*
X0581020Y0219504D01*
X0593520Y0219504D01*
X0593520Y0220504D01*
X0593520Y0233004D01*
X0593381Y0233004D01*
X0592110Y0232879D01*
X0590857Y0232630D01*
X0589635Y0232259D01*
X0588455Y0231770D01*
X0587328Y0231168D01*
X0586266Y0230458D01*
X0585279Y0229648D01*
X0584376Y0228745D01*
X0583565Y0227757D01*
X0582856Y0226695D01*
X0582254Y0225569D01*
X0581765Y0224389D01*
X0581394Y0223166D01*
X0581145Y0221914D01*
X0581020Y0220643D01*
X0581020Y0220504D01*
X0593520Y0220504D01*
X0594520Y0220504D01*
X0594520Y0221144D02*
X0593520Y0221144D01*
X0593520Y0222142D02*
X0594520Y0222142D01*
X0594520Y0223141D02*
X0593520Y0223141D01*
X0593520Y0224140D02*
X0594520Y0224140D01*
X0594520Y0225138D02*
X0593520Y0225138D01*
X0593520Y0226137D02*
X0594520Y0226137D01*
X0594520Y0227135D02*
X0593520Y0227135D01*
X0593520Y0228134D02*
X0594520Y0228134D01*
X0594520Y0229132D02*
X0593520Y0229132D01*
X0593520Y0230131D02*
X0594520Y0230131D01*
X0594520Y0231129D02*
X0593520Y0231129D01*
X0593520Y0232128D02*
X0594520Y0232128D01*
X0589318Y0232128D02*
X0429747Y0232128D01*
X0429965Y0231129D02*
X0587270Y0231129D01*
X0585867Y0230131D02*
X0429965Y0230131D01*
X0429965Y0229132D02*
X0584763Y0229132D01*
X0583874Y0228134D02*
X0429899Y0228134D01*
X0429632Y0227135D02*
X0583150Y0227135D01*
X0582557Y0226137D02*
X0429364Y0226137D01*
X0428971Y0225138D02*
X0582075Y0225138D01*
X0581689Y0224140D02*
X0428394Y0224140D01*
X0427818Y0223141D02*
X0581389Y0223141D01*
X0581190Y0222142D02*
X0450926Y0222142D01*
X0452354Y0221144D02*
X0581069Y0221144D01*
X0581041Y0219147D02*
X0453484Y0219147D01*
X0453524Y0218148D02*
X0581140Y0218148D01*
X0581333Y0217150D02*
X0453447Y0217150D01*
X0453033Y0216151D02*
X0581603Y0216151D01*
X0581958Y0215153D02*
X0452266Y0215153D01*
X0450711Y0214154D02*
X0582406Y0214154D01*
X0582960Y0213156D02*
X0439132Y0213156D01*
X0438134Y0212157D02*
X0441559Y0212157D01*
X0440789Y0211838D02*
X0439579Y0210629D01*
X0438924Y0209048D01*
X0438924Y0207338D01*
X0439579Y0205757D01*
X0440789Y0204548D01*
X0442369Y0203893D01*
X0450080Y0203893D01*
X0451660Y0204548D01*
X0452870Y0205757D01*
X0453009Y0206093D01*
X0478977Y0206093D01*
X0506536Y0178534D01*
X0549614Y0178534D01*
X0550844Y0179764D01*
X0554868Y0183788D01*
X0554868Y0191467D01*
X0554963Y0191506D01*
X0556053Y0192596D01*
X0556643Y0194021D01*
X0556643Y0200712D01*
X0556053Y0202136D01*
X0554963Y0203226D01*
X0553538Y0203816D01*
X0551997Y0203816D01*
X0550573Y0203226D01*
X0549483Y0202136D01*
X0548893Y0200712D01*
X0548893Y0194021D01*
X0549483Y0192596D01*
X0550573Y0191506D01*
X0550668Y0191467D01*
X0550668Y0185527D01*
X0547874Y0182734D01*
X0508275Y0182734D01*
X0481946Y0209063D01*
X0480716Y0210293D01*
X0453009Y0210293D01*
X0452870Y0210629D01*
X0451660Y0211838D01*
X0450080Y0212493D01*
X0442369Y0212493D01*
X0440789Y0211838D01*
X0440109Y0211159D02*
X0437135Y0211159D01*
X0436137Y0210160D02*
X0439385Y0210160D01*
X0438971Y0209162D02*
X0435138Y0209162D01*
X0434140Y0208163D02*
X0438924Y0208163D01*
X0438996Y0207165D02*
X0433141Y0207165D01*
X0432143Y0206166D02*
X0439410Y0206166D01*
X0440168Y0205168D02*
X0431144Y0205168D01*
X0430146Y0204169D02*
X0441702Y0204169D01*
X0442171Y0202582D02*
X0441497Y0202363D01*
X0440866Y0202042D01*
X0440293Y0201625D01*
X0439792Y0201124D01*
X0439376Y0200551D01*
X0439054Y0199920D01*
X0438835Y0199247D01*
X0438748Y0198693D01*
X0445724Y0198693D01*
X0445724Y0197693D01*
X0438748Y0197693D01*
X0438835Y0197139D01*
X0439054Y0196466D01*
X0439376Y0195834D01*
X0439792Y0195261D01*
X0440293Y0194761D01*
X0440866Y0194344D01*
X0441497Y0194023D01*
X0442171Y0193804D01*
X0442870Y0193693D01*
X0445724Y0193693D01*
X0445724Y0197693D01*
X0446724Y0197693D01*
X0446724Y0193693D01*
X0449579Y0193693D01*
X0450278Y0193804D01*
X0450952Y0194023D01*
X0451583Y0194344D01*
X0452156Y0194761D01*
X0452657Y0195261D01*
X0453073Y0195834D01*
X0453395Y0196466D01*
X0453614Y0197139D01*
X0453701Y0197693D01*
X0446724Y0197693D01*
X0446724Y0198693D01*
X0445724Y0198693D01*
X0445724Y0202693D01*
X0442870Y0202693D01*
X0442171Y0202582D01*
X0441122Y0202172D02*
X0428149Y0202172D01*
X0429147Y0203171D02*
X0481899Y0203171D01*
X0482897Y0202172D02*
X0451327Y0202172D01*
X0451583Y0202042D02*
X0450952Y0202363D01*
X0450278Y0202582D01*
X0449579Y0202693D01*
X0446724Y0202693D01*
X0446724Y0198693D01*
X0453701Y0198693D01*
X0453614Y0199247D01*
X0453395Y0199920D01*
X0453073Y0200551D01*
X0452657Y0201124D01*
X0452156Y0201625D01*
X0451583Y0202042D01*
X0452608Y0201174D02*
X0483896Y0201174D01*
X0484894Y0200175D02*
X0453265Y0200175D01*
X0453625Y0199177D02*
X0485893Y0199177D01*
X0486891Y0198178D02*
X0446724Y0198178D01*
X0446724Y0197180D02*
X0445724Y0197180D01*
X0445724Y0198178D02*
X0424155Y0198178D01*
X0425153Y0199177D02*
X0438824Y0199177D01*
X0439184Y0200175D02*
X0426152Y0200175D01*
X0427150Y0201174D02*
X0439841Y0201174D01*
X0438829Y0197180D02*
X0423156Y0197180D01*
X0422158Y0196181D02*
X0439199Y0196181D01*
X0439871Y0195183D02*
X0420910Y0195183D01*
X0420353Y0194184D02*
X0441180Y0194184D01*
X0445724Y0194184D02*
X0446724Y0194184D01*
X0446724Y0195183D02*
X0445724Y0195183D01*
X0445724Y0196181D02*
X0446724Y0196181D01*
X0446724Y0199177D02*
X0445724Y0199177D01*
X0445724Y0200175D02*
X0446724Y0200175D01*
X0446724Y0201174D02*
X0445724Y0201174D01*
X0445724Y0202172D02*
X0446724Y0202172D01*
X0450747Y0204169D02*
X0480900Y0204169D01*
X0479902Y0205168D02*
X0452280Y0205168D01*
X0452340Y0211159D02*
X0547559Y0211159D01*
X0547874Y0211474D02*
X0546644Y0210244D01*
X0546644Y0210244D01*
X0541132Y0204732D01*
X0541132Y0203392D01*
X0540730Y0203226D01*
X0539640Y0202136D01*
X0539050Y0200712D01*
X0539050Y0194021D01*
X0539640Y0192596D01*
X0540730Y0191506D01*
X0542154Y0190917D01*
X0543696Y0190917D01*
X0545120Y0191506D01*
X0546210Y0192596D01*
X0546800Y0194021D01*
X0546800Y0200712D01*
X0546210Y0202136D01*
X0545343Y0203003D01*
X0549614Y0207274D01*
X0571103Y0207274D01*
X0581290Y0197087D01*
X0581290Y0099466D01*
X0580954Y0099326D01*
X0579744Y0098117D01*
X0579090Y0096536D01*
X0579090Y0088826D01*
X0579744Y0087245D01*
X0580954Y0086036D01*
X0582534Y0085381D01*
X0584245Y0085381D01*
X0585826Y0086036D01*
X0587035Y0087245D01*
X0587690Y0088826D01*
X0587690Y0096536D01*
X0587035Y0098117D01*
X0585826Y0099326D01*
X0590750Y0099326D01*
X0591031Y0099530D02*
X0590458Y0099113D01*
X0589957Y0098613D01*
X0589541Y0098040D01*
X0589219Y0097409D01*
X0589001Y0096735D01*
X0588890Y0096035D01*
X0588890Y0093181D01*
X0592890Y0093181D01*
X0592890Y0100158D01*
X0592336Y0100070D01*
X0591662Y0099851D01*
X0591031Y0099530D01*
X0589750Y0098327D02*
X0586825Y0098327D01*
X0587362Y0097329D02*
X0589193Y0097329D01*
X0588936Y0096330D02*
X0587690Y0096330D01*
X0587690Y0095332D02*
X0588890Y0095332D01*
X0588890Y0094333D02*
X0587690Y0094333D01*
X0587690Y0093335D02*
X0588890Y0093335D01*
X0588890Y0092181D02*
X0588890Y0089327D01*
X0589001Y0088627D01*
X0589219Y0087954D01*
X0589541Y0087323D01*
X0589957Y0086750D01*
X0590458Y0086249D01*
X0591031Y0085832D01*
X0591662Y0085511D01*
X0592336Y0085292D01*
X0592890Y0085204D01*
X0592890Y0092181D01*
X0593890Y0092181D01*
X0593890Y0093181D01*
X0597890Y0093181D01*
X0597890Y0096035D01*
X0597779Y0096735D01*
X0597560Y0097409D01*
X0597238Y0098040D01*
X0596822Y0098613D01*
X0596321Y0099113D01*
X0595748Y0099530D01*
X0595117Y0099851D01*
X0594444Y0100070D01*
X0593890Y0100158D01*
X0593890Y0093181D01*
X0592890Y0093181D01*
X0592890Y0092181D01*
X0588890Y0092181D01*
X0588890Y0091337D02*
X0587690Y0091337D01*
X0587690Y0090339D02*
X0588890Y0090339D01*
X0588890Y0089340D02*
X0587690Y0089340D01*
X0587489Y0088342D02*
X0589093Y0088342D01*
X0589530Y0087343D02*
X0587076Y0087343D01*
X0586135Y0086345D02*
X0590362Y0086345D01*
X0592168Y0085346D02*
X0575490Y0085346D01*
X0575490Y0085897D02*
X0575826Y0086036D01*
X0577035Y0087245D01*
X0577690Y0088826D01*
X0577690Y0096536D01*
X0577035Y0098117D01*
X0575826Y0099326D01*
X0580953Y0099326D01*
X0581290Y0100324D02*
X0503225Y0100324D01*
X0503225Y0099326D02*
X0570953Y0099326D01*
X0570954Y0099326D02*
X0569744Y0098117D01*
X0569090Y0096536D01*
X0569090Y0088826D01*
X0569744Y0087245D01*
X0570954Y0086036D01*
X0571290Y0085897D01*
X0571290Y0077272D01*
X0570253Y0077272D01*
X0570004Y0077023D01*
X0569755Y0077272D01*
X0563560Y0077272D01*
X0562798Y0076511D01*
X0562798Y0075254D01*
X0552599Y0075254D01*
X0551369Y0074023D01*
X0547481Y0070135D01*
X0451006Y0070135D01*
X0450491Y0070650D01*
X0449358Y0071120D01*
X0448131Y0071120D01*
X0446997Y0070650D01*
X0446129Y0069783D01*
X0445660Y0068649D01*
X0445660Y0067422D01*
X0446129Y0066288D01*
X0446997Y0065421D01*
X0448131Y0064951D01*
X0449358Y0064951D01*
X0450491Y0065421D01*
X0451006Y0065935D01*
X0549220Y0065935D01*
X0554338Y0071054D01*
X0562798Y0071054D01*
X0562798Y0069528D01*
X0563560Y0068767D01*
X0569755Y0068767D01*
X0570004Y0069016D01*
X0570253Y0068767D01*
X0576448Y0068767D01*
X0577209Y0069528D01*
X0577209Y0076511D01*
X0576448Y0077272D01*
X0575490Y0077272D01*
X0575490Y0085897D01*
X0576135Y0086345D02*
X0580645Y0086345D01*
X0579704Y0087343D02*
X0577076Y0087343D01*
X0577489Y0088342D02*
X0579290Y0088342D01*
X0579090Y0089340D02*
X0577690Y0089340D01*
X0577690Y0090339D02*
X0579090Y0090339D01*
X0579090Y0091337D02*
X0577690Y0091337D01*
X0577690Y0092336D02*
X0579090Y0092336D01*
X0579090Y0093335D02*
X0577690Y0093335D01*
X0577690Y0094333D02*
X0579090Y0094333D01*
X0579090Y0095332D02*
X0577690Y0095332D01*
X0577690Y0096330D02*
X0579090Y0096330D01*
X0579418Y0097329D02*
X0577362Y0097329D01*
X0576825Y0098327D02*
X0579955Y0098327D01*
X0581290Y0101323D02*
X0503225Y0101323D01*
X0503225Y0102321D02*
X0581290Y0102321D01*
X0581290Y0103320D02*
X0503225Y0103320D01*
X0503225Y0104318D02*
X0581290Y0104318D01*
X0581290Y0105317D02*
X0446120Y0105317D01*
X0446120Y0106315D02*
X0581290Y0106315D01*
X0581290Y0107314D02*
X0526491Y0107314D01*
X0526320Y0107268D02*
X0526701Y0107370D01*
X0527043Y0107567D01*
X0527322Y0107847D01*
X0527520Y0108189D01*
X0527622Y0108570D01*
X0527622Y0111252D01*
X0523638Y0111252D01*
X0523638Y0112220D01*
X0527622Y0112220D01*
X0527622Y0114902D01*
X0527520Y0115284D01*
X0527322Y0115626D01*
X0527043Y0115905D01*
X0526701Y0116102D01*
X0526320Y0116205D01*
X0523638Y0116205D01*
X0523638Y0112221D01*
X0522669Y0112221D01*
X0522669Y0116205D01*
X0519988Y0116205D01*
X0519606Y0116102D01*
X0519264Y0115905D01*
X0518985Y0115626D01*
X0518787Y0115284D01*
X0518685Y0114902D01*
X0518685Y0112220D01*
X0522669Y0112220D01*
X0522669Y0111252D01*
X0518685Y0111252D01*
X0518685Y0108570D01*
X0518787Y0108189D01*
X0518985Y0107847D01*
X0519264Y0107567D01*
X0519606Y0107370D01*
X0519988Y0107268D01*
X0522669Y0107268D01*
X0522669Y0111252D01*
X0523638Y0111252D01*
X0523638Y0107268D01*
X0526320Y0107268D01*
X0527553Y0108312D02*
X0581290Y0108312D01*
X0581290Y0109311D02*
X0527622Y0109311D01*
X0527622Y0110309D02*
X0581290Y0110309D01*
X0581290Y0111308D02*
X0523638Y0111308D01*
X0522669Y0111308D02*
X0470335Y0111308D01*
X0470335Y0112306D02*
X0518685Y0112306D01*
X0518685Y0113305D02*
X0470335Y0113305D01*
X0470335Y0114303D02*
X0518685Y0114303D01*
X0518798Y0115302D02*
X0470277Y0115302D01*
X0470335Y0115243D02*
X0469574Y0116005D01*
X0462560Y0116005D01*
X0461798Y0115243D01*
X0461798Y0113836D01*
X0447087Y0113836D01*
X0443150Y0109899D01*
X0441920Y0108669D01*
X0441920Y0101189D01*
X0402205Y0061474D01*
X0269299Y0061474D01*
X0267970Y0062803D01*
X0267970Y0063531D01*
X0267501Y0064664D01*
X0266633Y0065532D01*
X0265499Y0066002D01*
X0264272Y0066002D01*
X0263139Y0065532D01*
X0262271Y0064664D01*
X0261802Y0063531D01*
X0261802Y0062304D01*
X0262271Y0061170D01*
X0263139Y0060303D01*
X0264272Y0059833D01*
X0265000Y0059833D01*
X0267559Y0057274D01*
X0403945Y0057274D01*
X0405175Y0058504D01*
X0446120Y0099449D01*
X0446120Y0106929D01*
X0448827Y0109636D01*
X0461798Y0109636D01*
X0461798Y0108229D01*
X0462560Y0107468D01*
X0469574Y0107468D01*
X0470335Y0108229D01*
X0470335Y0115243D01*
X0469614Y0117212D02*
X0469956Y0117410D01*
X0470236Y0117689D01*
X0470433Y0118031D01*
X0470535Y0118413D01*
X0470535Y0121094D01*
X0466551Y0121094D01*
X0466551Y0117110D01*
X0469233Y0117110D01*
X0469614Y0117212D01*
X0469764Y0117299D02*
X0581290Y0117299D01*
X0581290Y0118297D02*
X0470504Y0118297D01*
X0470535Y0119296D02*
X0581290Y0119296D01*
X0581290Y0120294D02*
X0470535Y0120294D01*
X0470535Y0122063D02*
X0470535Y0124745D01*
X0470433Y0125126D01*
X0470236Y0125468D01*
X0469956Y0125748D01*
X0469614Y0125945D01*
X0469233Y0126047D01*
X0466551Y0126047D01*
X0466551Y0122063D01*
X0465583Y0122063D01*
X0465583Y0126047D01*
X0462901Y0126047D01*
X0462519Y0125945D01*
X0462177Y0125748D01*
X0461898Y0125468D01*
X0461701Y0125126D01*
X0461598Y0124745D01*
X0461598Y0122063D01*
X0465583Y0122063D01*
X0465583Y0121094D01*
X0466551Y0121094D01*
X0466551Y0122063D01*
X0470535Y0122063D01*
X0470535Y0122291D02*
X0581290Y0122291D01*
X0581290Y0121293D02*
X0466551Y0121293D01*
X0465583Y0121293D02*
X0441586Y0121293D01*
X0442584Y0122291D02*
X0461598Y0122291D01*
X0461598Y0123290D02*
X0443583Y0123290D01*
X0444581Y0124288D02*
X0461598Y0124288D01*
X0461793Y0125287D02*
X0445580Y0125287D01*
X0446578Y0126285D02*
X0581290Y0126285D01*
X0581290Y0125287D02*
X0470340Y0125287D01*
X0470535Y0124288D02*
X0581290Y0124288D01*
X0581290Y0123290D02*
X0470535Y0123290D01*
X0469574Y0127153D02*
X0462560Y0127153D01*
X0461798Y0127914D01*
X0461798Y0129321D01*
X0449614Y0129321D01*
X0439820Y0119528D01*
X0439820Y0102205D01*
X0400795Y0063180D01*
X0276614Y0063180D01*
X0275236Y0064557D01*
X0274509Y0064557D01*
X0273375Y0065027D01*
X0272507Y0065895D01*
X0272038Y0067028D01*
X0272038Y0068255D01*
X0272507Y0069389D01*
X0273375Y0070256D01*
X0274509Y0070726D01*
X0275736Y0070726D01*
X0276869Y0070256D01*
X0277737Y0069389D01*
X0278206Y0068255D01*
X0278206Y0067527D01*
X0278354Y0067380D01*
X0399055Y0067380D01*
X0435620Y0103945D01*
X0435620Y0121267D01*
X0436851Y0122498D01*
X0447874Y0133521D01*
X0461798Y0133521D01*
X0461798Y0134928D01*
X0462560Y0135690D01*
X0469574Y0135690D01*
X0470335Y0134928D01*
X0470335Y0127914D01*
X0469574Y0127153D01*
X0469705Y0127284D02*
X0519515Y0127284D01*
X0519647Y0127153D02*
X0518885Y0127914D01*
X0518885Y0134928D01*
X0519647Y0135690D01*
X0526661Y0135690D01*
X0527422Y0134928D01*
X0527422Y0127914D01*
X0526661Y0127153D01*
X0519647Y0127153D01*
X0518885Y0128282D02*
X0470335Y0128282D01*
X0470335Y0129281D02*
X0518885Y0129281D01*
X0518885Y0130279D02*
X0470335Y0130279D01*
X0470335Y0131278D02*
X0518885Y0131278D01*
X0518885Y0132276D02*
X0470335Y0132276D01*
X0470335Y0133275D02*
X0518885Y0133275D01*
X0518885Y0134273D02*
X0470335Y0134273D01*
X0469992Y0135272D02*
X0519229Y0135272D01*
X0527078Y0135272D02*
X0581290Y0135272D01*
X0581290Y0134273D02*
X0527422Y0134273D01*
X0527422Y0133275D02*
X0581290Y0133275D01*
X0581290Y0132276D02*
X0527422Y0132276D01*
X0527422Y0131278D02*
X0581290Y0131278D01*
X0581290Y0130279D02*
X0527422Y0130279D01*
X0527422Y0129281D02*
X0581290Y0129281D01*
X0581290Y0128282D02*
X0527422Y0128282D01*
X0526792Y0127284D02*
X0581290Y0127284D01*
X0585490Y0127284D02*
X0609205Y0127284D01*
X0609205Y0128282D02*
X0585490Y0128282D01*
X0585490Y0129281D02*
X0609205Y0129281D01*
X0609205Y0130279D02*
X0585490Y0130279D01*
X0585490Y0131278D02*
X0609205Y0131278D01*
X0609205Y0132276D02*
X0585490Y0132276D01*
X0585490Y0133275D02*
X0609205Y0133275D01*
X0609205Y0134273D02*
X0585490Y0134273D01*
X0585490Y0135272D02*
X0609205Y0135272D01*
X0609205Y0136271D02*
X0585490Y0136271D01*
X0585490Y0137269D02*
X0609205Y0137269D01*
X0609205Y0138268D02*
X0585490Y0138268D01*
X0585490Y0139266D02*
X0609205Y0139266D01*
X0609205Y0140265D02*
X0585490Y0140265D01*
X0585490Y0141263D02*
X0609205Y0141263D01*
X0609205Y0142262D02*
X0585490Y0142262D01*
X0585490Y0143260D02*
X0609205Y0143260D01*
X0609205Y0144259D02*
X0585490Y0144259D01*
X0585490Y0145257D02*
X0609205Y0145257D01*
X0609205Y0146256D02*
X0585490Y0146256D01*
X0585490Y0147254D02*
X0609205Y0147254D01*
X0609205Y0148253D02*
X0585490Y0148253D01*
X0585490Y0149251D02*
X0609205Y0149251D01*
X0609205Y0150250D02*
X0585490Y0150250D01*
X0585490Y0151248D02*
X0609205Y0151248D01*
X0609205Y0152247D02*
X0585490Y0152247D01*
X0585490Y0153245D02*
X0609205Y0153245D01*
X0609205Y0154244D02*
X0585490Y0154244D01*
X0585490Y0155242D02*
X0609205Y0155242D01*
X0609205Y0156241D02*
X0585490Y0156241D01*
X0585490Y0157239D02*
X0609205Y0157239D01*
X0609205Y0158238D02*
X0585490Y0158238D01*
X0585490Y0159236D02*
X0609205Y0159236D01*
X0609205Y0160235D02*
X0585490Y0160235D01*
X0585490Y0161233D02*
X0609205Y0161233D01*
X0609205Y0162232D02*
X0585490Y0162232D01*
X0585490Y0163230D02*
X0609205Y0163230D01*
X0609205Y0164229D02*
X0585490Y0164229D01*
X0585490Y0165227D02*
X0609205Y0165227D01*
X0609205Y0166226D02*
X0585490Y0166226D01*
X0585490Y0167224D02*
X0609205Y0167224D01*
X0609205Y0168223D02*
X0585490Y0168223D01*
X0585490Y0169221D02*
X0609205Y0169221D01*
X0609205Y0170220D02*
X0585490Y0170220D01*
X0585490Y0171218D02*
X0609205Y0171218D01*
X0609205Y0172217D02*
X0585490Y0172217D01*
X0585490Y0173215D02*
X0609205Y0173215D01*
X0609205Y0174214D02*
X0585490Y0174214D01*
X0585490Y0175212D02*
X0609205Y0175212D01*
X0609205Y0176211D02*
X0585490Y0176211D01*
X0585490Y0177209D02*
X0609205Y0177209D01*
X0609205Y0178208D02*
X0585490Y0178208D01*
X0585490Y0179206D02*
X0609205Y0179206D01*
X0609205Y0180205D02*
X0585490Y0180205D01*
X0585490Y0181204D02*
X0609205Y0181204D01*
X0609205Y0182202D02*
X0585490Y0182202D01*
X0585490Y0183201D02*
X0609205Y0183201D01*
X0609205Y0184199D02*
X0585490Y0184199D01*
X0585490Y0185198D02*
X0609205Y0185198D01*
X0609205Y0186196D02*
X0585490Y0186196D01*
X0585490Y0187195D02*
X0609205Y0187195D01*
X0609205Y0188193D02*
X0585490Y0188193D01*
X0585490Y0189192D02*
X0609205Y0189192D01*
X0609205Y0190190D02*
X0585490Y0190190D01*
X0585490Y0191189D02*
X0609205Y0191189D01*
X0609205Y0192187D02*
X0585490Y0192187D01*
X0585490Y0193186D02*
X0609205Y0193186D01*
X0609205Y0194184D02*
X0585490Y0194184D01*
X0585490Y0195183D02*
X0609205Y0195183D01*
X0609205Y0196181D02*
X0585490Y0196181D01*
X0585490Y0197180D02*
X0609205Y0197180D01*
X0609205Y0198178D02*
X0585490Y0198178D01*
X0585490Y0198827D02*
X0584260Y0200057D01*
X0572842Y0211474D01*
X0547874Y0211474D01*
X0546561Y0210160D02*
X0480849Y0210160D01*
X0481847Y0209162D02*
X0545562Y0209162D01*
X0544564Y0208163D02*
X0482846Y0208163D01*
X0483844Y0207165D02*
X0543565Y0207165D01*
X0542567Y0206166D02*
X0484843Y0206166D01*
X0485841Y0205168D02*
X0541568Y0205168D01*
X0541132Y0204169D02*
X0486840Y0204169D01*
X0487838Y0203171D02*
X0530833Y0203171D01*
X0530888Y0203226D02*
X0529798Y0202136D01*
X0529208Y0200712D01*
X0529208Y0194021D01*
X0529798Y0192596D01*
X0530888Y0191506D01*
X0532312Y0190917D01*
X0533853Y0190917D01*
X0535278Y0191506D01*
X0536368Y0192596D01*
X0536957Y0194021D01*
X0536957Y0200712D01*
X0536368Y0202136D01*
X0535278Y0203226D01*
X0533853Y0203816D01*
X0532312Y0203816D01*
X0530888Y0203226D01*
X0529834Y0202172D02*
X0488837Y0202172D01*
X0489835Y0201174D02*
X0529399Y0201174D01*
X0529208Y0200175D02*
X0490834Y0200175D01*
X0491832Y0199177D02*
X0529208Y0199177D01*
X0529208Y0198178D02*
X0492831Y0198178D01*
X0493830Y0197180D02*
X0529208Y0197180D01*
X0529208Y0196181D02*
X0494828Y0196181D01*
X0495827Y0195183D02*
X0529208Y0195183D01*
X0529208Y0194184D02*
X0496825Y0194184D01*
X0497824Y0193186D02*
X0529554Y0193186D01*
X0530207Y0192187D02*
X0498822Y0192187D01*
X0499821Y0191189D02*
X0531655Y0191189D01*
X0534510Y0191189D02*
X0541498Y0191189D01*
X0540050Y0192187D02*
X0535958Y0192187D01*
X0536612Y0193186D02*
X0539396Y0193186D01*
X0539050Y0194184D02*
X0536957Y0194184D01*
X0536957Y0195183D02*
X0539050Y0195183D01*
X0539050Y0196181D02*
X0536957Y0196181D01*
X0536957Y0197180D02*
X0539050Y0197180D01*
X0539050Y0198178D02*
X0536957Y0198178D01*
X0536957Y0199177D02*
X0539050Y0199177D01*
X0539050Y0200175D02*
X0536957Y0200175D01*
X0536766Y0201174D02*
X0539242Y0201174D01*
X0539677Y0202172D02*
X0536331Y0202172D01*
X0535333Y0203171D02*
X0540675Y0203171D01*
X0545511Y0203171D02*
X0550518Y0203171D01*
X0549519Y0202172D02*
X0546174Y0202172D01*
X0546609Y0201174D02*
X0549084Y0201174D01*
X0548893Y0200175D02*
X0546800Y0200175D01*
X0546800Y0199177D02*
X0548893Y0199177D01*
X0548893Y0198178D02*
X0546800Y0198178D01*
X0546800Y0197180D02*
X0548893Y0197180D01*
X0548893Y0196181D02*
X0546800Y0196181D01*
X0546800Y0195183D02*
X0548893Y0195183D01*
X0548893Y0194184D02*
X0546800Y0194184D01*
X0546454Y0193186D02*
X0549239Y0193186D01*
X0549892Y0192187D02*
X0545801Y0192187D01*
X0544353Y0191189D02*
X0550668Y0191189D01*
X0550668Y0190190D02*
X0500819Y0190190D01*
X0501818Y0189192D02*
X0550668Y0189192D01*
X0550668Y0188193D02*
X0502816Y0188193D01*
X0503815Y0187195D02*
X0550668Y0187195D01*
X0550668Y0186196D02*
X0504813Y0186196D01*
X0505812Y0185198D02*
X0550338Y0185198D01*
X0549339Y0184199D02*
X0506810Y0184199D01*
X0507809Y0183201D02*
X0548341Y0183201D01*
X0551285Y0180205D02*
X0581290Y0180205D01*
X0581290Y0179206D02*
X0550287Y0179206D01*
X0552284Y0181204D02*
X0581290Y0181204D01*
X0581290Y0182202D02*
X0553282Y0182202D01*
X0554281Y0183201D02*
X0581290Y0183201D01*
X0581290Y0184199D02*
X0554868Y0184199D01*
X0554868Y0185198D02*
X0581290Y0185198D01*
X0581290Y0186196D02*
X0554868Y0186196D01*
X0554868Y0187195D02*
X0581290Y0187195D01*
X0581290Y0188193D02*
X0554868Y0188193D01*
X0554868Y0189192D02*
X0581290Y0189192D01*
X0581290Y0190190D02*
X0554868Y0190190D01*
X0554868Y0191189D02*
X0561183Y0191189D01*
X0561839Y0190917D02*
X0563381Y0190917D01*
X0564805Y0191506D01*
X0565895Y0192596D01*
X0566485Y0194021D01*
X0566485Y0200712D01*
X0565895Y0202136D01*
X0564805Y0203226D01*
X0563381Y0203816D01*
X0561839Y0203816D01*
X0560415Y0203226D01*
X0559325Y0202136D01*
X0558735Y0200712D01*
X0558735Y0194021D01*
X0559325Y0192596D01*
X0560415Y0191506D01*
X0561839Y0190917D01*
X0564038Y0191189D02*
X0581290Y0191189D01*
X0581290Y0192187D02*
X0565486Y0192187D01*
X0566139Y0193186D02*
X0581290Y0193186D01*
X0581290Y0194184D02*
X0566485Y0194184D01*
X0566485Y0195183D02*
X0581290Y0195183D01*
X0581290Y0196181D02*
X0566485Y0196181D01*
X0566485Y0197180D02*
X0581197Y0197180D01*
X0580198Y0198178D02*
X0566485Y0198178D01*
X0566485Y0199177D02*
X0579200Y0199177D01*
X0578201Y0200175D02*
X0566485Y0200175D01*
X0566294Y0201174D02*
X0577203Y0201174D01*
X0576204Y0202172D02*
X0565859Y0202172D01*
X0564860Y0203171D02*
X0575206Y0203171D01*
X0574207Y0204169D02*
X0546509Y0204169D01*
X0547508Y0205168D02*
X0573209Y0205168D01*
X0572210Y0206166D02*
X0548506Y0206166D01*
X0549505Y0207165D02*
X0571212Y0207165D01*
X0574156Y0210160D02*
X0585522Y0210160D01*
X0584480Y0211159D02*
X0573157Y0211159D01*
X0575154Y0209162D02*
X0586847Y0209162D01*
X0588635Y0208163D02*
X0576153Y0208163D01*
X0577151Y0207165D02*
X0591930Y0207165D01*
X0593520Y0207165D02*
X0594520Y0207165D01*
X0594520Y0208163D02*
X0593520Y0208163D01*
X0593520Y0209162D02*
X0594520Y0209162D01*
X0594520Y0210160D02*
X0593520Y0210160D01*
X0593520Y0211159D02*
X0594520Y0211159D01*
X0594520Y0212157D02*
X0593520Y0212157D01*
X0593520Y0213156D02*
X0594520Y0213156D01*
X0594520Y0214154D02*
X0593520Y0214154D01*
X0593520Y0215153D02*
X0594520Y0215153D01*
X0594520Y0216151D02*
X0593520Y0216151D01*
X0593520Y0217150D02*
X0594520Y0217150D01*
X0594520Y0218148D02*
X0593520Y0218148D01*
X0593520Y0219147D02*
X0594520Y0219147D01*
X0593520Y0220145D02*
X0453070Y0220145D01*
X0450890Y0212157D02*
X0583642Y0212157D01*
X0578150Y0206166D02*
X0609205Y0206166D01*
X0609205Y0205168D02*
X0579148Y0205168D01*
X0580147Y0204169D02*
X0609205Y0204169D01*
X0609205Y0203171D02*
X0581146Y0203171D01*
X0582144Y0202172D02*
X0609205Y0202172D01*
X0609205Y0201174D02*
X0583143Y0201174D01*
X0584141Y0200175D02*
X0609205Y0200175D01*
X0609205Y0199177D02*
X0585140Y0199177D01*
X0585490Y0198827D02*
X0585490Y0099466D01*
X0585826Y0099326D01*
X0585490Y0100324D02*
X0609205Y0100324D01*
X0609205Y0099326D02*
X0596029Y0099326D01*
X0597030Y0098327D02*
X0609205Y0098327D01*
X0609205Y0097329D02*
X0597586Y0097329D01*
X0597843Y0096330D02*
X0609205Y0096330D01*
X0609205Y0095332D02*
X0597890Y0095332D01*
X0597890Y0094333D02*
X0609205Y0094333D01*
X0609205Y0093335D02*
X0597890Y0093335D01*
X0597890Y0092181D02*
X0593890Y0092181D01*
X0593890Y0085204D01*
X0594444Y0085292D01*
X0595117Y0085511D01*
X0595748Y0085832D01*
X0596321Y0086249D01*
X0596822Y0086750D01*
X0597238Y0087323D01*
X0597560Y0087954D01*
X0597779Y0088627D01*
X0597890Y0089327D01*
X0597890Y0092181D01*
X0597890Y0091337D02*
X0609205Y0091337D01*
X0609205Y0090339D02*
X0597890Y0090339D01*
X0597890Y0089340D02*
X0609205Y0089340D01*
X0609205Y0088342D02*
X0597686Y0088342D01*
X0597249Y0087343D02*
X0609205Y0087343D01*
X0609205Y0086345D02*
X0596418Y0086345D01*
X0594611Y0085346D02*
X0609205Y0085346D01*
X0609205Y0084348D02*
X0575490Y0084348D01*
X0575490Y0083349D02*
X0609205Y0083349D01*
X0609205Y0082351D02*
X0575490Y0082351D01*
X0575490Y0081352D02*
X0609205Y0081352D01*
X0609205Y0080354D02*
X0575490Y0080354D01*
X0575490Y0079355D02*
X0609205Y0079355D01*
X0609205Y0078357D02*
X0575490Y0078357D01*
X0575490Y0077358D02*
X0609205Y0077358D01*
X0609205Y0076360D02*
X0577209Y0076360D01*
X0577209Y0075361D02*
X0609205Y0075361D01*
X0609205Y0074363D02*
X0577209Y0074363D01*
X0577209Y0073364D02*
X0609205Y0073364D01*
X0609205Y0072366D02*
X0577209Y0072366D01*
X0577209Y0071367D02*
X0609205Y0071367D01*
X0609205Y0070369D02*
X0577209Y0070369D01*
X0577051Y0069370D02*
X0609205Y0069370D01*
X0609205Y0068372D02*
X0551657Y0068372D01*
X0552655Y0069370D02*
X0562957Y0069370D01*
X0562798Y0070369D02*
X0553654Y0070369D01*
X0550709Y0073364D02*
X0420035Y0073364D01*
X0419036Y0072366D02*
X0549711Y0072366D01*
X0548712Y0071367D02*
X0418038Y0071367D01*
X0417039Y0070369D02*
X0446716Y0070369D01*
X0445959Y0069370D02*
X0416041Y0069370D01*
X0415042Y0068372D02*
X0445660Y0068372D01*
X0445680Y0067373D02*
X0414044Y0067373D01*
X0413045Y0066375D02*
X0446094Y0066375D01*
X0447104Y0065376D02*
X0412047Y0065376D01*
X0411048Y0064378D02*
X0609205Y0064378D01*
X0609205Y0065376D02*
X0450384Y0065376D01*
X0450773Y0070369D02*
X0547714Y0070369D01*
X0550658Y0067373D02*
X0609205Y0067373D01*
X0609205Y0066375D02*
X0549660Y0066375D01*
X0551708Y0074363D02*
X0421033Y0074363D01*
X0422032Y0075361D02*
X0562798Y0075361D01*
X0562798Y0076360D02*
X0423030Y0076360D01*
X0424029Y0077358D02*
X0571290Y0077358D01*
X0571290Y0078357D02*
X0425027Y0078357D01*
X0426026Y0079355D02*
X0571290Y0079355D01*
X0571290Y0080354D02*
X0427025Y0080354D01*
X0428023Y0081352D02*
X0571290Y0081352D01*
X0571290Y0082351D02*
X0429022Y0082351D01*
X0430020Y0083349D02*
X0571290Y0083349D01*
X0571290Y0084348D02*
X0431019Y0084348D01*
X0432017Y0085346D02*
X0571290Y0085346D01*
X0570645Y0086345D02*
X0433016Y0086345D01*
X0434014Y0087343D02*
X0569704Y0087343D01*
X0569290Y0088342D02*
X0435013Y0088342D01*
X0436011Y0089340D02*
X0569090Y0089340D01*
X0569090Y0090339D02*
X0502870Y0090339D01*
X0503225Y0090694D02*
X0503225Y0104432D01*
X0502464Y0105194D01*
X0488725Y0105194D01*
X0487964Y0104432D01*
X0487964Y0090694D01*
X0488725Y0089932D01*
X0502464Y0089932D01*
X0503225Y0090694D01*
X0503225Y0091337D02*
X0569090Y0091337D01*
X0569090Y0092336D02*
X0503225Y0092336D01*
X0503225Y0093335D02*
X0569090Y0093335D01*
X0569090Y0094333D02*
X0503225Y0094333D01*
X0503225Y0095332D02*
X0569090Y0095332D01*
X0569090Y0096330D02*
X0503225Y0096330D01*
X0503225Y0097329D02*
X0569418Y0097329D01*
X0569955Y0098327D02*
X0503225Y0098327D01*
X0487964Y0098327D02*
X0444998Y0098327D01*
X0445996Y0099326D02*
X0487964Y0099326D01*
X0487964Y0100324D02*
X0446120Y0100324D01*
X0446120Y0101323D02*
X0487964Y0101323D01*
X0487964Y0102321D02*
X0446120Y0102321D01*
X0446120Y0103320D02*
X0487964Y0103320D01*
X0487964Y0104318D02*
X0446120Y0104318D01*
X0446504Y0107314D02*
X0519816Y0107314D01*
X0518754Y0108312D02*
X0470335Y0108312D01*
X0470335Y0109311D02*
X0518685Y0109311D01*
X0518685Y0110309D02*
X0470335Y0110309D01*
X0461798Y0109311D02*
X0448501Y0109311D01*
X0447503Y0108312D02*
X0461798Y0108312D01*
X0461798Y0114303D02*
X0439820Y0114303D01*
X0439820Y0113305D02*
X0446555Y0113305D01*
X0445557Y0112306D02*
X0439820Y0112306D01*
X0439820Y0111308D02*
X0444558Y0111308D01*
X0443560Y0110309D02*
X0439820Y0110309D01*
X0439820Y0109311D02*
X0442561Y0109311D01*
X0441920Y0108312D02*
X0439820Y0108312D01*
X0439820Y0107314D02*
X0441920Y0107314D01*
X0441920Y0106315D02*
X0439820Y0106315D01*
X0439820Y0105317D02*
X0441920Y0105317D01*
X0441920Y0104318D02*
X0439820Y0104318D01*
X0439820Y0103320D02*
X0441920Y0103320D01*
X0441920Y0102321D02*
X0439820Y0102321D01*
X0438938Y0101323D02*
X0441920Y0101323D01*
X0441055Y0100324D02*
X0437940Y0100324D01*
X0436941Y0099326D02*
X0440057Y0099326D01*
X0439058Y0098327D02*
X0435943Y0098327D01*
X0434944Y0097329D02*
X0438060Y0097329D01*
X0437061Y0096330D02*
X0433946Y0096330D01*
X0432947Y0095332D02*
X0436062Y0095332D01*
X0435064Y0094333D02*
X0431949Y0094333D01*
X0430950Y0093335D02*
X0434065Y0093335D01*
X0433067Y0092336D02*
X0429952Y0092336D01*
X0428953Y0091337D02*
X0432068Y0091337D01*
X0431070Y0090339D02*
X0427955Y0090339D01*
X0426956Y0089340D02*
X0430071Y0089340D01*
X0429073Y0088342D02*
X0425957Y0088342D01*
X0424959Y0087343D02*
X0428074Y0087343D01*
X0427076Y0086345D02*
X0423960Y0086345D01*
X0422962Y0085346D02*
X0426077Y0085346D01*
X0425079Y0084348D02*
X0421963Y0084348D01*
X0420965Y0083349D02*
X0424080Y0083349D01*
X0423082Y0082351D02*
X0419966Y0082351D01*
X0418968Y0081352D02*
X0422083Y0081352D01*
X0421085Y0080354D02*
X0417969Y0080354D01*
X0416971Y0079355D02*
X0420086Y0079355D01*
X0419088Y0078357D02*
X0415972Y0078357D01*
X0414974Y0077358D02*
X0418089Y0077358D01*
X0417091Y0076360D02*
X0413975Y0076360D01*
X0412977Y0075361D02*
X0416092Y0075361D01*
X0415094Y0074363D02*
X0411978Y0074363D01*
X0410980Y0073364D02*
X0414095Y0073364D01*
X0413097Y0072366D02*
X0409981Y0072366D01*
X0408983Y0071367D02*
X0412098Y0071367D01*
X0411100Y0070369D02*
X0407984Y0070369D01*
X0406986Y0069370D02*
X0410101Y0069370D01*
X0409103Y0068372D02*
X0405987Y0068372D01*
X0404989Y0067373D02*
X0408104Y0067373D01*
X0407106Y0066375D02*
X0403990Y0066375D01*
X0402992Y0065376D02*
X0406107Y0065376D01*
X0405109Y0064378D02*
X0401993Y0064378D01*
X0400995Y0063379D02*
X0404110Y0063379D01*
X0403112Y0062381D02*
X0268392Y0062381D01*
X0267970Y0063379D02*
X0276415Y0063379D01*
X0275416Y0064378D02*
X0267619Y0064378D01*
X0266789Y0065376D02*
X0273026Y0065376D01*
X0272308Y0066375D02*
X0224241Y0066375D01*
X0225239Y0067373D02*
X0272038Y0067373D01*
X0272086Y0068372D02*
X0226238Y0068372D01*
X0227236Y0069370D02*
X0272500Y0069370D01*
X0273646Y0070369D02*
X0228235Y0070369D01*
X0229234Y0071367D02*
X0403043Y0071367D01*
X0402045Y0070369D02*
X0276598Y0070369D01*
X0277744Y0069370D02*
X0401046Y0069370D01*
X0400048Y0068372D02*
X0278158Y0068372D01*
X0262983Y0065376D02*
X0223242Y0065376D01*
X0222244Y0064378D02*
X0262152Y0064378D01*
X0261802Y0063379D02*
X0221245Y0063379D01*
X0220247Y0062381D02*
X0261802Y0062381D01*
X0262183Y0061382D02*
X0219248Y0061382D01*
X0218250Y0060384D02*
X0263058Y0060384D01*
X0265448Y0059385D02*
X0217251Y0059385D01*
X0216253Y0058387D02*
X0266447Y0058387D01*
X0267445Y0057388D02*
X0215254Y0057388D01*
X0214256Y0056390D02*
X0286713Y0056390D01*
X0287107Y0056553D02*
X0285973Y0056083D01*
X0285106Y0055216D01*
X0284636Y0054082D01*
X0284636Y0052855D01*
X0285106Y0051721D01*
X0285973Y0050854D01*
X0287107Y0050384D01*
X0288334Y0050384D01*
X0289468Y0050854D01*
X0289982Y0051369D01*
X0534843Y0051369D01*
X0549831Y0036380D01*
X0549690Y0036240D01*
X0549690Y0031642D01*
X0552941Y0028391D01*
X0557539Y0028391D01*
X0560790Y0031642D01*
X0560790Y0036240D01*
X0557539Y0039491D01*
X0552941Y0039491D01*
X0552801Y0039350D01*
X0536582Y0055568D01*
X0289982Y0055568D01*
X0289468Y0056083D01*
X0288334Y0056553D01*
X0287107Y0056553D01*
X0288728Y0056390D02*
X0609205Y0056390D01*
X0609205Y0057388D02*
X0404059Y0057388D01*
X0405057Y0058387D02*
X0609205Y0058387D01*
X0609205Y0059385D02*
X0406056Y0059385D01*
X0407054Y0060384D02*
X0609205Y0060384D01*
X0609205Y0061382D02*
X0408053Y0061382D01*
X0409051Y0062381D02*
X0609205Y0062381D01*
X0609205Y0063379D02*
X0410050Y0063379D01*
X0404042Y0072366D02*
X0230095Y0072366D01*
X0229997Y0072131D02*
X0230378Y0073050D01*
X0230378Y0148496D01*
X0247024Y0165142D01*
X0305583Y0165142D01*
X0308961Y0161764D01*
X0308961Y0149067D01*
X0308389Y0148495D01*
X0308389Y0140332D01*
X0309150Y0139570D01*
X0313771Y0139570D01*
X0314532Y0140332D01*
X0314532Y0148495D01*
X0313961Y0149067D01*
X0313961Y0162329D01*
X0317960Y0166329D01*
X0348845Y0166329D01*
X0349359Y0165814D01*
X0350493Y0165345D01*
X0351720Y0165345D01*
X0352853Y0165814D01*
X0353721Y0166682D01*
X0354191Y0167816D01*
X0354191Y0169043D01*
X0353721Y0170176D01*
X0352853Y0171044D01*
X0351720Y0171513D01*
X0350493Y0171513D01*
X0349359Y0171044D01*
X0348845Y0170529D01*
X0316221Y0170529D01*
X0311743Y0166052D01*
X0308738Y0169058D01*
X0308034Y0169761D01*
X0307115Y0170142D01*
X0245491Y0170142D01*
X0244572Y0169761D01*
X0226462Y0151651D01*
X0225759Y0150948D01*
X0225378Y0150029D01*
X0225378Y0074583D01*
X0196921Y0046126D01*
X0181658Y0046126D01*
X0181658Y0046448D01*
X0180897Y0047209D01*
X0173914Y0047209D01*
X0173631Y0046926D01*
X0159887Y0046926D01*
X0159887Y0047117D01*
X0159125Y0047879D01*
X0148599Y0047879D01*
X0147838Y0047117D01*
X0147838Y0046768D01*
X0138505Y0046768D01*
X0138505Y0051094D01*
X0137743Y0051855D01*
X0128005Y0051855D01*
X0127243Y0051094D01*
X0127243Y0046768D01*
X0113812Y0046768D01*
X0113412Y0047168D01*
X0103535Y0047168D01*
X0102773Y0046407D01*
X0102773Y0040530D01*
X0103535Y0039769D01*
X0113412Y0039769D01*
X0113812Y0040169D01*
X0127243Y0040169D01*
X0127243Y0035843D01*
X0128005Y0035082D01*
X0137743Y0035082D01*
X0138505Y0035843D01*
X0138505Y0040169D01*
X0147838Y0040169D01*
X0147838Y0040135D01*
X0148599Y0039373D01*
X0159125Y0039373D01*
X0159887Y0040135D01*
X0159887Y0040326D01*
X0173153Y0040326D01*
X0173153Y0040253D01*
X0173260Y0040145D01*
X0173252Y0040138D01*
X0173055Y0039796D01*
X0172953Y0039414D01*
X0172953Y0037157D01*
X0176905Y0037157D01*
X0176905Y0036157D01*
X0176906Y0036157D02*
X0177905Y0036157D01*
X0177905Y0032598D01*
X0180556Y0032598D01*
X0180937Y0032701D01*
X0181279Y0032898D01*
X0181559Y0033177D01*
X0181756Y0033519D01*
X0181858Y0033901D01*
X0181858Y0036157D01*
X0177906Y0036157D01*
X0177906Y0037157D01*
X0181858Y0037157D01*
X0181858Y0039414D01*
X0181756Y0039796D01*
X0181559Y0040138D01*
X0181551Y0040145D01*
X0181658Y0040253D01*
X0181658Y0041126D01*
X0198454Y0041126D01*
X0199373Y0041507D01*
X0200076Y0042210D01*
X0229997Y0072131D01*
X0230378Y0073364D02*
X0405040Y0073364D01*
X0406039Y0074363D02*
X0371033Y0074363D01*
X0370874Y0074203D02*
X0372104Y0075433D01*
X0395332Y0098662D01*
X0395332Y0127402D01*
X0396169Y0128239D01*
X0399861Y0128239D01*
X0400261Y0127839D01*
X0399599Y0127177D01*
X0399599Y0123500D01*
X0400261Y0122839D01*
X0399599Y0122177D01*
X0399599Y0118500D01*
X0400261Y0117839D01*
X0399599Y0117177D01*
X0399599Y0113500D01*
X0400157Y0112942D01*
X0399978Y0112839D01*
X0399699Y0112560D01*
X0399501Y0112218D01*
X0399399Y0111836D01*
X0399399Y0110489D01*
X0404749Y0110489D01*
X0404749Y0110189D01*
X0399399Y0110189D01*
X0399399Y0108841D01*
X0399501Y0108460D01*
X0399699Y0108118D01*
X0399978Y0107838D01*
X0400157Y0107735D01*
X0399599Y0107177D01*
X0399599Y0103500D01*
X0400157Y0102942D01*
X0399978Y0102839D01*
X0399699Y0102560D01*
X0399501Y0102218D01*
X0399399Y0101836D01*
X0399399Y0100489D01*
X0404749Y0100489D01*
X0404749Y0100189D01*
X0399399Y0100189D01*
X0399399Y0098841D01*
X0399501Y0098460D01*
X0399699Y0098118D01*
X0399978Y0097838D01*
X0400320Y0097641D01*
X0400702Y0097539D01*
X0404749Y0097539D01*
X0404749Y0100188D01*
X0405049Y0100188D01*
X0405049Y0097539D01*
X0409097Y0097539D01*
X0409478Y0097641D01*
X0409820Y0097838D01*
X0410099Y0098118D01*
X0410297Y0098460D01*
X0410399Y0098841D01*
X0410399Y0100189D01*
X0405049Y0100189D01*
X0405049Y0100489D01*
X0410399Y0100489D01*
X0410399Y0101836D01*
X0410297Y0102218D01*
X0410099Y0102560D01*
X0409820Y0102839D01*
X0409641Y0102942D01*
X0410199Y0103500D01*
X0410199Y0107177D01*
X0409641Y0107735D01*
X0409820Y0107838D01*
X0410099Y0108118D01*
X0410297Y0108460D01*
X0410399Y0108841D01*
X0410399Y0110189D01*
X0405049Y0110189D01*
X0405049Y0110489D01*
X0410399Y0110489D01*
X0410399Y0111836D01*
X0410297Y0112218D01*
X0410099Y0112560D01*
X0409820Y0112839D01*
X0409641Y0112942D01*
X0410199Y0113500D01*
X0410199Y0117177D01*
X0409538Y0117839D01*
X0410199Y0118500D01*
X0410199Y0122177D01*
X0409538Y0122839D01*
X0409938Y0123239D01*
X0413393Y0123239D01*
X0417380Y0127225D01*
X0417380Y0146858D01*
X0416149Y0148088D01*
X0399220Y0165017D01*
X0346693Y0165017D01*
X0345463Y0163787D01*
X0338573Y0156897D01*
X0338573Y0149257D01*
X0338363Y0149257D01*
X0337602Y0148495D01*
X0337602Y0140332D01*
X0338363Y0139570D01*
X0342983Y0139570D01*
X0343745Y0140332D01*
X0343745Y0148495D01*
X0342983Y0149257D01*
X0342773Y0149257D01*
X0342773Y0155158D01*
X0348433Y0160817D01*
X0397481Y0160817D01*
X0413180Y0145118D01*
X0413180Y0128964D01*
X0411654Y0127439D01*
X0409938Y0127439D01*
X0409538Y0127839D01*
X0410199Y0128500D01*
X0410199Y0132177D01*
X0409538Y0132839D01*
X0410199Y0133500D01*
X0410199Y0137177D01*
X0409438Y0137939D01*
X0400361Y0137939D01*
X0399599Y0137177D01*
X0399599Y0133500D01*
X0400261Y0132839D01*
X0399861Y0132439D01*
X0394429Y0132439D01*
X0392362Y0130372D01*
X0391132Y0129141D01*
X0391132Y0100401D01*
X0369134Y0078403D01*
X0263787Y0078403D01*
X0262655Y0079535D01*
X0262655Y0082300D01*
X0263748Y0081208D01*
X0267284Y0081208D01*
X0269784Y0083708D01*
X0269784Y0087244D01*
X0267284Y0089745D01*
X0263748Y0089745D01*
X0262655Y0088652D01*
X0262655Y0091307D01*
X0259784Y0094178D01*
X0259784Y0097244D01*
X0257284Y0099745D01*
X0253748Y0099745D01*
X0251247Y0097244D01*
X0251247Y0093708D01*
X0253748Y0091208D01*
X0256814Y0091208D01*
X0258455Y0089567D01*
X0258455Y0088574D01*
X0257284Y0089745D01*
X0253748Y0089745D01*
X0251247Y0087244D01*
X0251247Y0083708D01*
X0253748Y0081208D01*
X0257284Y0081208D01*
X0258455Y0082379D01*
X0258455Y0077795D01*
X0259685Y0076565D01*
X0262047Y0074203D01*
X0370874Y0074203D01*
X0372032Y0075361D02*
X0407037Y0075361D01*
X0408036Y0076360D02*
X0373030Y0076360D01*
X0374029Y0077358D02*
X0409034Y0077358D01*
X0410033Y0078357D02*
X0375027Y0078357D01*
X0376026Y0079355D02*
X0411031Y0079355D01*
X0412030Y0080354D02*
X0377025Y0080354D01*
X0378023Y0081352D02*
X0413028Y0081352D01*
X0414027Y0082351D02*
X0379022Y0082351D01*
X0380020Y0083349D02*
X0415025Y0083349D01*
X0416024Y0084348D02*
X0381019Y0084348D01*
X0382017Y0085346D02*
X0417022Y0085346D01*
X0418021Y0086345D02*
X0383016Y0086345D01*
X0384014Y0087343D02*
X0419019Y0087343D01*
X0420018Y0088342D02*
X0385013Y0088342D01*
X0386011Y0089340D02*
X0421016Y0089340D01*
X0422015Y0090339D02*
X0387010Y0090339D01*
X0388008Y0091337D02*
X0423013Y0091337D01*
X0424012Y0092336D02*
X0389007Y0092336D01*
X0390005Y0093335D02*
X0425010Y0093335D01*
X0426009Y0094333D02*
X0391004Y0094333D01*
X0392002Y0095332D02*
X0427007Y0095332D01*
X0428006Y0096330D02*
X0393001Y0096330D01*
X0393999Y0097329D02*
X0429004Y0097329D01*
X0430003Y0098327D02*
X0410220Y0098327D01*
X0410399Y0099326D02*
X0431001Y0099326D01*
X0432000Y0100324D02*
X0405049Y0100324D01*
X0404749Y0100324D02*
X0395332Y0100324D01*
X0395332Y0099326D02*
X0399399Y0099326D01*
X0399578Y0098327D02*
X0394998Y0098327D01*
X0395332Y0101323D02*
X0399399Y0101323D01*
X0399561Y0102321D02*
X0395332Y0102321D01*
X0395332Y0103320D02*
X0399780Y0103320D01*
X0399599Y0104318D02*
X0395332Y0104318D01*
X0395332Y0105317D02*
X0399599Y0105317D01*
X0399599Y0106315D02*
X0395332Y0106315D01*
X0395332Y0107314D02*
X0399736Y0107314D01*
X0399587Y0108312D02*
X0395332Y0108312D01*
X0395332Y0109311D02*
X0399399Y0109311D01*
X0399399Y0111308D02*
X0395332Y0111308D01*
X0395332Y0112306D02*
X0399553Y0112306D01*
X0399795Y0113305D02*
X0395332Y0113305D01*
X0395332Y0114303D02*
X0399599Y0114303D01*
X0399599Y0115302D02*
X0395332Y0115302D01*
X0395332Y0116300D02*
X0399599Y0116300D01*
X0399721Y0117299D02*
X0395332Y0117299D01*
X0395332Y0118297D02*
X0399802Y0118297D01*
X0399599Y0119296D02*
X0395332Y0119296D01*
X0395332Y0120294D02*
X0399599Y0120294D01*
X0399599Y0121293D02*
X0395332Y0121293D01*
X0395332Y0122291D02*
X0399714Y0122291D01*
X0399809Y0123290D02*
X0395332Y0123290D01*
X0395332Y0124288D02*
X0399599Y0124288D01*
X0399599Y0125287D02*
X0395332Y0125287D01*
X0395332Y0126285D02*
X0399599Y0126285D01*
X0399706Y0127284D02*
X0395332Y0127284D01*
X0391132Y0127284D02*
X0385892Y0127284D01*
X0385999Y0127177D02*
X0385338Y0127839D01*
X0385999Y0128500D01*
X0385999Y0132177D01*
X0385338Y0132839D01*
X0385999Y0133500D01*
X0385999Y0137177D01*
X0385238Y0137939D01*
X0382799Y0137939D01*
X0382799Y0142090D01*
X0383810Y0142090D01*
X0383918Y0142197D01*
X0383925Y0142189D01*
X0384267Y0141992D01*
X0384649Y0141890D01*
X0386906Y0141890D01*
X0386906Y0145842D01*
X0387905Y0145842D01*
X0387905Y0141890D01*
X0390162Y0141890D01*
X0390544Y0141992D01*
X0390886Y0142189D01*
X0391165Y0142469D01*
X0391362Y0142811D01*
X0391465Y0143192D01*
X0391465Y0145843D01*
X0387906Y0145843D01*
X0387906Y0146842D01*
X0391465Y0146842D01*
X0391465Y0149493D01*
X0391362Y0149874D01*
X0391165Y0150216D01*
X0390886Y0150496D01*
X0390544Y0150693D01*
X0390162Y0150795D01*
X0387905Y0150795D01*
X0387905Y0146843D01*
X0386906Y0146843D01*
X0386906Y0150795D01*
X0384649Y0150795D01*
X0384267Y0150693D01*
X0383925Y0150496D01*
X0383918Y0150488D01*
X0383810Y0150595D01*
X0382734Y0150595D01*
X0382734Y0154356D01*
X0383249Y0154871D01*
X0383718Y0156005D01*
X0383718Y0157232D01*
X0383249Y0158365D01*
X0382381Y0159233D01*
X0381247Y0159702D01*
X0380020Y0159702D01*
X0378887Y0159233D01*
X0378019Y0158365D01*
X0377550Y0157232D01*
X0377550Y0156005D01*
X0378019Y0154871D01*
X0378534Y0154356D01*
X0378534Y0150595D01*
X0377615Y0150595D01*
X0376854Y0149834D01*
X0376854Y0142851D01*
X0377615Y0142090D01*
X0378599Y0142090D01*
X0378599Y0137939D01*
X0376161Y0137939D01*
X0375399Y0137177D01*
X0375399Y0133500D01*
X0376061Y0132839D01*
X0375661Y0132439D01*
X0328256Y0132439D01*
X0323679Y0137016D01*
X0323679Y0139636D01*
X0324375Y0140332D01*
X0324375Y0148495D01*
X0323613Y0149257D01*
X0318993Y0149257D01*
X0318231Y0148495D01*
X0318231Y0140332D01*
X0318993Y0139570D01*
X0319479Y0139570D01*
X0319479Y0135276D01*
X0320709Y0134046D01*
X0326516Y0128239D01*
X0341746Y0128239D01*
X0341485Y0128130D01*
X0340618Y0127263D01*
X0340148Y0126129D01*
X0340148Y0124902D01*
X0340618Y0123769D01*
X0341485Y0122901D01*
X0342619Y0122431D01*
X0343846Y0122431D01*
X0344979Y0122901D01*
X0345494Y0123416D01*
X0375484Y0123416D01*
X0376061Y0122839D01*
X0375399Y0122177D01*
X0375399Y0122104D01*
X0311031Y0122104D01*
X0294151Y0138984D01*
X0294151Y0139636D01*
X0294847Y0140332D01*
X0294847Y0148495D01*
X0294086Y0149257D01*
X0289465Y0149257D01*
X0288704Y0148495D01*
X0288704Y0140332D01*
X0289465Y0139570D01*
X0289951Y0139570D01*
X0289951Y0137672D01*
X0285005Y0142619D01*
X0285005Y0148495D01*
X0284243Y0149257D01*
X0279623Y0149257D01*
X0278861Y0148495D01*
X0278861Y0140332D01*
X0279623Y0139570D01*
X0282114Y0139570D01*
X0311784Y0109899D01*
X0248662Y0109899D01*
X0244725Y0105962D01*
X0243494Y0104732D01*
X0243494Y0099492D01*
X0241247Y0097244D01*
X0241247Y0093708D01*
X0243748Y0091208D01*
X0247284Y0091208D01*
X0249784Y0093708D01*
X0249784Y0097244D01*
X0247694Y0099334D01*
X0247694Y0102992D01*
X0250401Y0105699D01*
X0357323Y0105699D01*
X0359784Y0103239D01*
X0375661Y0103239D01*
X0375957Y0102942D01*
X0375778Y0102839D01*
X0375499Y0102560D01*
X0375301Y0102218D01*
X0375199Y0101836D01*
X0375199Y0100489D01*
X0380549Y0100489D01*
X0380549Y0100189D01*
X0375199Y0100189D01*
X0375199Y0098841D01*
X0375301Y0098460D01*
X0375499Y0098118D01*
X0375778Y0097838D01*
X0376120Y0097641D01*
X0376502Y0097539D01*
X0380549Y0097539D01*
X0380549Y0100188D01*
X0380849Y0100188D01*
X0380849Y0097539D01*
X0384897Y0097539D01*
X0385278Y0097641D01*
X0385620Y0097838D01*
X0385899Y0098118D01*
X0386097Y0098460D01*
X0386199Y0098841D01*
X0386199Y0100189D01*
X0380849Y0100189D01*
X0380849Y0100489D01*
X0386199Y0100489D01*
X0386199Y0101836D01*
X0386097Y0102218D01*
X0385899Y0102560D01*
X0385620Y0102839D01*
X0385441Y0102942D01*
X0385999Y0103500D01*
X0385999Y0107177D01*
X0385338Y0107839D01*
X0385999Y0108500D01*
X0385999Y0112177D01*
X0385338Y0112839D01*
X0385999Y0113500D01*
X0385999Y0117177D01*
X0385338Y0117839D01*
X0385999Y0118500D01*
X0385999Y0122177D01*
X0385338Y0122839D01*
X0385999Y0123500D01*
X0385999Y0127177D01*
X0385999Y0126285D02*
X0391132Y0126285D01*
X0391132Y0125287D02*
X0385999Y0125287D01*
X0385999Y0124288D02*
X0391132Y0124288D01*
X0391132Y0123290D02*
X0385789Y0123290D01*
X0385885Y0122291D02*
X0391132Y0122291D01*
X0391132Y0121293D02*
X0385999Y0121293D01*
X0385999Y0120294D02*
X0391132Y0120294D01*
X0391132Y0119296D02*
X0385999Y0119296D01*
X0385796Y0118297D02*
X0391132Y0118297D01*
X0391132Y0117299D02*
X0385877Y0117299D01*
X0385999Y0116300D02*
X0391132Y0116300D01*
X0391132Y0115302D02*
X0385999Y0115302D01*
X0385999Y0114303D02*
X0391132Y0114303D01*
X0391132Y0113305D02*
X0385804Y0113305D01*
X0385870Y0112306D02*
X0391132Y0112306D01*
X0391132Y0111308D02*
X0385999Y0111308D01*
X0385999Y0110309D02*
X0391132Y0110309D01*
X0391132Y0109311D02*
X0385999Y0109311D01*
X0385811Y0108312D02*
X0391132Y0108312D01*
X0391132Y0107314D02*
X0385863Y0107314D01*
X0385999Y0106315D02*
X0391132Y0106315D01*
X0391132Y0105317D02*
X0385999Y0105317D01*
X0385999Y0104318D02*
X0391132Y0104318D01*
X0391132Y0103320D02*
X0385819Y0103320D01*
X0386037Y0102321D02*
X0391132Y0102321D01*
X0391132Y0101323D02*
X0386199Y0101323D01*
X0386199Y0099326D02*
X0390057Y0099326D01*
X0391055Y0100324D02*
X0380849Y0100324D01*
X0380549Y0100324D02*
X0336354Y0100324D01*
X0335356Y0101323D02*
X0375199Y0101323D01*
X0375361Y0102321D02*
X0334357Y0102321D01*
X0333359Y0103320D02*
X0359703Y0103320D01*
X0358704Y0104318D02*
X0332360Y0104318D01*
X0331504Y0105175D02*
X0278189Y0105175D01*
X0276959Y0103945D01*
X0273416Y0100401D01*
X0273416Y0099413D01*
X0271247Y0097244D01*
X0271247Y0093708D01*
X0273748Y0091208D01*
X0277284Y0091208D01*
X0279784Y0093708D01*
X0279784Y0097244D01*
X0277991Y0099037D01*
X0279929Y0100975D01*
X0329764Y0100975D01*
X0347235Y0083504D01*
X0347235Y0082776D01*
X0347704Y0081643D01*
X0348572Y0080775D01*
X0349705Y0080306D01*
X0350932Y0080306D01*
X0352066Y0080775D01*
X0352934Y0081643D01*
X0353403Y0082776D01*
X0353403Y0084003D01*
X0352934Y0085137D01*
X0352066Y0086004D01*
X0350932Y0086474D01*
X0350204Y0086474D01*
X0331504Y0105175D01*
X0330415Y0100324D02*
X0279278Y0100324D01*
X0278280Y0099326D02*
X0283328Y0099326D01*
X0283748Y0099745D02*
X0281247Y0097244D01*
X0281247Y0093708D01*
X0283748Y0091208D01*
X0287284Y0091208D01*
X0289784Y0093708D01*
X0289784Y0097244D01*
X0287284Y0099745D01*
X0283748Y0099745D01*
X0282330Y0098327D02*
X0278702Y0098327D01*
X0279700Y0097329D02*
X0281331Y0097329D01*
X0281247Y0096330D02*
X0279784Y0096330D01*
X0279784Y0095332D02*
X0281247Y0095332D01*
X0281247Y0094333D02*
X0279784Y0094333D01*
X0279410Y0093335D02*
X0281621Y0093335D01*
X0282620Y0092336D02*
X0278412Y0092336D01*
X0277413Y0091337D02*
X0283618Y0091337D01*
X0283748Y0089745D02*
X0281247Y0087244D01*
X0281247Y0083708D01*
X0283748Y0081208D01*
X0287284Y0081208D01*
X0289784Y0083708D01*
X0289784Y0087244D01*
X0287284Y0089745D01*
X0283748Y0089745D01*
X0283343Y0089340D02*
X0277688Y0089340D01*
X0277284Y0089745D02*
X0273748Y0089745D01*
X0271247Y0087244D01*
X0271247Y0083708D01*
X0273748Y0081208D01*
X0277284Y0081208D01*
X0279784Y0083708D01*
X0279784Y0087244D01*
X0277284Y0089745D01*
X0278687Y0088342D02*
X0282345Y0088342D01*
X0281346Y0087343D02*
X0279685Y0087343D01*
X0279784Y0086345D02*
X0281247Y0086345D01*
X0281247Y0085346D02*
X0279784Y0085346D01*
X0279784Y0084348D02*
X0281247Y0084348D01*
X0281606Y0083349D02*
X0279425Y0083349D01*
X0278427Y0082351D02*
X0282605Y0082351D01*
X0283603Y0081352D02*
X0277428Y0081352D01*
X0273603Y0081352D02*
X0267428Y0081352D01*
X0268427Y0082351D02*
X0272605Y0082351D01*
X0271606Y0083349D02*
X0269425Y0083349D01*
X0269784Y0084348D02*
X0271247Y0084348D01*
X0271247Y0085346D02*
X0269784Y0085346D01*
X0269784Y0086345D02*
X0271247Y0086345D01*
X0271346Y0087343D02*
X0269685Y0087343D01*
X0268687Y0088342D02*
X0272345Y0088342D01*
X0273343Y0089340D02*
X0267688Y0089340D01*
X0267284Y0091208D02*
X0263748Y0091208D01*
X0261247Y0093708D01*
X0261247Y0097244D01*
X0263748Y0099745D01*
X0267284Y0099745D01*
X0269784Y0097244D01*
X0269784Y0093708D01*
X0267284Y0091208D01*
X0267413Y0091337D02*
X0273618Y0091337D01*
X0272620Y0092336D02*
X0268412Y0092336D01*
X0269410Y0093335D02*
X0271621Y0093335D01*
X0271247Y0094333D02*
X0269784Y0094333D01*
X0269784Y0095332D02*
X0271247Y0095332D01*
X0271247Y0096330D02*
X0269784Y0096330D01*
X0269700Y0097329D02*
X0271331Y0097329D01*
X0272330Y0098327D02*
X0268702Y0098327D01*
X0267703Y0099326D02*
X0273328Y0099326D01*
X0273416Y0100324D02*
X0247694Y0100324D01*
X0247703Y0099326D02*
X0253328Y0099326D01*
X0252330Y0098327D02*
X0248702Y0098327D01*
X0249700Y0097329D02*
X0251331Y0097329D01*
X0251247Y0096330D02*
X0249784Y0096330D01*
X0249784Y0095332D02*
X0251247Y0095332D01*
X0251247Y0094333D02*
X0249784Y0094333D01*
X0249410Y0093335D02*
X0251621Y0093335D01*
X0252620Y0092336D02*
X0248412Y0092336D01*
X0247413Y0091337D02*
X0253618Y0091337D01*
X0253343Y0089340D02*
X0247688Y0089340D01*
X0247284Y0089745D02*
X0249784Y0087244D01*
X0249784Y0083708D01*
X0247284Y0081208D01*
X0243748Y0081208D01*
X0241247Y0083708D01*
X0241247Y0086775D01*
X0236802Y0091221D01*
X0236802Y0108669D01*
X0238032Y0109899D01*
X0245512Y0117380D01*
X0294907Y0117380D01*
X0295422Y0117894D01*
X0296556Y0118364D01*
X0297783Y0118364D01*
X0298916Y0117894D01*
X0299784Y0117027D01*
X0300254Y0115893D01*
X0300254Y0114666D01*
X0299784Y0113532D01*
X0298916Y0112665D01*
X0297783Y0112195D01*
X0296556Y0112195D01*
X0295422Y0112665D01*
X0294907Y0113180D01*
X0247252Y0113180D01*
X0241002Y0106929D01*
X0241002Y0092960D01*
X0244217Y0089745D01*
X0247284Y0089745D01*
X0248687Y0088342D02*
X0252345Y0088342D01*
X0251346Y0087343D02*
X0249685Y0087343D01*
X0249784Y0086345D02*
X0251247Y0086345D01*
X0251247Y0085346D02*
X0249784Y0085346D01*
X0249784Y0084348D02*
X0251247Y0084348D01*
X0251606Y0083349D02*
X0249425Y0083349D01*
X0248427Y0082351D02*
X0252605Y0082351D01*
X0253603Y0081352D02*
X0247428Y0081352D01*
X0243603Y0081352D02*
X0230378Y0081352D01*
X0230378Y0080354D02*
X0258455Y0080354D01*
X0258455Y0081352D02*
X0257428Y0081352D01*
X0258427Y0082351D02*
X0258455Y0082351D01*
X0258455Y0079355D02*
X0230378Y0079355D01*
X0230378Y0078357D02*
X0258455Y0078357D01*
X0258892Y0077358D02*
X0230378Y0077358D01*
X0230378Y0076360D02*
X0259891Y0076360D01*
X0260889Y0075361D02*
X0230378Y0075361D01*
X0230378Y0074363D02*
X0261888Y0074363D01*
X0262835Y0079355D02*
X0370086Y0079355D01*
X0371085Y0080354D02*
X0351049Y0080354D01*
X0349589Y0080354D02*
X0262655Y0080354D01*
X0262655Y0081352D02*
X0263603Y0081352D01*
X0263343Y0089340D02*
X0262655Y0089340D01*
X0262655Y0090339D02*
X0340400Y0090339D01*
X0341398Y0089340D02*
X0307971Y0089340D01*
X0307367Y0089945D02*
X0306000Y0089945D01*
X0306000Y0085961D01*
X0305031Y0085961D01*
X0305031Y0084992D01*
X0301047Y0084992D01*
X0301047Y0083625D01*
X0303665Y0081008D01*
X0305031Y0081008D01*
X0305031Y0084992D01*
X0306000Y0084992D01*
X0306000Y0081008D01*
X0307367Y0081008D01*
X0309984Y0083625D01*
X0309984Y0084992D01*
X0306000Y0084992D01*
X0306000Y0085961D01*
X0309984Y0085961D01*
X0309984Y0087327D01*
X0307367Y0089945D01*
X0307284Y0091208D02*
X0309784Y0093708D01*
X0309784Y0097244D01*
X0307284Y0099745D01*
X0303748Y0099745D01*
X0301247Y0097244D01*
X0301247Y0093708D01*
X0303748Y0091208D01*
X0307284Y0091208D01*
X0307413Y0091337D02*
X0339401Y0091337D01*
X0338403Y0092336D02*
X0308412Y0092336D01*
X0309410Y0093335D02*
X0337404Y0093335D01*
X0336406Y0094333D02*
X0309784Y0094333D01*
X0309784Y0095332D02*
X0335407Y0095332D01*
X0334409Y0096330D02*
X0309784Y0096330D01*
X0309700Y0097329D02*
X0333410Y0097329D01*
X0332412Y0098327D02*
X0308702Y0098327D01*
X0307703Y0099326D02*
X0331413Y0099326D01*
X0337353Y0099326D02*
X0375199Y0099326D01*
X0375378Y0098327D02*
X0338351Y0098327D01*
X0339350Y0097329D02*
X0388060Y0097329D01*
X0389058Y0098327D02*
X0386020Y0098327D01*
X0387061Y0096330D02*
X0340348Y0096330D01*
X0341347Y0095332D02*
X0386062Y0095332D01*
X0385064Y0094333D02*
X0342345Y0094333D01*
X0343344Y0093335D02*
X0384065Y0093335D01*
X0383067Y0092336D02*
X0344342Y0092336D01*
X0345341Y0091337D02*
X0382068Y0091337D01*
X0381070Y0090339D02*
X0346340Y0090339D01*
X0347338Y0089340D02*
X0380071Y0089340D01*
X0379073Y0088342D02*
X0348337Y0088342D01*
X0349335Y0087343D02*
X0378074Y0087343D01*
X0377076Y0086345D02*
X0351244Y0086345D01*
X0352724Y0085346D02*
X0376077Y0085346D01*
X0375079Y0084348D02*
X0353260Y0084348D01*
X0353403Y0083349D02*
X0374080Y0083349D01*
X0373082Y0082351D02*
X0353227Y0082351D01*
X0352643Y0081352D02*
X0372083Y0081352D01*
X0347994Y0081352D02*
X0307711Y0081352D01*
X0308710Y0082351D02*
X0347411Y0082351D01*
X0347235Y0083349D02*
X0309708Y0083349D01*
X0309984Y0084348D02*
X0346391Y0084348D01*
X0345392Y0085346D02*
X0306000Y0085346D01*
X0305031Y0085346D02*
X0299784Y0085346D01*
X0299784Y0084348D02*
X0301047Y0084348D01*
X0301323Y0083349D02*
X0299425Y0083349D01*
X0299784Y0083708D02*
X0297284Y0081208D01*
X0293748Y0081208D01*
X0291247Y0083708D01*
X0291247Y0087244D01*
X0293748Y0089745D01*
X0297284Y0089745D01*
X0299784Y0087244D01*
X0299784Y0083708D01*
X0298427Y0082351D02*
X0302322Y0082351D01*
X0303320Y0081352D02*
X0297428Y0081352D01*
X0293603Y0081352D02*
X0287428Y0081352D01*
X0288427Y0082351D02*
X0292605Y0082351D01*
X0291606Y0083349D02*
X0289425Y0083349D01*
X0289784Y0084348D02*
X0291247Y0084348D01*
X0291247Y0085346D02*
X0289784Y0085346D01*
X0289784Y0086345D02*
X0291247Y0086345D01*
X0291346Y0087343D02*
X0289685Y0087343D01*
X0288687Y0088342D02*
X0292345Y0088342D01*
X0293343Y0089340D02*
X0287688Y0089340D01*
X0287413Y0091337D02*
X0293618Y0091337D01*
X0293748Y0091208D02*
X0297284Y0091208D01*
X0299784Y0093708D01*
X0299784Y0097244D01*
X0297284Y0099745D01*
X0293748Y0099745D01*
X0291247Y0097244D01*
X0291247Y0093708D01*
X0293748Y0091208D01*
X0292620Y0092336D02*
X0288412Y0092336D01*
X0289410Y0093335D02*
X0291621Y0093335D01*
X0291247Y0094333D02*
X0289784Y0094333D01*
X0289784Y0095332D02*
X0291247Y0095332D01*
X0291247Y0096330D02*
X0289784Y0096330D01*
X0289700Y0097329D02*
X0291331Y0097329D01*
X0292330Y0098327D02*
X0288702Y0098327D01*
X0287703Y0099326D02*
X0293328Y0099326D01*
X0297703Y0099326D02*
X0303328Y0099326D01*
X0302330Y0098327D02*
X0298702Y0098327D01*
X0299700Y0097329D02*
X0301331Y0097329D01*
X0301247Y0096330D02*
X0299784Y0096330D01*
X0299784Y0095332D02*
X0301247Y0095332D01*
X0301247Y0094333D02*
X0299784Y0094333D01*
X0299410Y0093335D02*
X0301621Y0093335D01*
X0302620Y0092336D02*
X0298412Y0092336D01*
X0297413Y0091337D02*
X0303618Y0091337D01*
X0303665Y0089945D02*
X0301047Y0087327D01*
X0301047Y0085961D01*
X0305031Y0085961D01*
X0305031Y0089945D01*
X0303665Y0089945D01*
X0303060Y0089340D02*
X0297688Y0089340D01*
X0298687Y0088342D02*
X0302062Y0088342D01*
X0301063Y0087343D02*
X0299685Y0087343D01*
X0299784Y0086345D02*
X0301047Y0086345D01*
X0305031Y0086345D02*
X0306000Y0086345D01*
X0306000Y0087343D02*
X0305031Y0087343D01*
X0305031Y0088342D02*
X0306000Y0088342D01*
X0306000Y0089340D02*
X0305031Y0089340D01*
X0308970Y0088342D02*
X0342397Y0088342D01*
X0343395Y0087343D02*
X0309968Y0087343D01*
X0309984Y0086345D02*
X0344394Y0086345D01*
X0380549Y0098327D02*
X0380849Y0098327D01*
X0380849Y0099326D02*
X0380549Y0099326D01*
X0395332Y0110309D02*
X0404749Y0110309D01*
X0405049Y0110309D02*
X0435620Y0110309D01*
X0435620Y0109311D02*
X0410399Y0109311D01*
X0410212Y0108312D02*
X0435620Y0108312D01*
X0435620Y0107314D02*
X0410063Y0107314D01*
X0410199Y0106315D02*
X0435620Y0106315D01*
X0435620Y0105317D02*
X0410199Y0105317D01*
X0410199Y0104318D02*
X0435620Y0104318D01*
X0434995Y0103320D02*
X0410019Y0103320D01*
X0410237Y0102321D02*
X0433997Y0102321D01*
X0432998Y0101323D02*
X0410399Y0101323D01*
X0405049Y0099326D02*
X0404749Y0099326D01*
X0404749Y0098327D02*
X0405049Y0098327D01*
X0410399Y0111308D02*
X0435620Y0111308D01*
X0435620Y0112306D02*
X0410246Y0112306D01*
X0410004Y0113305D02*
X0435620Y0113305D01*
X0435620Y0114303D02*
X0410199Y0114303D01*
X0410199Y0115302D02*
X0435620Y0115302D01*
X0435620Y0116300D02*
X0410199Y0116300D01*
X0410077Y0117299D02*
X0435620Y0117299D01*
X0435620Y0118297D02*
X0409996Y0118297D01*
X0410199Y0119296D02*
X0435620Y0119296D01*
X0435620Y0120294D02*
X0410199Y0120294D01*
X0410199Y0121293D02*
X0435646Y0121293D01*
X0436644Y0122291D02*
X0410085Y0122291D01*
X0413445Y0123290D02*
X0437643Y0123290D01*
X0438641Y0124288D02*
X0414443Y0124288D01*
X0415442Y0125287D02*
X0439640Y0125287D01*
X0440638Y0126285D02*
X0416440Y0126285D01*
X0417380Y0127284D02*
X0441637Y0127284D01*
X0442635Y0128282D02*
X0417380Y0128282D01*
X0417380Y0129281D02*
X0443634Y0129281D01*
X0444632Y0130279D02*
X0417380Y0130279D01*
X0417380Y0131278D02*
X0445631Y0131278D01*
X0446629Y0132276D02*
X0417380Y0132276D01*
X0417380Y0133275D02*
X0447628Y0133275D01*
X0449574Y0129281D02*
X0461798Y0129281D01*
X0461798Y0128282D02*
X0448575Y0128282D01*
X0447577Y0127284D02*
X0462429Y0127284D01*
X0465583Y0125287D02*
X0466551Y0125287D01*
X0466551Y0124288D02*
X0465583Y0124288D01*
X0465583Y0123290D02*
X0466551Y0123290D01*
X0466551Y0122291D02*
X0465583Y0122291D01*
X0465583Y0121094D02*
X0461598Y0121094D01*
X0461598Y0118413D01*
X0461701Y0118031D01*
X0461898Y0117689D01*
X0462177Y0117410D01*
X0462519Y0117212D01*
X0462901Y0117110D01*
X0465583Y0117110D01*
X0465583Y0121094D01*
X0465583Y0120294D02*
X0466551Y0120294D01*
X0466551Y0119296D02*
X0465583Y0119296D01*
X0465583Y0118297D02*
X0466551Y0118297D01*
X0466551Y0117299D02*
X0465583Y0117299D01*
X0462370Y0117299D02*
X0439820Y0117299D01*
X0439820Y0118297D02*
X0461629Y0118297D01*
X0461598Y0119296D02*
X0439820Y0119296D01*
X0440587Y0120294D02*
X0461598Y0120294D01*
X0461857Y0115302D02*
X0439820Y0115302D01*
X0439820Y0116300D02*
X0581290Y0116300D01*
X0581290Y0115302D02*
X0527509Y0115302D01*
X0527622Y0114303D02*
X0581290Y0114303D01*
X0581290Y0113305D02*
X0527622Y0113305D01*
X0527622Y0112306D02*
X0581290Y0112306D01*
X0585490Y0112306D02*
X0609205Y0112306D01*
X0609205Y0111308D02*
X0585490Y0111308D01*
X0585490Y0110309D02*
X0609205Y0110309D01*
X0609205Y0109311D02*
X0585490Y0109311D01*
X0585490Y0108312D02*
X0609205Y0108312D01*
X0609205Y0107314D02*
X0585490Y0107314D01*
X0585490Y0106315D02*
X0609205Y0106315D01*
X0609205Y0105317D02*
X0585490Y0105317D01*
X0585490Y0104318D02*
X0609205Y0104318D01*
X0609205Y0103320D02*
X0585490Y0103320D01*
X0585490Y0102321D02*
X0609205Y0102321D01*
X0609205Y0101323D02*
X0585490Y0101323D01*
X0592890Y0099326D02*
X0593890Y0099326D01*
X0593890Y0098327D02*
X0592890Y0098327D01*
X0592890Y0097329D02*
X0593890Y0097329D01*
X0593890Y0096330D02*
X0592890Y0096330D01*
X0592890Y0095332D02*
X0593890Y0095332D01*
X0593890Y0094333D02*
X0592890Y0094333D01*
X0592890Y0093335D02*
X0593890Y0093335D01*
X0593890Y0092336D02*
X0609205Y0092336D01*
X0593890Y0091337D02*
X0592890Y0091337D01*
X0592890Y0090339D02*
X0593890Y0090339D01*
X0593890Y0089340D02*
X0592890Y0089340D01*
X0592890Y0088342D02*
X0593890Y0088342D01*
X0593890Y0087343D02*
X0592890Y0087343D01*
X0592890Y0086345D02*
X0593890Y0086345D01*
X0593890Y0085346D02*
X0592890Y0085346D01*
X0592890Y0092336D02*
X0587690Y0092336D01*
X0575826Y0099326D02*
X0574245Y0099981D01*
X0572534Y0099981D01*
X0570954Y0099326D01*
X0585490Y0113305D02*
X0609205Y0113305D01*
X0609205Y0114303D02*
X0585490Y0114303D01*
X0585490Y0115302D02*
X0609205Y0115302D01*
X0609205Y0116300D02*
X0585490Y0116300D01*
X0585490Y0117299D02*
X0609205Y0117299D01*
X0609205Y0118297D02*
X0585490Y0118297D01*
X0585490Y0119296D02*
X0609205Y0119296D01*
X0609205Y0120294D02*
X0585490Y0120294D01*
X0585490Y0121293D02*
X0609205Y0121293D01*
X0609205Y0122291D02*
X0585490Y0122291D01*
X0585490Y0123290D02*
X0609205Y0123290D01*
X0609205Y0124288D02*
X0585490Y0124288D01*
X0585490Y0125287D02*
X0609205Y0125287D01*
X0609205Y0126285D02*
X0585490Y0126285D01*
X0581290Y0136271D02*
X0417380Y0136271D01*
X0417380Y0137269D02*
X0581290Y0137269D01*
X0581290Y0138268D02*
X0502767Y0138268D01*
X0502464Y0137964D02*
X0503225Y0138725D01*
X0503225Y0152464D01*
X0502464Y0153225D01*
X0488725Y0153225D01*
X0487964Y0152464D01*
X0487964Y0138725D01*
X0488725Y0137964D01*
X0502464Y0137964D01*
X0503225Y0139266D02*
X0581290Y0139266D01*
X0581290Y0140265D02*
X0503225Y0140265D01*
X0503225Y0141263D02*
X0581290Y0141263D01*
X0581290Y0142262D02*
X0503225Y0142262D01*
X0503225Y0143260D02*
X0581290Y0143260D01*
X0581290Y0144259D02*
X0503225Y0144259D01*
X0503225Y0145257D02*
X0581290Y0145257D01*
X0581290Y0146256D02*
X0503225Y0146256D01*
X0503225Y0147254D02*
X0581290Y0147254D01*
X0581290Y0148253D02*
X0503225Y0148253D01*
X0503225Y0149251D02*
X0581290Y0149251D01*
X0581290Y0150250D02*
X0503225Y0150250D01*
X0503225Y0151248D02*
X0581290Y0151248D01*
X0581290Y0152247D02*
X0503225Y0152247D01*
X0487964Y0152247D02*
X0411991Y0152247D01*
X0410992Y0153245D02*
X0581290Y0153245D01*
X0581290Y0154244D02*
X0409994Y0154244D01*
X0408995Y0155242D02*
X0581290Y0155242D01*
X0581290Y0156241D02*
X0407997Y0156241D01*
X0406998Y0157239D02*
X0581290Y0157239D01*
X0581290Y0158238D02*
X0406000Y0158238D01*
X0405001Y0159236D02*
X0581290Y0159236D01*
X0581290Y0160235D02*
X0404003Y0160235D01*
X0403004Y0161233D02*
X0581290Y0161233D01*
X0581290Y0162232D02*
X0402006Y0162232D01*
X0401007Y0163230D02*
X0581290Y0163230D01*
X0581290Y0164229D02*
X0400009Y0164229D01*
X0398063Y0160235D02*
X0347850Y0160235D01*
X0346852Y0159236D02*
X0378895Y0159236D01*
X0377966Y0158238D02*
X0345853Y0158238D01*
X0344855Y0157239D02*
X0377553Y0157239D01*
X0377550Y0156241D02*
X0343856Y0156241D01*
X0342858Y0155242D02*
X0377865Y0155242D01*
X0378534Y0154244D02*
X0342773Y0154244D01*
X0342773Y0153245D02*
X0378534Y0153245D01*
X0378534Y0152247D02*
X0342773Y0152247D01*
X0342773Y0151248D02*
X0378534Y0151248D01*
X0377269Y0150250D02*
X0342773Y0150250D01*
X0342989Y0149251D02*
X0345050Y0149251D01*
X0345056Y0149257D02*
X0344294Y0148495D01*
X0344294Y0140332D01*
X0345056Y0139570D01*
X0349676Y0139570D01*
X0350438Y0140332D01*
X0350438Y0148495D01*
X0349676Y0149257D01*
X0345056Y0149257D01*
X0344294Y0148253D02*
X0343745Y0148253D01*
X0343745Y0147254D02*
X0344294Y0147254D01*
X0344294Y0146256D02*
X0343745Y0146256D01*
X0343745Y0145257D02*
X0344294Y0145257D01*
X0344294Y0144259D02*
X0343745Y0144259D01*
X0343745Y0143260D02*
X0344294Y0143260D01*
X0344294Y0142262D02*
X0343745Y0142262D01*
X0343745Y0141263D02*
X0344294Y0141263D01*
X0344362Y0140265D02*
X0343678Y0140265D01*
X0337669Y0140265D02*
X0334300Y0140265D01*
X0334315Y0140291D02*
X0334417Y0140673D01*
X0334417Y0144028D01*
X0331532Y0144028D01*
X0331532Y0144799D01*
X0334417Y0144799D01*
X0334417Y0148154D01*
X0334315Y0148536D01*
X0334118Y0148878D01*
X0333838Y0149157D01*
X0333496Y0149354D01*
X0333115Y0149457D01*
X0331531Y0149457D01*
X0331531Y0144799D01*
X0330760Y0144799D01*
X0330760Y0144028D01*
X0327874Y0144028D01*
X0327874Y0140673D01*
X0327976Y0140291D01*
X0328174Y0139949D01*
X0328453Y0139670D01*
X0328795Y0139472D01*
X0329177Y0139370D01*
X0330760Y0139370D01*
X0330760Y0144027D01*
X0331531Y0144027D01*
X0331531Y0139370D01*
X0333115Y0139370D01*
X0333496Y0139472D01*
X0333838Y0139670D01*
X0334118Y0139949D01*
X0334315Y0140291D01*
X0334417Y0141263D02*
X0337602Y0141263D01*
X0337602Y0142262D02*
X0334417Y0142262D01*
X0334417Y0143260D02*
X0337602Y0143260D01*
X0337602Y0144259D02*
X0331532Y0144259D01*
X0330760Y0144259D02*
X0324375Y0144259D01*
X0324375Y0145257D02*
X0327874Y0145257D01*
X0327874Y0144799D02*
X0327874Y0148154D01*
X0327976Y0148536D01*
X0328174Y0148878D01*
X0328453Y0149157D01*
X0328795Y0149354D01*
X0329177Y0149457D01*
X0330760Y0149457D01*
X0330760Y0144799D01*
X0327874Y0144799D01*
X0327874Y0146256D02*
X0324375Y0146256D01*
X0324375Y0147254D02*
X0327874Y0147254D01*
X0327900Y0148253D02*
X0324375Y0148253D01*
X0323619Y0149251D02*
X0328616Y0149251D01*
X0330760Y0149251D02*
X0331531Y0149251D01*
X0331531Y0148253D02*
X0330760Y0148253D01*
X0330760Y0147254D02*
X0331531Y0147254D01*
X0331531Y0146256D02*
X0330760Y0146256D01*
X0330760Y0145257D02*
X0331531Y0145257D01*
X0331531Y0143260D02*
X0330760Y0143260D01*
X0330760Y0142262D02*
X0331531Y0142262D01*
X0331531Y0141263D02*
X0330760Y0141263D01*
X0330760Y0140265D02*
X0331531Y0140265D01*
X0327992Y0140265D02*
X0324308Y0140265D01*
X0324375Y0141263D02*
X0327874Y0141263D01*
X0327874Y0142262D02*
X0324375Y0142262D01*
X0324375Y0143260D02*
X0327874Y0143260D01*
X0323679Y0139266D02*
X0378599Y0139266D01*
X0378599Y0138268D02*
X0323679Y0138268D01*
X0323679Y0137269D02*
X0375491Y0137269D01*
X0375399Y0136271D02*
X0324424Y0136271D01*
X0325422Y0135272D02*
X0375399Y0135272D01*
X0375399Y0134273D02*
X0326421Y0134273D01*
X0327419Y0133275D02*
X0375624Y0133275D01*
X0382799Y0138268D02*
X0413180Y0138268D01*
X0413180Y0139266D02*
X0382799Y0139266D01*
X0382799Y0140265D02*
X0413180Y0140265D01*
X0413180Y0141263D02*
X0382799Y0141263D01*
X0378599Y0141263D02*
X0363233Y0141263D01*
X0363233Y0140332D02*
X0363233Y0148495D01*
X0362472Y0149257D01*
X0357064Y0149257D01*
X0356302Y0148495D01*
X0356302Y0140332D01*
X0357064Y0139570D01*
X0362472Y0139570D01*
X0363233Y0140332D01*
X0363166Y0140265D02*
X0378599Y0140265D01*
X0377443Y0142262D02*
X0363233Y0142262D01*
X0363233Y0143260D02*
X0376854Y0143260D01*
X0376854Y0144259D02*
X0363233Y0144259D01*
X0363233Y0145257D02*
X0376854Y0145257D01*
X0376854Y0146256D02*
X0363233Y0146256D01*
X0363233Y0147254D02*
X0376854Y0147254D01*
X0376854Y0148253D02*
X0363233Y0148253D01*
X0362477Y0149251D02*
X0376854Y0149251D01*
X0382734Y0151248D02*
X0407050Y0151248D01*
X0408048Y0150250D02*
X0391131Y0150250D01*
X0391465Y0149251D02*
X0409047Y0149251D01*
X0410045Y0148253D02*
X0391465Y0148253D01*
X0391465Y0147254D02*
X0411044Y0147254D01*
X0412042Y0146256D02*
X0387906Y0146256D01*
X0387905Y0147254D02*
X0386906Y0147254D01*
X0386906Y0148253D02*
X0387905Y0148253D01*
X0387905Y0149251D02*
X0386906Y0149251D01*
X0386906Y0150250D02*
X0387905Y0150250D01*
X0387905Y0145257D02*
X0386906Y0145257D01*
X0386906Y0144259D02*
X0387905Y0144259D01*
X0387905Y0143260D02*
X0386906Y0143260D01*
X0386906Y0142262D02*
X0387905Y0142262D01*
X0390958Y0142262D02*
X0413180Y0142262D01*
X0413180Y0143260D02*
X0391465Y0143260D01*
X0391465Y0144259D02*
X0413180Y0144259D01*
X0413041Y0145257D02*
X0391465Y0145257D01*
X0382734Y0152247D02*
X0406051Y0152247D01*
X0405053Y0153245D02*
X0382734Y0153245D01*
X0382734Y0154244D02*
X0404054Y0154244D01*
X0403056Y0155242D02*
X0383402Y0155242D01*
X0383718Y0156241D02*
X0402057Y0156241D01*
X0401059Y0157239D02*
X0383715Y0157239D01*
X0383301Y0158238D02*
X0400060Y0158238D01*
X0399062Y0159236D02*
X0382373Y0159236D01*
X0357058Y0149251D02*
X0349682Y0149251D01*
X0350438Y0148253D02*
X0356302Y0148253D01*
X0356302Y0147254D02*
X0350438Y0147254D01*
X0350438Y0146256D02*
X0356302Y0146256D01*
X0356302Y0145257D02*
X0350438Y0145257D01*
X0350438Y0144259D02*
X0356302Y0144259D01*
X0356302Y0143260D02*
X0350438Y0143260D01*
X0350438Y0142262D02*
X0356302Y0142262D01*
X0356302Y0141263D02*
X0350438Y0141263D01*
X0350371Y0140265D02*
X0356369Y0140265D01*
X0337602Y0145257D02*
X0334417Y0145257D01*
X0334417Y0146256D02*
X0337602Y0146256D01*
X0337602Y0147254D02*
X0334417Y0147254D01*
X0334391Y0148253D02*
X0337602Y0148253D01*
X0338358Y0149251D02*
X0333675Y0149251D01*
X0338573Y0150250D02*
X0313961Y0150250D01*
X0313961Y0151248D02*
X0338573Y0151248D01*
X0338573Y0152247D02*
X0313961Y0152247D01*
X0313961Y0153245D02*
X0338573Y0153245D01*
X0338573Y0154244D02*
X0313961Y0154244D01*
X0313961Y0155242D02*
X0338573Y0155242D01*
X0338573Y0156241D02*
X0313961Y0156241D01*
X0313961Y0157239D02*
X0338915Y0157239D01*
X0339914Y0158238D02*
X0313961Y0158238D01*
X0313961Y0159236D02*
X0340912Y0159236D01*
X0341911Y0160235D02*
X0313961Y0160235D01*
X0313961Y0161233D02*
X0342909Y0161233D01*
X0343908Y0162232D02*
X0313961Y0162232D01*
X0314862Y0163230D02*
X0344906Y0163230D01*
X0345905Y0164229D02*
X0315860Y0164229D01*
X0316859Y0165227D02*
X0581290Y0165227D01*
X0581290Y0166226D02*
X0353265Y0166226D01*
X0353946Y0167224D02*
X0581290Y0167224D01*
X0581290Y0168223D02*
X0354191Y0168223D01*
X0354116Y0169221D02*
X0581290Y0169221D01*
X0581290Y0170220D02*
X0353677Y0170220D01*
X0352432Y0171218D02*
X0581290Y0171218D01*
X0581290Y0172217D02*
X0178730Y0172217D01*
X0179729Y0173215D02*
X0581290Y0173215D01*
X0581290Y0174214D02*
X0400646Y0174214D01*
X0402015Y0175212D02*
X0581290Y0175212D01*
X0581290Y0176211D02*
X0402506Y0176211D01*
X0402620Y0177209D02*
X0581290Y0177209D01*
X0581290Y0178208D02*
X0403619Y0178208D01*
X0404617Y0179206D02*
X0505863Y0179206D01*
X0504865Y0180205D02*
X0405616Y0180205D01*
X0406614Y0181204D02*
X0503866Y0181204D01*
X0502867Y0182202D02*
X0407613Y0182202D01*
X0408611Y0183201D02*
X0501869Y0183201D01*
X0500870Y0184199D02*
X0409610Y0184199D01*
X0410608Y0185198D02*
X0499872Y0185198D01*
X0498873Y0186196D02*
X0411607Y0186196D01*
X0412261Y0187195D02*
X0497875Y0187195D01*
X0496876Y0188193D02*
X0412261Y0188193D01*
X0412261Y0189192D02*
X0495878Y0189192D01*
X0494879Y0190190D02*
X0412261Y0190190D01*
X0412261Y0191189D02*
X0493881Y0191189D01*
X0492882Y0192187D02*
X0412261Y0192187D01*
X0412261Y0193186D02*
X0491884Y0193186D01*
X0490885Y0194184D02*
X0451269Y0194184D01*
X0452578Y0195183D02*
X0489887Y0195183D01*
X0488888Y0196181D02*
X0453250Y0196181D01*
X0453620Y0197180D02*
X0487890Y0197180D01*
X0441738Y0214154D02*
X0440131Y0214154D01*
X0438052Y0219147D02*
X0421943Y0219147D01*
X0424305Y0220145D02*
X0439051Y0220145D01*
X0440094Y0221144D02*
X0425878Y0221144D01*
X0426877Y0222142D02*
X0441523Y0222142D01*
X0421078Y0202172D02*
X0420461Y0202172D01*
X0413749Y0194184D02*
X0413660Y0194184D01*
X0408061Y0193186D02*
X0199699Y0193186D01*
X0200697Y0194184D02*
X0407056Y0194184D01*
X0406499Y0195183D02*
X0201696Y0195183D01*
X0202694Y0196181D02*
X0406499Y0196181D01*
X0408061Y0192187D02*
X0198700Y0192187D01*
X0197702Y0191189D02*
X0408061Y0191189D01*
X0408061Y0190190D02*
X0196703Y0190190D01*
X0195705Y0189192D02*
X0408061Y0189192D01*
X0407664Y0188193D02*
X0194706Y0188193D01*
X0193708Y0187195D02*
X0406666Y0187195D01*
X0405667Y0186196D02*
X0192709Y0186196D01*
X0191711Y0185198D02*
X0404669Y0185198D01*
X0403670Y0184199D02*
X0190712Y0184199D01*
X0189714Y0183201D02*
X0402672Y0183201D01*
X0401673Y0182202D02*
X0188715Y0182202D01*
X0187717Y0181204D02*
X0400675Y0181204D01*
X0399676Y0180205D02*
X0186718Y0180205D01*
X0185720Y0179206D02*
X0397286Y0179206D01*
X0396656Y0178208D02*
X0184721Y0178208D01*
X0183723Y0177209D02*
X0396447Y0177209D01*
X0396557Y0176211D02*
X0182724Y0176211D01*
X0181726Y0175212D02*
X0397048Y0175212D01*
X0398417Y0174214D02*
X0180727Y0174214D01*
X0177732Y0171218D02*
X0349781Y0171218D01*
X0348948Y0166226D02*
X0317857Y0166226D01*
X0314913Y0169221D02*
X0308574Y0169221D01*
X0308738Y0169058D02*
X0308738Y0169058D01*
X0309572Y0168223D02*
X0313914Y0168223D01*
X0312916Y0167224D02*
X0310571Y0167224D01*
X0311570Y0166226D02*
X0311917Y0166226D01*
X0307494Y0163230D02*
X0280497Y0163230D01*
X0280460Y0163246D02*
X0279233Y0163246D01*
X0278099Y0162776D01*
X0277232Y0161909D01*
X0276762Y0160775D01*
X0276762Y0159548D01*
X0277232Y0158414D01*
X0278099Y0157547D01*
X0279233Y0157077D01*
X0280460Y0157077D01*
X0281594Y0157547D01*
X0282108Y0158061D01*
X0299449Y0158061D01*
X0302550Y0154961D01*
X0302550Y0149257D01*
X0302261Y0149257D01*
X0301727Y0148723D01*
X0301637Y0148878D01*
X0301358Y0149157D01*
X0301016Y0149354D01*
X0300634Y0149457D01*
X0299051Y0149457D01*
X0299051Y0144799D01*
X0298280Y0144799D01*
X0298280Y0149457D01*
X0296696Y0149457D01*
X0296315Y0149354D01*
X0295973Y0149157D01*
X0295693Y0148878D01*
X0295496Y0148536D01*
X0295394Y0148154D01*
X0295394Y0144799D01*
X0298279Y0144799D01*
X0298279Y0144028D01*
X0295394Y0144028D01*
X0295394Y0140673D01*
X0295496Y0140291D01*
X0295693Y0139949D01*
X0295973Y0139670D01*
X0296315Y0139472D01*
X0296696Y0139370D01*
X0298280Y0139370D01*
X0298280Y0144027D01*
X0299051Y0144027D01*
X0299051Y0139370D01*
X0300634Y0139370D01*
X0301016Y0139472D01*
X0301358Y0139670D01*
X0301637Y0139949D01*
X0301727Y0140104D01*
X0302261Y0139570D01*
X0306881Y0139570D01*
X0307643Y0140332D01*
X0307643Y0148495D01*
X0306881Y0149257D01*
X0306751Y0149257D01*
X0306764Y0150052D01*
X0306750Y0150066D01*
X0306750Y0156701D01*
X0305519Y0157931D01*
X0301189Y0162261D01*
X0282108Y0162261D01*
X0281594Y0162776D01*
X0280460Y0163246D01*
X0279196Y0163230D02*
X0245112Y0163230D01*
X0244114Y0162232D02*
X0277555Y0162232D01*
X0276952Y0161233D02*
X0243115Y0161233D01*
X0242117Y0160235D02*
X0276762Y0160235D01*
X0276891Y0159236D02*
X0241118Y0159236D01*
X0240120Y0158238D02*
X0277408Y0158238D01*
X0278842Y0157239D02*
X0239121Y0157239D01*
X0238123Y0156241D02*
X0301270Y0156241D01*
X0302268Y0155242D02*
X0237124Y0155242D01*
X0236126Y0154244D02*
X0302550Y0154244D01*
X0302550Y0153245D02*
X0235127Y0153245D01*
X0234129Y0152247D02*
X0302550Y0152247D01*
X0302550Y0151248D02*
X0233130Y0151248D01*
X0232132Y0150250D02*
X0302550Y0150250D01*
X0302255Y0149251D02*
X0301195Y0149251D01*
X0299051Y0149251D02*
X0298280Y0149251D01*
X0298280Y0148253D02*
X0299051Y0148253D01*
X0299051Y0147254D02*
X0298280Y0147254D01*
X0298280Y0146256D02*
X0299051Y0146256D01*
X0299051Y0145257D02*
X0298280Y0145257D01*
X0298279Y0144259D02*
X0294847Y0144259D01*
X0294847Y0145257D02*
X0295394Y0145257D01*
X0295394Y0146256D02*
X0294847Y0146256D01*
X0294847Y0147254D02*
X0295394Y0147254D01*
X0295420Y0148253D02*
X0294847Y0148253D01*
X0294091Y0149251D02*
X0296136Y0149251D01*
X0289460Y0149251D02*
X0284249Y0149251D01*
X0285005Y0148253D02*
X0288704Y0148253D01*
X0288704Y0147254D02*
X0285005Y0147254D01*
X0285005Y0146256D02*
X0288704Y0146256D01*
X0288704Y0145257D02*
X0285005Y0145257D01*
X0285005Y0144259D02*
X0288704Y0144259D01*
X0288704Y0143260D02*
X0285005Y0143260D01*
X0285362Y0142262D02*
X0288704Y0142262D01*
X0288704Y0141263D02*
X0286360Y0141263D01*
X0287359Y0140265D02*
X0288771Y0140265D01*
X0288357Y0139266D02*
X0289951Y0139266D01*
X0289951Y0138268D02*
X0289356Y0138268D01*
X0286412Y0135272D02*
X0230378Y0135272D01*
X0230378Y0134273D02*
X0287410Y0134273D01*
X0288409Y0133275D02*
X0230378Y0133275D01*
X0230378Y0132276D02*
X0289407Y0132276D01*
X0290406Y0131278D02*
X0230378Y0131278D01*
X0230378Y0130279D02*
X0291404Y0130279D01*
X0292403Y0129281D02*
X0230378Y0129281D01*
X0230378Y0128282D02*
X0293401Y0128282D01*
X0294400Y0127284D02*
X0230378Y0127284D01*
X0230378Y0126285D02*
X0295398Y0126285D01*
X0296397Y0125287D02*
X0230378Y0125287D01*
X0230378Y0124288D02*
X0297395Y0124288D01*
X0298394Y0123290D02*
X0230378Y0123290D01*
X0230378Y0122291D02*
X0299392Y0122291D01*
X0300391Y0121293D02*
X0230378Y0121293D01*
X0230378Y0120294D02*
X0301389Y0120294D01*
X0302388Y0119296D02*
X0230378Y0119296D01*
X0230378Y0118297D02*
X0296395Y0118297D01*
X0297943Y0118297D02*
X0303386Y0118297D01*
X0304385Y0117299D02*
X0299512Y0117299D01*
X0300085Y0116300D02*
X0305383Y0116300D01*
X0306382Y0115302D02*
X0300254Y0115302D01*
X0300103Y0114303D02*
X0307380Y0114303D01*
X0308379Y0113305D02*
X0299556Y0113305D01*
X0298051Y0112306D02*
X0309377Y0112306D01*
X0310376Y0111308D02*
X0245380Y0111308D01*
X0246378Y0112306D02*
X0296288Y0112306D01*
X0311374Y0110309D02*
X0244381Y0110309D01*
X0243383Y0109311D02*
X0248073Y0109311D01*
X0247075Y0108312D02*
X0242384Y0108312D01*
X0241386Y0107314D02*
X0246076Y0107314D01*
X0245078Y0106315D02*
X0241002Y0106315D01*
X0241002Y0105317D02*
X0244079Y0105317D01*
X0243494Y0104318D02*
X0241002Y0104318D01*
X0241002Y0103320D02*
X0243494Y0103320D01*
X0243494Y0102321D02*
X0241002Y0102321D01*
X0241002Y0101323D02*
X0243494Y0101323D01*
X0243494Y0100324D02*
X0241002Y0100324D01*
X0241002Y0099326D02*
X0243328Y0099326D01*
X0242330Y0098327D02*
X0241002Y0098327D01*
X0241002Y0097329D02*
X0241331Y0097329D01*
X0241247Y0096330D02*
X0241002Y0096330D01*
X0241002Y0095332D02*
X0241247Y0095332D01*
X0241247Y0094333D02*
X0241002Y0094333D01*
X0241002Y0093335D02*
X0241621Y0093335D01*
X0241626Y0092336D02*
X0242620Y0092336D01*
X0242624Y0091337D02*
X0243618Y0091337D01*
X0243623Y0090339D02*
X0257683Y0090339D01*
X0257688Y0089340D02*
X0258455Y0089340D01*
X0261626Y0092336D02*
X0262620Y0092336D01*
X0262624Y0091337D02*
X0263618Y0091337D01*
X0261621Y0093335D02*
X0260627Y0093335D01*
X0261247Y0094333D02*
X0259784Y0094333D01*
X0259784Y0095332D02*
X0261247Y0095332D01*
X0261247Y0096330D02*
X0259784Y0096330D01*
X0259700Y0097329D02*
X0261331Y0097329D01*
X0262330Y0098327D02*
X0258702Y0098327D01*
X0257703Y0099326D02*
X0263328Y0099326D01*
X0274337Y0101323D02*
X0247694Y0101323D01*
X0247694Y0102321D02*
X0275336Y0102321D01*
X0276334Y0103320D02*
X0248022Y0103320D01*
X0249020Y0104318D02*
X0277333Y0104318D01*
X0250019Y0105317D02*
X0357706Y0105317D01*
X0345368Y0123290D02*
X0375609Y0123290D01*
X0375514Y0122291D02*
X0310844Y0122291D01*
X0309845Y0123290D02*
X0341096Y0123290D01*
X0340402Y0124288D02*
X0308847Y0124288D01*
X0307848Y0125287D02*
X0340148Y0125287D01*
X0340213Y0126285D02*
X0306850Y0126285D01*
X0305851Y0127284D02*
X0340639Y0127284D01*
X0326472Y0128282D02*
X0304853Y0128282D01*
X0303854Y0129281D02*
X0325474Y0129281D01*
X0324475Y0130279D02*
X0302856Y0130279D01*
X0301857Y0131278D02*
X0323477Y0131278D01*
X0322478Y0132276D02*
X0300859Y0132276D01*
X0299860Y0133275D02*
X0321480Y0133275D01*
X0320481Y0134273D02*
X0298862Y0134273D01*
X0297863Y0135272D02*
X0319483Y0135272D01*
X0319479Y0136271D02*
X0296865Y0136271D01*
X0295866Y0137269D02*
X0319479Y0137269D01*
X0319479Y0138268D02*
X0294868Y0138268D01*
X0294151Y0139266D02*
X0319479Y0139266D01*
X0318299Y0140265D02*
X0314465Y0140265D01*
X0314532Y0141263D02*
X0318231Y0141263D01*
X0318231Y0142262D02*
X0314532Y0142262D01*
X0314532Y0143260D02*
X0318231Y0143260D01*
X0318231Y0144259D02*
X0314532Y0144259D01*
X0314532Y0145257D02*
X0318231Y0145257D01*
X0318231Y0146256D02*
X0314532Y0146256D01*
X0314532Y0147254D02*
X0318231Y0147254D01*
X0318231Y0148253D02*
X0314532Y0148253D01*
X0313961Y0149251D02*
X0318987Y0149251D01*
X0308961Y0149251D02*
X0306887Y0149251D01*
X0306750Y0150250D02*
X0308961Y0150250D01*
X0308961Y0151248D02*
X0306750Y0151248D01*
X0306750Y0152247D02*
X0308961Y0152247D01*
X0308961Y0153245D02*
X0306750Y0153245D01*
X0306750Y0154244D02*
X0308961Y0154244D01*
X0308961Y0155242D02*
X0306750Y0155242D01*
X0306750Y0156241D02*
X0308961Y0156241D01*
X0308961Y0157239D02*
X0306211Y0157239D01*
X0305212Y0158238D02*
X0308961Y0158238D01*
X0308961Y0159236D02*
X0304214Y0159236D01*
X0303215Y0160235D02*
X0308961Y0160235D01*
X0308961Y0161233D02*
X0302217Y0161233D01*
X0301218Y0162232D02*
X0308492Y0162232D01*
X0306495Y0164229D02*
X0246111Y0164229D01*
X0242035Y0167224D02*
X0173738Y0167224D01*
X0174736Y0168223D02*
X0243034Y0168223D01*
X0244032Y0169221D02*
X0175735Y0169221D01*
X0176733Y0170220D02*
X0315911Y0170220D01*
X0300271Y0157239D02*
X0280851Y0157239D01*
X0279617Y0149251D02*
X0274406Y0149251D01*
X0274401Y0149257D02*
X0275162Y0148495D01*
X0275162Y0140332D01*
X0274401Y0139570D01*
X0269780Y0139570D01*
X0269019Y0140332D01*
X0269019Y0148495D01*
X0269780Y0149257D01*
X0274401Y0149257D01*
X0275162Y0148253D02*
X0278861Y0148253D01*
X0278861Y0147254D02*
X0275162Y0147254D01*
X0275162Y0146256D02*
X0278861Y0146256D01*
X0278861Y0145257D02*
X0275162Y0145257D01*
X0275162Y0144259D02*
X0278861Y0144259D01*
X0278861Y0143260D02*
X0275162Y0143260D01*
X0275162Y0142262D02*
X0278861Y0142262D01*
X0278861Y0141263D02*
X0275162Y0141263D01*
X0275095Y0140265D02*
X0278928Y0140265D01*
X0282418Y0139266D02*
X0230378Y0139266D01*
X0230378Y0138268D02*
X0283416Y0138268D01*
X0284415Y0137269D02*
X0230378Y0137269D01*
X0230378Y0136271D02*
X0285413Y0136271D01*
X0294780Y0140265D02*
X0295511Y0140265D01*
X0295394Y0141263D02*
X0294847Y0141263D01*
X0294847Y0142262D02*
X0295394Y0142262D01*
X0295394Y0143260D02*
X0294847Y0143260D01*
X0298280Y0143260D02*
X0299051Y0143260D01*
X0299051Y0142262D02*
X0298280Y0142262D01*
X0298280Y0141263D02*
X0299051Y0141263D01*
X0299051Y0140265D02*
X0298280Y0140265D01*
X0307575Y0140265D02*
X0308456Y0140265D01*
X0308389Y0141263D02*
X0307643Y0141263D01*
X0307643Y0142262D02*
X0308389Y0142262D01*
X0308389Y0143260D02*
X0307643Y0143260D01*
X0307643Y0144259D02*
X0308389Y0144259D01*
X0308389Y0145257D02*
X0307643Y0145257D01*
X0307643Y0146256D02*
X0308389Y0146256D01*
X0308389Y0147254D02*
X0307643Y0147254D01*
X0307643Y0148253D02*
X0308389Y0148253D01*
X0269775Y0149251D02*
X0231133Y0149251D01*
X0230378Y0148253D02*
X0269019Y0148253D01*
X0269019Y0147254D02*
X0230378Y0147254D01*
X0230378Y0146256D02*
X0269019Y0146256D01*
X0269019Y0145257D02*
X0230378Y0145257D01*
X0230378Y0144259D02*
X0269019Y0144259D01*
X0269019Y0143260D02*
X0230378Y0143260D01*
X0230378Y0142262D02*
X0269019Y0142262D01*
X0269019Y0141263D02*
X0230378Y0141263D01*
X0230378Y0140265D02*
X0269086Y0140265D01*
X0234047Y0159236D02*
X0168088Y0159236D01*
X0168088Y0158238D02*
X0233049Y0158238D01*
X0232050Y0157239D02*
X0168088Y0157239D01*
X0168088Y0156241D02*
X0231052Y0156241D01*
X0230053Y0155242D02*
X0168088Y0155242D01*
X0168088Y0154244D02*
X0229055Y0154244D01*
X0228056Y0153245D02*
X0168088Y0153245D01*
X0168088Y0152247D02*
X0227058Y0152247D01*
X0226059Y0151248D02*
X0168088Y0151248D01*
X0168088Y0150250D02*
X0225469Y0150250D01*
X0225378Y0149251D02*
X0168088Y0149251D01*
X0168088Y0148253D02*
X0225378Y0148253D01*
X0225378Y0147254D02*
X0168088Y0147254D01*
X0168088Y0146256D02*
X0225378Y0146256D01*
X0225378Y0145257D02*
X0168088Y0145257D01*
X0168088Y0144259D02*
X0225378Y0144259D01*
X0225378Y0143260D02*
X0168088Y0143260D01*
X0168088Y0142262D02*
X0225378Y0142262D01*
X0225378Y0141263D02*
X0168088Y0141263D01*
X0168088Y0140265D02*
X0225378Y0140265D01*
X0225378Y0139266D02*
X0168088Y0139266D01*
X0168088Y0138268D02*
X0225378Y0138268D01*
X0225378Y0137269D02*
X0168088Y0137269D01*
X0168088Y0136271D02*
X0225378Y0136271D01*
X0225378Y0135272D02*
X0168088Y0135272D01*
X0168088Y0134273D02*
X0225378Y0134273D01*
X0225378Y0133275D02*
X0168088Y0133275D01*
X0168088Y0132276D02*
X0225378Y0132276D01*
X0225378Y0131278D02*
X0168088Y0131278D01*
X0168088Y0130279D02*
X0225378Y0130279D01*
X0225378Y0129281D02*
X0168088Y0129281D01*
X0168088Y0128282D02*
X0225378Y0128282D01*
X0225378Y0127284D02*
X0168088Y0127284D01*
X0168088Y0126285D02*
X0225378Y0126285D01*
X0225378Y0125287D02*
X0168088Y0125287D01*
X0168088Y0124288D02*
X0225378Y0124288D01*
X0225378Y0123290D02*
X0168088Y0123290D01*
X0168088Y0122291D02*
X0225378Y0122291D01*
X0225378Y0121293D02*
X0168088Y0121293D01*
X0168088Y0120294D02*
X0225378Y0120294D01*
X0225378Y0119296D02*
X0168088Y0119296D01*
X0168088Y0118297D02*
X0225378Y0118297D01*
X0225378Y0117299D02*
X0168088Y0117299D01*
X0168088Y0116300D02*
X0225378Y0116300D01*
X0225378Y0115302D02*
X0168088Y0115302D01*
X0168088Y0114303D02*
X0225378Y0114303D01*
X0225378Y0113305D02*
X0168088Y0113305D01*
X0168088Y0112306D02*
X0225378Y0112306D01*
X0225378Y0111308D02*
X0168088Y0111308D01*
X0168088Y0110309D02*
X0225378Y0110309D01*
X0225378Y0109311D02*
X0168088Y0109311D01*
X0168088Y0108312D02*
X0225378Y0108312D01*
X0225378Y0107314D02*
X0168088Y0107314D01*
X0168088Y0106315D02*
X0225378Y0106315D01*
X0225378Y0105317D02*
X0168088Y0105317D01*
X0168088Y0104318D02*
X0225378Y0104318D01*
X0225378Y0103320D02*
X0168088Y0103320D01*
X0168088Y0102321D02*
X0225378Y0102321D01*
X0225378Y0101323D02*
X0168088Y0101323D01*
X0168088Y0100324D02*
X0225378Y0100324D01*
X0225378Y0099326D02*
X0168176Y0099326D01*
X0169174Y0098327D02*
X0225378Y0098327D01*
X0225378Y0097329D02*
X0170173Y0097329D01*
X0170257Y0096330D02*
X0225378Y0096330D01*
X0225378Y0095332D02*
X0170257Y0095332D01*
X0170257Y0094333D02*
X0225378Y0094333D01*
X0225378Y0093335D02*
X0169883Y0093335D01*
X0168884Y0092336D02*
X0225378Y0092336D01*
X0225378Y0089340D02*
X0168443Y0089340D01*
X0169442Y0088342D02*
X0225378Y0088342D01*
X0225378Y0087343D02*
X0170441Y0087343D01*
X0170457Y0086345D02*
X0225378Y0086345D01*
X0230378Y0086345D02*
X0241247Y0086345D01*
X0241247Y0085346D02*
X0230378Y0085346D01*
X0230378Y0084348D02*
X0241247Y0084348D01*
X0241606Y0083349D02*
X0230378Y0083349D01*
X0230378Y0082351D02*
X0242605Y0082351D01*
X0240679Y0087343D02*
X0230378Y0087343D01*
X0230378Y0088342D02*
X0239680Y0088342D01*
X0238682Y0089340D02*
X0230378Y0089340D01*
X0230378Y0090339D02*
X0237683Y0090339D01*
X0236802Y0091337D02*
X0230378Y0091337D01*
X0230378Y0092336D02*
X0236802Y0092336D01*
X0236802Y0093335D02*
X0230378Y0093335D01*
X0230378Y0094333D02*
X0236802Y0094333D01*
X0236802Y0095332D02*
X0230378Y0095332D01*
X0230378Y0096330D02*
X0236802Y0096330D01*
X0236802Y0097329D02*
X0230378Y0097329D01*
X0230378Y0098327D02*
X0236802Y0098327D01*
X0236802Y0099326D02*
X0230378Y0099326D01*
X0230378Y0100324D02*
X0236802Y0100324D01*
X0236802Y0101323D02*
X0230378Y0101323D01*
X0230378Y0102321D02*
X0236802Y0102321D01*
X0236802Y0103320D02*
X0230378Y0103320D01*
X0230378Y0104318D02*
X0236802Y0104318D01*
X0236802Y0105317D02*
X0230378Y0105317D01*
X0230378Y0106315D02*
X0236802Y0106315D01*
X0236802Y0107314D02*
X0230378Y0107314D01*
X0230378Y0108312D02*
X0236802Y0108312D01*
X0237443Y0109311D02*
X0230378Y0109311D01*
X0230378Y0110309D02*
X0238442Y0110309D01*
X0239440Y0111308D02*
X0230378Y0111308D01*
X0230378Y0112306D02*
X0240439Y0112306D01*
X0241437Y0113305D02*
X0230378Y0113305D01*
X0230378Y0114303D02*
X0242436Y0114303D01*
X0243434Y0115302D02*
X0230378Y0115302D01*
X0230378Y0116300D02*
X0244433Y0116300D01*
X0245431Y0117299D02*
X0230378Y0117299D01*
X0305031Y0084348D02*
X0306000Y0084348D01*
X0306000Y0083349D02*
X0305031Y0083349D01*
X0305031Y0082351D02*
X0306000Y0082351D01*
X0306000Y0081352D02*
X0305031Y0081352D01*
X0285281Y0055391D02*
X0213257Y0055391D01*
X0212259Y0054393D02*
X0284765Y0054393D01*
X0284636Y0053394D02*
X0211260Y0053394D01*
X0210262Y0052396D02*
X0284827Y0052396D01*
X0285430Y0051397D02*
X0209263Y0051397D01*
X0208265Y0050399D02*
X0287072Y0050399D01*
X0288368Y0050399D02*
X0535813Y0050399D01*
X0536811Y0049400D02*
X0207266Y0049400D01*
X0206268Y0048402D02*
X0537810Y0048402D01*
X0538808Y0047403D02*
X0205269Y0047403D01*
X0204271Y0046404D02*
X0539807Y0046404D01*
X0540805Y0045406D02*
X0203272Y0045406D01*
X0202274Y0044407D02*
X0416392Y0044407D01*
X0416342Y0044357D02*
X0416342Y0042970D01*
X0319116Y0042970D01*
X0318601Y0043485D01*
X0317468Y0043954D01*
X0316241Y0043954D01*
X0315107Y0043485D01*
X0314240Y0042617D01*
X0313770Y0041484D01*
X0313770Y0040257D01*
X0314240Y0039123D01*
X0315107Y0038255D01*
X0316241Y0037786D01*
X0317468Y0037786D01*
X0318601Y0038255D01*
X0319116Y0038770D01*
X0416342Y0038770D01*
X0416342Y0037375D01*
X0417103Y0036613D01*
X0423298Y0036613D01*
X0423547Y0036862D01*
X0423796Y0036613D01*
X0429991Y0036613D01*
X0430753Y0037375D01*
X0430753Y0038928D01*
X0439440Y0038928D01*
X0439579Y0038592D01*
X0440789Y0037382D01*
X0442369Y0036728D01*
X0450080Y0036728D01*
X0451660Y0037382D01*
X0452870Y0038592D01*
X0453524Y0040172D01*
X0453524Y0041883D01*
X0452870Y0043463D01*
X0451660Y0044673D01*
X0450080Y0045328D01*
X0442369Y0045328D01*
X0440789Y0044673D01*
X0439579Y0043463D01*
X0439440Y0043128D01*
X0430753Y0043128D01*
X0430753Y0044357D01*
X0429991Y0045119D01*
X0423796Y0045119D01*
X0423547Y0044870D01*
X0423298Y0045119D01*
X0417103Y0045119D01*
X0416342Y0044357D01*
X0416342Y0043409D02*
X0318677Y0043409D01*
X0315031Y0043409D02*
X0201275Y0043409D01*
X0200277Y0042410D02*
X0314154Y0042410D01*
X0313770Y0041412D02*
X0199144Y0041412D01*
X0197200Y0046404D02*
X0181658Y0046404D01*
X0181658Y0040413D02*
X0313770Y0040413D01*
X0314119Y0039415D02*
X0181858Y0039415D01*
X0181858Y0038416D02*
X0314946Y0038416D01*
X0318762Y0038416D02*
X0416342Y0038416D01*
X0416342Y0037418D02*
X0181858Y0037418D01*
X0181858Y0035421D02*
X0519490Y0035421D01*
X0519490Y0036323D02*
X0519490Y0034441D01*
X0524740Y0034441D01*
X0524740Y0033441D01*
X0519490Y0033441D01*
X0519490Y0031559D01*
X0522858Y0028191D01*
X0524740Y0028191D01*
X0524740Y0033441D01*
X0525740Y0033441D01*
X0525740Y0028191D01*
X0527622Y0028191D01*
X0530990Y0031559D01*
X0530990Y0033441D01*
X0525740Y0033441D01*
X0525740Y0034441D01*
X0524740Y0034441D01*
X0524740Y0039691D01*
X0522858Y0039691D01*
X0519490Y0036323D01*
X0519587Y0036419D02*
X0177906Y0036419D01*
X0177905Y0035421D02*
X0176906Y0035421D01*
X0176906Y0036157D02*
X0176906Y0032598D01*
X0174255Y0032598D01*
X0173874Y0032701D01*
X0173532Y0032898D01*
X0173252Y0033177D01*
X0173055Y0033519D01*
X0172953Y0033901D01*
X0172953Y0036157D01*
X0176905Y0036157D01*
X0176905Y0036419D02*
X0138505Y0036419D01*
X0138505Y0037418D02*
X0172953Y0037418D01*
X0172953Y0038416D02*
X0138505Y0038416D01*
X0138505Y0039415D02*
X0148558Y0039415D01*
X0138082Y0035421D02*
X0172953Y0035421D01*
X0172953Y0034422D02*
X0114173Y0034422D01*
X0114173Y0033424D02*
X0173110Y0033424D01*
X0176906Y0033424D02*
X0177905Y0033424D01*
X0177905Y0034422D02*
X0176906Y0034422D01*
X0181701Y0033424D02*
X0439563Y0033424D01*
X0439579Y0033463D02*
X0438924Y0031883D01*
X0438924Y0030172D01*
X0439579Y0028592D01*
X0440789Y0027382D01*
X0442369Y0026728D01*
X0450080Y0026728D01*
X0451660Y0027382D01*
X0452870Y0028592D01*
X0453524Y0030172D01*
X0453524Y0031883D01*
X0452870Y0033463D01*
X0451660Y0034673D01*
X0450080Y0035328D01*
X0442369Y0035328D01*
X0440789Y0034673D01*
X0439579Y0033463D01*
X0439149Y0032425D02*
X0114173Y0032425D01*
X0114170Y0031427D02*
X0438924Y0031427D01*
X0438924Y0030428D02*
X0111582Y0030428D01*
X0111582Y0029430D02*
X0147978Y0029430D01*
X0147938Y0029390D02*
X0147740Y0029047D01*
X0147638Y0028666D01*
X0147638Y0026016D01*
X0153362Y0026016D01*
X0153362Y0029968D01*
X0148940Y0029968D01*
X0148559Y0029866D01*
X0148217Y0029669D01*
X0147938Y0029390D01*
X0147638Y0028431D02*
X0111582Y0028431D01*
X0111582Y0027433D02*
X0147638Y0027433D01*
X0147638Y0026434D02*
X0111582Y0026434D01*
X0112119Y0025436D02*
X0153362Y0025436D01*
X0153362Y0025016D02*
X0147638Y0025016D01*
X0147638Y0022366D01*
X0147740Y0021984D01*
X0147938Y0021642D01*
X0148217Y0021363D01*
X0148559Y0021165D01*
X0148940Y0021063D01*
X0153362Y0021063D01*
X0153362Y0025016D01*
X0153362Y0026016D01*
X0154362Y0026016D01*
X0154362Y0029968D01*
X0158784Y0029968D01*
X0159166Y0029866D01*
X0159508Y0029669D01*
X0159787Y0029390D01*
X0159984Y0029047D01*
X0160087Y0028666D01*
X0160087Y0026016D01*
X0154362Y0026016D01*
X0154362Y0025016D01*
X0154362Y0021063D01*
X0158784Y0021063D01*
X0159166Y0021165D01*
X0159508Y0021363D01*
X0159787Y0021642D01*
X0159984Y0021984D01*
X0160087Y0022366D01*
X0160087Y0025016D01*
X0154362Y0025016D01*
X0153362Y0025016D01*
X0153362Y0024437D02*
X0154362Y0024437D01*
X0154362Y0023439D02*
X0153362Y0023439D01*
X0153362Y0022440D02*
X0154362Y0022440D01*
X0154362Y0021442D02*
X0153362Y0021442D01*
X0154362Y0025436D02*
X0442291Y0025436D01*
X0442171Y0025417D02*
X0441497Y0025198D01*
X0440866Y0024876D01*
X0440293Y0024460D01*
X0439792Y0023959D01*
X0439376Y0023386D01*
X0439054Y0022755D01*
X0438835Y0022081D01*
X0438748Y0021528D01*
X0445724Y0021528D01*
X0445724Y0025528D01*
X0442870Y0025528D01*
X0442171Y0025417D01*
X0440270Y0024437D02*
X0420351Y0024437D01*
X0417295Y0024437D02*
X0160087Y0024437D01*
X0160087Y0023439D02*
X0414080Y0023439D01*
X0412350Y0022440D02*
X0160087Y0022440D01*
X0159587Y0021442D02*
X0411196Y0021442D01*
X0410197Y0020443D02*
X0112682Y0020443D01*
X0112682Y0019445D02*
X0409498Y0019445D01*
X0408921Y0018446D02*
X0112056Y0018446D01*
X0112682Y0021442D02*
X0148138Y0021442D01*
X0147638Y0022440D02*
X0112682Y0022440D01*
X0112682Y0023439D02*
X0147638Y0023439D01*
X0147638Y0024437D02*
X0112682Y0024437D01*
X0104982Y0026434D02*
X0035743Y0026434D01*
X0035954Y0025436D02*
X0091464Y0025436D01*
X0091563Y0025535D02*
X0091284Y0025256D01*
X0091086Y0024914D01*
X0090984Y0024532D01*
X0090984Y0022472D01*
X0095921Y0022472D01*
X0095921Y0021472D01*
X0096921Y0021472D01*
X0096921Y0018110D01*
X0100556Y0018110D01*
X0100937Y0018212D01*
X0101279Y0018410D01*
X0101559Y0018689D01*
X0101756Y0019031D01*
X0101858Y0019413D01*
X0101858Y0021472D01*
X0096921Y0021472D01*
X0096921Y0022472D01*
X0101858Y0022472D01*
X0101858Y0024532D01*
X0101756Y0024914D01*
X0101559Y0025256D01*
X0101279Y0025535D01*
X0100937Y0025732D01*
X0100556Y0025835D01*
X0096921Y0025835D01*
X0096921Y0022472D01*
X0095921Y0022472D01*
X0095921Y0025835D01*
X0092287Y0025835D01*
X0091905Y0025732D01*
X0091563Y0025535D01*
X0090984Y0024437D02*
X0054209Y0024437D01*
X0051153Y0024437D02*
X0036090Y0024437D01*
X0035440Y0027433D02*
X0104982Y0027433D01*
X0104982Y0028431D02*
X0035039Y0028431D01*
X0034539Y0029430D02*
X0104982Y0029430D01*
X0104982Y0030428D02*
X0033928Y0030428D01*
X0033181Y0031427D02*
X0099190Y0031427D01*
X0098191Y0032425D02*
X0032267Y0032425D01*
X0031131Y0033424D02*
X0097193Y0033424D01*
X0096194Y0034422D02*
X0029649Y0034422D01*
X0027497Y0035421D02*
X0095196Y0035421D01*
X0100535Y0039415D02*
X0127243Y0039415D01*
X0127243Y0038416D02*
X0101534Y0038416D01*
X0102890Y0040413D02*
X0099682Y0040413D01*
X0099682Y0041412D02*
X0102773Y0041412D01*
X0102773Y0042410D02*
X0099682Y0042410D01*
X0099682Y0043409D02*
X0102773Y0043409D01*
X0102773Y0044407D02*
X0099682Y0044407D01*
X0099682Y0045406D02*
X0102773Y0045406D01*
X0102773Y0046404D02*
X0099682Y0046404D01*
X0099682Y0047403D02*
X0127243Y0047403D01*
X0127243Y0048402D02*
X0099682Y0048402D01*
X0099682Y0049400D02*
X0102785Y0049400D01*
X0102873Y0049247D02*
X0102675Y0049590D01*
X0102573Y0049971D01*
X0102573Y0052069D01*
X0107973Y0052069D01*
X0107973Y0053068D01*
X0102573Y0053068D01*
X0102573Y0055166D01*
X0102675Y0055547D01*
X0102873Y0055890D01*
X0103152Y0056169D01*
X0103494Y0056366D01*
X0103876Y0056468D01*
X0107973Y0056468D01*
X0107973Y0053069D01*
X0108973Y0053069D01*
X0108973Y0056468D01*
X0113071Y0056468D01*
X0113452Y0056366D01*
X0113794Y0056169D01*
X0114074Y0055890D01*
X0114271Y0055547D01*
X0114373Y0055166D01*
X0114373Y0053068D01*
X0108973Y0053068D01*
X0108973Y0052069D01*
X0114373Y0052069D01*
X0114373Y0049971D01*
X0114271Y0049590D01*
X0114074Y0049247D01*
X0113794Y0048968D01*
X0113452Y0048771D01*
X0113071Y0048669D01*
X0108973Y0048668D01*
X0108973Y0052068D01*
X0107973Y0052068D01*
X0107973Y0048668D01*
X0103876Y0048669D01*
X0103494Y0048771D01*
X0103152Y0048968D01*
X0102873Y0049247D01*
X0102573Y0050399D02*
X0099682Y0050399D01*
X0099682Y0051397D02*
X0102573Y0051397D01*
X0102573Y0053394D02*
X0099682Y0053394D01*
X0099682Y0052396D02*
X0107973Y0052396D01*
X0107973Y0053394D02*
X0108973Y0053394D01*
X0108973Y0052396D02*
X0203191Y0052396D01*
X0204189Y0053394D02*
X0114373Y0053394D01*
X0114373Y0054393D02*
X0205188Y0054393D01*
X0206186Y0055391D02*
X0114313Y0055391D01*
X0113365Y0056390D02*
X0207185Y0056390D01*
X0208183Y0057388D02*
X0099682Y0057388D01*
X0099682Y0056390D02*
X0103581Y0056390D01*
X0102634Y0055391D02*
X0099682Y0055391D01*
X0099682Y0054393D02*
X0102573Y0054393D01*
X0107973Y0054393D02*
X0108973Y0054393D01*
X0108973Y0055391D02*
X0107973Y0055391D01*
X0107973Y0056390D02*
X0108973Y0056390D01*
X0099682Y0058387D02*
X0209182Y0058387D01*
X0210180Y0059385D02*
X0099682Y0059385D01*
X0099682Y0060384D02*
X0211179Y0060384D01*
X0212177Y0061382D02*
X0099682Y0061382D01*
X0099682Y0062381D02*
X0213176Y0062381D01*
X0214174Y0063379D02*
X0099682Y0063379D01*
X0099682Y0064378D02*
X0215173Y0064378D01*
X0216171Y0065376D02*
X0099682Y0065376D01*
X0099682Y0066375D02*
X0217170Y0066375D01*
X0218168Y0067373D02*
X0099682Y0067373D01*
X0099682Y0068372D02*
X0219167Y0068372D01*
X0220165Y0069370D02*
X0099682Y0069370D01*
X0099682Y0070369D02*
X0221164Y0070369D01*
X0222162Y0071367D02*
X0099682Y0071367D01*
X0099682Y0072366D02*
X0223161Y0072366D01*
X0224159Y0073364D02*
X0099682Y0073364D01*
X0099682Y0074363D02*
X0225158Y0074363D01*
X0225378Y0075361D02*
X0099682Y0075361D01*
X0099682Y0076360D02*
X0225378Y0076360D01*
X0225378Y0077358D02*
X0099682Y0077358D01*
X0099682Y0078357D02*
X0225378Y0078357D01*
X0225378Y0079355D02*
X0099682Y0079355D01*
X0107973Y0051397D02*
X0108973Y0051397D01*
X0108973Y0050399D02*
X0107973Y0050399D01*
X0107973Y0049400D02*
X0108973Y0049400D01*
X0114162Y0049400D02*
X0127243Y0049400D01*
X0127243Y0050399D02*
X0114373Y0050399D01*
X0114373Y0051397D02*
X0127547Y0051397D01*
X0138201Y0051397D02*
X0202192Y0051397D01*
X0201194Y0050399D02*
X0138505Y0050399D01*
X0138505Y0049400D02*
X0200195Y0049400D01*
X0199197Y0048402D02*
X0138505Y0048402D01*
X0138505Y0047403D02*
X0148124Y0047403D01*
X0159601Y0047403D02*
X0198198Y0047403D01*
X0181858Y0034422D02*
X0440538Y0034422D01*
X0440753Y0037418D02*
X0430753Y0037418D01*
X0430753Y0038416D02*
X0439754Y0038416D01*
X0439557Y0043409D02*
X0430753Y0043409D01*
X0430703Y0044407D02*
X0440523Y0044407D01*
X0451926Y0044407D02*
X0541804Y0044407D01*
X0542802Y0043409D02*
X0452892Y0043409D01*
X0453306Y0042410D02*
X0543801Y0042410D01*
X0544799Y0041412D02*
X0453524Y0041412D01*
X0453524Y0040413D02*
X0545798Y0040413D01*
X0546796Y0039415D02*
X0527898Y0039415D01*
X0527622Y0039691D02*
X0525740Y0039691D01*
X0525740Y0034441D01*
X0530990Y0034441D01*
X0530990Y0036323D01*
X0527622Y0039691D01*
X0528896Y0038416D02*
X0547795Y0038416D01*
X0548793Y0037418D02*
X0529895Y0037418D01*
X0530893Y0036419D02*
X0549792Y0036419D01*
X0549690Y0035421D02*
X0530990Y0035421D01*
X0530990Y0033424D02*
X0549690Y0033424D01*
X0549690Y0034422D02*
X0525740Y0034422D01*
X0525740Y0033424D02*
X0524740Y0033424D01*
X0524740Y0034422D02*
X0451911Y0034422D01*
X0452886Y0033424D02*
X0519490Y0033424D01*
X0519490Y0032425D02*
X0453300Y0032425D01*
X0453524Y0031427D02*
X0519623Y0031427D01*
X0520621Y0030428D02*
X0453524Y0030428D01*
X0453217Y0029430D02*
X0521620Y0029430D01*
X0522618Y0028431D02*
X0452709Y0028431D01*
X0451711Y0027433D02*
X0581733Y0027433D01*
X0581765Y0027538D02*
X0581394Y0026316D01*
X0581145Y0025063D01*
X0581020Y0023792D01*
X0581020Y0023654D01*
X0593520Y0023654D01*
X0593520Y0036154D01*
X0593381Y0036154D01*
X0592110Y0036028D01*
X0590857Y0035779D01*
X0589635Y0035408D01*
X0588455Y0034920D01*
X0587328Y0034317D01*
X0586266Y0033608D01*
X0585279Y0032798D01*
X0584376Y0031894D01*
X0583565Y0030907D01*
X0582856Y0029845D01*
X0582254Y0028718D01*
X0581765Y0027538D01*
X0582135Y0028431D02*
X0557579Y0028431D01*
X0558578Y0029430D02*
X0582634Y0029430D01*
X0583246Y0030428D02*
X0559576Y0030428D01*
X0560575Y0031427D02*
X0583992Y0031427D01*
X0584907Y0032425D02*
X0560790Y0032425D01*
X0560790Y0033424D02*
X0586042Y0033424D01*
X0587525Y0034422D02*
X0560790Y0034422D01*
X0560790Y0035421D02*
X0589676Y0035421D01*
X0593520Y0035421D02*
X0594520Y0035421D01*
X0594520Y0036154D02*
X0594658Y0036154D01*
X0595929Y0036028D01*
X0597182Y0035779D01*
X0598405Y0035408D01*
X0599585Y0034920D01*
X0600711Y0034317D01*
X0601773Y0033608D01*
X0602760Y0032798D01*
X0603664Y0031894D01*
X0604474Y0030907D01*
X0605184Y0029845D01*
X0605786Y0028718D01*
X0606275Y0027538D01*
X0606645Y0026316D01*
X0606894Y0025063D01*
X0607020Y0023792D01*
X0607020Y0023654D01*
X0594520Y0023654D01*
X0593520Y0023654D01*
X0593520Y0022654D01*
X0581020Y0022654D01*
X0581020Y0022515D01*
X0581145Y0021244D01*
X0581394Y0019991D01*
X0581765Y0018769D01*
X0582254Y0017589D01*
X0582856Y0016462D01*
X0583565Y0015400D01*
X0584376Y0014413D01*
X0585279Y0013510D01*
X0586266Y0012699D01*
X0587328Y0011990D01*
X0588455Y0011388D01*
X0589635Y0010899D01*
X0590857Y0010528D01*
X0592110Y0010279D01*
X0593381Y0010154D01*
X0593520Y0010154D01*
X0593520Y0022653D01*
X0594520Y0022653D01*
X0594520Y0010154D01*
X0594658Y0010154D01*
X0595929Y0010279D01*
X0597182Y0010528D01*
X0598405Y0010899D01*
X0599585Y0011388D01*
X0600711Y0011990D01*
X0601773Y0012699D01*
X0602760Y0013510D01*
X0603664Y0014413D01*
X0604474Y0015400D01*
X0605184Y0016462D01*
X0605786Y0017589D01*
X0606275Y0018769D01*
X0606645Y0019991D01*
X0606894Y0021244D01*
X0607020Y0022515D01*
X0607020Y0022654D01*
X0594520Y0022654D01*
X0594520Y0023654D01*
X0594520Y0036154D01*
X0594520Y0034422D02*
X0593520Y0034422D01*
X0593520Y0033424D02*
X0594520Y0033424D01*
X0594520Y0032425D02*
X0593520Y0032425D01*
X0593520Y0031427D02*
X0594520Y0031427D01*
X0594520Y0030428D02*
X0593520Y0030428D01*
X0593520Y0029430D02*
X0594520Y0029430D01*
X0594520Y0028431D02*
X0593520Y0028431D01*
X0593520Y0027433D02*
X0594520Y0027433D01*
X0594520Y0026434D02*
X0593520Y0026434D01*
X0593520Y0025436D02*
X0594520Y0025436D01*
X0594520Y0024437D02*
X0593520Y0024437D01*
X0593520Y0023439D02*
X0453035Y0023439D01*
X0453073Y0023386D02*
X0452657Y0023959D01*
X0452156Y0024460D01*
X0451583Y0024876D01*
X0450952Y0025198D01*
X0450278Y0025417D01*
X0449579Y0025528D01*
X0446724Y0025528D01*
X0446724Y0021528D01*
X0445724Y0021528D01*
X0445724Y0020528D01*
X0438748Y0020528D01*
X0438835Y0019974D01*
X0439054Y0019300D01*
X0439376Y0018669D01*
X0439792Y0018096D01*
X0440293Y0017595D01*
X0440866Y0017179D01*
X0441497Y0016857D01*
X0442171Y0016638D01*
X0442870Y0016528D01*
X0445724Y0016528D01*
X0445724Y0020527D01*
X0446724Y0020527D01*
X0446724Y0016528D01*
X0449579Y0016528D01*
X0450278Y0016638D01*
X0450952Y0016857D01*
X0451583Y0017179D01*
X0452156Y0017595D01*
X0452657Y0018096D01*
X0453073Y0018669D01*
X0453395Y0019300D01*
X0453614Y0019974D01*
X0453701Y0020528D01*
X0446724Y0020528D01*
X0446724Y0021528D01*
X0453701Y0021528D01*
X0453614Y0022081D01*
X0453395Y0022755D01*
X0453073Y0023386D01*
X0453497Y0022440D02*
X0581027Y0022440D01*
X0581125Y0021442D02*
X0446724Y0021442D01*
X0446724Y0022440D02*
X0445724Y0022440D01*
X0445724Y0021442D02*
X0426450Y0021442D01*
X0427449Y0020443D02*
X0438761Y0020443D01*
X0439007Y0019445D02*
X0428148Y0019445D01*
X0428724Y0018446D02*
X0439538Y0018446D01*
X0440496Y0017448D02*
X0429250Y0017448D01*
X0429518Y0016449D02*
X0582864Y0016449D01*
X0582329Y0017448D02*
X0451953Y0017448D01*
X0452911Y0018446D02*
X0581898Y0018446D01*
X0581560Y0019445D02*
X0453442Y0019445D01*
X0453688Y0020443D02*
X0581304Y0020443D01*
X0581083Y0024437D02*
X0452179Y0024437D01*
X0450158Y0025436D02*
X0581219Y0025436D01*
X0581430Y0026434D02*
X0160087Y0026434D01*
X0160087Y0027433D02*
X0440738Y0027433D01*
X0439740Y0028431D02*
X0160087Y0028431D01*
X0159747Y0029430D02*
X0439232Y0029430D01*
X0439414Y0023439D02*
X0423566Y0023439D01*
X0425296Y0022440D02*
X0438952Y0022440D01*
X0445724Y0023439D02*
X0446724Y0023439D01*
X0446724Y0024437D02*
X0445724Y0024437D01*
X0445724Y0025436D02*
X0446724Y0025436D01*
X0446724Y0020443D02*
X0445724Y0020443D01*
X0445724Y0019445D02*
X0446724Y0019445D01*
X0446724Y0018446D02*
X0445724Y0018446D01*
X0445724Y0017448D02*
X0446724Y0017448D01*
X0429965Y0014452D02*
X0584343Y0014452D01*
X0583532Y0015451D02*
X0429785Y0015451D01*
X0429965Y0013454D02*
X0585347Y0013454D01*
X0586632Y0012455D02*
X0429965Y0012455D01*
X0429862Y0011457D02*
X0588326Y0011457D01*
X0591208Y0010458D02*
X0429594Y0010458D01*
X0429326Y0009460D02*
X0609205Y0009460D01*
X0609205Y0010458D02*
X0596831Y0010458D01*
X0594520Y0010458D02*
X0593520Y0010458D01*
X0593520Y0011457D02*
X0594520Y0011457D01*
X0594520Y0012455D02*
X0593520Y0012455D01*
X0593520Y0013454D02*
X0594520Y0013454D01*
X0594520Y0014452D02*
X0593520Y0014452D01*
X0593520Y0015451D02*
X0594520Y0015451D01*
X0594520Y0016449D02*
X0593520Y0016449D01*
X0593520Y0017448D02*
X0594520Y0017448D01*
X0594520Y0018446D02*
X0593520Y0018446D01*
X0593520Y0019445D02*
X0594520Y0019445D01*
X0594520Y0020443D02*
X0593520Y0020443D01*
X0593520Y0021442D02*
X0594520Y0021442D01*
X0594520Y0022440D02*
X0593520Y0022440D01*
X0594520Y0023439D02*
X0609205Y0023439D01*
X0609205Y0024437D02*
X0606956Y0024437D01*
X0606820Y0025436D02*
X0609205Y0025436D01*
X0609205Y0026434D02*
X0606609Y0026434D01*
X0606307Y0027433D02*
X0609205Y0027433D01*
X0609205Y0028431D02*
X0605905Y0028431D01*
X0605405Y0029430D02*
X0609205Y0029430D01*
X0609205Y0030428D02*
X0604794Y0030428D01*
X0604047Y0031427D02*
X0609205Y0031427D01*
X0609205Y0032425D02*
X0603133Y0032425D01*
X0601997Y0033424D02*
X0609205Y0033424D01*
X0609205Y0034422D02*
X0600515Y0034422D01*
X0598363Y0035421D02*
X0609205Y0035421D01*
X0609205Y0036419D02*
X0560611Y0036419D01*
X0559612Y0037418D02*
X0609205Y0037418D01*
X0609205Y0038416D02*
X0558614Y0038416D01*
X0557615Y0039415D02*
X0609205Y0039415D01*
X0609205Y0040413D02*
X0551738Y0040413D01*
X0552736Y0039415D02*
X0552865Y0039415D01*
X0550739Y0041412D02*
X0609205Y0041412D01*
X0609205Y0042410D02*
X0549740Y0042410D01*
X0548742Y0043409D02*
X0609205Y0043409D01*
X0609205Y0044407D02*
X0547743Y0044407D01*
X0546745Y0045406D02*
X0609205Y0045406D01*
X0609205Y0046404D02*
X0545746Y0046404D01*
X0544748Y0047403D02*
X0609205Y0047403D01*
X0609205Y0048402D02*
X0543749Y0048402D01*
X0542751Y0049400D02*
X0609205Y0049400D01*
X0609205Y0050399D02*
X0541752Y0050399D01*
X0540754Y0051397D02*
X0609205Y0051397D01*
X0609205Y0052396D02*
X0539755Y0052396D01*
X0538757Y0053394D02*
X0609205Y0053394D01*
X0609205Y0054393D02*
X0537758Y0054393D01*
X0536760Y0055391D02*
X0609205Y0055391D01*
X0551902Y0029430D02*
X0528861Y0029430D01*
X0529859Y0030428D02*
X0550904Y0030428D01*
X0549905Y0031427D02*
X0530858Y0031427D01*
X0530990Y0032425D02*
X0549690Y0032425D01*
X0552901Y0028431D02*
X0527862Y0028431D01*
X0525740Y0028431D02*
X0524740Y0028431D01*
X0524740Y0029430D02*
X0525740Y0029430D01*
X0525740Y0030428D02*
X0524740Y0030428D01*
X0524740Y0031427D02*
X0525740Y0031427D01*
X0525740Y0032425D02*
X0524740Y0032425D01*
X0524740Y0035421D02*
X0525740Y0035421D01*
X0525740Y0036419D02*
X0524740Y0036419D01*
X0524740Y0037418D02*
X0525740Y0037418D01*
X0525740Y0038416D02*
X0524740Y0038416D01*
X0524740Y0039415D02*
X0525740Y0039415D01*
X0522582Y0039415D02*
X0453211Y0039415D01*
X0452694Y0038416D02*
X0521584Y0038416D01*
X0520585Y0037418D02*
X0451696Y0037418D01*
X0408396Y0017448D02*
X0063108Y0017448D01*
X0063376Y0016449D02*
X0408128Y0016449D01*
X0407861Y0015451D02*
X0063643Y0015451D01*
X0063824Y0014452D02*
X0407680Y0014452D01*
X0407680Y0013454D02*
X0063824Y0013454D01*
X0063824Y0012455D02*
X0407680Y0012455D01*
X0407784Y0011457D02*
X0063720Y0011457D01*
X0063452Y0010458D02*
X0408052Y0010458D01*
X0408319Y0009460D02*
X0063185Y0009460D01*
X0062747Y0008461D02*
X0408757Y0008461D01*
X0428889Y0008461D02*
X0609205Y0008461D01*
X0609205Y0011457D02*
X0599714Y0011457D01*
X0601408Y0012455D02*
X0609205Y0012455D01*
X0609205Y0013454D02*
X0602692Y0013454D01*
X0603696Y0014452D02*
X0609205Y0014452D01*
X0609205Y0015451D02*
X0604508Y0015451D01*
X0605175Y0016449D02*
X0609205Y0016449D01*
X0609205Y0017448D02*
X0605710Y0017448D01*
X0606141Y0018446D02*
X0609205Y0018446D01*
X0609205Y0019445D02*
X0606480Y0019445D01*
X0606735Y0020443D02*
X0609205Y0020443D01*
X0609205Y0021442D02*
X0606914Y0021442D01*
X0607012Y0022440D02*
X0609205Y0022440D01*
X0488319Y0090339D02*
X0437010Y0090339D01*
X0438008Y0091337D02*
X0487964Y0091337D01*
X0487964Y0092336D02*
X0439007Y0092336D01*
X0440005Y0093335D02*
X0487964Y0093335D01*
X0487964Y0094333D02*
X0441004Y0094333D01*
X0442002Y0095332D02*
X0487964Y0095332D01*
X0487964Y0096330D02*
X0443001Y0096330D01*
X0443999Y0097329D02*
X0487964Y0097329D01*
X0522669Y0107314D02*
X0523638Y0107314D01*
X0523638Y0108312D02*
X0522669Y0108312D01*
X0522669Y0109311D02*
X0523638Y0109311D01*
X0523638Y0110309D02*
X0522669Y0110309D01*
X0522669Y0112306D02*
X0523638Y0112306D01*
X0523638Y0113305D02*
X0522669Y0113305D01*
X0522669Y0114303D02*
X0523638Y0114303D01*
X0523638Y0115302D02*
X0522669Y0115302D01*
X0488422Y0138268D02*
X0417380Y0138268D01*
X0417380Y0139266D02*
X0487964Y0139266D01*
X0487964Y0140265D02*
X0417380Y0140265D01*
X0417380Y0141263D02*
X0487964Y0141263D01*
X0487964Y0142262D02*
X0417380Y0142262D01*
X0417380Y0143260D02*
X0487964Y0143260D01*
X0487964Y0144259D02*
X0417380Y0144259D01*
X0417380Y0145257D02*
X0487964Y0145257D01*
X0487964Y0146256D02*
X0417380Y0146256D01*
X0416983Y0147254D02*
X0487964Y0147254D01*
X0487964Y0148253D02*
X0415985Y0148253D01*
X0414986Y0149251D02*
X0487964Y0149251D01*
X0487964Y0150250D02*
X0413988Y0150250D01*
X0412989Y0151248D02*
X0487964Y0151248D01*
X0462142Y0135272D02*
X0417380Y0135272D01*
X0417380Y0134273D02*
X0461798Y0134273D01*
X0413180Y0134273D02*
X0410199Y0134273D01*
X0410199Y0135272D02*
X0413180Y0135272D01*
X0413180Y0136271D02*
X0410199Y0136271D01*
X0410107Y0137269D02*
X0413180Y0137269D01*
X0413180Y0133275D02*
X0409974Y0133275D01*
X0410100Y0132276D02*
X0413180Y0132276D01*
X0413180Y0131278D02*
X0410199Y0131278D01*
X0410199Y0130279D02*
X0413180Y0130279D01*
X0413180Y0129281D02*
X0410199Y0129281D01*
X0409982Y0128282D02*
X0412498Y0128282D01*
X0399824Y0133275D02*
X0385774Y0133275D01*
X0385900Y0132276D02*
X0394267Y0132276D01*
X0393269Y0131278D02*
X0385999Y0131278D01*
X0385999Y0130279D02*
X0392270Y0130279D01*
X0391272Y0129281D02*
X0385999Y0129281D01*
X0385782Y0128282D02*
X0391132Y0128282D01*
X0385999Y0134273D02*
X0399599Y0134273D01*
X0399599Y0135272D02*
X0385999Y0135272D01*
X0385999Y0136271D02*
X0399599Y0136271D01*
X0399691Y0137269D02*
X0385907Y0137269D01*
X0241037Y0166226D02*
X0172739Y0166226D01*
X0171740Y0165227D02*
X0240038Y0165227D01*
X0239040Y0164229D02*
X0170742Y0164229D01*
X0169743Y0163230D02*
X0238041Y0163230D01*
X0237043Y0162232D02*
X0168745Y0162232D01*
X0168088Y0161233D02*
X0236044Y0161233D01*
X0235046Y0160235D02*
X0168088Y0160235D01*
X0204389Y0221144D02*
X0210029Y0221144D01*
X0208569Y0222142D02*
X0205848Y0222142D01*
X0206730Y0223141D02*
X0207687Y0223141D01*
X0207273Y0224140D02*
X0207144Y0224140D01*
X0237446Y0228134D02*
X0246260Y0228134D01*
X0246260Y0229132D02*
X0237446Y0229132D01*
X0237446Y0230131D02*
X0246260Y0230131D01*
X0246260Y0231129D02*
X0237446Y0231129D01*
X0237446Y0232128D02*
X0246739Y0232128D01*
X0254772Y0230131D02*
X0362402Y0230131D01*
X0362402Y0229132D02*
X0254772Y0229132D01*
X0264516Y0233126D02*
X0354153Y0233126D01*
X0352370Y0234125D02*
X0266300Y0234125D01*
X0267298Y0235123D02*
X0351371Y0235123D01*
X0350558Y0236122D02*
X0268111Y0236122D01*
X0268525Y0237120D02*
X0350144Y0237120D01*
X0349731Y0238119D02*
X0268939Y0238119D01*
X0269130Y0239117D02*
X0349539Y0239117D01*
X0349539Y0240116D02*
X0269130Y0240116D01*
X0269130Y0241114D02*
X0349539Y0241114D01*
X0349758Y0242113D02*
X0268911Y0242113D01*
X0268498Y0243111D02*
X0350172Y0243111D01*
X0350585Y0244110D02*
X0268084Y0244110D01*
X0267232Y0245108D02*
X0351437Y0245108D01*
X0352436Y0246107D02*
X0266234Y0246107D01*
X0264357Y0247105D02*
X0354312Y0247105D01*
X0366157Y0236122D02*
X0367157Y0236122D01*
X0367157Y0235123D02*
X0366157Y0235123D01*
X0366157Y0234125D02*
X0367157Y0234125D01*
X0367157Y0233126D02*
X0366157Y0233126D01*
X0366157Y0232128D02*
X0367157Y0232128D01*
X0367157Y0229132D02*
X0366157Y0229132D01*
X0366157Y0228134D02*
X0367157Y0228134D01*
X0367157Y0227135D02*
X0366157Y0227135D01*
X0370814Y0236122D02*
X0374688Y0236122D01*
X0555018Y0203171D02*
X0560360Y0203171D01*
X0559362Y0202172D02*
X0556016Y0202172D01*
X0556451Y0201174D02*
X0558927Y0201174D01*
X0558735Y0200175D02*
X0556643Y0200175D01*
X0556643Y0199177D02*
X0558735Y0199177D01*
X0558735Y0198178D02*
X0556643Y0198178D01*
X0556643Y0197180D02*
X0558735Y0197180D01*
X0558735Y0196181D02*
X0556643Y0196181D01*
X0556643Y0195183D02*
X0558735Y0195183D01*
X0558735Y0194184D02*
X0556643Y0194184D01*
X0556297Y0193186D02*
X0559081Y0193186D01*
X0559735Y0192187D02*
X0555643Y0192187D01*
X0596109Y0207165D02*
X0609205Y0207165D01*
X0609205Y0208163D02*
X0599405Y0208163D01*
X0601193Y0209162D02*
X0609205Y0209162D01*
X0609205Y0210160D02*
X0602517Y0210160D01*
X0603559Y0211159D02*
X0609205Y0211159D01*
X0609205Y0212157D02*
X0604398Y0212157D01*
X0605079Y0213156D02*
X0609205Y0213156D01*
X0609205Y0214154D02*
X0605634Y0214154D01*
X0606081Y0215153D02*
X0609205Y0215153D01*
X0609205Y0216151D02*
X0606436Y0216151D01*
X0606707Y0217150D02*
X0609205Y0217150D01*
X0609205Y0218148D02*
X0606900Y0218148D01*
X0606998Y0219147D02*
X0609205Y0219147D01*
X0172953Y0039415D02*
X0159167Y0039415D01*
X0154362Y0029430D02*
X0153362Y0029430D01*
X0153362Y0028431D02*
X0154362Y0028431D01*
X0154362Y0027433D02*
X0153362Y0027433D01*
X0153362Y0026434D02*
X0154362Y0026434D01*
X0127666Y0035421D02*
X0114173Y0035421D01*
X0114173Y0036419D02*
X0127243Y0036419D01*
X0127243Y0037418D02*
X0114062Y0037418D01*
X0102771Y0025436D02*
X0101378Y0025436D01*
X0101858Y0024437D02*
X0102208Y0024437D01*
X0102208Y0023439D02*
X0101858Y0023439D01*
X0102208Y0022440D02*
X0096921Y0022440D01*
X0096921Y0021442D02*
X0095921Y0021442D01*
X0095921Y0021472D02*
X0095921Y0018110D01*
X0092287Y0018110D01*
X0091905Y0018212D01*
X0091563Y0018410D01*
X0091284Y0018689D01*
X0091086Y0019031D01*
X0090984Y0019413D01*
X0090984Y0021472D01*
X0095921Y0021472D01*
X0095921Y0022440D02*
X0059154Y0022440D01*
X0060308Y0021442D02*
X0090984Y0021442D01*
X0090984Y0020443D02*
X0061307Y0020443D01*
X0062006Y0019445D02*
X0090984Y0019445D01*
X0091527Y0018446D02*
X0062583Y0018446D01*
X0057424Y0023439D02*
X0090984Y0023439D01*
X0095921Y0023439D02*
X0096921Y0023439D01*
X0096921Y0024437D02*
X0095921Y0024437D01*
X0095921Y0025436D02*
X0096921Y0025436D01*
X0096921Y0020443D02*
X0095921Y0020443D01*
X0095921Y0019445D02*
X0096921Y0019445D01*
X0096921Y0018446D02*
X0095921Y0018446D01*
X0101316Y0018446D02*
X0102833Y0018446D01*
X0102208Y0019445D02*
X0101858Y0019445D01*
X0101858Y0020443D02*
X0102208Y0020443D01*
X0102208Y0021442D02*
X0101858Y0021442D01*
X0016658Y0034422D02*
X0007968Y0034422D01*
X0007968Y0033424D02*
X0015176Y0033424D01*
X0014041Y0032425D02*
X0007968Y0032425D01*
X0007968Y0031427D02*
X0013126Y0031427D01*
X0012379Y0030428D02*
X0007968Y0030428D01*
X0007968Y0029430D02*
X0011768Y0029430D01*
X0011269Y0028431D02*
X0007968Y0028431D01*
X0007968Y0027433D02*
X0010867Y0027433D01*
X0010564Y0026434D02*
X0007968Y0026434D01*
X0007968Y0025436D02*
X0010353Y0025436D01*
D31*
X0096382Y0038902D02*
X0101106Y0034177D01*
X0108282Y0034177D01*
X0108282Y0022809D01*
X0096382Y0038902D02*
X0096382Y0088902D01*
X0102957Y0095476D01*
X0125988Y0095476D01*
X0125988Y0119531D01*
X0091657Y0153862D01*
X0091657Y0187327D01*
X0092051Y0187720D02*
X0092051Y0202287D01*
X0092209Y0202445D02*
X0092209Y0229846D01*
X0108473Y0043469D02*
X0132874Y0043469D01*
X0153705Y0043469D01*
X0153862Y0043626D02*
X0177130Y0043626D01*
D32*
X0177406Y0043350D01*
X0177681Y0043626D01*
X0153862Y0043626D02*
X0153705Y0043469D01*
X0108473Y0034369D02*
X0108282Y0034177D01*
X0108282Y0022809D02*
X0107445Y0021972D01*
X0238902Y0092091D02*
X0245516Y0085476D01*
X0238902Y0092091D02*
X0238902Y0107799D01*
X0246382Y0115280D01*
X0297169Y0115280D01*
X0310161Y0120004D02*
X0292051Y0138114D01*
X0292051Y0144138D01*
X0291776Y0144413D01*
X0281933Y0144413D02*
X0281933Y0142720D01*
X0313311Y0111343D01*
X0359374Y0111343D01*
X0360555Y0110161D01*
X0380522Y0110161D01*
X0380699Y0110339D01*
X0380699Y0115280D02*
X0335752Y0115280D01*
X0358193Y0107799D02*
X0249531Y0107799D01*
X0245594Y0103862D01*
X0245594Y0095555D01*
X0245516Y0095476D01*
X0255516Y0095476D02*
X0260555Y0090437D01*
X0260555Y0078665D01*
X0262917Y0076303D01*
X0370004Y0076303D01*
X0393232Y0099531D01*
X0393232Y0128272D01*
X0395299Y0130339D01*
X0404899Y0130339D01*
X0404899Y0125339D02*
X0412524Y0125339D01*
X0415280Y0128094D01*
X0415280Y0145988D01*
X0398350Y0162917D01*
X0347563Y0162917D01*
X0340673Y0156028D01*
X0340673Y0144413D01*
X0321579Y0144138D02*
X0321579Y0136146D01*
X0327386Y0130339D01*
X0380699Y0130339D01*
X0380699Y0125516D02*
X0343232Y0125516D01*
X0310161Y0120004D02*
X0379846Y0120004D01*
X0380181Y0120339D01*
X0380699Y0120339D01*
X0380699Y0125339D02*
X0380699Y0125516D01*
X0380699Y0135339D02*
X0380699Y0149085D01*
X0380713Y0146343D01*
X0380634Y0149177D01*
X0380634Y0156618D01*
X0351106Y0168429D02*
X0317091Y0168429D01*
X0311461Y0162799D01*
X0304650Y0155831D02*
X0300319Y0160161D01*
X0279846Y0160161D01*
X0304650Y0155831D02*
X0304650Y0149217D01*
X0304571Y0144413D01*
X0321303Y0144413D02*
X0321579Y0144138D01*
X0380699Y0115339D02*
X0380699Y0115280D01*
X0380699Y0105339D02*
X0360654Y0105339D01*
X0358193Y0107799D01*
X0350319Y0083390D02*
X0330634Y0103075D01*
X0279059Y0103075D01*
X0275516Y0099531D01*
X0275516Y0095476D01*
X0275122Y0067642D02*
X0277484Y0065280D01*
X0399925Y0065280D01*
X0437720Y0103075D01*
X0437720Y0120398D01*
X0448744Y0131421D01*
X0466067Y0131421D01*
X0466067Y0111736D02*
X0447957Y0111736D01*
X0444020Y0107799D01*
X0444020Y0100319D01*
X0403075Y0059374D01*
X0268429Y0059374D01*
X0264886Y0062917D01*
X0287720Y0053469D02*
X0535713Y0053469D01*
X0555240Y0033941D01*
X0548350Y0068035D02*
X0553469Y0073154D01*
X0566524Y0073154D01*
X0566657Y0073020D01*
X0573350Y0073020D02*
X0573390Y0073059D01*
X0573390Y0092681D01*
X0583390Y0092681D02*
X0583390Y0197957D01*
X0571972Y0209374D01*
X0548744Y0209374D01*
X0543232Y0203862D01*
X0543232Y0197059D01*
X0542925Y0197366D01*
X0552768Y0197366D02*
X0552768Y0184657D01*
X0548744Y0180634D01*
X0507406Y0180634D01*
X0479846Y0208193D01*
X0446224Y0208193D01*
X0410358Y0198232D02*
X0410161Y0198035D01*
X0410161Y0187720D01*
X0399531Y0177091D01*
X0212130Y0208587D02*
X0212130Y0229768D01*
X0212209Y0229846D01*
X0192209Y0229846D02*
X0192051Y0229689D01*
X0192051Y0203862D01*
X0155988Y0167799D01*
X0155988Y0095476D01*
X0165988Y0095476D02*
X0165988Y0162445D01*
X0212130Y0208587D01*
X0132209Y0229846D02*
X0132209Y0171972D01*
X0145988Y0158193D01*
X0145988Y0095476D01*
X0135988Y0095476D02*
X0135988Y0135909D01*
X0112130Y0159768D01*
X0112130Y0229768D01*
X0112209Y0229846D01*
X0092209Y0202445D02*
X0092051Y0202287D01*
X0092051Y0187720D02*
X0091657Y0187327D01*
X0316854Y0040870D02*
X0420197Y0040870D01*
X0420201Y0040866D01*
X0426894Y0040866D02*
X0427055Y0041028D01*
X0446224Y0041028D01*
X0448744Y0068035D02*
X0548350Y0068035D01*
D33*
X0448744Y0068035D03*
X0350319Y0083390D03*
X0287720Y0053469D03*
X0264886Y0062917D03*
X0275122Y0067642D03*
X0316854Y0040870D03*
X0335752Y0115280D03*
X0343232Y0125516D03*
X0297169Y0115280D03*
X0380634Y0156618D03*
X0351106Y0168429D03*
X0399531Y0177091D03*
X0279846Y0160161D03*
D34*
X0306618Y0167642D02*
X0311461Y0162799D01*
X0311461Y0144413D01*
X0306618Y0167642D02*
X0245988Y0167642D01*
X0227878Y0149531D01*
X0227878Y0073547D01*
X0197957Y0043626D01*
X0177681Y0043626D01*
X0417051Y0198232D02*
X0420673Y0198232D01*
X0440634Y0218193D01*
X0446224Y0218193D01*
M02*
