G75*
%MOIN*%
%OFA0B0*%
%FSLAX25Y25*%
%IPPOS*%
%LPD*%
%AMOC8*
5,1,8,0,0,1.08239X$1,22.5*
%
%ADD10R,0.05937X0.05937*%
%ADD11R,0.12661X0.12661*%
%ADD12C,0.06000*%
%ADD13C,0.19685*%
%ADD14C,0.07874*%
%ADD15C,0.05150*%
%ADD16OC8,0.08500*%
%ADD17C,0.23000*%
%ADD18OC8,0.05937*%
%ADD19C,0.01000*%
%ADD20C,0.01600*%
%ADD21C,0.03569*%
%ADD22C,0.03200*%
D10*
X0466067Y0111736D03*
X0466067Y0121579D03*
X0466067Y0131421D03*
X0523154Y0131421D03*
X0523154Y0111736D03*
D11*
X0495594Y0097563D03*
X0495594Y0145594D03*
D12*
X0573390Y0095681D02*
X0573390Y0089681D01*
X0583390Y0089681D02*
X0583390Y0095681D01*
X0593390Y0095681D02*
X0593390Y0089681D01*
X0449224Y0041028D02*
X0443224Y0041028D01*
X0443224Y0031028D02*
X0449224Y0031028D01*
X0449224Y0021028D02*
X0443224Y0021028D01*
X0443224Y0198193D02*
X0449224Y0198193D01*
X0449224Y0208193D02*
X0443224Y0208193D01*
X0443224Y0218193D02*
X0449224Y0218193D01*
D13*
X0418823Y0229846D03*
X0052681Y0229846D03*
X0052681Y0013311D03*
X0418823Y0013311D03*
D14*
X0232209Y0225909D02*
X0232209Y0233783D01*
X0222209Y0233783D02*
X0222209Y0225909D01*
X0212209Y0225909D02*
X0212209Y0233783D01*
X0202209Y0233783D02*
X0202209Y0225909D01*
X0192209Y0225909D02*
X0192209Y0233783D01*
X0182209Y0233783D02*
X0182209Y0225909D01*
X0172209Y0225909D02*
X0172209Y0233783D01*
X0162209Y0233783D02*
X0162209Y0225909D01*
X0152209Y0225909D02*
X0152209Y0233783D01*
X0142209Y0233783D02*
X0142209Y0225909D01*
X0132209Y0225909D02*
X0132209Y0233783D01*
X0122209Y0233783D02*
X0122209Y0225909D01*
X0112209Y0225909D02*
X0112209Y0233783D01*
X0102209Y0233783D02*
X0102209Y0225909D01*
X0092209Y0225909D02*
X0092209Y0233783D01*
X0082209Y0233783D02*
X0082209Y0225909D01*
D15*
X0533083Y0199941D02*
X0533083Y0194791D01*
X0542925Y0194791D02*
X0542925Y0199941D01*
X0552768Y0199941D02*
X0552768Y0194791D01*
X0562610Y0194791D02*
X0562610Y0199941D01*
D16*
X0555240Y0033941D03*
X0525240Y0033941D03*
D17*
X0594020Y0023154D03*
X0594020Y0220004D03*
X0023154Y0220004D03*
X0023154Y0023154D03*
D18*
X0125988Y0085476D03*
X0135988Y0085476D03*
X0145988Y0085476D03*
X0155988Y0085476D03*
X0165988Y0085476D03*
X0165988Y0095476D03*
X0155988Y0095476D03*
X0145988Y0095476D03*
X0135988Y0095476D03*
X0125988Y0095476D03*
X0245516Y0095476D03*
X0255516Y0095476D03*
X0265516Y0095476D03*
X0275516Y0095476D03*
X0285516Y0095476D03*
X0295516Y0095476D03*
X0305516Y0095476D03*
X0305516Y0085476D03*
X0295516Y0085476D03*
X0285516Y0085476D03*
X0275516Y0085476D03*
X0265516Y0085476D03*
X0255516Y0085476D03*
X0245516Y0085476D03*
D19*
X0007968Y0007968D02*
X0007968Y0235189D01*
X0042899Y0235189D01*
X0042298Y0234147D01*
X0041539Y0231313D01*
X0041539Y0228380D01*
X0042298Y0225546D01*
X0043765Y0223005D01*
X0045839Y0220930D01*
X0048380Y0219463D01*
X0051214Y0218704D01*
X0054148Y0218704D01*
X0056982Y0219463D01*
X0059523Y0220930D01*
X0061597Y0223005D01*
X0063064Y0225546D01*
X0063824Y0228380D01*
X0063824Y0231313D01*
X0063064Y0234147D01*
X0062463Y0235189D01*
X0076949Y0235189D01*
X0076906Y0235057D01*
X0076772Y0234211D01*
X0076772Y0230331D01*
X0081724Y0230331D01*
X0081724Y0229362D01*
X0076772Y0229362D01*
X0076772Y0225482D01*
X0076906Y0224636D01*
X0077170Y0223822D01*
X0077559Y0223060D01*
X0078062Y0222367D01*
X0078667Y0221762D01*
X0079359Y0221259D01*
X0080122Y0220871D01*
X0080935Y0220606D01*
X0081724Y0220481D01*
X0081724Y0229362D01*
X0082693Y0229362D01*
X0082693Y0220481D01*
X0083482Y0220606D01*
X0084296Y0220871D01*
X0085058Y0221259D01*
X0085751Y0221762D01*
X0086356Y0222367D01*
X0086859Y0223060D01*
X0087247Y0223822D01*
X0087316Y0224035D01*
X0087769Y0222943D01*
X0089242Y0221470D01*
X0091167Y0220672D01*
X0093250Y0220672D01*
X0095175Y0221470D01*
X0096648Y0222943D01*
X0097209Y0224296D01*
X0097769Y0222943D01*
X0099242Y0221470D01*
X0101167Y0220672D01*
X0103250Y0220672D01*
X0105175Y0221470D01*
X0106648Y0222943D01*
X0107209Y0224296D01*
X0107769Y0222943D01*
X0109242Y0221470D01*
X0111167Y0220672D01*
X0113250Y0220672D01*
X0115175Y0221470D01*
X0116648Y0222943D01*
X0117209Y0224296D01*
X0117769Y0222943D01*
X0119242Y0221470D01*
X0120660Y0220882D01*
X0120660Y0166378D01*
X0121890Y0165148D01*
X0128928Y0158110D01*
X0128928Y0098574D01*
X0127756Y0099745D01*
X0124220Y0099745D01*
X0121720Y0097244D01*
X0121720Y0093708D01*
X0124220Y0091208D01*
X0127756Y0091208D01*
X0128928Y0092379D01*
X0128928Y0089607D01*
X0130158Y0088376D01*
X0131720Y0086814D01*
X0131720Y0083708D01*
X0134220Y0081208D01*
X0137756Y0081208D01*
X0140257Y0083708D01*
X0140257Y0087244D01*
X0137756Y0089745D01*
X0134729Y0089745D01*
X0133128Y0091346D01*
X0133128Y0092300D01*
X0134220Y0091208D01*
X0137756Y0091208D01*
X0140257Y0093708D01*
X0140257Y0097244D01*
X0137756Y0099745D01*
X0134220Y0099745D01*
X0133128Y0098652D01*
X0133128Y0159850D01*
X0124860Y0168118D01*
X0124860Y0221339D01*
X0125175Y0221470D01*
X0126648Y0222943D01*
X0127209Y0224296D01*
X0127769Y0222943D01*
X0129242Y0221470D01*
X0131167Y0220672D01*
X0133250Y0220672D01*
X0135175Y0221470D01*
X0136648Y0222943D01*
X0137101Y0224035D01*
X0137170Y0223822D01*
X0137559Y0223060D01*
X0138062Y0222367D01*
X0138667Y0221762D01*
X0139359Y0221259D01*
X0140122Y0220871D01*
X0140935Y0220606D01*
X0141724Y0220481D01*
X0141724Y0229362D01*
X0142693Y0229362D01*
X0142693Y0220481D01*
X0143482Y0220606D01*
X0144296Y0220871D01*
X0145058Y0221259D01*
X0145751Y0221762D01*
X0146356Y0222367D01*
X0146859Y0223060D01*
X0147209Y0223746D01*
X0147559Y0223060D01*
X0148062Y0222367D01*
X0148667Y0221762D01*
X0149359Y0221259D01*
X0150122Y0220871D01*
X0150935Y0220606D01*
X0151724Y0220481D01*
X0151724Y0229362D01*
X0146772Y0229362D01*
X0142693Y0229362D01*
X0142693Y0230331D01*
X0151724Y0230331D01*
X0151724Y0229362D01*
X0152693Y0229362D01*
X0152693Y0220481D01*
X0153482Y0220606D01*
X0154296Y0220871D01*
X0155058Y0221259D01*
X0155751Y0221762D01*
X0156356Y0222367D01*
X0156859Y0223060D01*
X0157209Y0223746D01*
X0157559Y0223060D01*
X0158062Y0222367D01*
X0158667Y0221762D01*
X0159359Y0221259D01*
X0160122Y0220871D01*
X0160935Y0220606D01*
X0161724Y0220481D01*
X0161724Y0229362D01*
X0156772Y0229362D01*
X0152693Y0229362D01*
X0152693Y0230331D01*
X0161724Y0230331D01*
X0161724Y0229362D01*
X0162693Y0229362D01*
X0162693Y0220481D01*
X0163482Y0220606D01*
X0164296Y0220871D01*
X0165058Y0221259D01*
X0165751Y0221762D01*
X0166356Y0222367D01*
X0166859Y0223060D01*
X0167209Y0223746D01*
X0167559Y0223060D01*
X0168062Y0222367D01*
X0168667Y0221762D01*
X0169359Y0221259D01*
X0170122Y0220871D01*
X0170935Y0220606D01*
X0171724Y0220481D01*
X0171724Y0229362D01*
X0167646Y0229362D01*
X0162693Y0229362D01*
X0162693Y0230331D01*
X0171724Y0230331D01*
X0171724Y0229362D01*
X0172693Y0229362D01*
X0172693Y0220481D01*
X0173482Y0220606D01*
X0174296Y0220871D01*
X0175058Y0221259D01*
X0175751Y0221762D01*
X0176356Y0222367D01*
X0176859Y0223060D01*
X0177247Y0223822D01*
X0177316Y0224035D01*
X0177769Y0222943D01*
X0179242Y0221470D01*
X0180109Y0221111D01*
X0180109Y0209456D01*
X0149006Y0178354D01*
X0149006Y0098495D01*
X0147756Y0099745D01*
X0144220Y0099745D01*
X0141720Y0097244D01*
X0141720Y0093708D01*
X0144220Y0091208D01*
X0147756Y0091208D01*
X0149006Y0092458D01*
X0149006Y0091346D01*
X0147405Y0089745D01*
X0144220Y0089745D01*
X0141720Y0087244D01*
X0141720Y0083708D01*
X0144220Y0081208D01*
X0147756Y0081208D01*
X0150257Y0083708D01*
X0150257Y0086657D01*
X0151976Y0088376D01*
X0153206Y0089607D01*
X0153206Y0092222D01*
X0154220Y0091208D01*
X0157756Y0091208D01*
X0160257Y0093708D01*
X0160257Y0097244D01*
X0157756Y0099745D01*
X0154220Y0099745D01*
X0153206Y0098731D01*
X0153206Y0176614D01*
X0183079Y0206487D01*
X0184309Y0207717D01*
X0184309Y0221111D01*
X0185175Y0221470D01*
X0186648Y0222943D01*
X0187209Y0224296D01*
X0187769Y0222943D01*
X0189242Y0221470D01*
X0191167Y0220672D01*
X0193250Y0220672D01*
X0195175Y0221470D01*
X0196648Y0222943D01*
X0197209Y0224296D01*
X0197769Y0222943D01*
X0199242Y0221470D01*
X0200187Y0221078D01*
X0200187Y0118118D01*
X0174646Y0092576D01*
X0169125Y0092576D01*
X0170257Y0093708D01*
X0170257Y0097244D01*
X0167756Y0099745D01*
X0164220Y0099745D01*
X0161720Y0097244D01*
X0161720Y0093708D01*
X0162852Y0092576D01*
X0159685Y0092576D01*
X0158455Y0091346D01*
X0156854Y0089745D01*
X0154220Y0089745D01*
X0151720Y0087244D01*
X0151720Y0083708D01*
X0154220Y0081208D01*
X0157756Y0081208D01*
X0160257Y0083708D01*
X0160257Y0087208D01*
X0161425Y0088376D01*
X0162569Y0088376D01*
X0161520Y0087327D01*
X0161520Y0085961D01*
X0165504Y0085961D01*
X0165504Y0084992D01*
X0166472Y0084992D01*
X0166472Y0081008D01*
X0167839Y0081008D01*
X0170457Y0083625D01*
X0170457Y0084992D01*
X0166473Y0084992D01*
X0166473Y0085961D01*
X0170457Y0085961D01*
X0170457Y0087327D01*
X0169408Y0088376D01*
X0176386Y0088376D01*
X0203157Y0115148D01*
X0204387Y0116378D01*
X0204387Y0221143D01*
X0205175Y0221470D01*
X0206648Y0222943D01*
X0207209Y0224296D01*
X0207769Y0222943D01*
X0209242Y0221470D01*
X0211167Y0220672D01*
X0213250Y0220672D01*
X0215175Y0221470D01*
X0216648Y0222943D01*
X0217209Y0224296D01*
X0217769Y0222943D01*
X0219242Y0221470D01*
X0221167Y0220672D01*
X0223250Y0220672D01*
X0225175Y0221470D01*
X0226648Y0222943D01*
X0227209Y0224296D01*
X0227769Y0222943D01*
X0229242Y0221470D01*
X0231167Y0220672D01*
X0233250Y0220672D01*
X0235175Y0221470D01*
X0236648Y0222943D01*
X0237446Y0224868D01*
X0237446Y0234825D01*
X0237295Y0235189D01*
X0240584Y0235189D01*
X0242238Y0235874D01*
X0243504Y0237140D01*
X0244189Y0238794D01*
X0244189Y0258811D01*
X0372984Y0258811D01*
X0372984Y0238794D01*
X0373669Y0237140D01*
X0374935Y0235874D01*
X0376589Y0235189D01*
X0409041Y0235189D01*
X0408440Y0234147D01*
X0407680Y0231313D01*
X0407680Y0228380D01*
X0408440Y0225546D01*
X0409907Y0223005D01*
X0411981Y0220930D01*
X0414522Y0219463D01*
X0417356Y0218704D01*
X0420290Y0218704D01*
X0423124Y0219463D01*
X0425664Y0220930D01*
X0427739Y0223005D01*
X0429206Y0225546D01*
X0429965Y0228380D01*
X0429965Y0231313D01*
X0429206Y0234147D01*
X0428605Y0235189D01*
X0609205Y0235189D01*
X0609205Y0007968D01*
X0428605Y0007968D01*
X0429206Y0009010D01*
X0429965Y0011844D01*
X0429965Y0014778D01*
X0429206Y0017612D01*
X0427739Y0020153D01*
X0425664Y0022227D01*
X0423124Y0023694D01*
X0420290Y0024454D01*
X0417356Y0024454D01*
X0414522Y0023694D01*
X0411981Y0022227D01*
X0409907Y0020153D01*
X0408440Y0017612D01*
X0407680Y0014778D01*
X0407680Y0011844D01*
X0408440Y0009010D01*
X0409041Y0007968D01*
X0062463Y0007968D01*
X0063064Y0009010D01*
X0063824Y0011844D01*
X0063824Y0014778D01*
X0063064Y0017612D01*
X0061597Y0020153D01*
X0059523Y0022227D01*
X0056982Y0023694D01*
X0054148Y0024454D01*
X0051214Y0024454D01*
X0048380Y0023694D01*
X0045839Y0022227D01*
X0043765Y0020153D01*
X0042298Y0017612D01*
X0041539Y0014778D01*
X0041539Y0011844D01*
X0042298Y0009010D01*
X0042899Y0007968D01*
X0007968Y0007968D01*
X0007968Y0008461D02*
X0042615Y0008461D01*
X0042177Y0009460D02*
X0007968Y0009460D01*
X0007968Y0010458D02*
X0020342Y0010458D01*
X0019991Y0010528D02*
X0021244Y0010279D01*
X0022515Y0010154D01*
X0022654Y0010154D01*
X0022654Y0022653D01*
X0023654Y0022653D01*
X0023654Y0022654D02*
X0023654Y0023654D01*
X0036154Y0023654D01*
X0036154Y0023792D01*
X0036028Y0025063D01*
X0035779Y0026316D01*
X0035408Y0027538D01*
X0034920Y0028718D01*
X0034317Y0029845D01*
X0033608Y0030907D01*
X0032798Y0031894D01*
X0031894Y0032798D01*
X0030907Y0033608D01*
X0029845Y0034317D01*
X0028718Y0034920D01*
X0027538Y0035408D01*
X0026316Y0035779D01*
X0025063Y0036028D01*
X0023792Y0036154D01*
X0023654Y0036154D01*
X0023654Y0023654D01*
X0022654Y0023654D01*
X0022654Y0036154D01*
X0022515Y0036154D01*
X0021244Y0036028D01*
X0019991Y0035779D01*
X0018769Y0035408D01*
X0017589Y0034920D01*
X0016462Y0034317D01*
X0015400Y0033608D01*
X0014413Y0032798D01*
X0013510Y0031894D01*
X0012699Y0030907D01*
X0011990Y0029845D01*
X0011388Y0028718D01*
X0010899Y0027538D01*
X0010528Y0026316D01*
X0010279Y0025063D01*
X0010154Y0023792D01*
X0010154Y0023654D01*
X0022653Y0023654D01*
X0022653Y0022654D01*
X0010154Y0022654D01*
X0010154Y0022515D01*
X0010279Y0021244D01*
X0010528Y0019991D01*
X0010899Y0018769D01*
X0011388Y0017589D01*
X0011990Y0016462D01*
X0012699Y0015400D01*
X0013510Y0014413D01*
X0014413Y0013510D01*
X0015400Y0012699D01*
X0016462Y0011990D01*
X0017589Y0011388D01*
X0018769Y0010899D01*
X0019991Y0010528D01*
X0022654Y0010458D02*
X0023654Y0010458D01*
X0023654Y0010154D02*
X0023792Y0010154D01*
X0025063Y0010279D01*
X0026316Y0010528D01*
X0027538Y0010899D01*
X0028718Y0011388D01*
X0029845Y0011990D01*
X0030907Y0012699D01*
X0031894Y0013510D01*
X0032798Y0014413D01*
X0033608Y0015400D01*
X0034317Y0016462D01*
X0034920Y0017589D01*
X0035408Y0018769D01*
X0035779Y0019991D01*
X0036028Y0021244D01*
X0036154Y0022515D01*
X0036154Y0022654D01*
X0023654Y0022654D01*
X0023654Y0022653D02*
X0023654Y0010154D01*
X0023654Y0011457D02*
X0022654Y0011457D01*
X0022654Y0012455D02*
X0023654Y0012455D01*
X0023654Y0013454D02*
X0022654Y0013454D01*
X0022654Y0014452D02*
X0023654Y0014452D01*
X0023654Y0015451D02*
X0022654Y0015451D01*
X0022654Y0016449D02*
X0023654Y0016449D01*
X0023654Y0017448D02*
X0022654Y0017448D01*
X0022654Y0018446D02*
X0023654Y0018446D01*
X0023654Y0019445D02*
X0022654Y0019445D01*
X0022654Y0020443D02*
X0023654Y0020443D01*
X0023654Y0021442D02*
X0022654Y0021442D01*
X0022654Y0022440D02*
X0023654Y0022440D01*
X0023654Y0023439D02*
X0047938Y0023439D01*
X0046208Y0022440D02*
X0036146Y0022440D01*
X0036048Y0021442D02*
X0045054Y0021442D01*
X0044055Y0020443D02*
X0035869Y0020443D01*
X0035613Y0019445D02*
X0043356Y0019445D01*
X0042780Y0018446D02*
X0035275Y0018446D01*
X0034844Y0017448D02*
X0042254Y0017448D01*
X0041986Y0016449D02*
X0034309Y0016449D01*
X0033642Y0015451D02*
X0041719Y0015451D01*
X0041539Y0014452D02*
X0032830Y0014452D01*
X0031826Y0013454D02*
X0041539Y0013454D01*
X0041539Y0012455D02*
X0030542Y0012455D01*
X0028848Y0011457D02*
X0041642Y0011457D01*
X0041910Y0010458D02*
X0025965Y0010458D01*
X0017459Y0011457D02*
X0007968Y0011457D01*
X0007968Y0012455D02*
X0015765Y0012455D01*
X0014481Y0013454D02*
X0007968Y0013454D01*
X0007968Y0014452D02*
X0013477Y0014452D01*
X0012665Y0015451D02*
X0007968Y0015451D01*
X0007968Y0016449D02*
X0011998Y0016449D01*
X0011463Y0017448D02*
X0007968Y0017448D01*
X0007968Y0018446D02*
X0011032Y0018446D01*
X0010694Y0019445D02*
X0007968Y0019445D01*
X0007968Y0020443D02*
X0010438Y0020443D01*
X0010259Y0021442D02*
X0007968Y0021442D01*
X0007968Y0022440D02*
X0010161Y0022440D01*
X0010217Y0024437D02*
X0007968Y0024437D01*
X0007968Y0023439D02*
X0022653Y0023439D01*
X0022654Y0024437D02*
X0023654Y0024437D01*
X0023654Y0025436D02*
X0022654Y0025436D01*
X0022654Y0026434D02*
X0023654Y0026434D01*
X0023654Y0027433D02*
X0022654Y0027433D01*
X0022654Y0028431D02*
X0023654Y0028431D01*
X0023654Y0029430D02*
X0022654Y0029430D01*
X0022654Y0030428D02*
X0023654Y0030428D01*
X0023654Y0031427D02*
X0022654Y0031427D01*
X0022654Y0032425D02*
X0023654Y0032425D01*
X0023654Y0033424D02*
X0022654Y0033424D01*
X0022654Y0034422D02*
X0023654Y0034422D01*
X0023654Y0035421D02*
X0022654Y0035421D01*
X0018810Y0035421D02*
X0007968Y0035421D01*
X0007968Y0036419D02*
X0485812Y0036419D01*
X0484813Y0035421D02*
X0027497Y0035421D01*
X0029649Y0034422D02*
X0440538Y0034422D01*
X0440789Y0034673D02*
X0439579Y0033463D01*
X0438924Y0031883D01*
X0438924Y0030172D01*
X0439579Y0028592D01*
X0440789Y0027382D01*
X0442369Y0026728D01*
X0450080Y0026728D01*
X0451660Y0027382D01*
X0452870Y0028592D01*
X0453009Y0028928D01*
X0484260Y0028928D01*
X0555913Y0100581D01*
X0557143Y0101811D01*
X0557143Y0155355D01*
X0563787Y0161998D01*
X0565017Y0163229D01*
X0565017Y0191719D01*
X0565895Y0192596D01*
X0566485Y0194021D01*
X0566485Y0200712D01*
X0565895Y0202136D01*
X0564805Y0203226D01*
X0563381Y0203816D01*
X0561839Y0203816D01*
X0560415Y0203226D01*
X0559325Y0202136D01*
X0558735Y0200712D01*
X0558735Y0194021D01*
X0559325Y0192596D01*
X0560415Y0191506D01*
X0560817Y0191340D01*
X0560817Y0164968D01*
X0552943Y0157094D01*
X0552943Y0103551D01*
X0482520Y0033128D01*
X0453009Y0033128D01*
X0452870Y0033463D01*
X0451660Y0034673D01*
X0450080Y0035328D01*
X0442369Y0035328D01*
X0440789Y0034673D01*
X0439563Y0033424D02*
X0031131Y0033424D01*
X0032267Y0032425D02*
X0439149Y0032425D01*
X0438924Y0031427D02*
X0033181Y0031427D01*
X0033928Y0030428D02*
X0438924Y0030428D01*
X0439232Y0029430D02*
X0034539Y0029430D01*
X0035039Y0028431D02*
X0439740Y0028431D01*
X0440738Y0027433D02*
X0035440Y0027433D01*
X0035743Y0026434D02*
X0581430Y0026434D01*
X0581394Y0026316D02*
X0581145Y0025063D01*
X0581020Y0023792D01*
X0581020Y0023654D01*
X0593520Y0023654D01*
X0593520Y0036154D01*
X0593381Y0036154D01*
X0592110Y0036028D01*
X0590857Y0035779D01*
X0589635Y0035408D01*
X0588455Y0034920D01*
X0587328Y0034317D01*
X0586266Y0033608D01*
X0585279Y0032798D01*
X0584376Y0031894D01*
X0583565Y0030907D01*
X0582856Y0029845D01*
X0582254Y0028718D01*
X0581765Y0027538D01*
X0581394Y0026316D01*
X0581219Y0025436D02*
X0450158Y0025436D01*
X0450278Y0025417D02*
X0449579Y0025528D01*
X0446724Y0025528D01*
X0446724Y0021528D01*
X0445724Y0021528D01*
X0445724Y0025528D01*
X0442870Y0025528D01*
X0442171Y0025417D01*
X0441497Y0025198D01*
X0440866Y0024876D01*
X0440293Y0024460D01*
X0439792Y0023959D01*
X0439376Y0023386D01*
X0439054Y0022755D01*
X0438835Y0022081D01*
X0438748Y0021528D01*
X0445724Y0021528D01*
X0445724Y0020528D01*
X0438748Y0020528D01*
X0438835Y0019974D01*
X0439054Y0019300D01*
X0439376Y0018669D01*
X0439792Y0018096D01*
X0440293Y0017595D01*
X0440866Y0017179D01*
X0441497Y0016857D01*
X0442171Y0016638D01*
X0442870Y0016528D01*
X0445724Y0016528D01*
X0445724Y0020527D01*
X0446724Y0020527D01*
X0446724Y0016528D01*
X0449579Y0016528D01*
X0450278Y0016638D01*
X0450952Y0016857D01*
X0451583Y0017179D01*
X0452156Y0017595D01*
X0452657Y0018096D01*
X0453073Y0018669D01*
X0453395Y0019300D01*
X0453614Y0019974D01*
X0453701Y0020528D01*
X0446724Y0020528D01*
X0446724Y0021528D01*
X0453701Y0021528D01*
X0453614Y0022081D01*
X0453395Y0022755D01*
X0453073Y0023386D01*
X0452657Y0023959D01*
X0452156Y0024460D01*
X0451583Y0024876D01*
X0450952Y0025198D01*
X0450278Y0025417D01*
X0452179Y0024437D02*
X0581083Y0024437D01*
X0581020Y0022654D02*
X0581020Y0022515D01*
X0581145Y0021244D01*
X0581394Y0019991D01*
X0581765Y0018769D01*
X0582254Y0017589D01*
X0582856Y0016462D01*
X0583565Y0015400D01*
X0584376Y0014413D01*
X0585279Y0013510D01*
X0586266Y0012699D01*
X0587328Y0011990D01*
X0588455Y0011388D01*
X0589635Y0010899D01*
X0590857Y0010528D01*
X0592110Y0010279D01*
X0593381Y0010154D01*
X0593520Y0010154D01*
X0593520Y0022653D01*
X0594520Y0022653D01*
X0594520Y0010154D01*
X0594658Y0010154D01*
X0595929Y0010279D01*
X0597182Y0010528D01*
X0598405Y0010899D01*
X0599585Y0011388D01*
X0600711Y0011990D01*
X0601773Y0012699D01*
X0602760Y0013510D01*
X0603664Y0014413D01*
X0604474Y0015400D01*
X0605184Y0016462D01*
X0605786Y0017589D01*
X0606275Y0018769D01*
X0606645Y0019991D01*
X0606894Y0021244D01*
X0607020Y0022515D01*
X0607020Y0022654D01*
X0594520Y0022654D01*
X0594520Y0023654D01*
X0593520Y0023654D01*
X0593520Y0022654D01*
X0581020Y0022654D01*
X0581027Y0022440D02*
X0453497Y0022440D01*
X0453035Y0023439D02*
X0593520Y0023439D01*
X0593520Y0024437D02*
X0594520Y0024437D01*
X0594520Y0023654D02*
X0594520Y0036154D01*
X0594658Y0036154D01*
X0595929Y0036028D01*
X0597182Y0035779D01*
X0598405Y0035408D01*
X0599585Y0034920D01*
X0600711Y0034317D01*
X0601773Y0033608D01*
X0602760Y0032798D01*
X0603664Y0031894D01*
X0604474Y0030907D01*
X0605184Y0029845D01*
X0605786Y0028718D01*
X0606275Y0027538D01*
X0606645Y0026316D01*
X0606894Y0025063D01*
X0607020Y0023792D01*
X0607020Y0023654D01*
X0594520Y0023654D01*
X0594520Y0023439D02*
X0609205Y0023439D01*
X0609205Y0024437D02*
X0606956Y0024437D01*
X0606820Y0025436D02*
X0609205Y0025436D01*
X0609205Y0026434D02*
X0606609Y0026434D01*
X0606307Y0027433D02*
X0609205Y0027433D01*
X0609205Y0028431D02*
X0605905Y0028431D01*
X0605405Y0029430D02*
X0609205Y0029430D01*
X0609205Y0030428D02*
X0604794Y0030428D01*
X0604047Y0031427D02*
X0609205Y0031427D01*
X0609205Y0032425D02*
X0603133Y0032425D01*
X0601997Y0033424D02*
X0609205Y0033424D01*
X0609205Y0034422D02*
X0600515Y0034422D01*
X0598363Y0035421D02*
X0609205Y0035421D01*
X0609205Y0036419D02*
X0560611Y0036419D01*
X0560790Y0036240D02*
X0557539Y0039491D01*
X0552941Y0039491D01*
X0549690Y0036240D01*
X0549690Y0031642D01*
X0552941Y0028391D01*
X0557539Y0028391D01*
X0560790Y0031642D01*
X0560790Y0036240D01*
X0560790Y0035421D02*
X0589676Y0035421D01*
X0587525Y0034422D02*
X0560790Y0034422D01*
X0560790Y0033424D02*
X0586042Y0033424D01*
X0584907Y0032425D02*
X0560790Y0032425D01*
X0560575Y0031427D02*
X0583992Y0031427D01*
X0583246Y0030428D02*
X0559576Y0030428D01*
X0558578Y0029430D02*
X0582634Y0029430D01*
X0582135Y0028431D02*
X0557579Y0028431D01*
X0552901Y0028431D02*
X0527862Y0028431D01*
X0527622Y0028191D02*
X0530990Y0031559D01*
X0530990Y0033441D01*
X0525740Y0033441D01*
X0525740Y0028191D01*
X0527622Y0028191D01*
X0528861Y0029430D02*
X0551902Y0029430D01*
X0550904Y0030428D02*
X0529859Y0030428D01*
X0530858Y0031427D02*
X0549905Y0031427D01*
X0549690Y0032425D02*
X0530990Y0032425D01*
X0530990Y0033424D02*
X0549690Y0033424D01*
X0549690Y0034422D02*
X0525740Y0034422D01*
X0525740Y0034441D02*
X0530990Y0034441D01*
X0530990Y0036323D01*
X0527622Y0039691D01*
X0525740Y0039691D01*
X0525740Y0034441D01*
X0524740Y0034441D01*
X0524740Y0033441D01*
X0519490Y0033441D01*
X0519490Y0031559D01*
X0522858Y0028191D01*
X0524740Y0028191D01*
X0524740Y0033441D01*
X0525740Y0033441D01*
X0525740Y0034441D01*
X0525740Y0035421D02*
X0524740Y0035421D01*
X0524740Y0034441D02*
X0524740Y0039691D01*
X0522858Y0039691D01*
X0519490Y0036323D01*
X0519490Y0034441D01*
X0524740Y0034441D01*
X0524740Y0034422D02*
X0489754Y0034422D01*
X0488756Y0033424D02*
X0519490Y0033424D01*
X0519490Y0032425D02*
X0487757Y0032425D01*
X0486759Y0031427D02*
X0519623Y0031427D01*
X0520621Y0030428D02*
X0485760Y0030428D01*
X0484762Y0029430D02*
X0521620Y0029430D01*
X0522618Y0028431D02*
X0452709Y0028431D01*
X0451711Y0027433D02*
X0581733Y0027433D01*
X0581125Y0021442D02*
X0446724Y0021442D01*
X0446724Y0022440D02*
X0445724Y0022440D01*
X0445724Y0021442D02*
X0426450Y0021442D01*
X0427449Y0020443D02*
X0438761Y0020443D01*
X0439007Y0019445D02*
X0428148Y0019445D01*
X0428724Y0018446D02*
X0439538Y0018446D01*
X0440496Y0017448D02*
X0429250Y0017448D01*
X0429518Y0016449D02*
X0582864Y0016449D01*
X0582329Y0017448D02*
X0451953Y0017448D01*
X0452911Y0018446D02*
X0581898Y0018446D01*
X0581560Y0019445D02*
X0453442Y0019445D01*
X0453688Y0020443D02*
X0581304Y0020443D01*
X0583532Y0015451D02*
X0429785Y0015451D01*
X0429965Y0014452D02*
X0584343Y0014452D01*
X0585347Y0013454D02*
X0429965Y0013454D01*
X0429965Y0012455D02*
X0586632Y0012455D01*
X0588326Y0011457D02*
X0429862Y0011457D01*
X0429594Y0010458D02*
X0591208Y0010458D01*
X0593520Y0010458D02*
X0594520Y0010458D01*
X0594520Y0011457D02*
X0593520Y0011457D01*
X0593520Y0012455D02*
X0594520Y0012455D01*
X0594520Y0013454D02*
X0593520Y0013454D01*
X0593520Y0014452D02*
X0594520Y0014452D01*
X0594520Y0015451D02*
X0593520Y0015451D01*
X0593520Y0016449D02*
X0594520Y0016449D01*
X0594520Y0017448D02*
X0593520Y0017448D01*
X0593520Y0018446D02*
X0594520Y0018446D01*
X0594520Y0019445D02*
X0593520Y0019445D01*
X0593520Y0020443D02*
X0594520Y0020443D01*
X0594520Y0021442D02*
X0593520Y0021442D01*
X0593520Y0022440D02*
X0594520Y0022440D01*
X0594520Y0025436D02*
X0593520Y0025436D01*
X0593520Y0026434D02*
X0594520Y0026434D01*
X0594520Y0027433D02*
X0593520Y0027433D01*
X0593520Y0028431D02*
X0594520Y0028431D01*
X0594520Y0029430D02*
X0593520Y0029430D01*
X0593520Y0030428D02*
X0594520Y0030428D01*
X0594520Y0031427D02*
X0593520Y0031427D01*
X0593520Y0032425D02*
X0594520Y0032425D01*
X0594520Y0033424D02*
X0593520Y0033424D01*
X0593520Y0034422D02*
X0594520Y0034422D01*
X0594520Y0035421D02*
X0593520Y0035421D01*
X0609205Y0037418D02*
X0559612Y0037418D01*
X0558614Y0038416D02*
X0609205Y0038416D01*
X0609205Y0039415D02*
X0557615Y0039415D01*
X0552865Y0039415D02*
X0527898Y0039415D01*
X0528896Y0038416D02*
X0551867Y0038416D01*
X0550868Y0037418D02*
X0529895Y0037418D01*
X0530893Y0036419D02*
X0549870Y0036419D01*
X0549690Y0035421D02*
X0530990Y0035421D01*
X0525740Y0036419D02*
X0524740Y0036419D01*
X0524740Y0037418D02*
X0525740Y0037418D01*
X0525740Y0038416D02*
X0524740Y0038416D01*
X0524740Y0039415D02*
X0525740Y0039415D01*
X0522582Y0039415D02*
X0494747Y0039415D01*
X0495745Y0040413D02*
X0609205Y0040413D01*
X0609205Y0041412D02*
X0496744Y0041412D01*
X0497742Y0042410D02*
X0609205Y0042410D01*
X0609205Y0043409D02*
X0498741Y0043409D01*
X0499740Y0044407D02*
X0609205Y0044407D01*
X0609205Y0045406D02*
X0500738Y0045406D01*
X0501737Y0046404D02*
X0609205Y0046404D01*
X0609205Y0047403D02*
X0502735Y0047403D01*
X0503734Y0048402D02*
X0609205Y0048402D01*
X0609205Y0049400D02*
X0504732Y0049400D01*
X0505731Y0050399D02*
X0609205Y0050399D01*
X0609205Y0051397D02*
X0506729Y0051397D01*
X0507728Y0052396D02*
X0609205Y0052396D01*
X0609205Y0053394D02*
X0508726Y0053394D01*
X0509725Y0054393D02*
X0609205Y0054393D01*
X0609205Y0055391D02*
X0510723Y0055391D01*
X0511722Y0056390D02*
X0609205Y0056390D01*
X0609205Y0057388D02*
X0512720Y0057388D01*
X0513719Y0058387D02*
X0609205Y0058387D01*
X0609205Y0059385D02*
X0514717Y0059385D01*
X0515716Y0060384D02*
X0609205Y0060384D01*
X0609205Y0061382D02*
X0516714Y0061382D01*
X0517713Y0062381D02*
X0609205Y0062381D01*
X0609205Y0063379D02*
X0518711Y0063379D01*
X0519710Y0064378D02*
X0609205Y0064378D01*
X0609205Y0065376D02*
X0520708Y0065376D01*
X0521707Y0066375D02*
X0609205Y0066375D01*
X0609205Y0067373D02*
X0522705Y0067373D01*
X0523704Y0068372D02*
X0609205Y0068372D01*
X0609205Y0069370D02*
X0524702Y0069370D01*
X0525701Y0070369D02*
X0609205Y0070369D01*
X0609205Y0071367D02*
X0526699Y0071367D01*
X0527698Y0072366D02*
X0609205Y0072366D01*
X0609205Y0073364D02*
X0528696Y0073364D01*
X0529695Y0074363D02*
X0609205Y0074363D01*
X0609205Y0075361D02*
X0530693Y0075361D01*
X0531692Y0076360D02*
X0609205Y0076360D01*
X0609205Y0077358D02*
X0532690Y0077358D01*
X0533689Y0078357D02*
X0609205Y0078357D01*
X0609205Y0079355D02*
X0534687Y0079355D01*
X0535686Y0080354D02*
X0609205Y0080354D01*
X0609205Y0081352D02*
X0536684Y0081352D01*
X0537683Y0082351D02*
X0609205Y0082351D01*
X0609205Y0083349D02*
X0538681Y0083349D01*
X0539680Y0084348D02*
X0609205Y0084348D01*
X0609205Y0085346D02*
X0594611Y0085346D01*
X0594444Y0085292D02*
X0595117Y0085511D01*
X0595748Y0085832D01*
X0596321Y0086249D01*
X0596822Y0086750D01*
X0597238Y0087323D01*
X0597560Y0087954D01*
X0597779Y0088627D01*
X0597890Y0089327D01*
X0597890Y0092181D01*
X0593890Y0092181D01*
X0593890Y0093181D01*
X0597890Y0093181D01*
X0597890Y0096035D01*
X0597779Y0096735D01*
X0597560Y0097409D01*
X0597238Y0098040D01*
X0596822Y0098613D01*
X0596321Y0099113D01*
X0595748Y0099530D01*
X0595117Y0099851D01*
X0594444Y0100070D01*
X0593890Y0100158D01*
X0593890Y0093181D01*
X0592890Y0093181D01*
X0592890Y0100158D01*
X0592336Y0100070D01*
X0591662Y0099851D01*
X0591031Y0099530D01*
X0590458Y0099113D01*
X0589957Y0098613D01*
X0589541Y0098040D01*
X0589219Y0097409D01*
X0589001Y0096735D01*
X0588890Y0096035D01*
X0588890Y0093181D01*
X0592890Y0093181D01*
X0592890Y0092181D01*
X0593890Y0092181D01*
X0593890Y0085204D01*
X0594444Y0085292D01*
X0593890Y0085346D02*
X0592890Y0085346D01*
X0592890Y0085204D02*
X0592890Y0092181D01*
X0588890Y0092181D01*
X0588890Y0089327D01*
X0589001Y0088627D01*
X0589219Y0087954D01*
X0589541Y0087323D01*
X0589957Y0086750D01*
X0590458Y0086249D01*
X0591031Y0085832D01*
X0591662Y0085511D01*
X0592336Y0085292D01*
X0592890Y0085204D01*
X0592168Y0085346D02*
X0540678Y0085346D01*
X0541677Y0086345D02*
X0570645Y0086345D01*
X0570954Y0086036D02*
X0572534Y0085381D01*
X0574245Y0085381D01*
X0575826Y0086036D01*
X0577035Y0087245D01*
X0577690Y0088826D01*
X0577690Y0096536D01*
X0577035Y0098117D01*
X0575826Y0099326D01*
X0580953Y0099326D01*
X0580954Y0099326D02*
X0579744Y0098117D01*
X0579090Y0096536D01*
X0579090Y0088826D01*
X0579744Y0087245D01*
X0580954Y0086036D01*
X0582534Y0085381D01*
X0584245Y0085381D01*
X0585826Y0086036D01*
X0587035Y0087245D01*
X0587690Y0088826D01*
X0587690Y0096536D01*
X0587035Y0098117D01*
X0585826Y0099326D01*
X0590750Y0099326D01*
X0589750Y0098327D02*
X0586825Y0098327D01*
X0587362Y0097329D02*
X0589193Y0097329D01*
X0588936Y0096330D02*
X0587690Y0096330D01*
X0587690Y0095332D02*
X0588890Y0095332D01*
X0588890Y0094333D02*
X0587690Y0094333D01*
X0587690Y0093335D02*
X0588890Y0093335D01*
X0587690Y0092336D02*
X0592890Y0092336D01*
X0592890Y0091337D02*
X0593890Y0091337D01*
X0593890Y0090339D02*
X0592890Y0090339D01*
X0592890Y0089340D02*
X0593890Y0089340D01*
X0593890Y0088342D02*
X0592890Y0088342D01*
X0592890Y0087343D02*
X0593890Y0087343D01*
X0593890Y0086345D02*
X0592890Y0086345D01*
X0590362Y0086345D02*
X0586135Y0086345D01*
X0587076Y0087343D02*
X0589530Y0087343D01*
X0589093Y0088342D02*
X0587489Y0088342D01*
X0587690Y0089340D02*
X0588890Y0089340D01*
X0588890Y0090339D02*
X0587690Y0090339D01*
X0587690Y0091337D02*
X0588890Y0091337D01*
X0592890Y0093335D02*
X0593890Y0093335D01*
X0593890Y0094333D02*
X0592890Y0094333D01*
X0592890Y0095332D02*
X0593890Y0095332D01*
X0593890Y0096330D02*
X0592890Y0096330D01*
X0592890Y0097329D02*
X0593890Y0097329D01*
X0593890Y0098327D02*
X0592890Y0098327D01*
X0592890Y0099326D02*
X0593890Y0099326D01*
X0596029Y0099326D02*
X0609205Y0099326D01*
X0609205Y0100324D02*
X0555656Y0100324D01*
X0554658Y0099326D02*
X0570953Y0099326D01*
X0570954Y0099326D02*
X0569744Y0098117D01*
X0569090Y0096536D01*
X0569090Y0088826D01*
X0569744Y0087245D01*
X0570954Y0086036D01*
X0569704Y0087343D02*
X0542676Y0087343D01*
X0543674Y0088342D02*
X0569290Y0088342D01*
X0569090Y0089340D02*
X0544673Y0089340D01*
X0545671Y0090339D02*
X0569090Y0090339D01*
X0569090Y0091337D02*
X0546670Y0091337D01*
X0547668Y0092336D02*
X0569090Y0092336D01*
X0569090Y0093335D02*
X0548667Y0093335D01*
X0549665Y0094333D02*
X0569090Y0094333D01*
X0569090Y0095332D02*
X0550664Y0095332D01*
X0551662Y0096330D02*
X0569090Y0096330D01*
X0569418Y0097329D02*
X0552661Y0097329D01*
X0553659Y0098327D02*
X0569955Y0098327D01*
X0570954Y0099326D02*
X0572534Y0099981D01*
X0574245Y0099981D01*
X0575826Y0099326D01*
X0576825Y0098327D02*
X0579955Y0098327D01*
X0579418Y0097329D02*
X0577362Y0097329D01*
X0577690Y0096330D02*
X0579090Y0096330D01*
X0579090Y0095332D02*
X0577690Y0095332D01*
X0577690Y0094333D02*
X0579090Y0094333D01*
X0579090Y0093335D02*
X0577690Y0093335D01*
X0577690Y0092336D02*
X0579090Y0092336D01*
X0579090Y0091337D02*
X0577690Y0091337D01*
X0577690Y0090339D02*
X0579090Y0090339D01*
X0579090Y0089340D02*
X0577690Y0089340D01*
X0577489Y0088342D02*
X0579290Y0088342D01*
X0579704Y0087343D02*
X0577076Y0087343D01*
X0576135Y0086345D02*
X0580645Y0086345D01*
X0593890Y0092336D02*
X0609205Y0092336D01*
X0609205Y0091337D02*
X0597890Y0091337D01*
X0597890Y0090339D02*
X0609205Y0090339D01*
X0609205Y0089340D02*
X0597890Y0089340D01*
X0597686Y0088342D02*
X0609205Y0088342D01*
X0609205Y0087343D02*
X0597249Y0087343D01*
X0596418Y0086345D02*
X0609205Y0086345D01*
X0609205Y0093335D02*
X0597890Y0093335D01*
X0597890Y0094333D02*
X0609205Y0094333D01*
X0609205Y0095332D02*
X0597890Y0095332D01*
X0597843Y0096330D02*
X0609205Y0096330D01*
X0609205Y0097329D02*
X0597586Y0097329D01*
X0597030Y0098327D02*
X0609205Y0098327D01*
X0609205Y0101323D02*
X0556655Y0101323D01*
X0557143Y0102321D02*
X0609205Y0102321D01*
X0609205Y0103320D02*
X0557143Y0103320D01*
X0557143Y0104318D02*
X0609205Y0104318D01*
X0609205Y0105317D02*
X0557143Y0105317D01*
X0557143Y0106315D02*
X0609205Y0106315D01*
X0609205Y0107314D02*
X0557143Y0107314D01*
X0557143Y0108312D02*
X0609205Y0108312D01*
X0609205Y0109311D02*
X0557143Y0109311D01*
X0557143Y0110309D02*
X0609205Y0110309D01*
X0609205Y0111308D02*
X0557143Y0111308D01*
X0557143Y0112306D02*
X0609205Y0112306D01*
X0609205Y0113305D02*
X0557143Y0113305D01*
X0557143Y0114303D02*
X0609205Y0114303D01*
X0609205Y0115302D02*
X0557143Y0115302D01*
X0557143Y0116300D02*
X0609205Y0116300D01*
X0609205Y0117299D02*
X0557143Y0117299D01*
X0557143Y0118297D02*
X0609205Y0118297D01*
X0609205Y0119296D02*
X0557143Y0119296D01*
X0557143Y0120294D02*
X0609205Y0120294D01*
X0609205Y0121293D02*
X0557143Y0121293D01*
X0557143Y0122291D02*
X0609205Y0122291D01*
X0609205Y0123290D02*
X0557143Y0123290D01*
X0557143Y0124288D02*
X0609205Y0124288D01*
X0609205Y0125287D02*
X0557143Y0125287D01*
X0557143Y0126285D02*
X0609205Y0126285D01*
X0609205Y0127284D02*
X0557143Y0127284D01*
X0557143Y0128282D02*
X0609205Y0128282D01*
X0609205Y0129281D02*
X0557143Y0129281D01*
X0557143Y0130279D02*
X0609205Y0130279D01*
X0609205Y0131278D02*
X0557143Y0131278D01*
X0557143Y0132276D02*
X0609205Y0132276D01*
X0609205Y0133275D02*
X0557143Y0133275D01*
X0557143Y0134273D02*
X0609205Y0134273D01*
X0609205Y0135272D02*
X0557143Y0135272D01*
X0557143Y0136271D02*
X0609205Y0136271D01*
X0609205Y0137269D02*
X0557143Y0137269D01*
X0557143Y0138268D02*
X0609205Y0138268D01*
X0609205Y0139266D02*
X0557143Y0139266D01*
X0557143Y0140265D02*
X0609205Y0140265D01*
X0609205Y0141263D02*
X0557143Y0141263D01*
X0557143Y0142262D02*
X0609205Y0142262D01*
X0609205Y0143260D02*
X0557143Y0143260D01*
X0557143Y0144259D02*
X0609205Y0144259D01*
X0609205Y0145257D02*
X0557143Y0145257D01*
X0557143Y0146256D02*
X0609205Y0146256D01*
X0609205Y0147254D02*
X0557143Y0147254D01*
X0557143Y0148253D02*
X0609205Y0148253D01*
X0609205Y0149251D02*
X0557143Y0149251D01*
X0557143Y0150250D02*
X0609205Y0150250D01*
X0609205Y0151248D02*
X0557143Y0151248D01*
X0557143Y0152247D02*
X0609205Y0152247D01*
X0609205Y0153245D02*
X0557143Y0153245D01*
X0557143Y0154244D02*
X0609205Y0154244D01*
X0609205Y0155242D02*
X0557143Y0155242D01*
X0558029Y0156241D02*
X0609205Y0156241D01*
X0609205Y0157239D02*
X0559028Y0157239D01*
X0560027Y0158238D02*
X0609205Y0158238D01*
X0609205Y0159236D02*
X0561025Y0159236D01*
X0562024Y0160235D02*
X0609205Y0160235D01*
X0609205Y0161233D02*
X0563022Y0161233D01*
X0564021Y0162232D02*
X0609205Y0162232D01*
X0609205Y0163230D02*
X0565017Y0163230D01*
X0565017Y0164229D02*
X0609205Y0164229D01*
X0609205Y0165227D02*
X0565017Y0165227D01*
X0565017Y0166226D02*
X0609205Y0166226D01*
X0609205Y0167224D02*
X0565017Y0167224D01*
X0565017Y0168223D02*
X0609205Y0168223D01*
X0609205Y0169221D02*
X0565017Y0169221D01*
X0565017Y0170220D02*
X0609205Y0170220D01*
X0609205Y0171218D02*
X0565017Y0171218D01*
X0565017Y0172217D02*
X0609205Y0172217D01*
X0609205Y0173215D02*
X0565017Y0173215D01*
X0565017Y0174214D02*
X0609205Y0174214D01*
X0609205Y0175212D02*
X0565017Y0175212D01*
X0565017Y0176211D02*
X0609205Y0176211D01*
X0609205Y0177209D02*
X0565017Y0177209D01*
X0565017Y0178208D02*
X0609205Y0178208D01*
X0609205Y0179206D02*
X0565017Y0179206D01*
X0565017Y0180205D02*
X0609205Y0180205D01*
X0609205Y0181204D02*
X0565017Y0181204D01*
X0565017Y0182202D02*
X0609205Y0182202D01*
X0609205Y0183201D02*
X0565017Y0183201D01*
X0565017Y0184199D02*
X0609205Y0184199D01*
X0609205Y0185198D02*
X0565017Y0185198D01*
X0565017Y0186196D02*
X0609205Y0186196D01*
X0609205Y0187195D02*
X0565017Y0187195D01*
X0565017Y0188193D02*
X0609205Y0188193D01*
X0609205Y0189192D02*
X0565017Y0189192D01*
X0565017Y0190190D02*
X0609205Y0190190D01*
X0609205Y0191189D02*
X0565017Y0191189D01*
X0565486Y0192187D02*
X0609205Y0192187D01*
X0609205Y0193186D02*
X0566139Y0193186D01*
X0566485Y0194184D02*
X0609205Y0194184D01*
X0609205Y0195183D02*
X0566485Y0195183D01*
X0566485Y0196181D02*
X0609205Y0196181D01*
X0609205Y0197180D02*
X0566485Y0197180D01*
X0566485Y0198178D02*
X0609205Y0198178D01*
X0609205Y0199177D02*
X0566485Y0199177D01*
X0566485Y0200175D02*
X0609205Y0200175D01*
X0609205Y0201174D02*
X0566294Y0201174D01*
X0565859Y0202172D02*
X0609205Y0202172D01*
X0609205Y0203171D02*
X0564860Y0203171D01*
X0560360Y0203171D02*
X0555018Y0203171D01*
X0554963Y0203226D02*
X0553538Y0203816D01*
X0551997Y0203816D01*
X0550573Y0203226D01*
X0549483Y0202136D01*
X0548893Y0200712D01*
X0548893Y0194021D01*
X0549483Y0192596D01*
X0550573Y0191506D01*
X0551997Y0190917D01*
X0553538Y0190917D01*
X0554963Y0191506D01*
X0556053Y0192596D01*
X0556643Y0194021D01*
X0556643Y0200712D01*
X0556053Y0202136D01*
X0554963Y0203226D01*
X0556016Y0202172D02*
X0559362Y0202172D01*
X0558927Y0201174D02*
X0556451Y0201174D01*
X0556643Y0200175D02*
X0558735Y0200175D01*
X0558735Y0199177D02*
X0556643Y0199177D01*
X0556643Y0198178D02*
X0558735Y0198178D01*
X0558735Y0197180D02*
X0556643Y0197180D01*
X0556643Y0196181D02*
X0558735Y0196181D01*
X0558735Y0195183D02*
X0556643Y0195183D01*
X0556643Y0194184D02*
X0558735Y0194184D01*
X0559081Y0193186D02*
X0556297Y0193186D01*
X0555643Y0192187D02*
X0559735Y0192187D01*
X0560817Y0191189D02*
X0554195Y0191189D01*
X0551340Y0191189D02*
X0544353Y0191189D01*
X0543696Y0190917D02*
X0545120Y0191506D01*
X0546210Y0192596D01*
X0546800Y0194021D01*
X0546800Y0200712D01*
X0546210Y0202136D01*
X0545120Y0203226D01*
X0543696Y0203816D01*
X0542154Y0203816D01*
X0540730Y0203226D01*
X0539640Y0202136D01*
X0539050Y0200712D01*
X0539050Y0194021D01*
X0539640Y0192596D01*
X0540730Y0191506D01*
X0542154Y0190917D01*
X0543696Y0190917D01*
X0541498Y0191189D02*
X0534510Y0191189D01*
X0533853Y0190917D02*
X0535278Y0191506D01*
X0536368Y0192596D01*
X0536957Y0194021D01*
X0536957Y0200712D01*
X0536368Y0202136D01*
X0535278Y0203226D01*
X0533853Y0203816D01*
X0532312Y0203816D01*
X0530888Y0203226D01*
X0529798Y0202136D01*
X0529208Y0200712D01*
X0529208Y0200266D01*
X0481829Y0200266D01*
X0480763Y0199825D01*
X0479947Y0199009D01*
X0428963Y0148025D01*
X0428521Y0146959D01*
X0428521Y0113331D01*
X0403055Y0087865D01*
X0386953Y0087865D01*
X0376883Y0097935D01*
X0375817Y0098376D01*
X0308652Y0098376D01*
X0308416Y0098613D01*
X0390953Y0098613D01*
X0392183Y0099843D01*
X0398827Y0106487D01*
X0400057Y0107717D01*
X0400057Y0174006D01*
X0400145Y0174006D01*
X0401279Y0174476D01*
X0402146Y0175343D01*
X0402616Y0176477D01*
X0402616Y0177704D01*
X0402146Y0178838D01*
X0401279Y0179705D01*
X0400145Y0180175D01*
X0398918Y0180175D01*
X0397784Y0179705D01*
X0396917Y0178838D01*
X0396447Y0177704D01*
X0396447Y0176976D01*
X0395857Y0176386D01*
X0395857Y0109456D01*
X0389213Y0102813D01*
X0297874Y0102813D01*
X0296644Y0101582D01*
X0294807Y0099745D01*
X0293748Y0099745D01*
X0291247Y0097244D01*
X0291247Y0093708D01*
X0293748Y0091208D01*
X0297284Y0091208D01*
X0299784Y0093708D01*
X0299784Y0097244D01*
X0299015Y0098014D01*
X0299614Y0098613D01*
X0302615Y0098613D01*
X0301247Y0097244D01*
X0301247Y0093708D01*
X0303748Y0091208D01*
X0307284Y0091208D01*
X0308652Y0092576D01*
X0374039Y0092576D01*
X0384109Y0082506D01*
X0385175Y0082065D01*
X0404833Y0082065D01*
X0405899Y0082506D01*
X0433064Y0109671D01*
X0433880Y0110487D01*
X0434321Y0111553D01*
X0434321Y0145181D01*
X0483607Y0194466D01*
X0529208Y0194466D01*
X0529208Y0194021D01*
X0529798Y0192596D01*
X0530888Y0191506D01*
X0532312Y0190917D01*
X0533853Y0190917D01*
X0531655Y0191189D02*
X0480329Y0191189D01*
X0481328Y0192187D02*
X0530207Y0192187D01*
X0529554Y0193186D02*
X0482326Y0193186D01*
X0483325Y0194184D02*
X0529208Y0194184D01*
X0535958Y0192187D02*
X0540050Y0192187D01*
X0539396Y0193186D02*
X0536612Y0193186D01*
X0536957Y0194184D02*
X0539050Y0194184D01*
X0539050Y0195183D02*
X0536957Y0195183D01*
X0536957Y0196181D02*
X0539050Y0196181D01*
X0539050Y0197180D02*
X0536957Y0197180D01*
X0536957Y0198178D02*
X0539050Y0198178D01*
X0539050Y0199177D02*
X0536957Y0199177D01*
X0536957Y0200175D02*
X0539050Y0200175D01*
X0539242Y0201174D02*
X0536766Y0201174D01*
X0536331Y0202172D02*
X0539677Y0202172D01*
X0540675Y0203171D02*
X0535333Y0203171D01*
X0530833Y0203171D02*
X0204387Y0203171D01*
X0204387Y0204169D02*
X0441702Y0204169D01*
X0442369Y0203893D02*
X0450080Y0203893D01*
X0451660Y0204548D01*
X0452870Y0205757D01*
X0453524Y0207338D01*
X0453524Y0209048D01*
X0452870Y0210629D01*
X0451660Y0211838D01*
X0450080Y0212493D01*
X0442369Y0212493D01*
X0440789Y0211838D01*
X0439579Y0210629D01*
X0438924Y0209048D01*
X0438924Y0207338D01*
X0439579Y0205757D01*
X0440789Y0204548D01*
X0442369Y0203893D01*
X0442870Y0202693D02*
X0442171Y0202582D01*
X0441497Y0202363D01*
X0440866Y0202042D01*
X0440293Y0201625D01*
X0439792Y0201124D01*
X0439376Y0200551D01*
X0439054Y0199920D01*
X0438835Y0199247D01*
X0438748Y0198693D01*
X0445724Y0198693D01*
X0445724Y0197693D01*
X0438748Y0197693D01*
X0438835Y0197139D01*
X0439054Y0196466D01*
X0439376Y0195834D01*
X0439792Y0195261D01*
X0440293Y0194761D01*
X0440866Y0194344D01*
X0441497Y0194023D01*
X0442171Y0193804D01*
X0442870Y0193693D01*
X0445724Y0193693D01*
X0445724Y0197693D01*
X0446724Y0197693D01*
X0446724Y0193693D01*
X0449579Y0193693D01*
X0450278Y0193804D01*
X0450952Y0194023D01*
X0451583Y0194344D01*
X0452156Y0194761D01*
X0452657Y0195261D01*
X0453073Y0195834D01*
X0453395Y0196466D01*
X0453614Y0197139D01*
X0453701Y0197693D01*
X0446724Y0197693D01*
X0446724Y0198693D01*
X0445724Y0198693D01*
X0445724Y0202693D01*
X0442870Y0202693D01*
X0441122Y0202172D02*
X0204387Y0202172D01*
X0204387Y0201174D02*
X0439841Y0201174D01*
X0439184Y0200175D02*
X0204387Y0200175D01*
X0204387Y0199177D02*
X0438824Y0199177D01*
X0438829Y0197180D02*
X0204387Y0197180D01*
X0204387Y0198178D02*
X0445724Y0198178D01*
X0445724Y0197180D02*
X0446724Y0197180D01*
X0446724Y0198178D02*
X0479116Y0198178D01*
X0478118Y0197180D02*
X0453620Y0197180D01*
X0453250Y0196181D02*
X0477119Y0196181D01*
X0476121Y0195183D02*
X0452578Y0195183D01*
X0451269Y0194184D02*
X0475122Y0194184D01*
X0474124Y0193186D02*
X0204387Y0193186D01*
X0204387Y0194184D02*
X0441180Y0194184D01*
X0439871Y0195183D02*
X0204387Y0195183D01*
X0204387Y0196181D02*
X0439199Y0196181D01*
X0445724Y0196181D02*
X0446724Y0196181D01*
X0446724Y0195183D02*
X0445724Y0195183D01*
X0445724Y0194184D02*
X0446724Y0194184D01*
X0446724Y0198693D02*
X0453701Y0198693D01*
X0453614Y0199247D01*
X0453395Y0199920D01*
X0453073Y0200551D01*
X0452657Y0201124D01*
X0452156Y0201625D01*
X0451583Y0202042D01*
X0450952Y0202363D01*
X0450278Y0202582D01*
X0449579Y0202693D01*
X0446724Y0202693D01*
X0446724Y0198693D01*
X0446724Y0199177D02*
X0445724Y0199177D01*
X0445724Y0200175D02*
X0446724Y0200175D01*
X0446724Y0201174D02*
X0445724Y0201174D01*
X0445724Y0202172D02*
X0446724Y0202172D01*
X0450747Y0204169D02*
X0609205Y0204169D01*
X0609205Y0205168D02*
X0452280Y0205168D01*
X0453039Y0206166D02*
X0609205Y0206166D01*
X0609205Y0207165D02*
X0596109Y0207165D01*
X0595929Y0207129D02*
X0597182Y0207378D01*
X0598405Y0207749D01*
X0599585Y0208238D01*
X0600711Y0208840D01*
X0601773Y0209550D01*
X0602760Y0210360D01*
X0603664Y0211263D01*
X0604474Y0212251D01*
X0605184Y0213313D01*
X0605786Y0214439D01*
X0606275Y0215619D01*
X0606645Y0216841D01*
X0606894Y0218094D01*
X0607020Y0219365D01*
X0607020Y0219504D01*
X0594520Y0219504D01*
X0594520Y0220504D01*
X0607020Y0220504D01*
X0607020Y0220643D01*
X0606894Y0221914D01*
X0606645Y0223166D01*
X0606275Y0224389D01*
X0605786Y0225569D01*
X0605184Y0226695D01*
X0604474Y0227757D01*
X0603664Y0228745D01*
X0602760Y0229648D01*
X0601773Y0230458D01*
X0600711Y0231168D01*
X0599585Y0231770D01*
X0598405Y0232259D01*
X0597182Y0232630D01*
X0595929Y0232879D01*
X0594658Y0233004D01*
X0594520Y0233004D01*
X0594520Y0220504D01*
X0593520Y0220504D01*
X0593520Y0233004D01*
X0593381Y0233004D01*
X0592110Y0232879D01*
X0590857Y0232630D01*
X0589635Y0232259D01*
X0588455Y0231770D01*
X0587328Y0231168D01*
X0586266Y0230458D01*
X0585279Y0229648D01*
X0584376Y0228745D01*
X0583565Y0227757D01*
X0582856Y0226695D01*
X0582254Y0225569D01*
X0581765Y0224389D01*
X0581394Y0223166D01*
X0581145Y0221914D01*
X0581020Y0220643D01*
X0581020Y0220504D01*
X0593520Y0220504D01*
X0593520Y0219504D01*
X0594520Y0219504D01*
X0594520Y0207004D01*
X0594658Y0207004D01*
X0595929Y0207129D01*
X0594520Y0207165D02*
X0593520Y0207165D01*
X0593520Y0207004D02*
X0593520Y0219504D01*
X0581020Y0219504D01*
X0581020Y0219365D01*
X0581145Y0218094D01*
X0581394Y0216841D01*
X0581765Y0215619D01*
X0582254Y0214439D01*
X0582856Y0213313D01*
X0583565Y0212251D01*
X0584376Y0211263D01*
X0585279Y0210360D01*
X0586266Y0209550D01*
X0587328Y0208840D01*
X0588455Y0208238D01*
X0589635Y0207749D01*
X0590857Y0207378D01*
X0592110Y0207129D01*
X0593381Y0207004D01*
X0593520Y0207004D01*
X0593520Y0208163D02*
X0594520Y0208163D01*
X0594520Y0209162D02*
X0593520Y0209162D01*
X0593520Y0210160D02*
X0594520Y0210160D01*
X0594520Y0211159D02*
X0593520Y0211159D01*
X0593520Y0212157D02*
X0594520Y0212157D01*
X0594520Y0213156D02*
X0593520Y0213156D01*
X0593520Y0214154D02*
X0594520Y0214154D01*
X0594520Y0215153D02*
X0593520Y0215153D01*
X0593520Y0216151D02*
X0594520Y0216151D01*
X0594520Y0217150D02*
X0593520Y0217150D01*
X0593520Y0218148D02*
X0594520Y0218148D01*
X0594520Y0219147D02*
X0593520Y0219147D01*
X0593520Y0220145D02*
X0453070Y0220145D01*
X0452870Y0220629D02*
X0453524Y0219048D01*
X0453524Y0217338D01*
X0452870Y0215757D01*
X0451660Y0214548D01*
X0450080Y0213893D01*
X0442369Y0213893D01*
X0440789Y0214548D01*
X0439579Y0215757D01*
X0438924Y0217338D01*
X0438924Y0219048D01*
X0439579Y0220629D01*
X0440789Y0221838D01*
X0442369Y0222493D01*
X0450080Y0222493D01*
X0451660Y0221838D01*
X0452870Y0220629D01*
X0452354Y0221144D02*
X0581069Y0221144D01*
X0581190Y0222142D02*
X0450926Y0222142D01*
X0453484Y0219147D02*
X0581041Y0219147D01*
X0581140Y0218148D02*
X0453524Y0218148D01*
X0453447Y0217150D02*
X0581333Y0217150D01*
X0581603Y0216151D02*
X0453033Y0216151D01*
X0452266Y0215153D02*
X0581958Y0215153D01*
X0582406Y0214154D02*
X0450711Y0214154D01*
X0450890Y0212157D02*
X0583642Y0212157D01*
X0582960Y0213156D02*
X0204387Y0213156D01*
X0204387Y0214154D02*
X0441738Y0214154D01*
X0440183Y0215153D02*
X0204387Y0215153D01*
X0204387Y0216151D02*
X0439416Y0216151D01*
X0439002Y0217150D02*
X0204387Y0217150D01*
X0204387Y0218148D02*
X0438924Y0218148D01*
X0438965Y0219147D02*
X0421943Y0219147D01*
X0424305Y0220145D02*
X0439379Y0220145D01*
X0440094Y0221144D02*
X0425878Y0221144D01*
X0426877Y0222142D02*
X0441523Y0222142D01*
X0429364Y0226137D02*
X0582557Y0226137D01*
X0582075Y0225138D02*
X0428971Y0225138D01*
X0428394Y0224140D02*
X0581689Y0224140D01*
X0581389Y0223141D02*
X0427818Y0223141D01*
X0429632Y0227135D02*
X0583150Y0227135D01*
X0583874Y0228134D02*
X0429899Y0228134D01*
X0429965Y0229132D02*
X0584763Y0229132D01*
X0585867Y0230131D02*
X0429965Y0230131D01*
X0429965Y0231129D02*
X0587270Y0231129D01*
X0589318Y0232128D02*
X0429747Y0232128D01*
X0429480Y0233126D02*
X0609205Y0233126D01*
X0609205Y0232128D02*
X0598721Y0232128D01*
X0600769Y0231129D02*
X0609205Y0231129D01*
X0609205Y0230131D02*
X0602172Y0230131D01*
X0603276Y0229132D02*
X0609205Y0229132D01*
X0609205Y0228134D02*
X0604165Y0228134D01*
X0604890Y0227135D02*
X0609205Y0227135D01*
X0609205Y0226137D02*
X0605482Y0226137D01*
X0605964Y0225138D02*
X0609205Y0225138D01*
X0609205Y0224140D02*
X0606350Y0224140D01*
X0606650Y0223141D02*
X0609205Y0223141D01*
X0609205Y0222142D02*
X0606849Y0222142D01*
X0606970Y0221144D02*
X0609205Y0221144D01*
X0609205Y0220145D02*
X0594520Y0220145D01*
X0594520Y0221144D02*
X0593520Y0221144D01*
X0593520Y0222142D02*
X0594520Y0222142D01*
X0594520Y0223141D02*
X0593520Y0223141D01*
X0593520Y0224140D02*
X0594520Y0224140D01*
X0594520Y0225138D02*
X0593520Y0225138D01*
X0593520Y0226137D02*
X0594520Y0226137D01*
X0594520Y0227135D02*
X0593520Y0227135D01*
X0593520Y0228134D02*
X0594520Y0228134D01*
X0594520Y0229132D02*
X0593520Y0229132D01*
X0593520Y0230131D02*
X0594520Y0230131D01*
X0594520Y0231129D02*
X0593520Y0231129D01*
X0593520Y0232128D02*
X0594520Y0232128D01*
X0609205Y0234125D02*
X0429212Y0234125D01*
X0428643Y0235123D02*
X0609205Y0235123D01*
X0609205Y0219147D02*
X0606998Y0219147D01*
X0606900Y0218148D02*
X0609205Y0218148D01*
X0609205Y0217150D02*
X0606707Y0217150D01*
X0606436Y0216151D02*
X0609205Y0216151D01*
X0609205Y0215153D02*
X0606081Y0215153D01*
X0605634Y0214154D02*
X0609205Y0214154D01*
X0609205Y0213156D02*
X0605079Y0213156D01*
X0604398Y0212157D02*
X0609205Y0212157D01*
X0609205Y0211159D02*
X0603559Y0211159D01*
X0602517Y0210160D02*
X0609205Y0210160D01*
X0609205Y0209162D02*
X0601193Y0209162D01*
X0599405Y0208163D02*
X0609205Y0208163D01*
X0591930Y0207165D02*
X0453453Y0207165D01*
X0453524Y0208163D02*
X0588635Y0208163D01*
X0586847Y0209162D02*
X0453477Y0209162D01*
X0453064Y0210160D02*
X0585522Y0210160D01*
X0584480Y0211159D02*
X0452340Y0211159D01*
X0441559Y0212157D02*
X0204387Y0212157D01*
X0204387Y0211159D02*
X0440109Y0211159D01*
X0439385Y0210160D02*
X0204387Y0210160D01*
X0204387Y0209162D02*
X0438971Y0209162D01*
X0438924Y0208163D02*
X0204387Y0208163D01*
X0204387Y0207165D02*
X0438996Y0207165D01*
X0439410Y0206166D02*
X0204387Y0206166D01*
X0204387Y0205168D02*
X0440168Y0205168D01*
X0451327Y0202172D02*
X0529834Y0202172D01*
X0529399Y0201174D02*
X0452608Y0201174D01*
X0453265Y0200175D02*
X0481609Y0200175D01*
X0480115Y0199177D02*
X0453625Y0199177D01*
X0470130Y0189192D02*
X0204387Y0189192D01*
X0204387Y0190190D02*
X0471128Y0190190D01*
X0472127Y0191189D02*
X0204387Y0191189D01*
X0204387Y0192187D02*
X0473125Y0192187D01*
X0478332Y0189192D02*
X0560817Y0189192D01*
X0560817Y0190190D02*
X0479331Y0190190D01*
X0477334Y0188193D02*
X0560817Y0188193D01*
X0560817Y0187195D02*
X0476335Y0187195D01*
X0475337Y0186196D02*
X0560817Y0186196D01*
X0560817Y0185198D02*
X0474338Y0185198D01*
X0473340Y0184199D02*
X0560817Y0184199D01*
X0560817Y0183201D02*
X0472341Y0183201D01*
X0471343Y0182202D02*
X0560817Y0182202D01*
X0560817Y0181204D02*
X0470344Y0181204D01*
X0469346Y0180205D02*
X0560817Y0180205D01*
X0560817Y0179206D02*
X0468347Y0179206D01*
X0467349Y0178208D02*
X0560817Y0178208D01*
X0560817Y0177209D02*
X0466350Y0177209D01*
X0465352Y0176211D02*
X0560817Y0176211D01*
X0560817Y0175212D02*
X0464353Y0175212D01*
X0463355Y0174214D02*
X0560817Y0174214D01*
X0560817Y0173215D02*
X0462356Y0173215D01*
X0461358Y0172217D02*
X0560817Y0172217D01*
X0560817Y0171218D02*
X0460359Y0171218D01*
X0459360Y0170220D02*
X0560817Y0170220D01*
X0560817Y0169221D02*
X0458362Y0169221D01*
X0457363Y0168223D02*
X0560817Y0168223D01*
X0560817Y0167224D02*
X0456365Y0167224D01*
X0455366Y0166226D02*
X0560817Y0166226D01*
X0560817Y0165227D02*
X0454368Y0165227D01*
X0453369Y0164229D02*
X0560078Y0164229D01*
X0559079Y0163230D02*
X0452371Y0163230D01*
X0451372Y0162232D02*
X0558081Y0162232D01*
X0557082Y0161233D02*
X0450374Y0161233D01*
X0449375Y0160235D02*
X0556084Y0160235D01*
X0555085Y0159236D02*
X0448377Y0159236D01*
X0447378Y0158238D02*
X0554087Y0158238D01*
X0553088Y0157239D02*
X0446380Y0157239D01*
X0445381Y0156241D02*
X0552943Y0156241D01*
X0552943Y0155242D02*
X0444383Y0155242D01*
X0443384Y0154244D02*
X0552943Y0154244D01*
X0552943Y0153245D02*
X0442386Y0153245D01*
X0441387Y0152247D02*
X0487964Y0152247D01*
X0487964Y0152464D02*
X0487964Y0138725D01*
X0488725Y0137964D01*
X0502464Y0137964D01*
X0503225Y0138725D01*
X0503225Y0152464D01*
X0502464Y0153225D01*
X0488725Y0153225D01*
X0487964Y0152464D01*
X0487964Y0151248D02*
X0440389Y0151248D01*
X0439390Y0150250D02*
X0487964Y0150250D01*
X0487964Y0149251D02*
X0438392Y0149251D01*
X0437393Y0148253D02*
X0487964Y0148253D01*
X0487964Y0147254D02*
X0436395Y0147254D01*
X0435396Y0146256D02*
X0487964Y0146256D01*
X0487964Y0145257D02*
X0434398Y0145257D01*
X0434321Y0144259D02*
X0487964Y0144259D01*
X0487964Y0143260D02*
X0434321Y0143260D01*
X0434321Y0142262D02*
X0487964Y0142262D01*
X0487964Y0141263D02*
X0434321Y0141263D01*
X0434321Y0140265D02*
X0487964Y0140265D01*
X0487964Y0139266D02*
X0434321Y0139266D01*
X0434321Y0138268D02*
X0488422Y0138268D01*
X0496812Y0131278D02*
X0470335Y0131278D01*
X0470335Y0132276D02*
X0497811Y0132276D01*
X0497825Y0132291D02*
X0447087Y0081553D01*
X0362606Y0081553D01*
X0358669Y0085490D01*
X0352581Y0085490D01*
X0352066Y0086004D01*
X0350932Y0086474D01*
X0349705Y0086474D01*
X0348572Y0086004D01*
X0347704Y0085137D01*
X0347235Y0084003D01*
X0347235Y0082776D01*
X0347704Y0081643D01*
X0348572Y0080775D01*
X0349705Y0080306D01*
X0350932Y0080306D01*
X0352066Y0080775D01*
X0352581Y0081290D01*
X0356929Y0081290D01*
X0359636Y0078583D01*
X0360866Y0077353D01*
X0448827Y0077353D01*
X0500795Y0129321D01*
X0518885Y0129321D01*
X0518885Y0127914D01*
X0519647Y0127153D01*
X0526661Y0127153D01*
X0527422Y0127914D01*
X0527422Y0134928D01*
X0526661Y0135690D01*
X0519647Y0135690D01*
X0518885Y0134928D01*
X0518885Y0133521D01*
X0499055Y0133521D01*
X0497825Y0132291D01*
X0498809Y0133275D02*
X0470335Y0133275D01*
X0470335Y0134273D02*
X0518885Y0134273D01*
X0519229Y0135272D02*
X0469992Y0135272D01*
X0470335Y0134928D02*
X0469574Y0135690D01*
X0462560Y0135690D01*
X0461798Y0134928D01*
X0461798Y0127914D01*
X0462560Y0127153D01*
X0469574Y0127153D01*
X0470335Y0127914D01*
X0470335Y0134928D01*
X0462142Y0135272D02*
X0434321Y0135272D01*
X0434321Y0134273D02*
X0461798Y0134273D01*
X0461798Y0133275D02*
X0434321Y0133275D01*
X0434321Y0132276D02*
X0461798Y0132276D01*
X0461798Y0131278D02*
X0434321Y0131278D01*
X0434321Y0130279D02*
X0461798Y0130279D01*
X0461798Y0129281D02*
X0434321Y0129281D01*
X0434321Y0128282D02*
X0461798Y0128282D01*
X0462429Y0127284D02*
X0434321Y0127284D01*
X0434321Y0126285D02*
X0491819Y0126285D01*
X0490821Y0125287D02*
X0470340Y0125287D01*
X0470433Y0125126D02*
X0470236Y0125468D01*
X0469956Y0125748D01*
X0469614Y0125945D01*
X0469233Y0126047D01*
X0466551Y0126047D01*
X0466551Y0122063D01*
X0465583Y0122063D01*
X0465583Y0126047D01*
X0462901Y0126047D01*
X0462519Y0125945D01*
X0462177Y0125748D01*
X0461898Y0125468D01*
X0461701Y0125126D01*
X0461598Y0124745D01*
X0461598Y0122063D01*
X0465583Y0122063D01*
X0465583Y0121094D01*
X0466551Y0121094D01*
X0466551Y0117110D01*
X0469233Y0117110D01*
X0469614Y0117212D01*
X0469956Y0117410D01*
X0470236Y0117689D01*
X0470433Y0118031D01*
X0470535Y0118413D01*
X0470535Y0121094D01*
X0466551Y0121094D01*
X0466551Y0122063D01*
X0470535Y0122063D01*
X0470535Y0124745D01*
X0470433Y0125126D01*
X0470535Y0124288D02*
X0489822Y0124288D01*
X0488824Y0123290D02*
X0470535Y0123290D01*
X0470535Y0122291D02*
X0487825Y0122291D01*
X0486827Y0121293D02*
X0466551Y0121293D01*
X0465583Y0121293D02*
X0434321Y0121293D01*
X0434321Y0122291D02*
X0461598Y0122291D01*
X0461598Y0123290D02*
X0434321Y0123290D01*
X0434321Y0124288D02*
X0461598Y0124288D01*
X0461793Y0125287D02*
X0434321Y0125287D01*
X0428521Y0125287D02*
X0400057Y0125287D01*
X0400057Y0126285D02*
X0428521Y0126285D01*
X0428521Y0127284D02*
X0400057Y0127284D01*
X0400057Y0128282D02*
X0428521Y0128282D01*
X0428521Y0129281D02*
X0400057Y0129281D01*
X0400057Y0130279D02*
X0428521Y0130279D01*
X0428521Y0131278D02*
X0400057Y0131278D01*
X0400057Y0132276D02*
X0428521Y0132276D01*
X0428521Y0133275D02*
X0400057Y0133275D01*
X0400057Y0134273D02*
X0428521Y0134273D01*
X0428521Y0135272D02*
X0400057Y0135272D01*
X0400057Y0136271D02*
X0428521Y0136271D01*
X0428521Y0137269D02*
X0400057Y0137269D01*
X0400057Y0138268D02*
X0428521Y0138268D01*
X0428521Y0139266D02*
X0400057Y0139266D01*
X0400057Y0140265D02*
X0428521Y0140265D01*
X0428521Y0141263D02*
X0400057Y0141263D01*
X0400057Y0142262D02*
X0428521Y0142262D01*
X0428521Y0143260D02*
X0400057Y0143260D01*
X0400057Y0144259D02*
X0428521Y0144259D01*
X0428521Y0145257D02*
X0400057Y0145257D01*
X0400057Y0146256D02*
X0428521Y0146256D01*
X0428644Y0147254D02*
X0400057Y0147254D01*
X0400057Y0148253D02*
X0429191Y0148253D01*
X0430189Y0149251D02*
X0400057Y0149251D01*
X0400057Y0150250D02*
X0431188Y0150250D01*
X0432186Y0151248D02*
X0400057Y0151248D01*
X0400057Y0152247D02*
X0433185Y0152247D01*
X0434183Y0153245D02*
X0400057Y0153245D01*
X0400057Y0154244D02*
X0435182Y0154244D01*
X0436180Y0155242D02*
X0400057Y0155242D01*
X0400057Y0156241D02*
X0437179Y0156241D01*
X0438177Y0157239D02*
X0400057Y0157239D01*
X0400057Y0158238D02*
X0439176Y0158238D01*
X0440174Y0159236D02*
X0400057Y0159236D01*
X0400057Y0160235D02*
X0441173Y0160235D01*
X0442171Y0161233D02*
X0400057Y0161233D01*
X0400057Y0162232D02*
X0443170Y0162232D01*
X0444168Y0163230D02*
X0400057Y0163230D01*
X0400057Y0164229D02*
X0445167Y0164229D01*
X0446165Y0165227D02*
X0400057Y0165227D01*
X0400057Y0166226D02*
X0447164Y0166226D01*
X0448163Y0167224D02*
X0400057Y0167224D01*
X0400057Y0168223D02*
X0449161Y0168223D01*
X0450160Y0169221D02*
X0400057Y0169221D01*
X0400057Y0170220D02*
X0451158Y0170220D01*
X0452157Y0171218D02*
X0400057Y0171218D01*
X0400057Y0172217D02*
X0453155Y0172217D01*
X0454154Y0173215D02*
X0400057Y0173215D01*
X0400646Y0174214D02*
X0455152Y0174214D01*
X0456151Y0175212D02*
X0402015Y0175212D01*
X0402506Y0176211D02*
X0457149Y0176211D01*
X0458148Y0177209D02*
X0402616Y0177209D01*
X0402407Y0178208D02*
X0459146Y0178208D01*
X0460145Y0179206D02*
X0401777Y0179206D01*
X0397286Y0179206D02*
X0204387Y0179206D01*
X0204387Y0178208D02*
X0396656Y0178208D01*
X0396447Y0177209D02*
X0204387Y0177209D01*
X0204387Y0176211D02*
X0395857Y0176211D01*
X0395857Y0175212D02*
X0204387Y0175212D01*
X0204387Y0174214D02*
X0395857Y0174214D01*
X0395857Y0173215D02*
X0204387Y0173215D01*
X0204387Y0172217D02*
X0395857Y0172217D01*
X0395857Y0171218D02*
X0352432Y0171218D01*
X0352853Y0171044D02*
X0353368Y0170529D01*
X0378354Y0170529D01*
X0381504Y0167380D01*
X0382734Y0166149D01*
X0382734Y0158880D01*
X0383249Y0158365D01*
X0383718Y0157232D01*
X0383718Y0156005D01*
X0383249Y0154871D01*
X0382381Y0154003D01*
X0381247Y0153534D01*
X0380020Y0153534D01*
X0378887Y0154003D01*
X0378019Y0154871D01*
X0377550Y0156005D01*
X0377550Y0157232D01*
X0378019Y0158365D01*
X0378534Y0158880D01*
X0378534Y0164410D01*
X0376614Y0166329D01*
X0353368Y0166329D01*
X0352853Y0165814D01*
X0351720Y0165345D01*
X0350493Y0165345D01*
X0349359Y0165814D01*
X0348492Y0166682D01*
X0348022Y0167816D01*
X0348022Y0169043D01*
X0348492Y0170176D01*
X0349359Y0171044D01*
X0350493Y0171513D01*
X0351720Y0171513D01*
X0352853Y0171044D01*
X0349781Y0171218D02*
X0204387Y0171218D01*
X0204387Y0170220D02*
X0348535Y0170220D01*
X0348096Y0169221D02*
X0204387Y0169221D01*
X0204387Y0168223D02*
X0348022Y0168223D01*
X0348267Y0167224D02*
X0204387Y0167224D01*
X0204387Y0166226D02*
X0348948Y0166226D01*
X0353265Y0166226D02*
X0376718Y0166226D01*
X0377716Y0165227D02*
X0204387Y0165227D01*
X0204387Y0164229D02*
X0378534Y0164229D01*
X0378534Y0163230D02*
X0280497Y0163230D01*
X0280460Y0163246D02*
X0279233Y0163246D01*
X0278099Y0162776D01*
X0277585Y0162261D01*
X0263229Y0162261D01*
X0261998Y0161031D01*
X0248219Y0147252D01*
X0248219Y0098810D01*
X0247284Y0099745D01*
X0243748Y0099745D01*
X0241247Y0097244D01*
X0241247Y0093708D01*
X0243748Y0091208D01*
X0247284Y0091208D01*
X0248219Y0092143D01*
X0248219Y0089607D01*
X0249449Y0088376D01*
X0251247Y0086578D01*
X0251247Y0083708D01*
X0253748Y0081208D01*
X0257284Y0081208D01*
X0259784Y0083708D01*
X0259784Y0087244D01*
X0257284Y0089745D01*
X0254020Y0089745D01*
X0252419Y0091346D01*
X0252419Y0092537D01*
X0253748Y0091208D01*
X0257284Y0091208D01*
X0259784Y0093708D01*
X0259784Y0097244D01*
X0257284Y0099745D01*
X0253748Y0099745D01*
X0252419Y0098416D01*
X0252419Y0145512D01*
X0264968Y0158061D01*
X0277585Y0158061D01*
X0278099Y0157547D01*
X0279233Y0157077D01*
X0280460Y0157077D01*
X0281594Y0157547D01*
X0282461Y0158414D01*
X0282931Y0159548D01*
X0282931Y0160775D01*
X0282461Y0161909D01*
X0281594Y0162776D01*
X0280460Y0163246D01*
X0279196Y0163230D02*
X0204387Y0163230D01*
X0204387Y0162232D02*
X0263199Y0162232D01*
X0262200Y0161233D02*
X0204387Y0161233D01*
X0204387Y0160235D02*
X0261202Y0160235D01*
X0260203Y0159236D02*
X0204387Y0159236D01*
X0204387Y0158238D02*
X0259205Y0158238D01*
X0258206Y0157239D02*
X0204387Y0157239D01*
X0204387Y0156241D02*
X0257208Y0156241D01*
X0256209Y0155242D02*
X0204387Y0155242D01*
X0204387Y0154244D02*
X0255211Y0154244D01*
X0254212Y0153245D02*
X0204387Y0153245D01*
X0204387Y0152247D02*
X0253214Y0152247D01*
X0252215Y0151248D02*
X0204387Y0151248D01*
X0204387Y0150250D02*
X0251217Y0150250D01*
X0250218Y0149251D02*
X0204387Y0149251D01*
X0204387Y0148253D02*
X0249220Y0148253D01*
X0248221Y0147254D02*
X0204387Y0147254D01*
X0204387Y0146256D02*
X0248219Y0146256D01*
X0248219Y0145257D02*
X0204387Y0145257D01*
X0204387Y0144259D02*
X0248219Y0144259D01*
X0248219Y0143260D02*
X0204387Y0143260D01*
X0204387Y0142262D02*
X0248219Y0142262D01*
X0248219Y0141263D02*
X0204387Y0141263D01*
X0204387Y0140265D02*
X0248219Y0140265D01*
X0248219Y0139266D02*
X0204387Y0139266D01*
X0204387Y0138268D02*
X0248219Y0138268D01*
X0248219Y0137269D02*
X0204387Y0137269D01*
X0204387Y0136271D02*
X0248219Y0136271D01*
X0248219Y0135272D02*
X0204387Y0135272D01*
X0204387Y0134273D02*
X0248219Y0134273D01*
X0248219Y0133275D02*
X0204387Y0133275D01*
X0204387Y0132276D02*
X0248219Y0132276D01*
X0248219Y0131278D02*
X0204387Y0131278D01*
X0204387Y0130279D02*
X0248219Y0130279D01*
X0248219Y0129281D02*
X0204387Y0129281D01*
X0204387Y0128282D02*
X0248219Y0128282D01*
X0248219Y0127284D02*
X0204387Y0127284D01*
X0204387Y0126285D02*
X0248219Y0126285D01*
X0248219Y0125287D02*
X0204387Y0125287D01*
X0204387Y0124288D02*
X0248219Y0124288D01*
X0248219Y0123290D02*
X0204387Y0123290D01*
X0204387Y0122291D02*
X0248219Y0122291D01*
X0248219Y0121293D02*
X0204387Y0121293D01*
X0204387Y0120294D02*
X0248219Y0120294D01*
X0248219Y0119296D02*
X0204387Y0119296D01*
X0204387Y0118297D02*
X0248219Y0118297D01*
X0248219Y0117299D02*
X0204387Y0117299D01*
X0204309Y0116300D02*
X0248219Y0116300D01*
X0248219Y0115302D02*
X0203311Y0115302D01*
X0202312Y0114303D02*
X0248219Y0114303D01*
X0248219Y0113305D02*
X0201314Y0113305D01*
X0200315Y0112306D02*
X0248219Y0112306D01*
X0248219Y0111308D02*
X0199317Y0111308D01*
X0198318Y0110309D02*
X0248219Y0110309D01*
X0248219Y0109311D02*
X0197320Y0109311D01*
X0196321Y0108312D02*
X0248219Y0108312D01*
X0248219Y0107314D02*
X0195323Y0107314D01*
X0194324Y0106315D02*
X0248219Y0106315D01*
X0248219Y0105317D02*
X0193326Y0105317D01*
X0192327Y0104318D02*
X0248219Y0104318D01*
X0248219Y0103320D02*
X0191329Y0103320D01*
X0190330Y0102321D02*
X0248219Y0102321D01*
X0248219Y0101323D02*
X0189332Y0101323D01*
X0188333Y0100324D02*
X0248219Y0100324D01*
X0248219Y0099326D02*
X0247703Y0099326D01*
X0243328Y0099326D02*
X0187335Y0099326D01*
X0186336Y0098327D02*
X0242330Y0098327D01*
X0241331Y0097329D02*
X0185338Y0097329D01*
X0184339Y0096330D02*
X0241247Y0096330D01*
X0241247Y0095332D02*
X0183341Y0095332D01*
X0182342Y0094333D02*
X0241247Y0094333D01*
X0241621Y0093335D02*
X0181344Y0093335D01*
X0180345Y0092336D02*
X0242620Y0092336D01*
X0243618Y0091337D02*
X0179347Y0091337D01*
X0178348Y0090339D02*
X0248219Y0090339D01*
X0248219Y0091337D02*
X0247413Y0091337D01*
X0247284Y0089745D02*
X0243748Y0089745D01*
X0241247Y0087244D01*
X0241247Y0083708D01*
X0243748Y0081208D01*
X0247284Y0081208D01*
X0249784Y0083708D01*
X0249784Y0087244D01*
X0247284Y0089745D01*
X0247688Y0089340D02*
X0248485Y0089340D01*
X0248687Y0088342D02*
X0249483Y0088342D01*
X0249685Y0087343D02*
X0250482Y0087343D01*
X0249784Y0086345D02*
X0251247Y0086345D01*
X0251247Y0085346D02*
X0249784Y0085346D01*
X0249784Y0084348D02*
X0251247Y0084348D01*
X0251606Y0083349D02*
X0249425Y0083349D01*
X0248427Y0082351D02*
X0252605Y0082351D01*
X0253603Y0081352D02*
X0247428Y0081352D01*
X0243603Y0081352D02*
X0168184Y0081352D01*
X0169182Y0082351D02*
X0242605Y0082351D01*
X0241606Y0083349D02*
X0170181Y0083349D01*
X0170457Y0084348D02*
X0241247Y0084348D01*
X0241247Y0085346D02*
X0166473Y0085346D01*
X0165504Y0085346D02*
X0160257Y0085346D01*
X0160257Y0084348D02*
X0161520Y0084348D01*
X0161520Y0084992D02*
X0161520Y0083625D01*
X0164137Y0081008D01*
X0165504Y0081008D01*
X0165504Y0084992D01*
X0161520Y0084992D01*
X0161520Y0086345D02*
X0160257Y0086345D01*
X0160392Y0087343D02*
X0161536Y0087343D01*
X0161391Y0088342D02*
X0162534Y0088342D01*
X0165504Y0084348D02*
X0166472Y0084348D01*
X0166472Y0083349D02*
X0165504Y0083349D01*
X0165504Y0082351D02*
X0166472Y0082351D01*
X0166472Y0081352D02*
X0165504Y0081352D01*
X0163793Y0081352D02*
X0157901Y0081352D01*
X0158899Y0082351D02*
X0162794Y0082351D01*
X0161796Y0083349D02*
X0159898Y0083349D01*
X0154076Y0081352D02*
X0147901Y0081352D01*
X0148899Y0082351D02*
X0153077Y0082351D01*
X0152079Y0083349D02*
X0149898Y0083349D01*
X0150257Y0084348D02*
X0151720Y0084348D01*
X0151720Y0085346D02*
X0150257Y0085346D01*
X0150257Y0086345D02*
X0151720Y0086345D01*
X0151819Y0087343D02*
X0150943Y0087343D01*
X0151942Y0088342D02*
X0152817Y0088342D01*
X0152940Y0089340D02*
X0153816Y0089340D01*
X0153206Y0090339D02*
X0157448Y0090339D01*
X0157886Y0091337D02*
X0158446Y0091337D01*
X0158884Y0092336D02*
X0159445Y0092336D01*
X0159883Y0093335D02*
X0162093Y0093335D01*
X0161720Y0094333D02*
X0160257Y0094333D01*
X0160257Y0095332D02*
X0161720Y0095332D01*
X0161720Y0096330D02*
X0160257Y0096330D01*
X0160173Y0097329D02*
X0161804Y0097329D01*
X0162802Y0098327D02*
X0159174Y0098327D01*
X0158176Y0099326D02*
X0163801Y0099326D01*
X0168176Y0099326D02*
X0181395Y0099326D01*
X0182394Y0100324D02*
X0153206Y0100324D01*
X0153206Y0099326D02*
X0153801Y0099326D01*
X0153206Y0101323D02*
X0183392Y0101323D01*
X0184391Y0102321D02*
X0153206Y0102321D01*
X0153206Y0103320D02*
X0185389Y0103320D01*
X0186388Y0104318D02*
X0153206Y0104318D01*
X0153206Y0105317D02*
X0187386Y0105317D01*
X0188385Y0106315D02*
X0153206Y0106315D01*
X0153206Y0107314D02*
X0189383Y0107314D01*
X0190382Y0108312D02*
X0153206Y0108312D01*
X0153206Y0109311D02*
X0191380Y0109311D01*
X0192379Y0110309D02*
X0153206Y0110309D01*
X0153206Y0111308D02*
X0193377Y0111308D01*
X0194376Y0112306D02*
X0153206Y0112306D01*
X0153206Y0113305D02*
X0195374Y0113305D01*
X0196373Y0114303D02*
X0153206Y0114303D01*
X0153206Y0115302D02*
X0197371Y0115302D01*
X0198370Y0116300D02*
X0153206Y0116300D01*
X0153206Y0117299D02*
X0199368Y0117299D01*
X0200187Y0118297D02*
X0153206Y0118297D01*
X0153206Y0119296D02*
X0200187Y0119296D01*
X0200187Y0120294D02*
X0153206Y0120294D01*
X0153206Y0121293D02*
X0200187Y0121293D01*
X0200187Y0122291D02*
X0153206Y0122291D01*
X0153206Y0123290D02*
X0200187Y0123290D01*
X0200187Y0124288D02*
X0153206Y0124288D01*
X0153206Y0125287D02*
X0200187Y0125287D01*
X0200187Y0126285D02*
X0153206Y0126285D01*
X0153206Y0127284D02*
X0200187Y0127284D01*
X0200187Y0128282D02*
X0153206Y0128282D01*
X0153206Y0129281D02*
X0200187Y0129281D01*
X0200187Y0130279D02*
X0153206Y0130279D01*
X0153206Y0131278D02*
X0200187Y0131278D01*
X0200187Y0132276D02*
X0153206Y0132276D01*
X0153206Y0133275D02*
X0200187Y0133275D01*
X0200187Y0134273D02*
X0153206Y0134273D01*
X0153206Y0135272D02*
X0200187Y0135272D01*
X0200187Y0136271D02*
X0153206Y0136271D01*
X0153206Y0137269D02*
X0200187Y0137269D01*
X0200187Y0138268D02*
X0153206Y0138268D01*
X0153206Y0139266D02*
X0200187Y0139266D01*
X0200187Y0140265D02*
X0153206Y0140265D01*
X0153206Y0141263D02*
X0200187Y0141263D01*
X0200187Y0142262D02*
X0153206Y0142262D01*
X0153206Y0143260D02*
X0200187Y0143260D01*
X0200187Y0144259D02*
X0153206Y0144259D01*
X0153206Y0145257D02*
X0200187Y0145257D01*
X0200187Y0146256D02*
X0153206Y0146256D01*
X0153206Y0147254D02*
X0200187Y0147254D01*
X0200187Y0148253D02*
X0153206Y0148253D01*
X0153206Y0149251D02*
X0200187Y0149251D01*
X0200187Y0150250D02*
X0153206Y0150250D01*
X0153206Y0151248D02*
X0200187Y0151248D01*
X0200187Y0152247D02*
X0153206Y0152247D01*
X0153206Y0153245D02*
X0200187Y0153245D01*
X0200187Y0154244D02*
X0153206Y0154244D01*
X0153206Y0155242D02*
X0200187Y0155242D01*
X0200187Y0156241D02*
X0153206Y0156241D01*
X0153206Y0157239D02*
X0200187Y0157239D01*
X0200187Y0158238D02*
X0153206Y0158238D01*
X0153206Y0159236D02*
X0200187Y0159236D01*
X0200187Y0160235D02*
X0153206Y0160235D01*
X0153206Y0161233D02*
X0200187Y0161233D01*
X0200187Y0162232D02*
X0153206Y0162232D01*
X0153206Y0163230D02*
X0200187Y0163230D01*
X0200187Y0164229D02*
X0153206Y0164229D01*
X0153206Y0165227D02*
X0200187Y0165227D01*
X0200187Y0166226D02*
X0153206Y0166226D01*
X0153206Y0167224D02*
X0200187Y0167224D01*
X0200187Y0168223D02*
X0153206Y0168223D01*
X0153206Y0169221D02*
X0200187Y0169221D01*
X0200187Y0170220D02*
X0153206Y0170220D01*
X0153206Y0171218D02*
X0200187Y0171218D01*
X0200187Y0172217D02*
X0153206Y0172217D01*
X0153206Y0173215D02*
X0200187Y0173215D01*
X0200187Y0174214D02*
X0153206Y0174214D01*
X0153206Y0175212D02*
X0200187Y0175212D01*
X0200187Y0176211D02*
X0153206Y0176211D01*
X0153801Y0177209D02*
X0200187Y0177209D01*
X0200187Y0178208D02*
X0154800Y0178208D01*
X0155798Y0179206D02*
X0200187Y0179206D01*
X0200187Y0180205D02*
X0156797Y0180205D01*
X0157795Y0181204D02*
X0200187Y0181204D01*
X0200187Y0182202D02*
X0158794Y0182202D01*
X0159792Y0183201D02*
X0200187Y0183201D01*
X0200187Y0184199D02*
X0160791Y0184199D01*
X0161789Y0185198D02*
X0200187Y0185198D01*
X0200187Y0186196D02*
X0162788Y0186196D01*
X0163786Y0187195D02*
X0200187Y0187195D01*
X0200187Y0188193D02*
X0164785Y0188193D01*
X0165784Y0189192D02*
X0200187Y0189192D01*
X0200187Y0190190D02*
X0166782Y0190190D01*
X0167781Y0191189D02*
X0200187Y0191189D01*
X0200187Y0192187D02*
X0168779Y0192187D01*
X0169778Y0193186D02*
X0200187Y0193186D01*
X0200187Y0194184D02*
X0170776Y0194184D01*
X0171775Y0195183D02*
X0200187Y0195183D01*
X0200187Y0196181D02*
X0172773Y0196181D01*
X0173772Y0197180D02*
X0200187Y0197180D01*
X0200187Y0198178D02*
X0174770Y0198178D01*
X0175769Y0199177D02*
X0200187Y0199177D01*
X0200187Y0200175D02*
X0176767Y0200175D01*
X0177766Y0201174D02*
X0200187Y0201174D01*
X0200187Y0202172D02*
X0178764Y0202172D01*
X0179763Y0203171D02*
X0200187Y0203171D01*
X0200187Y0204169D02*
X0180761Y0204169D01*
X0181760Y0205168D02*
X0200187Y0205168D01*
X0200187Y0206166D02*
X0182758Y0206166D01*
X0183757Y0207165D02*
X0200187Y0207165D01*
X0200187Y0208163D02*
X0184309Y0208163D01*
X0184309Y0209162D02*
X0200187Y0209162D01*
X0200187Y0210160D02*
X0184309Y0210160D01*
X0184309Y0211159D02*
X0200187Y0211159D01*
X0200187Y0212157D02*
X0184309Y0212157D01*
X0184309Y0213156D02*
X0200187Y0213156D01*
X0200187Y0214154D02*
X0184309Y0214154D01*
X0184309Y0215153D02*
X0200187Y0215153D01*
X0200187Y0216151D02*
X0184309Y0216151D01*
X0184309Y0217150D02*
X0200187Y0217150D01*
X0200187Y0218148D02*
X0184309Y0218148D01*
X0184309Y0219147D02*
X0200187Y0219147D01*
X0200187Y0220145D02*
X0184309Y0220145D01*
X0184389Y0221144D02*
X0190029Y0221144D01*
X0188569Y0222142D02*
X0185848Y0222142D01*
X0186730Y0223141D02*
X0187687Y0223141D01*
X0187273Y0224140D02*
X0187144Y0224140D01*
X0180029Y0221144D02*
X0174832Y0221144D01*
X0176131Y0222142D02*
X0178569Y0222142D01*
X0177687Y0223141D02*
X0176900Y0223141D01*
X0172693Y0223141D02*
X0171724Y0223141D01*
X0171724Y0224140D02*
X0172693Y0224140D01*
X0172693Y0225138D02*
X0171724Y0225138D01*
X0171724Y0226137D02*
X0172693Y0226137D01*
X0172693Y0227135D02*
X0171724Y0227135D01*
X0171724Y0228134D02*
X0172693Y0228134D01*
X0172693Y0229132D02*
X0171724Y0229132D01*
X0171724Y0230131D02*
X0162693Y0230131D01*
X0161724Y0230131D02*
X0152693Y0230131D01*
X0151724Y0230131D02*
X0142693Y0230131D01*
X0142693Y0229132D02*
X0141724Y0229132D01*
X0141724Y0228134D02*
X0142693Y0228134D01*
X0142693Y0227135D02*
X0141724Y0227135D01*
X0141724Y0226137D02*
X0142693Y0226137D01*
X0142693Y0225138D02*
X0141724Y0225138D01*
X0141724Y0224140D02*
X0142693Y0224140D01*
X0142693Y0223141D02*
X0141724Y0223141D01*
X0141724Y0222142D02*
X0142693Y0222142D01*
X0142693Y0221144D02*
X0141724Y0221144D01*
X0139585Y0221144D02*
X0134389Y0221144D01*
X0135848Y0222142D02*
X0138287Y0222142D01*
X0137517Y0223141D02*
X0136730Y0223141D01*
X0130029Y0221144D02*
X0124860Y0221144D01*
X0124860Y0220145D02*
X0180109Y0220145D01*
X0180109Y0219147D02*
X0124860Y0219147D01*
X0124860Y0218148D02*
X0180109Y0218148D01*
X0180109Y0217150D02*
X0124860Y0217150D01*
X0124860Y0216151D02*
X0180109Y0216151D01*
X0180109Y0215153D02*
X0124860Y0215153D01*
X0124860Y0214154D02*
X0180109Y0214154D01*
X0180109Y0213156D02*
X0124860Y0213156D01*
X0124860Y0212157D02*
X0180109Y0212157D01*
X0180109Y0211159D02*
X0124860Y0211159D01*
X0124860Y0210160D02*
X0180109Y0210160D01*
X0179814Y0209162D02*
X0124860Y0209162D01*
X0124860Y0208163D02*
X0178816Y0208163D01*
X0177817Y0207165D02*
X0124860Y0207165D01*
X0124860Y0206166D02*
X0176819Y0206166D01*
X0175820Y0205168D02*
X0124860Y0205168D01*
X0124860Y0204169D02*
X0174821Y0204169D01*
X0173823Y0203171D02*
X0124860Y0203171D01*
X0124860Y0202172D02*
X0172824Y0202172D01*
X0171826Y0201174D02*
X0124860Y0201174D01*
X0124860Y0200175D02*
X0170827Y0200175D01*
X0169829Y0199177D02*
X0124860Y0199177D01*
X0124860Y0198178D02*
X0168830Y0198178D01*
X0167832Y0197180D02*
X0124860Y0197180D01*
X0124860Y0196181D02*
X0166833Y0196181D01*
X0165835Y0195183D02*
X0124860Y0195183D01*
X0124860Y0194184D02*
X0164836Y0194184D01*
X0163838Y0193186D02*
X0124860Y0193186D01*
X0124860Y0192187D02*
X0162839Y0192187D01*
X0161841Y0191189D02*
X0124860Y0191189D01*
X0124860Y0190190D02*
X0160842Y0190190D01*
X0159844Y0189192D02*
X0124860Y0189192D01*
X0124860Y0188193D02*
X0158845Y0188193D01*
X0157847Y0187195D02*
X0124860Y0187195D01*
X0124860Y0186196D02*
X0156848Y0186196D01*
X0155850Y0185198D02*
X0124860Y0185198D01*
X0124860Y0184199D02*
X0154851Y0184199D01*
X0153853Y0183201D02*
X0124860Y0183201D01*
X0124860Y0182202D02*
X0152854Y0182202D01*
X0151856Y0181204D02*
X0124860Y0181204D01*
X0124860Y0180205D02*
X0150857Y0180205D01*
X0149859Y0179206D02*
X0124860Y0179206D01*
X0124860Y0178208D02*
X0149006Y0178208D01*
X0149006Y0177209D02*
X0124860Y0177209D01*
X0124860Y0176211D02*
X0149006Y0176211D01*
X0149006Y0175212D02*
X0124860Y0175212D01*
X0124860Y0174214D02*
X0149006Y0174214D01*
X0149006Y0173215D02*
X0124860Y0173215D01*
X0124860Y0172217D02*
X0149006Y0172217D01*
X0149006Y0171218D02*
X0124860Y0171218D01*
X0124860Y0170220D02*
X0149006Y0170220D01*
X0149006Y0169221D02*
X0124860Y0169221D01*
X0124860Y0168223D02*
X0149006Y0168223D01*
X0149006Y0167224D02*
X0125753Y0167224D01*
X0126752Y0166226D02*
X0149006Y0166226D01*
X0149006Y0165227D02*
X0127750Y0165227D01*
X0128749Y0164229D02*
X0149006Y0164229D01*
X0149006Y0163230D02*
X0129747Y0163230D01*
X0130746Y0162232D02*
X0149006Y0162232D01*
X0149006Y0161233D02*
X0131744Y0161233D01*
X0132743Y0160235D02*
X0149006Y0160235D01*
X0149006Y0159236D02*
X0133128Y0159236D01*
X0133128Y0158238D02*
X0149006Y0158238D01*
X0149006Y0157239D02*
X0133128Y0157239D01*
X0133128Y0156241D02*
X0149006Y0156241D01*
X0149006Y0155242D02*
X0133128Y0155242D01*
X0133128Y0154244D02*
X0149006Y0154244D01*
X0149006Y0153245D02*
X0133128Y0153245D01*
X0133128Y0152247D02*
X0149006Y0152247D01*
X0149006Y0151248D02*
X0133128Y0151248D01*
X0133128Y0150250D02*
X0149006Y0150250D01*
X0149006Y0149251D02*
X0133128Y0149251D01*
X0133128Y0148253D02*
X0149006Y0148253D01*
X0149006Y0147254D02*
X0133128Y0147254D01*
X0133128Y0146256D02*
X0149006Y0146256D01*
X0149006Y0145257D02*
X0133128Y0145257D01*
X0133128Y0144259D02*
X0149006Y0144259D01*
X0149006Y0143260D02*
X0133128Y0143260D01*
X0133128Y0142262D02*
X0149006Y0142262D01*
X0149006Y0141263D02*
X0133128Y0141263D01*
X0133128Y0140265D02*
X0149006Y0140265D01*
X0149006Y0139266D02*
X0133128Y0139266D01*
X0133128Y0138268D02*
X0149006Y0138268D01*
X0149006Y0137269D02*
X0133128Y0137269D01*
X0133128Y0136271D02*
X0149006Y0136271D01*
X0149006Y0135272D02*
X0133128Y0135272D01*
X0133128Y0134273D02*
X0149006Y0134273D01*
X0149006Y0133275D02*
X0133128Y0133275D01*
X0133128Y0132276D02*
X0149006Y0132276D01*
X0149006Y0131278D02*
X0133128Y0131278D01*
X0133128Y0130279D02*
X0149006Y0130279D01*
X0149006Y0129281D02*
X0133128Y0129281D01*
X0133128Y0128282D02*
X0149006Y0128282D01*
X0149006Y0127284D02*
X0133128Y0127284D01*
X0133128Y0126285D02*
X0149006Y0126285D01*
X0149006Y0125287D02*
X0133128Y0125287D01*
X0133128Y0124288D02*
X0149006Y0124288D01*
X0149006Y0123290D02*
X0133128Y0123290D01*
X0133128Y0122291D02*
X0149006Y0122291D01*
X0149006Y0121293D02*
X0133128Y0121293D01*
X0133128Y0120294D02*
X0149006Y0120294D01*
X0149006Y0119296D02*
X0133128Y0119296D01*
X0133128Y0118297D02*
X0149006Y0118297D01*
X0149006Y0117299D02*
X0133128Y0117299D01*
X0133128Y0116300D02*
X0149006Y0116300D01*
X0149006Y0115302D02*
X0133128Y0115302D01*
X0133128Y0114303D02*
X0149006Y0114303D01*
X0149006Y0113305D02*
X0133128Y0113305D01*
X0133128Y0112306D02*
X0149006Y0112306D01*
X0149006Y0111308D02*
X0133128Y0111308D01*
X0133128Y0110309D02*
X0149006Y0110309D01*
X0149006Y0109311D02*
X0133128Y0109311D01*
X0133128Y0108312D02*
X0149006Y0108312D01*
X0149006Y0107314D02*
X0133128Y0107314D01*
X0133128Y0106315D02*
X0149006Y0106315D01*
X0149006Y0105317D02*
X0133128Y0105317D01*
X0133128Y0104318D02*
X0149006Y0104318D01*
X0149006Y0103320D02*
X0133128Y0103320D01*
X0133128Y0102321D02*
X0149006Y0102321D01*
X0149006Y0101323D02*
X0133128Y0101323D01*
X0133128Y0100324D02*
X0149006Y0100324D01*
X0149006Y0099326D02*
X0148176Y0099326D01*
X0143801Y0099326D02*
X0138176Y0099326D01*
X0139174Y0098327D02*
X0142802Y0098327D01*
X0141804Y0097329D02*
X0140173Y0097329D01*
X0140257Y0096330D02*
X0141720Y0096330D01*
X0141720Y0095332D02*
X0140257Y0095332D01*
X0140257Y0094333D02*
X0141720Y0094333D01*
X0142093Y0093335D02*
X0139883Y0093335D01*
X0138884Y0092336D02*
X0143092Y0092336D01*
X0144090Y0091337D02*
X0137886Y0091337D01*
X0138161Y0089340D02*
X0143816Y0089340D01*
X0142817Y0088342D02*
X0139159Y0088342D01*
X0140158Y0087343D02*
X0141819Y0087343D01*
X0141720Y0086345D02*
X0140257Y0086345D01*
X0140257Y0085346D02*
X0141720Y0085346D01*
X0141720Y0084348D02*
X0140257Y0084348D01*
X0139898Y0083349D02*
X0142079Y0083349D01*
X0143077Y0082351D02*
X0138899Y0082351D01*
X0137901Y0081352D02*
X0144076Y0081352D01*
X0134076Y0081352D02*
X0128184Y0081352D01*
X0127839Y0081008D02*
X0130457Y0083625D01*
X0130457Y0084992D01*
X0126473Y0084992D01*
X0126473Y0085961D01*
X0130457Y0085961D01*
X0130457Y0087327D01*
X0127839Y0089945D01*
X0126472Y0089945D01*
X0126472Y0085961D01*
X0125504Y0085961D01*
X0125504Y0089945D01*
X0124137Y0089945D01*
X0121520Y0087327D01*
X0121520Y0085961D01*
X0125504Y0085961D01*
X0125504Y0084992D01*
X0126472Y0084992D01*
X0126472Y0081008D01*
X0127839Y0081008D01*
X0126472Y0081352D02*
X0125504Y0081352D01*
X0125504Y0081008D02*
X0125504Y0084992D01*
X0121520Y0084992D01*
X0121520Y0083625D01*
X0124137Y0081008D01*
X0125504Y0081008D01*
X0125504Y0082351D02*
X0126472Y0082351D01*
X0126472Y0083349D02*
X0125504Y0083349D01*
X0125504Y0084348D02*
X0126472Y0084348D01*
X0126473Y0085346D02*
X0131720Y0085346D01*
X0131720Y0084348D02*
X0130457Y0084348D01*
X0130181Y0083349D02*
X0132079Y0083349D01*
X0133077Y0082351D02*
X0129182Y0082351D01*
X0130457Y0086345D02*
X0131720Y0086345D01*
X0131191Y0087343D02*
X0130441Y0087343D01*
X0130192Y0088342D02*
X0129442Y0088342D01*
X0129194Y0089340D02*
X0128443Y0089340D01*
X0128928Y0090339D02*
X0007968Y0090339D01*
X0007968Y0091337D02*
X0124090Y0091337D01*
X0123092Y0092336D02*
X0007968Y0092336D01*
X0007968Y0093335D02*
X0122093Y0093335D01*
X0121720Y0094333D02*
X0007968Y0094333D01*
X0007968Y0095332D02*
X0121720Y0095332D01*
X0121720Y0096330D02*
X0007968Y0096330D01*
X0007968Y0097329D02*
X0121804Y0097329D01*
X0122802Y0098327D02*
X0007968Y0098327D01*
X0007968Y0099326D02*
X0123801Y0099326D01*
X0128176Y0099326D02*
X0128928Y0099326D01*
X0128928Y0100324D02*
X0007968Y0100324D01*
X0007968Y0101323D02*
X0128928Y0101323D01*
X0128928Y0102321D02*
X0007968Y0102321D01*
X0007968Y0103320D02*
X0128928Y0103320D01*
X0128928Y0104318D02*
X0007968Y0104318D01*
X0007968Y0105317D02*
X0128928Y0105317D01*
X0128928Y0106315D02*
X0007968Y0106315D01*
X0007968Y0107314D02*
X0128928Y0107314D01*
X0128928Y0108312D02*
X0007968Y0108312D01*
X0007968Y0109311D02*
X0128928Y0109311D01*
X0128928Y0110309D02*
X0007968Y0110309D01*
X0007968Y0111308D02*
X0128928Y0111308D01*
X0128928Y0112306D02*
X0007968Y0112306D01*
X0007968Y0113305D02*
X0128928Y0113305D01*
X0128928Y0114303D02*
X0007968Y0114303D01*
X0007968Y0115302D02*
X0128928Y0115302D01*
X0128928Y0116300D02*
X0007968Y0116300D01*
X0007968Y0117299D02*
X0128928Y0117299D01*
X0128928Y0118297D02*
X0007968Y0118297D01*
X0007968Y0119296D02*
X0128928Y0119296D01*
X0128928Y0120294D02*
X0007968Y0120294D01*
X0007968Y0121293D02*
X0128928Y0121293D01*
X0128928Y0122291D02*
X0007968Y0122291D01*
X0007968Y0123290D02*
X0128928Y0123290D01*
X0128928Y0124288D02*
X0007968Y0124288D01*
X0007968Y0125287D02*
X0128928Y0125287D01*
X0128928Y0126285D02*
X0007968Y0126285D01*
X0007968Y0127284D02*
X0128928Y0127284D01*
X0128928Y0128282D02*
X0007968Y0128282D01*
X0007968Y0129281D02*
X0128928Y0129281D01*
X0128928Y0130279D02*
X0007968Y0130279D01*
X0007968Y0131278D02*
X0128928Y0131278D01*
X0128928Y0132276D02*
X0007968Y0132276D01*
X0007968Y0133275D02*
X0128928Y0133275D01*
X0128928Y0134273D02*
X0007968Y0134273D01*
X0007968Y0135272D02*
X0128928Y0135272D01*
X0128928Y0136271D02*
X0007968Y0136271D01*
X0007968Y0137269D02*
X0128928Y0137269D01*
X0128928Y0138268D02*
X0007968Y0138268D01*
X0007968Y0139266D02*
X0128928Y0139266D01*
X0128928Y0140265D02*
X0007968Y0140265D01*
X0007968Y0141263D02*
X0128928Y0141263D01*
X0128928Y0142262D02*
X0007968Y0142262D01*
X0007968Y0143260D02*
X0128928Y0143260D01*
X0128928Y0144259D02*
X0007968Y0144259D01*
X0007968Y0145257D02*
X0128928Y0145257D01*
X0128928Y0146256D02*
X0007968Y0146256D01*
X0007968Y0147254D02*
X0128928Y0147254D01*
X0128928Y0148253D02*
X0007968Y0148253D01*
X0007968Y0149251D02*
X0128928Y0149251D01*
X0128928Y0150250D02*
X0007968Y0150250D01*
X0007968Y0151248D02*
X0128928Y0151248D01*
X0128928Y0152247D02*
X0007968Y0152247D01*
X0007968Y0153245D02*
X0128928Y0153245D01*
X0128928Y0154244D02*
X0007968Y0154244D01*
X0007968Y0155242D02*
X0128928Y0155242D01*
X0128928Y0156241D02*
X0007968Y0156241D01*
X0007968Y0157239D02*
X0128928Y0157239D01*
X0128800Y0158238D02*
X0007968Y0158238D01*
X0007968Y0159236D02*
X0127802Y0159236D01*
X0126803Y0160235D02*
X0007968Y0160235D01*
X0007968Y0161233D02*
X0125805Y0161233D01*
X0124806Y0162232D02*
X0007968Y0162232D01*
X0007968Y0163230D02*
X0123808Y0163230D01*
X0122809Y0164229D02*
X0007968Y0164229D01*
X0007968Y0165227D02*
X0121811Y0165227D01*
X0120812Y0166226D02*
X0007968Y0166226D01*
X0007968Y0167224D02*
X0120660Y0167224D01*
X0120660Y0168223D02*
X0007968Y0168223D01*
X0007968Y0169221D02*
X0120660Y0169221D01*
X0120660Y0170220D02*
X0007968Y0170220D01*
X0007968Y0171218D02*
X0120660Y0171218D01*
X0120660Y0172217D02*
X0007968Y0172217D01*
X0007968Y0173215D02*
X0120660Y0173215D01*
X0120660Y0174214D02*
X0007968Y0174214D01*
X0007968Y0175212D02*
X0120660Y0175212D01*
X0120660Y0176211D02*
X0007968Y0176211D01*
X0007968Y0177209D02*
X0120660Y0177209D01*
X0120660Y0178208D02*
X0007968Y0178208D01*
X0007968Y0179206D02*
X0120660Y0179206D01*
X0120660Y0180205D02*
X0007968Y0180205D01*
X0007968Y0181204D02*
X0120660Y0181204D01*
X0120660Y0182202D02*
X0007968Y0182202D01*
X0007968Y0183201D02*
X0120660Y0183201D01*
X0120660Y0184199D02*
X0007968Y0184199D01*
X0007968Y0185198D02*
X0120660Y0185198D01*
X0120660Y0186196D02*
X0007968Y0186196D01*
X0007968Y0187195D02*
X0120660Y0187195D01*
X0120660Y0188193D02*
X0007968Y0188193D01*
X0007968Y0189192D02*
X0120660Y0189192D01*
X0120660Y0190190D02*
X0007968Y0190190D01*
X0007968Y0191189D02*
X0120660Y0191189D01*
X0120660Y0192187D02*
X0007968Y0192187D01*
X0007968Y0193186D02*
X0120660Y0193186D01*
X0120660Y0194184D02*
X0007968Y0194184D01*
X0007968Y0195183D02*
X0120660Y0195183D01*
X0120660Y0196181D02*
X0007968Y0196181D01*
X0007968Y0197180D02*
X0120660Y0197180D01*
X0120660Y0198178D02*
X0007968Y0198178D01*
X0007968Y0199177D02*
X0120660Y0199177D01*
X0120660Y0200175D02*
X0007968Y0200175D01*
X0007968Y0201174D02*
X0120660Y0201174D01*
X0120660Y0202172D02*
X0007968Y0202172D01*
X0007968Y0203171D02*
X0120660Y0203171D01*
X0120660Y0204169D02*
X0007968Y0204169D01*
X0007968Y0205168D02*
X0120660Y0205168D01*
X0120660Y0206166D02*
X0007968Y0206166D01*
X0007968Y0207165D02*
X0021064Y0207165D01*
X0021244Y0207129D02*
X0022515Y0207004D01*
X0022654Y0207004D01*
X0022654Y0219504D01*
X0023654Y0219504D01*
X0023654Y0220504D01*
X0036154Y0220504D01*
X0036154Y0220643D01*
X0036028Y0221914D01*
X0035779Y0223166D01*
X0035408Y0224389D01*
X0034920Y0225569D01*
X0034317Y0226695D01*
X0033608Y0227757D01*
X0032798Y0228745D01*
X0031894Y0229648D01*
X0030907Y0230458D01*
X0029845Y0231168D01*
X0028718Y0231770D01*
X0027538Y0232259D01*
X0026316Y0232630D01*
X0025063Y0232879D01*
X0023792Y0233004D01*
X0023654Y0233004D01*
X0023654Y0220504D01*
X0022654Y0220504D01*
X0022654Y0233004D01*
X0022515Y0233004D01*
X0021244Y0232879D01*
X0019991Y0232630D01*
X0018769Y0232259D01*
X0017589Y0231770D01*
X0016462Y0231168D01*
X0015400Y0230458D01*
X0014413Y0229648D01*
X0013510Y0228745D01*
X0012699Y0227757D01*
X0011990Y0226695D01*
X0011388Y0225569D01*
X0010899Y0224389D01*
X0010528Y0223166D01*
X0010279Y0221914D01*
X0010154Y0220643D01*
X0010154Y0220504D01*
X0022653Y0220504D01*
X0022653Y0219504D01*
X0010154Y0219504D01*
X0010154Y0219365D01*
X0010279Y0218094D01*
X0010528Y0216841D01*
X0010899Y0215619D01*
X0011388Y0214439D01*
X0011990Y0213313D01*
X0012699Y0212251D01*
X0013510Y0211263D01*
X0014413Y0210360D01*
X0015400Y0209550D01*
X0016462Y0208840D01*
X0017589Y0208238D01*
X0018769Y0207749D01*
X0019991Y0207378D01*
X0021244Y0207129D01*
X0022654Y0207165D02*
X0023654Y0207165D01*
X0023654Y0207004D02*
X0023792Y0207004D01*
X0025063Y0207129D01*
X0026316Y0207378D01*
X0027538Y0207749D01*
X0028718Y0208238D01*
X0029845Y0208840D01*
X0030907Y0209550D01*
X0031894Y0210360D01*
X0032798Y0211263D01*
X0033608Y0212251D01*
X0034317Y0213313D01*
X0034920Y0214439D01*
X0035408Y0215619D01*
X0035779Y0216841D01*
X0036028Y0218094D01*
X0036154Y0219365D01*
X0036154Y0219504D01*
X0023654Y0219504D01*
X0023654Y0207004D01*
X0023654Y0208163D02*
X0022654Y0208163D01*
X0022654Y0209162D02*
X0023654Y0209162D01*
X0023654Y0210160D02*
X0022654Y0210160D01*
X0022654Y0211159D02*
X0023654Y0211159D01*
X0023654Y0212157D02*
X0022654Y0212157D01*
X0022654Y0213156D02*
X0023654Y0213156D01*
X0023654Y0214154D02*
X0022654Y0214154D01*
X0022654Y0215153D02*
X0023654Y0215153D01*
X0023654Y0216151D02*
X0022654Y0216151D01*
X0022654Y0217150D02*
X0023654Y0217150D01*
X0023654Y0218148D02*
X0022654Y0218148D01*
X0022654Y0219147D02*
X0023654Y0219147D01*
X0023654Y0220145D02*
X0047199Y0220145D01*
X0045626Y0221144D02*
X0036104Y0221144D01*
X0035983Y0222142D02*
X0044627Y0222142D01*
X0043686Y0223141D02*
X0035784Y0223141D01*
X0035484Y0224140D02*
X0043110Y0224140D01*
X0042533Y0225138D02*
X0035098Y0225138D01*
X0034616Y0226137D02*
X0042140Y0226137D01*
X0041872Y0227135D02*
X0034024Y0227135D01*
X0033299Y0228134D02*
X0041604Y0228134D01*
X0041539Y0229132D02*
X0032410Y0229132D01*
X0031306Y0230131D02*
X0041539Y0230131D01*
X0041539Y0231129D02*
X0029903Y0231129D01*
X0027855Y0232128D02*
X0041757Y0232128D01*
X0042024Y0233126D02*
X0007968Y0233126D01*
X0007968Y0232128D02*
X0018452Y0232128D01*
X0016404Y0231129D02*
X0007968Y0231129D01*
X0007968Y0230131D02*
X0015001Y0230131D01*
X0013897Y0229132D02*
X0007968Y0229132D01*
X0007968Y0228134D02*
X0013008Y0228134D01*
X0012283Y0227135D02*
X0007968Y0227135D01*
X0007968Y0226137D02*
X0011691Y0226137D01*
X0011209Y0225138D02*
X0007968Y0225138D01*
X0007968Y0224140D02*
X0010823Y0224140D01*
X0010523Y0223141D02*
X0007968Y0223141D01*
X0007968Y0222142D02*
X0010324Y0222142D01*
X0010203Y0221144D02*
X0007968Y0221144D01*
X0007968Y0220145D02*
X0022653Y0220145D01*
X0022654Y0221144D02*
X0023654Y0221144D01*
X0023654Y0222142D02*
X0022654Y0222142D01*
X0022654Y0223141D02*
X0023654Y0223141D01*
X0023654Y0224140D02*
X0022654Y0224140D01*
X0022654Y0225138D02*
X0023654Y0225138D01*
X0023654Y0226137D02*
X0022654Y0226137D01*
X0022654Y0227135D02*
X0023654Y0227135D01*
X0023654Y0228134D02*
X0022654Y0228134D01*
X0022654Y0229132D02*
X0023654Y0229132D01*
X0023654Y0230131D02*
X0022654Y0230131D01*
X0022654Y0231129D02*
X0023654Y0231129D01*
X0023654Y0232128D02*
X0022654Y0232128D01*
X0007968Y0234125D02*
X0042292Y0234125D01*
X0042861Y0235123D02*
X0007968Y0235123D01*
X0007968Y0219147D02*
X0010175Y0219147D01*
X0010273Y0218148D02*
X0007968Y0218148D01*
X0007968Y0217150D02*
X0010467Y0217150D01*
X0010737Y0216151D02*
X0007968Y0216151D01*
X0007968Y0215153D02*
X0011092Y0215153D01*
X0011540Y0214154D02*
X0007968Y0214154D01*
X0007968Y0213156D02*
X0012094Y0213156D01*
X0012776Y0212157D02*
X0007968Y0212157D01*
X0007968Y0211159D02*
X0013614Y0211159D01*
X0014656Y0210160D02*
X0007968Y0210160D01*
X0007968Y0209162D02*
X0015980Y0209162D01*
X0017769Y0208163D02*
X0007968Y0208163D01*
X0025243Y0207165D02*
X0120660Y0207165D01*
X0120660Y0208163D02*
X0028538Y0208163D01*
X0030327Y0209162D02*
X0120660Y0209162D01*
X0120660Y0210160D02*
X0031651Y0210160D01*
X0032693Y0211159D02*
X0120660Y0211159D01*
X0120660Y0212157D02*
X0033531Y0212157D01*
X0034213Y0213156D02*
X0120660Y0213156D01*
X0120660Y0214154D02*
X0034767Y0214154D01*
X0035215Y0215153D02*
X0120660Y0215153D01*
X0120660Y0216151D02*
X0035570Y0216151D01*
X0035841Y0217150D02*
X0120660Y0217150D01*
X0120660Y0218148D02*
X0036034Y0218148D01*
X0036132Y0219147D02*
X0049561Y0219147D01*
X0055801Y0219147D02*
X0120660Y0219147D01*
X0120660Y0220145D02*
X0058164Y0220145D01*
X0059737Y0221144D02*
X0079585Y0221144D01*
X0078287Y0222142D02*
X0060735Y0222142D01*
X0061676Y0223141D02*
X0077517Y0223141D01*
X0077067Y0224140D02*
X0062252Y0224140D01*
X0062829Y0225138D02*
X0076826Y0225138D01*
X0076772Y0226137D02*
X0063223Y0226137D01*
X0063490Y0227135D02*
X0076772Y0227135D01*
X0076772Y0228134D02*
X0063758Y0228134D01*
X0063824Y0229132D02*
X0076772Y0229132D01*
X0076772Y0231129D02*
X0063824Y0231129D01*
X0063824Y0230131D02*
X0081724Y0230131D01*
X0081724Y0229132D02*
X0082693Y0229132D01*
X0082693Y0228134D02*
X0081724Y0228134D01*
X0081724Y0227135D02*
X0082693Y0227135D01*
X0082693Y0226137D02*
X0081724Y0226137D01*
X0081724Y0225138D02*
X0082693Y0225138D01*
X0082693Y0224140D02*
X0081724Y0224140D01*
X0081724Y0223141D02*
X0082693Y0223141D01*
X0082693Y0222142D02*
X0081724Y0222142D01*
X0081724Y0221144D02*
X0082693Y0221144D01*
X0084832Y0221144D02*
X0090029Y0221144D01*
X0088569Y0222142D02*
X0086131Y0222142D01*
X0086900Y0223141D02*
X0087687Y0223141D01*
X0094389Y0221144D02*
X0100029Y0221144D01*
X0098569Y0222142D02*
X0095848Y0222142D01*
X0096730Y0223141D02*
X0097687Y0223141D01*
X0097273Y0224140D02*
X0097144Y0224140D01*
X0104389Y0221144D02*
X0110029Y0221144D01*
X0108569Y0222142D02*
X0105848Y0222142D01*
X0106730Y0223141D02*
X0107687Y0223141D01*
X0107273Y0224140D02*
X0107144Y0224140D01*
X0114389Y0221144D02*
X0120029Y0221144D01*
X0118569Y0222142D02*
X0115848Y0222142D01*
X0116730Y0223141D02*
X0117687Y0223141D01*
X0117273Y0224140D02*
X0117144Y0224140D01*
X0125848Y0222142D02*
X0128569Y0222142D01*
X0127687Y0223141D02*
X0126730Y0223141D01*
X0127144Y0224140D02*
X0127273Y0224140D01*
X0144832Y0221144D02*
X0149585Y0221144D01*
X0148287Y0222142D02*
X0146131Y0222142D01*
X0146900Y0223141D02*
X0147517Y0223141D01*
X0151724Y0223141D02*
X0152693Y0223141D01*
X0152693Y0224140D02*
X0151724Y0224140D01*
X0151724Y0225138D02*
X0152693Y0225138D01*
X0152693Y0226137D02*
X0151724Y0226137D01*
X0151724Y0227135D02*
X0152693Y0227135D01*
X0152693Y0228134D02*
X0151724Y0228134D01*
X0151724Y0229132D02*
X0152693Y0229132D01*
X0156900Y0223141D02*
X0157517Y0223141D01*
X0158287Y0222142D02*
X0156131Y0222142D01*
X0154832Y0221144D02*
X0159585Y0221144D01*
X0161724Y0221144D02*
X0162693Y0221144D01*
X0162693Y0222142D02*
X0161724Y0222142D01*
X0161724Y0223141D02*
X0162693Y0223141D01*
X0162693Y0224140D02*
X0161724Y0224140D01*
X0161724Y0225138D02*
X0162693Y0225138D01*
X0162693Y0226137D02*
X0161724Y0226137D01*
X0161724Y0227135D02*
X0162693Y0227135D01*
X0162693Y0228134D02*
X0161724Y0228134D01*
X0161724Y0229132D02*
X0162693Y0229132D01*
X0166900Y0223141D02*
X0167517Y0223141D01*
X0168287Y0222142D02*
X0166131Y0222142D01*
X0164832Y0221144D02*
X0169585Y0221144D01*
X0171724Y0221144D02*
X0172693Y0221144D01*
X0172693Y0222142D02*
X0171724Y0222142D01*
X0152693Y0222142D02*
X0151724Y0222142D01*
X0151724Y0221144D02*
X0152693Y0221144D01*
X0194389Y0221144D02*
X0200029Y0221144D01*
X0198569Y0222142D02*
X0195848Y0222142D01*
X0196730Y0223141D02*
X0197687Y0223141D01*
X0197273Y0224140D02*
X0197144Y0224140D01*
X0204389Y0221144D02*
X0210029Y0221144D01*
X0208569Y0222142D02*
X0205848Y0222142D01*
X0206730Y0223141D02*
X0207687Y0223141D01*
X0207273Y0224140D02*
X0207144Y0224140D01*
X0214389Y0221144D02*
X0220029Y0221144D01*
X0218569Y0222142D02*
X0215848Y0222142D01*
X0216730Y0223141D02*
X0217687Y0223141D01*
X0217273Y0224140D02*
X0217144Y0224140D01*
X0224389Y0221144D02*
X0230029Y0221144D01*
X0228569Y0222142D02*
X0225848Y0222142D01*
X0226730Y0223141D02*
X0227687Y0223141D01*
X0227273Y0224140D02*
X0227144Y0224140D01*
X0234389Y0221144D02*
X0411767Y0221144D01*
X0410769Y0222142D02*
X0235848Y0222142D01*
X0236730Y0223141D02*
X0409828Y0223141D01*
X0409251Y0224140D02*
X0237144Y0224140D01*
X0237446Y0225138D02*
X0408675Y0225138D01*
X0408281Y0226137D02*
X0237446Y0226137D01*
X0237446Y0227135D02*
X0408014Y0227135D01*
X0407746Y0228134D02*
X0237446Y0228134D01*
X0237446Y0229132D02*
X0407680Y0229132D01*
X0407680Y0230131D02*
X0237446Y0230131D01*
X0237446Y0231129D02*
X0407680Y0231129D01*
X0407898Y0232128D02*
X0237446Y0232128D01*
X0237446Y0233126D02*
X0258641Y0233126D01*
X0257301Y0233681D02*
X0260077Y0232531D01*
X0263081Y0232531D01*
X0265856Y0233681D01*
X0267980Y0235805D01*
X0269130Y0238581D01*
X0269130Y0241585D01*
X0267980Y0244360D01*
X0265856Y0246484D01*
X0263081Y0247634D01*
X0260077Y0247634D01*
X0257301Y0246484D01*
X0255177Y0244360D01*
X0254028Y0241585D01*
X0254028Y0238581D01*
X0255177Y0235805D01*
X0257301Y0233681D01*
X0256858Y0234125D02*
X0237446Y0234125D01*
X0237322Y0235123D02*
X0255859Y0235123D01*
X0255046Y0236122D02*
X0242486Y0236122D01*
X0243484Y0237120D02*
X0254633Y0237120D01*
X0254219Y0238119D02*
X0243909Y0238119D01*
X0244189Y0239117D02*
X0254028Y0239117D01*
X0254028Y0240116D02*
X0244189Y0240116D01*
X0244189Y0241114D02*
X0254028Y0241114D01*
X0254246Y0242113D02*
X0244189Y0242113D01*
X0244189Y0243111D02*
X0254660Y0243111D01*
X0255073Y0244110D02*
X0244189Y0244110D01*
X0244189Y0245108D02*
X0255925Y0245108D01*
X0256924Y0246107D02*
X0244189Y0246107D01*
X0244189Y0247105D02*
X0258801Y0247105D01*
X0264357Y0247105D02*
X0354312Y0247105D01*
X0355589Y0247634D02*
X0352813Y0246484D01*
X0350689Y0244360D01*
X0349539Y0241585D01*
X0349539Y0238581D01*
X0350689Y0235805D01*
X0352813Y0233681D01*
X0355589Y0232531D01*
X0358593Y0232531D01*
X0361368Y0233681D01*
X0363492Y0235805D01*
X0364642Y0238581D01*
X0364642Y0241585D01*
X0363492Y0244360D01*
X0361368Y0246484D01*
X0358593Y0247634D01*
X0355589Y0247634D01*
X0352436Y0246107D02*
X0266234Y0246107D01*
X0267232Y0245108D02*
X0351437Y0245108D01*
X0350585Y0244110D02*
X0268084Y0244110D01*
X0268498Y0243111D02*
X0350172Y0243111D01*
X0349758Y0242113D02*
X0268911Y0242113D01*
X0269130Y0241114D02*
X0349539Y0241114D01*
X0349539Y0240116D02*
X0269130Y0240116D01*
X0269130Y0239117D02*
X0349539Y0239117D01*
X0349731Y0238119D02*
X0268939Y0238119D01*
X0268525Y0237120D02*
X0350144Y0237120D01*
X0350558Y0236122D02*
X0268111Y0236122D01*
X0267298Y0235123D02*
X0351371Y0235123D01*
X0352370Y0234125D02*
X0266300Y0234125D01*
X0264516Y0233126D02*
X0354153Y0233126D01*
X0360028Y0233126D02*
X0408166Y0233126D01*
X0408434Y0234125D02*
X0361811Y0234125D01*
X0362810Y0235123D02*
X0409003Y0235123D01*
X0413340Y0220145D02*
X0204387Y0220145D01*
X0204387Y0219147D02*
X0415703Y0219147D01*
X0374688Y0236122D02*
X0363623Y0236122D01*
X0364037Y0237120D02*
X0373689Y0237120D01*
X0373264Y0238119D02*
X0364450Y0238119D01*
X0364642Y0239117D02*
X0372984Y0239117D01*
X0372984Y0240116D02*
X0364642Y0240116D01*
X0364642Y0241114D02*
X0372984Y0241114D01*
X0372984Y0242113D02*
X0364423Y0242113D01*
X0364009Y0243111D02*
X0372984Y0243111D01*
X0372984Y0244110D02*
X0363596Y0244110D01*
X0362744Y0245108D02*
X0372984Y0245108D01*
X0372984Y0246107D02*
X0361745Y0246107D01*
X0359869Y0247105D02*
X0372984Y0247105D01*
X0372984Y0248104D02*
X0244189Y0248104D01*
X0244189Y0249102D02*
X0372984Y0249102D01*
X0372984Y0250101D02*
X0244189Y0250101D01*
X0244189Y0251099D02*
X0372984Y0251099D01*
X0372984Y0252098D02*
X0244189Y0252098D01*
X0244189Y0253096D02*
X0372984Y0253096D01*
X0372984Y0254095D02*
X0244189Y0254095D01*
X0244189Y0255093D02*
X0372984Y0255093D01*
X0372984Y0256092D02*
X0244189Y0256092D01*
X0244189Y0257090D02*
X0372984Y0257090D01*
X0372984Y0258089D02*
X0244189Y0258089D01*
X0204387Y0188193D02*
X0469131Y0188193D01*
X0468133Y0187195D02*
X0204387Y0187195D01*
X0204387Y0186196D02*
X0467134Y0186196D01*
X0466136Y0185198D02*
X0204387Y0185198D01*
X0204387Y0184199D02*
X0465137Y0184199D01*
X0464139Y0183201D02*
X0204387Y0183201D01*
X0204387Y0182202D02*
X0463140Y0182202D01*
X0462142Y0181204D02*
X0204387Y0181204D01*
X0204387Y0180205D02*
X0461143Y0180205D01*
X0503225Y0152247D02*
X0552943Y0152247D01*
X0552943Y0151248D02*
X0503225Y0151248D01*
X0503225Y0150250D02*
X0552943Y0150250D01*
X0552943Y0149251D02*
X0503225Y0149251D01*
X0503225Y0148253D02*
X0552943Y0148253D01*
X0552943Y0147254D02*
X0503225Y0147254D01*
X0503225Y0146256D02*
X0552943Y0146256D01*
X0552943Y0145257D02*
X0503225Y0145257D01*
X0503225Y0144259D02*
X0552943Y0144259D01*
X0552943Y0143260D02*
X0503225Y0143260D01*
X0503225Y0142262D02*
X0552943Y0142262D01*
X0552943Y0141263D02*
X0503225Y0141263D01*
X0503225Y0140265D02*
X0552943Y0140265D01*
X0552943Y0139266D02*
X0503225Y0139266D01*
X0502767Y0138268D02*
X0552943Y0138268D01*
X0552943Y0137269D02*
X0434321Y0137269D01*
X0434321Y0136271D02*
X0552943Y0136271D01*
X0552943Y0135272D02*
X0527078Y0135272D01*
X0527422Y0134273D02*
X0552943Y0134273D01*
X0552943Y0133275D02*
X0527422Y0133275D01*
X0527422Y0132276D02*
X0552943Y0132276D01*
X0552943Y0131278D02*
X0527422Y0131278D01*
X0527422Y0130279D02*
X0552943Y0130279D01*
X0552943Y0129281D02*
X0527422Y0129281D01*
X0527422Y0128282D02*
X0552943Y0128282D01*
X0552943Y0127284D02*
X0526792Y0127284D01*
X0519515Y0127284D02*
X0498758Y0127284D01*
X0499756Y0128282D02*
X0518885Y0128282D01*
X0518885Y0129281D02*
X0500755Y0129281D01*
X0497759Y0126285D02*
X0552943Y0126285D01*
X0552943Y0125287D02*
X0496761Y0125287D01*
X0495762Y0124288D02*
X0552943Y0124288D01*
X0552943Y0123290D02*
X0494764Y0123290D01*
X0493765Y0122291D02*
X0552943Y0122291D01*
X0552943Y0121293D02*
X0492767Y0121293D01*
X0491768Y0120294D02*
X0552943Y0120294D01*
X0552943Y0119296D02*
X0490770Y0119296D01*
X0489771Y0118297D02*
X0552943Y0118297D01*
X0552943Y0117299D02*
X0488773Y0117299D01*
X0487774Y0116300D02*
X0552943Y0116300D01*
X0552943Y0115302D02*
X0527509Y0115302D01*
X0527520Y0115284D02*
X0527322Y0115626D01*
X0527043Y0115905D01*
X0526701Y0116102D01*
X0526320Y0116205D01*
X0523638Y0116205D01*
X0523638Y0112221D01*
X0522669Y0112221D01*
X0522669Y0116205D01*
X0519988Y0116205D01*
X0519606Y0116102D01*
X0519264Y0115905D01*
X0518985Y0115626D01*
X0518787Y0115284D01*
X0518685Y0114902D01*
X0518685Y0112220D01*
X0522669Y0112220D01*
X0522669Y0111252D01*
X0518685Y0111252D01*
X0518685Y0108570D01*
X0518787Y0108189D01*
X0518985Y0107847D01*
X0519264Y0107567D01*
X0519606Y0107370D01*
X0519988Y0107268D01*
X0522669Y0107268D01*
X0522669Y0111252D01*
X0523638Y0111252D01*
X0523638Y0112220D01*
X0527622Y0112220D01*
X0527622Y0114902D01*
X0527520Y0115284D01*
X0527622Y0114303D02*
X0552943Y0114303D01*
X0552943Y0113305D02*
X0527622Y0113305D01*
X0527622Y0112306D02*
X0552943Y0112306D01*
X0552943Y0111308D02*
X0523638Y0111308D01*
X0523638Y0111252D02*
X0527622Y0111252D01*
X0527622Y0108570D01*
X0527520Y0108189D01*
X0527322Y0107847D01*
X0527043Y0107567D01*
X0526701Y0107370D01*
X0526320Y0107268D01*
X0523638Y0107268D01*
X0523638Y0111252D01*
X0523638Y0110309D02*
X0522669Y0110309D01*
X0522669Y0109311D02*
X0523638Y0109311D01*
X0523638Y0108312D02*
X0522669Y0108312D01*
X0522669Y0107314D02*
X0523638Y0107314D01*
X0526491Y0107314D02*
X0552943Y0107314D01*
X0552943Y0108312D02*
X0527553Y0108312D01*
X0527622Y0109311D02*
X0552943Y0109311D01*
X0552943Y0110309D02*
X0527622Y0110309D01*
X0523638Y0112306D02*
X0522669Y0112306D01*
X0522669Y0111308D02*
X0482782Y0111308D01*
X0483780Y0112306D02*
X0518685Y0112306D01*
X0518685Y0113305D02*
X0484779Y0113305D01*
X0485777Y0114303D02*
X0518685Y0114303D01*
X0518798Y0115302D02*
X0486776Y0115302D01*
X0483831Y0118297D02*
X0470504Y0118297D01*
X0470535Y0119296D02*
X0484830Y0119296D01*
X0485828Y0120294D02*
X0470535Y0120294D01*
X0469764Y0117299D02*
X0482833Y0117299D01*
X0481834Y0116300D02*
X0434321Y0116300D01*
X0434321Y0115302D02*
X0461857Y0115302D01*
X0461798Y0115243D02*
X0461798Y0108229D01*
X0462560Y0107468D01*
X0469574Y0107468D01*
X0470335Y0108229D01*
X0470335Y0115243D01*
X0469574Y0116005D01*
X0462560Y0116005D01*
X0461798Y0115243D01*
X0461798Y0114303D02*
X0434321Y0114303D01*
X0434321Y0113305D02*
X0461798Y0113305D01*
X0461798Y0112306D02*
X0434321Y0112306D01*
X0434220Y0111308D02*
X0461798Y0111308D01*
X0461798Y0110309D02*
X0433702Y0110309D01*
X0433064Y0109671D02*
X0433064Y0109671D01*
X0432703Y0109311D02*
X0461798Y0109311D01*
X0461798Y0108312D02*
X0431705Y0108312D01*
X0430706Y0107314D02*
X0472848Y0107314D01*
X0473846Y0108312D02*
X0470335Y0108312D01*
X0470335Y0109311D02*
X0474845Y0109311D01*
X0475843Y0110309D02*
X0470335Y0110309D01*
X0470335Y0111308D02*
X0476842Y0111308D01*
X0477840Y0112306D02*
X0470335Y0112306D01*
X0470335Y0113305D02*
X0478839Y0113305D01*
X0479837Y0114303D02*
X0470335Y0114303D01*
X0470277Y0115302D02*
X0480836Y0115302D01*
X0481783Y0110309D02*
X0518685Y0110309D01*
X0518685Y0109311D02*
X0480784Y0109311D01*
X0479786Y0108312D02*
X0518754Y0108312D01*
X0519816Y0107314D02*
X0478787Y0107314D01*
X0477789Y0106315D02*
X0552943Y0106315D01*
X0552943Y0105317D02*
X0476790Y0105317D01*
X0475792Y0104318D02*
X0487964Y0104318D01*
X0487964Y0104432D02*
X0487964Y0090694D01*
X0488725Y0089932D01*
X0502464Y0089932D01*
X0503225Y0090694D01*
X0503225Y0104432D01*
X0502464Y0105194D01*
X0488725Y0105194D01*
X0487964Y0104432D01*
X0487964Y0103320D02*
X0474793Y0103320D01*
X0473795Y0102321D02*
X0487964Y0102321D01*
X0487964Y0101323D02*
X0472796Y0101323D01*
X0471798Y0100324D02*
X0487964Y0100324D01*
X0487964Y0099326D02*
X0470799Y0099326D01*
X0469801Y0098327D02*
X0487964Y0098327D01*
X0487964Y0097329D02*
X0468802Y0097329D01*
X0467804Y0096330D02*
X0487964Y0096330D01*
X0487964Y0095332D02*
X0466805Y0095332D01*
X0465807Y0094333D02*
X0487964Y0094333D01*
X0487964Y0093335D02*
X0464808Y0093335D01*
X0463810Y0092336D02*
X0487964Y0092336D01*
X0487964Y0091337D02*
X0462811Y0091337D01*
X0461813Y0090339D02*
X0488319Y0090339D01*
X0502870Y0090339D02*
X0539731Y0090339D01*
X0538733Y0089340D02*
X0460814Y0089340D01*
X0459816Y0088342D02*
X0537734Y0088342D01*
X0536736Y0087343D02*
X0458817Y0087343D01*
X0457819Y0086345D02*
X0535737Y0086345D01*
X0534739Y0085346D02*
X0456820Y0085346D01*
X0455822Y0084348D02*
X0533740Y0084348D01*
X0532742Y0083349D02*
X0454823Y0083349D01*
X0453825Y0082351D02*
X0531743Y0082351D01*
X0530745Y0081352D02*
X0452826Y0081352D01*
X0451828Y0080354D02*
X0529746Y0080354D01*
X0528748Y0079355D02*
X0450829Y0079355D01*
X0449831Y0078357D02*
X0527749Y0078357D01*
X0526751Y0077358D02*
X0448832Y0077358D01*
X0447885Y0082351D02*
X0405524Y0082351D01*
X0406742Y0083349D02*
X0448884Y0083349D01*
X0449882Y0084348D02*
X0407740Y0084348D01*
X0408739Y0085346D02*
X0450881Y0085346D01*
X0451879Y0086345D02*
X0409737Y0086345D01*
X0410736Y0087343D02*
X0452878Y0087343D01*
X0453876Y0088342D02*
X0411735Y0088342D01*
X0412733Y0089340D02*
X0454875Y0089340D01*
X0455873Y0090339D02*
X0413732Y0090339D01*
X0414730Y0091337D02*
X0456872Y0091337D01*
X0457870Y0092336D02*
X0415729Y0092336D01*
X0416727Y0093335D02*
X0458869Y0093335D01*
X0459867Y0094333D02*
X0417726Y0094333D01*
X0418724Y0095332D02*
X0460866Y0095332D01*
X0461864Y0096330D02*
X0419723Y0096330D01*
X0420721Y0097329D02*
X0462863Y0097329D01*
X0463861Y0098327D02*
X0421720Y0098327D01*
X0422718Y0099326D02*
X0464860Y0099326D01*
X0465858Y0100324D02*
X0423717Y0100324D01*
X0424715Y0101323D02*
X0466857Y0101323D01*
X0467855Y0102321D02*
X0425714Y0102321D01*
X0426712Y0103320D02*
X0468854Y0103320D01*
X0469852Y0104318D02*
X0427711Y0104318D01*
X0428709Y0105317D02*
X0470851Y0105317D01*
X0471849Y0106315D02*
X0429708Y0106315D01*
X0424501Y0109311D02*
X0400057Y0109311D01*
X0400057Y0110309D02*
X0425499Y0110309D01*
X0426498Y0111308D02*
X0400057Y0111308D01*
X0400057Y0112306D02*
X0427496Y0112306D01*
X0428495Y0113305D02*
X0400057Y0113305D01*
X0400057Y0114303D02*
X0428521Y0114303D01*
X0428521Y0115302D02*
X0400057Y0115302D01*
X0400057Y0116300D02*
X0428521Y0116300D01*
X0428521Y0117299D02*
X0400057Y0117299D01*
X0400057Y0118297D02*
X0428521Y0118297D01*
X0428521Y0119296D02*
X0400057Y0119296D01*
X0400057Y0120294D02*
X0428521Y0120294D01*
X0428521Y0121293D02*
X0400057Y0121293D01*
X0400057Y0122291D02*
X0428521Y0122291D01*
X0428521Y0123290D02*
X0400057Y0123290D01*
X0400057Y0124288D02*
X0428521Y0124288D01*
X0434321Y0120294D02*
X0461598Y0120294D01*
X0461598Y0121094D02*
X0461598Y0118413D01*
X0461701Y0118031D01*
X0461898Y0117689D01*
X0462177Y0117410D01*
X0462519Y0117212D01*
X0462901Y0117110D01*
X0465583Y0117110D01*
X0465583Y0121094D01*
X0461598Y0121094D01*
X0461598Y0119296D02*
X0434321Y0119296D01*
X0434321Y0118297D02*
X0461629Y0118297D01*
X0462370Y0117299D02*
X0434321Y0117299D01*
X0423502Y0108312D02*
X0400057Y0108312D01*
X0399654Y0107314D02*
X0422504Y0107314D01*
X0421505Y0106315D02*
X0398655Y0106315D01*
X0397657Y0105317D02*
X0420507Y0105317D01*
X0419508Y0104318D02*
X0396658Y0104318D01*
X0395660Y0103320D02*
X0418510Y0103320D01*
X0417511Y0102321D02*
X0394661Y0102321D01*
X0393663Y0101323D02*
X0416513Y0101323D01*
X0415514Y0100324D02*
X0392664Y0100324D01*
X0392183Y0099843D02*
X0392183Y0099843D01*
X0391666Y0099326D02*
X0414516Y0099326D01*
X0413517Y0098327D02*
X0375936Y0098327D01*
X0377489Y0097329D02*
X0412519Y0097329D01*
X0411520Y0096330D02*
X0378488Y0096330D01*
X0379486Y0095332D02*
X0410522Y0095332D01*
X0409523Y0094333D02*
X0380485Y0094333D01*
X0381483Y0093335D02*
X0408525Y0093335D01*
X0407526Y0092336D02*
X0382482Y0092336D01*
X0383480Y0091337D02*
X0406528Y0091337D01*
X0405529Y0090339D02*
X0384479Y0090339D01*
X0385477Y0089340D02*
X0404531Y0089340D01*
X0403532Y0088342D02*
X0386476Y0088342D01*
X0382267Y0084348D02*
X0359811Y0084348D01*
X0360809Y0083349D02*
X0383266Y0083349D01*
X0384484Y0082351D02*
X0361808Y0082351D01*
X0358864Y0079355D02*
X0297616Y0079355D01*
X0297616Y0078357D02*
X0359862Y0078357D01*
X0360861Y0077358D02*
X0297616Y0077358D01*
X0297616Y0076360D02*
X0525752Y0076360D01*
X0524754Y0075361D02*
X0297616Y0075361D01*
X0297616Y0074363D02*
X0523755Y0074363D01*
X0522757Y0073364D02*
X0297616Y0073364D01*
X0297616Y0073315D02*
X0297616Y0081540D01*
X0299784Y0083708D01*
X0299784Y0087244D01*
X0297284Y0089745D01*
X0293748Y0089745D01*
X0292576Y0088574D01*
X0292576Y0091346D01*
X0291346Y0092576D01*
X0289784Y0094138D01*
X0289784Y0097244D01*
X0287284Y0099745D01*
X0283748Y0099745D01*
X0281247Y0097244D01*
X0281247Y0093708D01*
X0283748Y0091208D01*
X0286775Y0091208D01*
X0288376Y0089607D01*
X0288376Y0088652D01*
X0287284Y0089745D01*
X0283748Y0089745D01*
X0281247Y0087244D01*
X0281247Y0083708D01*
X0283416Y0081540D01*
X0283416Y0054803D01*
X0284636Y0053583D01*
X0284636Y0052855D01*
X0285106Y0051721D01*
X0285973Y0050854D01*
X0287107Y0050384D01*
X0288334Y0050384D01*
X0289468Y0050854D01*
X0290335Y0051721D01*
X0290805Y0052855D01*
X0290805Y0054082D01*
X0290335Y0055216D01*
X0289468Y0056083D01*
X0288334Y0056553D01*
X0287616Y0056553D01*
X0287616Y0081540D01*
X0288376Y0082300D01*
X0288376Y0066378D01*
X0313770Y0040984D01*
X0313770Y0040257D01*
X0314240Y0039123D01*
X0315107Y0038255D01*
X0316241Y0037786D01*
X0317468Y0037786D01*
X0318601Y0038255D01*
X0319469Y0039123D01*
X0319939Y0040257D01*
X0319939Y0041484D01*
X0319469Y0042617D01*
X0318601Y0043485D01*
X0317468Y0043954D01*
X0316740Y0043954D01*
X0292576Y0068118D01*
X0292576Y0082379D01*
X0293416Y0081540D01*
X0293416Y0071575D01*
X0297431Y0067559D01*
X0298662Y0066329D01*
X0446112Y0066329D01*
X0446129Y0066288D01*
X0446997Y0065421D01*
X0448131Y0064951D01*
X0449358Y0064951D01*
X0450491Y0065421D01*
X0451359Y0066288D01*
X0451828Y0067422D01*
X0451828Y0068649D01*
X0451359Y0069783D01*
X0450491Y0070650D01*
X0449358Y0071120D01*
X0448131Y0071120D01*
X0446997Y0070650D01*
X0446876Y0070529D01*
X0300401Y0070529D01*
X0297616Y0073315D01*
X0298565Y0072366D02*
X0521758Y0072366D01*
X0520760Y0071367D02*
X0299563Y0071367D01*
X0296619Y0068372D02*
X0292576Y0068372D01*
X0292576Y0069370D02*
X0295621Y0069370D01*
X0294622Y0070369D02*
X0292576Y0070369D01*
X0292576Y0071367D02*
X0293623Y0071367D01*
X0293416Y0072366D02*
X0292576Y0072366D01*
X0292576Y0073364D02*
X0293416Y0073364D01*
X0293416Y0074363D02*
X0292576Y0074363D01*
X0292576Y0075361D02*
X0293416Y0075361D01*
X0293416Y0076360D02*
X0292576Y0076360D01*
X0292576Y0077358D02*
X0293416Y0077358D01*
X0293416Y0078357D02*
X0292576Y0078357D01*
X0292576Y0079355D02*
X0293416Y0079355D01*
X0293416Y0080354D02*
X0292576Y0080354D01*
X0292576Y0081352D02*
X0293416Y0081352D01*
X0292605Y0082351D02*
X0292576Y0082351D01*
X0288376Y0081352D02*
X0287616Y0081352D01*
X0287616Y0080354D02*
X0288376Y0080354D01*
X0288376Y0079355D02*
X0287616Y0079355D01*
X0287616Y0078357D02*
X0288376Y0078357D01*
X0288376Y0077358D02*
X0287616Y0077358D01*
X0287616Y0076360D02*
X0288376Y0076360D01*
X0288376Y0075361D02*
X0287616Y0075361D01*
X0287616Y0074363D02*
X0288376Y0074363D01*
X0288376Y0073364D02*
X0287616Y0073364D01*
X0287616Y0072366D02*
X0288376Y0072366D01*
X0288376Y0071367D02*
X0287616Y0071367D01*
X0287616Y0070369D02*
X0288376Y0070369D01*
X0288376Y0069370D02*
X0287616Y0069370D01*
X0287616Y0068372D02*
X0288376Y0068372D01*
X0288376Y0067373D02*
X0287616Y0067373D01*
X0287616Y0066375D02*
X0288380Y0066375D01*
X0287616Y0065376D02*
X0289378Y0065376D01*
X0290377Y0064378D02*
X0287616Y0064378D01*
X0287616Y0063379D02*
X0291375Y0063379D01*
X0292374Y0062381D02*
X0287616Y0062381D01*
X0287616Y0061382D02*
X0293372Y0061382D01*
X0294371Y0060384D02*
X0287616Y0060384D01*
X0287616Y0059385D02*
X0295369Y0059385D01*
X0296368Y0058387D02*
X0287616Y0058387D01*
X0287616Y0057388D02*
X0297366Y0057388D01*
X0298365Y0056390D02*
X0288728Y0056390D01*
X0290160Y0055391D02*
X0299363Y0055391D01*
X0300362Y0054393D02*
X0290676Y0054393D01*
X0290805Y0053394D02*
X0301360Y0053394D01*
X0302359Y0052396D02*
X0290614Y0052396D01*
X0290011Y0051397D02*
X0303358Y0051397D01*
X0304356Y0050399D02*
X0288368Y0050399D01*
X0287072Y0050399D02*
X0007968Y0050399D01*
X0007968Y0051397D02*
X0285430Y0051397D01*
X0284827Y0052396D02*
X0007968Y0052396D01*
X0007968Y0053394D02*
X0284636Y0053394D01*
X0283827Y0054393D02*
X0007968Y0054393D01*
X0007968Y0055391D02*
X0283416Y0055391D01*
X0283416Y0056390D02*
X0007968Y0056390D01*
X0007968Y0057388D02*
X0283416Y0057388D01*
X0283416Y0058387D02*
X0007968Y0058387D01*
X0007968Y0059385D02*
X0283416Y0059385D01*
X0283416Y0060384D02*
X0266714Y0060384D01*
X0266633Y0060303D02*
X0267501Y0061170D01*
X0267970Y0062304D01*
X0267970Y0063531D01*
X0267501Y0064664D01*
X0266986Y0065179D01*
X0266986Y0081208D01*
X0267284Y0081208D01*
X0269784Y0083708D01*
X0269784Y0087244D01*
X0267284Y0089745D01*
X0263748Y0089745D01*
X0261247Y0087244D01*
X0261247Y0083708D01*
X0262786Y0082170D01*
X0262786Y0065179D01*
X0262271Y0064664D01*
X0261802Y0063531D01*
X0261802Y0062304D01*
X0262271Y0061170D01*
X0263139Y0060303D01*
X0264272Y0059833D01*
X0265499Y0059833D01*
X0266633Y0060303D01*
X0267588Y0061382D02*
X0283416Y0061382D01*
X0283416Y0062381D02*
X0267970Y0062381D01*
X0267970Y0063379D02*
X0283416Y0063379D01*
X0283416Y0064378D02*
X0267619Y0064378D01*
X0266986Y0065376D02*
X0273026Y0065376D01*
X0273375Y0065027D02*
X0274509Y0064557D01*
X0275736Y0064557D01*
X0276869Y0065027D01*
X0277737Y0065895D01*
X0278206Y0067028D01*
X0278206Y0068255D01*
X0277737Y0069389D01*
X0277222Y0069904D01*
X0277222Y0081208D01*
X0277284Y0081208D01*
X0279784Y0083708D01*
X0279784Y0087244D01*
X0277284Y0089745D01*
X0273748Y0089745D01*
X0271247Y0087244D01*
X0271247Y0083708D01*
X0273022Y0081934D01*
X0273022Y0069904D01*
X0272507Y0069389D01*
X0272038Y0068255D01*
X0272038Y0067028D01*
X0272507Y0065895D01*
X0273375Y0065027D01*
X0272308Y0066375D02*
X0266986Y0066375D01*
X0266986Y0067373D02*
X0272038Y0067373D01*
X0272086Y0068372D02*
X0266986Y0068372D01*
X0266986Y0069370D02*
X0272500Y0069370D01*
X0273022Y0070369D02*
X0266986Y0070369D01*
X0266986Y0071367D02*
X0273022Y0071367D01*
X0273022Y0072366D02*
X0266986Y0072366D01*
X0266986Y0073364D02*
X0273022Y0073364D01*
X0273022Y0074363D02*
X0266986Y0074363D01*
X0266986Y0075361D02*
X0273022Y0075361D01*
X0273022Y0076360D02*
X0266986Y0076360D01*
X0266986Y0077358D02*
X0273022Y0077358D01*
X0273022Y0078357D02*
X0266986Y0078357D01*
X0266986Y0079355D02*
X0273022Y0079355D01*
X0273022Y0080354D02*
X0266986Y0080354D01*
X0267428Y0081352D02*
X0273022Y0081352D01*
X0272605Y0082351D02*
X0268427Y0082351D01*
X0269425Y0083349D02*
X0271606Y0083349D01*
X0271247Y0084348D02*
X0269784Y0084348D01*
X0269784Y0085346D02*
X0271247Y0085346D01*
X0271247Y0086345D02*
X0269784Y0086345D01*
X0269685Y0087343D02*
X0271346Y0087343D01*
X0272345Y0088342D02*
X0268687Y0088342D01*
X0267688Y0089340D02*
X0273343Y0089340D01*
X0273748Y0091208D02*
X0277284Y0091208D01*
X0279784Y0093708D01*
X0279784Y0097244D01*
X0277284Y0099745D01*
X0273748Y0099745D01*
X0271247Y0097244D01*
X0271247Y0093708D01*
X0273748Y0091208D01*
X0273618Y0091337D02*
X0267413Y0091337D01*
X0267284Y0091208D02*
X0269784Y0093708D01*
X0269784Y0097244D01*
X0267773Y0099255D01*
X0267773Y0117166D01*
X0274023Y0123416D01*
X0340970Y0123416D01*
X0341485Y0122901D01*
X0342619Y0122431D01*
X0343846Y0122431D01*
X0344979Y0122901D01*
X0345847Y0123769D01*
X0346317Y0124902D01*
X0346317Y0126129D01*
X0345847Y0127263D01*
X0344979Y0128130D01*
X0343846Y0128600D01*
X0342619Y0128600D01*
X0341485Y0128130D01*
X0340970Y0127616D01*
X0272284Y0127616D01*
X0264803Y0120135D01*
X0263573Y0118905D01*
X0263573Y0099570D01*
X0261247Y0097244D01*
X0261247Y0093708D01*
X0263748Y0091208D01*
X0267284Y0091208D01*
X0268412Y0092336D02*
X0272620Y0092336D01*
X0271621Y0093335D02*
X0269410Y0093335D01*
X0269784Y0094333D02*
X0271247Y0094333D01*
X0271247Y0095332D02*
X0269784Y0095332D01*
X0269784Y0096330D02*
X0271247Y0096330D01*
X0271331Y0097329D02*
X0269700Y0097329D01*
X0268702Y0098327D02*
X0272330Y0098327D01*
X0273328Y0099326D02*
X0267773Y0099326D01*
X0267773Y0100324D02*
X0295386Y0100324D01*
X0296384Y0101323D02*
X0267773Y0101323D01*
X0267773Y0102321D02*
X0297383Y0102321D01*
X0293328Y0099326D02*
X0287703Y0099326D01*
X0288702Y0098327D02*
X0292330Y0098327D01*
X0291331Y0097329D02*
X0289700Y0097329D01*
X0289784Y0096330D02*
X0291247Y0096330D01*
X0291247Y0095332D02*
X0289784Y0095332D01*
X0289784Y0094333D02*
X0291247Y0094333D01*
X0291621Y0093335D02*
X0290588Y0093335D01*
X0291587Y0092336D02*
X0292620Y0092336D01*
X0292576Y0091337D02*
X0293618Y0091337D01*
X0292576Y0090339D02*
X0376276Y0090339D01*
X0375278Y0091337D02*
X0307413Y0091337D01*
X0307367Y0089945D02*
X0306000Y0089945D01*
X0306000Y0085961D01*
X0305031Y0085961D01*
X0305031Y0084992D01*
X0301047Y0084992D01*
X0301047Y0083625D01*
X0303665Y0081008D01*
X0305031Y0081008D01*
X0305031Y0084992D01*
X0306000Y0084992D01*
X0306000Y0081008D01*
X0307367Y0081008D01*
X0309984Y0083625D01*
X0309984Y0084992D01*
X0306000Y0084992D01*
X0306000Y0085961D01*
X0309984Y0085961D01*
X0309984Y0087327D01*
X0307367Y0089945D01*
X0307971Y0089340D02*
X0377275Y0089340D01*
X0378273Y0088342D02*
X0308970Y0088342D01*
X0309968Y0087343D02*
X0379272Y0087343D01*
X0380270Y0086345D02*
X0351244Y0086345D01*
X0349394Y0086345D02*
X0309984Y0086345D01*
X0309984Y0084348D02*
X0347377Y0084348D01*
X0347235Y0083349D02*
X0309708Y0083349D01*
X0308710Y0082351D02*
X0347411Y0082351D01*
X0347994Y0081352D02*
X0307711Y0081352D01*
X0306000Y0081352D02*
X0305031Y0081352D01*
X0305031Y0082351D02*
X0306000Y0082351D01*
X0306000Y0083349D02*
X0305031Y0083349D01*
X0305031Y0084348D02*
X0306000Y0084348D01*
X0306000Y0085346D02*
X0347914Y0085346D01*
X0358812Y0085346D02*
X0381269Y0085346D01*
X0374279Y0092336D02*
X0308412Y0092336D01*
X0306000Y0089340D02*
X0305031Y0089340D01*
X0305031Y0089945D02*
X0305031Y0085961D01*
X0301047Y0085961D01*
X0301047Y0087327D01*
X0303665Y0089945D01*
X0305031Y0089945D01*
X0305031Y0088342D02*
X0306000Y0088342D01*
X0306000Y0087343D02*
X0305031Y0087343D01*
X0305031Y0086345D02*
X0306000Y0086345D01*
X0305031Y0085346D02*
X0299784Y0085346D01*
X0299784Y0084348D02*
X0301047Y0084348D01*
X0301323Y0083349D02*
X0299425Y0083349D01*
X0298427Y0082351D02*
X0302322Y0082351D01*
X0303320Y0081352D02*
X0297616Y0081352D01*
X0297616Y0080354D02*
X0349589Y0080354D01*
X0351049Y0080354D02*
X0357865Y0080354D01*
X0389720Y0103320D02*
X0267773Y0103320D01*
X0267773Y0104318D02*
X0390718Y0104318D01*
X0391717Y0105317D02*
X0267773Y0105317D01*
X0267773Y0106315D02*
X0392715Y0106315D01*
X0393714Y0107314D02*
X0267773Y0107314D01*
X0267773Y0108312D02*
X0394712Y0108312D01*
X0395711Y0109311D02*
X0267773Y0109311D01*
X0267773Y0110309D02*
X0395857Y0110309D01*
X0395857Y0111308D02*
X0267773Y0111308D01*
X0267773Y0112306D02*
X0296288Y0112306D01*
X0296556Y0112195D02*
X0297783Y0112195D01*
X0298916Y0112665D01*
X0299431Y0113180D01*
X0333490Y0113180D01*
X0334005Y0112665D01*
X0335138Y0112195D01*
X0336365Y0112195D01*
X0337499Y0112665D01*
X0338367Y0113532D01*
X0338836Y0114666D01*
X0338836Y0115893D01*
X0338367Y0117027D01*
X0337499Y0117894D01*
X0336365Y0118364D01*
X0335138Y0118364D01*
X0334005Y0117894D01*
X0333490Y0117380D01*
X0299431Y0117380D01*
X0298916Y0117894D01*
X0297783Y0118364D01*
X0296556Y0118364D01*
X0295422Y0117894D01*
X0294555Y0117027D01*
X0294085Y0115893D01*
X0294085Y0114666D01*
X0294555Y0113532D01*
X0295422Y0112665D01*
X0296556Y0112195D01*
X0298051Y0112306D02*
X0334871Y0112306D01*
X0336633Y0112306D02*
X0395857Y0112306D01*
X0395857Y0113305D02*
X0338139Y0113305D01*
X0338686Y0114303D02*
X0395857Y0114303D01*
X0395857Y0115302D02*
X0338836Y0115302D01*
X0338668Y0116300D02*
X0395857Y0116300D01*
X0395857Y0117299D02*
X0338094Y0117299D01*
X0336526Y0118297D02*
X0395857Y0118297D01*
X0395857Y0119296D02*
X0269903Y0119296D01*
X0268905Y0118297D02*
X0296395Y0118297D01*
X0297943Y0118297D02*
X0334978Y0118297D01*
X0341096Y0123290D02*
X0273898Y0123290D01*
X0272899Y0122291D02*
X0395857Y0122291D01*
X0395857Y0121293D02*
X0271900Y0121293D01*
X0270902Y0120294D02*
X0395857Y0120294D01*
X0395857Y0123290D02*
X0345368Y0123290D01*
X0346062Y0124288D02*
X0395857Y0124288D01*
X0395857Y0125287D02*
X0346317Y0125287D01*
X0346252Y0126285D02*
X0395857Y0126285D01*
X0395857Y0127284D02*
X0345826Y0127284D01*
X0344612Y0128282D02*
X0395857Y0128282D01*
X0395857Y0129281D02*
X0252419Y0129281D01*
X0252419Y0130279D02*
X0395857Y0130279D01*
X0395857Y0131278D02*
X0252419Y0131278D01*
X0252419Y0132276D02*
X0395857Y0132276D01*
X0395857Y0133275D02*
X0252419Y0133275D01*
X0252419Y0134273D02*
X0395857Y0134273D01*
X0395857Y0135272D02*
X0252419Y0135272D01*
X0252419Y0136271D02*
X0395857Y0136271D01*
X0395857Y0137269D02*
X0252419Y0137269D01*
X0252419Y0138268D02*
X0395857Y0138268D01*
X0395857Y0139266D02*
X0252419Y0139266D01*
X0252419Y0140265D02*
X0395857Y0140265D01*
X0395857Y0141263D02*
X0252419Y0141263D01*
X0252419Y0142262D02*
X0395857Y0142262D01*
X0395857Y0143260D02*
X0252419Y0143260D01*
X0252419Y0144259D02*
X0395857Y0144259D01*
X0395857Y0145257D02*
X0252419Y0145257D01*
X0253162Y0146256D02*
X0395857Y0146256D01*
X0395857Y0147254D02*
X0254161Y0147254D01*
X0255159Y0148253D02*
X0395857Y0148253D01*
X0395857Y0149251D02*
X0256158Y0149251D01*
X0257157Y0150250D02*
X0395857Y0150250D01*
X0395857Y0151248D02*
X0258155Y0151248D01*
X0259154Y0152247D02*
X0395857Y0152247D01*
X0395857Y0153245D02*
X0260152Y0153245D01*
X0261151Y0154244D02*
X0378646Y0154244D01*
X0377865Y0155242D02*
X0262149Y0155242D01*
X0263148Y0156241D02*
X0377550Y0156241D01*
X0377553Y0157239D02*
X0280851Y0157239D01*
X0282285Y0158238D02*
X0377966Y0158238D01*
X0378534Y0159236D02*
X0282802Y0159236D01*
X0282931Y0160235D02*
X0378534Y0160235D01*
X0378534Y0161233D02*
X0282741Y0161233D01*
X0282138Y0162232D02*
X0378534Y0162232D01*
X0382734Y0162232D02*
X0395857Y0162232D01*
X0395857Y0163230D02*
X0382734Y0163230D01*
X0382734Y0164229D02*
X0395857Y0164229D01*
X0395857Y0165227D02*
X0382734Y0165227D01*
X0382657Y0166226D02*
X0395857Y0166226D01*
X0395857Y0167224D02*
X0381659Y0167224D01*
X0380660Y0168223D02*
X0395857Y0168223D01*
X0395857Y0169221D02*
X0379662Y0169221D01*
X0378663Y0170220D02*
X0395857Y0170220D01*
X0395857Y0161233D02*
X0382734Y0161233D01*
X0382734Y0160235D02*
X0395857Y0160235D01*
X0395857Y0159236D02*
X0382734Y0159236D01*
X0383301Y0158238D02*
X0395857Y0158238D01*
X0395857Y0157239D02*
X0383715Y0157239D01*
X0383718Y0156241D02*
X0395857Y0156241D01*
X0395857Y0155242D02*
X0383402Y0155242D01*
X0382621Y0154244D02*
X0395857Y0154244D01*
X0341852Y0128282D02*
X0252419Y0128282D01*
X0252419Y0127284D02*
X0271952Y0127284D01*
X0270953Y0126285D02*
X0252419Y0126285D01*
X0252419Y0125287D02*
X0269955Y0125287D01*
X0268956Y0124288D02*
X0252419Y0124288D01*
X0252419Y0123290D02*
X0267958Y0123290D01*
X0266959Y0122291D02*
X0252419Y0122291D01*
X0252419Y0121293D02*
X0265961Y0121293D01*
X0264962Y0120294D02*
X0252419Y0120294D01*
X0252419Y0119296D02*
X0263964Y0119296D01*
X0263573Y0118297D02*
X0252419Y0118297D01*
X0252419Y0117299D02*
X0263573Y0117299D01*
X0263573Y0116300D02*
X0252419Y0116300D01*
X0252419Y0115302D02*
X0263573Y0115302D01*
X0263573Y0114303D02*
X0252419Y0114303D01*
X0252419Y0113305D02*
X0263573Y0113305D01*
X0263573Y0112306D02*
X0252419Y0112306D01*
X0252419Y0111308D02*
X0263573Y0111308D01*
X0263573Y0110309D02*
X0252419Y0110309D01*
X0252419Y0109311D02*
X0263573Y0109311D01*
X0263573Y0108312D02*
X0252419Y0108312D01*
X0252419Y0107314D02*
X0263573Y0107314D01*
X0263573Y0106315D02*
X0252419Y0106315D01*
X0252419Y0105317D02*
X0263573Y0105317D01*
X0263573Y0104318D02*
X0252419Y0104318D01*
X0252419Y0103320D02*
X0263573Y0103320D01*
X0263573Y0102321D02*
X0252419Y0102321D01*
X0252419Y0101323D02*
X0263573Y0101323D01*
X0263573Y0100324D02*
X0252419Y0100324D01*
X0252419Y0099326D02*
X0253328Y0099326D01*
X0257703Y0099326D02*
X0263328Y0099326D01*
X0262330Y0098327D02*
X0258702Y0098327D01*
X0259700Y0097329D02*
X0261331Y0097329D01*
X0261247Y0096330D02*
X0259784Y0096330D01*
X0259784Y0095332D02*
X0261247Y0095332D01*
X0261247Y0094333D02*
X0259784Y0094333D01*
X0259410Y0093335D02*
X0261621Y0093335D01*
X0262620Y0092336D02*
X0258412Y0092336D01*
X0257413Y0091337D02*
X0263618Y0091337D01*
X0263343Y0089340D02*
X0257688Y0089340D01*
X0258687Y0088342D02*
X0262345Y0088342D01*
X0261346Y0087343D02*
X0259685Y0087343D01*
X0259784Y0086345D02*
X0261247Y0086345D01*
X0261247Y0085346D02*
X0259784Y0085346D01*
X0259784Y0084348D02*
X0261247Y0084348D01*
X0261606Y0083349D02*
X0259425Y0083349D01*
X0258427Y0082351D02*
X0262605Y0082351D01*
X0262786Y0081352D02*
X0257428Y0081352D01*
X0262786Y0080354D02*
X0007968Y0080354D01*
X0007968Y0081352D02*
X0123793Y0081352D01*
X0122794Y0082351D02*
X0007968Y0082351D01*
X0007968Y0083349D02*
X0121796Y0083349D01*
X0121520Y0084348D02*
X0007968Y0084348D01*
X0007968Y0085346D02*
X0125504Y0085346D01*
X0125504Y0086345D02*
X0126472Y0086345D01*
X0126472Y0087343D02*
X0125504Y0087343D01*
X0125504Y0088342D02*
X0126472Y0088342D01*
X0126472Y0089340D02*
X0125504Y0089340D01*
X0123533Y0089340D02*
X0007968Y0089340D01*
X0007968Y0088342D02*
X0122534Y0088342D01*
X0121536Y0087343D02*
X0007968Y0087343D01*
X0007968Y0086345D02*
X0121520Y0086345D01*
X0127886Y0091337D02*
X0128928Y0091337D01*
X0128884Y0092336D02*
X0128928Y0092336D01*
X0133136Y0091337D02*
X0134090Y0091337D01*
X0134135Y0090339D02*
X0147999Y0090339D01*
X0147886Y0091337D02*
X0148998Y0091337D01*
X0149006Y0092336D02*
X0148884Y0092336D01*
X0153206Y0091337D02*
X0154090Y0091337D01*
X0169442Y0088342D02*
X0242345Y0088342D01*
X0243343Y0089340D02*
X0177350Y0089340D01*
X0170441Y0087343D02*
X0241346Y0087343D01*
X0241247Y0086345D02*
X0170457Y0086345D01*
X0169883Y0093335D02*
X0175404Y0093335D01*
X0176403Y0094333D02*
X0170257Y0094333D01*
X0170257Y0095332D02*
X0177401Y0095332D01*
X0178400Y0096330D02*
X0170257Y0096330D01*
X0170173Y0097329D02*
X0179398Y0097329D01*
X0180397Y0098327D02*
X0169174Y0098327D01*
X0133801Y0099326D02*
X0133128Y0099326D01*
X0252419Y0092336D02*
X0252620Y0092336D01*
X0252428Y0091337D02*
X0253618Y0091337D01*
X0253426Y0090339D02*
X0287644Y0090339D01*
X0287688Y0089340D02*
X0288376Y0089340D01*
X0292576Y0089340D02*
X0293343Y0089340D01*
X0297688Y0089340D02*
X0303060Y0089340D01*
X0302062Y0088342D02*
X0298687Y0088342D01*
X0299685Y0087343D02*
X0301063Y0087343D01*
X0301047Y0086345D02*
X0299784Y0086345D01*
X0297413Y0091337D02*
X0303618Y0091337D01*
X0302620Y0092336D02*
X0298412Y0092336D01*
X0299410Y0093335D02*
X0301621Y0093335D01*
X0301247Y0094333D02*
X0299784Y0094333D01*
X0299784Y0095332D02*
X0301247Y0095332D01*
X0301247Y0096330D02*
X0299784Y0096330D01*
X0299700Y0097329D02*
X0301331Y0097329D01*
X0302330Y0098327D02*
X0299328Y0098327D01*
X0283328Y0099326D02*
X0277703Y0099326D01*
X0278702Y0098327D02*
X0282330Y0098327D01*
X0281331Y0097329D02*
X0279700Y0097329D01*
X0279784Y0096330D02*
X0281247Y0096330D01*
X0281247Y0095332D02*
X0279784Y0095332D01*
X0279784Y0094333D02*
X0281247Y0094333D01*
X0281621Y0093335D02*
X0279410Y0093335D01*
X0278412Y0092336D02*
X0282620Y0092336D01*
X0283618Y0091337D02*
X0277413Y0091337D01*
X0277688Y0089340D02*
X0283343Y0089340D01*
X0282345Y0088342D02*
X0278687Y0088342D01*
X0279685Y0087343D02*
X0281346Y0087343D01*
X0281247Y0086345D02*
X0279784Y0086345D01*
X0279784Y0085346D02*
X0281247Y0085346D01*
X0281247Y0084348D02*
X0279784Y0084348D01*
X0279425Y0083349D02*
X0281606Y0083349D01*
X0282605Y0082351D02*
X0278427Y0082351D01*
X0277428Y0081352D02*
X0283416Y0081352D01*
X0283416Y0080354D02*
X0277222Y0080354D01*
X0277222Y0079355D02*
X0283416Y0079355D01*
X0283416Y0078357D02*
X0277222Y0078357D01*
X0277222Y0077358D02*
X0283416Y0077358D01*
X0283416Y0076360D02*
X0277222Y0076360D01*
X0277222Y0075361D02*
X0283416Y0075361D01*
X0283416Y0074363D02*
X0277222Y0074363D01*
X0277222Y0073364D02*
X0283416Y0073364D01*
X0283416Y0072366D02*
X0277222Y0072366D01*
X0277222Y0071367D02*
X0283416Y0071367D01*
X0283416Y0070369D02*
X0277222Y0070369D01*
X0277744Y0069370D02*
X0283416Y0069370D01*
X0283416Y0068372D02*
X0278158Y0068372D01*
X0278206Y0067373D02*
X0283416Y0067373D01*
X0283416Y0066375D02*
X0277936Y0066375D01*
X0277218Y0065376D02*
X0283416Y0065376D01*
X0293321Y0067373D02*
X0297618Y0067373D01*
X0298616Y0066375D02*
X0294320Y0066375D01*
X0295318Y0065376D02*
X0447104Y0065376D01*
X0450384Y0065376D02*
X0514769Y0065376D01*
X0515767Y0066375D02*
X0451395Y0066375D01*
X0451808Y0067373D02*
X0516766Y0067373D01*
X0517764Y0068372D02*
X0451828Y0068372D01*
X0451530Y0069370D02*
X0518763Y0069370D01*
X0519761Y0070369D02*
X0450773Y0070369D01*
X0495797Y0046404D02*
X0314290Y0046404D01*
X0315288Y0045406D02*
X0494798Y0045406D01*
X0493800Y0044407D02*
X0451926Y0044407D01*
X0451660Y0044673D02*
X0450080Y0045328D01*
X0442369Y0045328D01*
X0440789Y0044673D01*
X0439579Y0043463D01*
X0438924Y0041883D01*
X0438924Y0040172D01*
X0439579Y0038592D01*
X0440789Y0037382D01*
X0442369Y0036728D01*
X0450080Y0036728D01*
X0451660Y0037382D01*
X0452870Y0038592D01*
X0453524Y0040172D01*
X0453524Y0041883D01*
X0452870Y0043463D01*
X0451660Y0044673D01*
X0452892Y0043409D02*
X0492801Y0043409D01*
X0491803Y0042410D02*
X0453306Y0042410D01*
X0453524Y0041412D02*
X0490804Y0041412D01*
X0489806Y0040413D02*
X0453524Y0040413D01*
X0453211Y0039415D02*
X0488807Y0039415D01*
X0487809Y0038416D02*
X0452694Y0038416D01*
X0451696Y0037418D02*
X0486810Y0037418D01*
X0483815Y0034422D02*
X0451911Y0034422D01*
X0452886Y0033424D02*
X0482816Y0033424D01*
X0490753Y0035421D02*
X0519490Y0035421D01*
X0519587Y0036419D02*
X0491751Y0036419D01*
X0492750Y0037418D02*
X0520585Y0037418D01*
X0521584Y0038416D02*
X0493748Y0038416D01*
X0496795Y0047403D02*
X0313291Y0047403D01*
X0312293Y0048402D02*
X0497794Y0048402D01*
X0498792Y0049400D02*
X0311294Y0049400D01*
X0310296Y0050399D02*
X0499791Y0050399D01*
X0500789Y0051397D02*
X0309297Y0051397D01*
X0308299Y0052396D02*
X0501788Y0052396D01*
X0502786Y0053394D02*
X0307300Y0053394D01*
X0306302Y0054393D02*
X0503785Y0054393D01*
X0504783Y0055391D02*
X0305303Y0055391D01*
X0304305Y0056390D02*
X0505782Y0056390D01*
X0506780Y0057388D02*
X0303306Y0057388D01*
X0302308Y0058387D02*
X0507779Y0058387D01*
X0508777Y0059385D02*
X0301309Y0059385D01*
X0300311Y0060384D02*
X0509776Y0060384D01*
X0510775Y0061382D02*
X0299312Y0061382D01*
X0298314Y0062381D02*
X0511773Y0062381D01*
X0512772Y0063379D02*
X0297315Y0063379D01*
X0296317Y0064378D02*
X0513770Y0064378D01*
X0503225Y0091337D02*
X0540730Y0091337D01*
X0541728Y0092336D02*
X0503225Y0092336D01*
X0503225Y0093335D02*
X0542727Y0093335D01*
X0543725Y0094333D02*
X0503225Y0094333D01*
X0503225Y0095332D02*
X0544724Y0095332D01*
X0545722Y0096330D02*
X0503225Y0096330D01*
X0503225Y0097329D02*
X0546721Y0097329D01*
X0547719Y0098327D02*
X0503225Y0098327D01*
X0503225Y0099326D02*
X0548718Y0099326D01*
X0549716Y0100324D02*
X0503225Y0100324D01*
X0503225Y0101323D02*
X0550715Y0101323D01*
X0551713Y0102321D02*
X0503225Y0102321D01*
X0503225Y0103320D02*
X0552712Y0103320D01*
X0552943Y0104318D02*
X0503225Y0104318D01*
X0522669Y0113305D02*
X0523638Y0113305D01*
X0523638Y0114303D02*
X0522669Y0114303D01*
X0522669Y0115302D02*
X0523638Y0115302D01*
X0495814Y0130279D02*
X0470335Y0130279D01*
X0470335Y0129281D02*
X0494815Y0129281D01*
X0493817Y0128282D02*
X0470335Y0128282D01*
X0469705Y0127284D02*
X0492818Y0127284D01*
X0466551Y0125287D02*
X0465583Y0125287D01*
X0465583Y0124288D02*
X0466551Y0124288D01*
X0466551Y0123290D02*
X0465583Y0123290D01*
X0465583Y0122291D02*
X0466551Y0122291D01*
X0466551Y0120294D02*
X0465583Y0120294D01*
X0465583Y0119296D02*
X0466551Y0119296D01*
X0466551Y0118297D02*
X0465583Y0118297D01*
X0465583Y0117299D02*
X0466551Y0117299D01*
X0580954Y0099326D02*
X0582534Y0099981D01*
X0584245Y0099981D01*
X0585826Y0099326D01*
X0525740Y0033424D02*
X0524740Y0033424D01*
X0524740Y0032425D02*
X0525740Y0032425D01*
X0525740Y0031427D02*
X0524740Y0031427D01*
X0524740Y0030428D02*
X0525740Y0030428D01*
X0525740Y0029430D02*
X0524740Y0029430D01*
X0524740Y0028431D02*
X0525740Y0028431D01*
X0596831Y0010458D02*
X0609205Y0010458D01*
X0609205Y0009460D02*
X0429326Y0009460D01*
X0428889Y0008461D02*
X0609205Y0008461D01*
X0609205Y0011457D02*
X0599714Y0011457D01*
X0601408Y0012455D02*
X0609205Y0012455D01*
X0609205Y0013454D02*
X0602692Y0013454D01*
X0603696Y0014452D02*
X0609205Y0014452D01*
X0609205Y0015451D02*
X0604508Y0015451D01*
X0605175Y0016449D02*
X0609205Y0016449D01*
X0609205Y0017448D02*
X0605710Y0017448D01*
X0606141Y0018446D02*
X0609205Y0018446D01*
X0609205Y0019445D02*
X0606480Y0019445D01*
X0606735Y0020443D02*
X0609205Y0020443D01*
X0609205Y0021442D02*
X0606914Y0021442D01*
X0607012Y0022440D02*
X0609205Y0022440D01*
X0446724Y0023439D02*
X0445724Y0023439D01*
X0445724Y0024437D02*
X0446724Y0024437D01*
X0446724Y0025436D02*
X0445724Y0025436D01*
X0442291Y0025436D02*
X0035954Y0025436D01*
X0036090Y0024437D02*
X0051153Y0024437D01*
X0054209Y0024437D02*
X0417295Y0024437D01*
X0420351Y0024437D02*
X0440270Y0024437D01*
X0439414Y0023439D02*
X0423566Y0023439D01*
X0425296Y0022440D02*
X0438952Y0022440D01*
X0445724Y0020443D02*
X0446724Y0020443D01*
X0446724Y0019445D02*
X0445724Y0019445D01*
X0445724Y0018446D02*
X0446724Y0018446D01*
X0446724Y0017448D02*
X0445724Y0017448D01*
X0414080Y0023439D02*
X0057424Y0023439D01*
X0059154Y0022440D02*
X0412350Y0022440D01*
X0411196Y0021442D02*
X0060308Y0021442D01*
X0061307Y0020443D02*
X0410197Y0020443D01*
X0409498Y0019445D02*
X0062006Y0019445D01*
X0062583Y0018446D02*
X0408921Y0018446D01*
X0408396Y0017448D02*
X0063108Y0017448D01*
X0063376Y0016449D02*
X0408128Y0016449D01*
X0407861Y0015451D02*
X0063643Y0015451D01*
X0063824Y0014452D02*
X0407680Y0014452D01*
X0407680Y0013454D02*
X0063824Y0013454D01*
X0063824Y0012455D02*
X0407680Y0012455D01*
X0407784Y0011457D02*
X0063720Y0011457D01*
X0063452Y0010458D02*
X0408052Y0010458D01*
X0408319Y0009460D02*
X0063185Y0009460D01*
X0062747Y0008461D02*
X0408757Y0008461D01*
X0440753Y0037418D02*
X0007968Y0037418D01*
X0007968Y0038416D02*
X0314946Y0038416D01*
X0314119Y0039415D02*
X0007968Y0039415D01*
X0007968Y0040413D02*
X0313770Y0040413D01*
X0313343Y0041412D02*
X0007968Y0041412D01*
X0007968Y0042410D02*
X0312344Y0042410D01*
X0311346Y0043409D02*
X0007968Y0043409D01*
X0007968Y0044407D02*
X0310347Y0044407D01*
X0309349Y0045406D02*
X0007968Y0045406D01*
X0007968Y0046404D02*
X0308350Y0046404D01*
X0307352Y0047403D02*
X0007968Y0047403D01*
X0007968Y0048402D02*
X0306353Y0048402D01*
X0305355Y0049400D02*
X0007968Y0049400D01*
X0007968Y0060384D02*
X0263058Y0060384D01*
X0262183Y0061382D02*
X0007968Y0061382D01*
X0007968Y0062381D02*
X0261802Y0062381D01*
X0261802Y0063379D02*
X0007968Y0063379D01*
X0007968Y0064378D02*
X0262152Y0064378D01*
X0262786Y0065376D02*
X0007968Y0065376D01*
X0007968Y0066375D02*
X0262786Y0066375D01*
X0262786Y0067373D02*
X0007968Y0067373D01*
X0007968Y0068372D02*
X0262786Y0068372D01*
X0262786Y0069370D02*
X0007968Y0069370D01*
X0007968Y0070369D02*
X0262786Y0070369D01*
X0262786Y0071367D02*
X0007968Y0071367D01*
X0007968Y0072366D02*
X0262786Y0072366D01*
X0262786Y0073364D02*
X0007968Y0073364D01*
X0007968Y0074363D02*
X0262786Y0074363D01*
X0262786Y0075361D02*
X0007968Y0075361D01*
X0007968Y0076360D02*
X0262786Y0076360D01*
X0262786Y0077358D02*
X0007968Y0077358D01*
X0007968Y0078357D02*
X0262786Y0078357D01*
X0262786Y0079355D02*
X0007968Y0079355D01*
X0007968Y0034422D02*
X0016658Y0034422D01*
X0015176Y0033424D02*
X0007968Y0033424D01*
X0007968Y0032425D02*
X0014041Y0032425D01*
X0013126Y0031427D02*
X0007968Y0031427D01*
X0007968Y0030428D02*
X0012379Y0030428D01*
X0011768Y0029430D02*
X0007968Y0029430D01*
X0007968Y0028431D02*
X0011269Y0028431D01*
X0010867Y0027433D02*
X0007968Y0027433D01*
X0007968Y0026434D02*
X0010564Y0026434D01*
X0010353Y0025436D02*
X0007968Y0025436D01*
X0267773Y0113305D02*
X0294782Y0113305D01*
X0294235Y0114303D02*
X0267773Y0114303D01*
X0267773Y0115302D02*
X0294085Y0115302D01*
X0294254Y0116300D02*
X0267773Y0116300D01*
X0267906Y0117299D02*
X0294827Y0117299D01*
X0278842Y0157239D02*
X0264146Y0157239D01*
X0076772Y0232128D02*
X0063605Y0232128D01*
X0063338Y0233126D02*
X0076772Y0233126D01*
X0076772Y0234125D02*
X0063070Y0234125D01*
X0062501Y0235123D02*
X0076927Y0235123D01*
X0316287Y0044407D02*
X0440523Y0044407D01*
X0439557Y0043409D02*
X0318677Y0043409D01*
X0319555Y0042410D02*
X0439143Y0042410D01*
X0438924Y0041412D02*
X0319939Y0041412D01*
X0319939Y0040413D02*
X0438924Y0040413D01*
X0439238Y0039415D02*
X0319590Y0039415D01*
X0318762Y0038416D02*
X0439754Y0038416D01*
X0545801Y0192187D02*
X0549892Y0192187D01*
X0549239Y0193186D02*
X0546454Y0193186D01*
X0546800Y0194184D02*
X0548893Y0194184D01*
X0548893Y0195183D02*
X0546800Y0195183D01*
X0546800Y0196181D02*
X0548893Y0196181D01*
X0548893Y0197180D02*
X0546800Y0197180D01*
X0546800Y0198178D02*
X0548893Y0198178D01*
X0548893Y0199177D02*
X0546800Y0199177D01*
X0546800Y0200175D02*
X0548893Y0200175D01*
X0549084Y0201174D02*
X0546609Y0201174D01*
X0546174Y0202172D02*
X0549519Y0202172D01*
X0550518Y0203171D02*
X0545175Y0203171D01*
D20*
X0562610Y0197366D02*
X0562917Y0197059D01*
X0562917Y0164098D01*
X0555043Y0156224D01*
X0555043Y0102681D01*
X0483390Y0031028D01*
X0446224Y0031028D01*
X0448744Y0068035D02*
X0448350Y0068429D01*
X0299531Y0068429D01*
X0295516Y0072445D01*
X0295516Y0085476D01*
X0285516Y0085476D02*
X0285516Y0055673D01*
X0287720Y0053469D01*
X0264886Y0062917D02*
X0264886Y0084846D01*
X0265516Y0085476D01*
X0255516Y0085476D02*
X0255319Y0085476D01*
X0250319Y0090476D01*
X0250319Y0146382D01*
X0264098Y0160161D01*
X0279846Y0160161D01*
X0351106Y0168429D02*
X0377484Y0168429D01*
X0380634Y0165280D01*
X0380634Y0156618D01*
X0397957Y0175516D02*
X0399531Y0177091D01*
X0397957Y0175516D02*
X0397957Y0108587D01*
X0390083Y0100713D01*
X0298744Y0100713D01*
X0295516Y0097484D01*
X0295516Y0095476D01*
X0290476Y0090476D02*
X0290476Y0067248D01*
X0316854Y0040870D01*
X0275122Y0067642D02*
X0275122Y0085083D01*
X0275516Y0085476D01*
X0285516Y0095437D02*
X0290476Y0090476D01*
X0285516Y0095437D02*
X0285516Y0095476D01*
X0265673Y0095634D02*
X0265516Y0095476D01*
X0265673Y0095634D02*
X0265673Y0118035D01*
X0273154Y0125516D01*
X0343232Y0125516D01*
X0335752Y0115280D02*
X0297169Y0115280D01*
X0350319Y0083390D02*
X0357799Y0083390D01*
X0361736Y0079453D01*
X0447957Y0079453D01*
X0499925Y0131421D01*
X0523154Y0131421D01*
X0202287Y0117248D02*
X0202287Y0229768D01*
X0202209Y0229846D01*
X0182209Y0229846D02*
X0182209Y0208587D01*
X0151106Y0177484D01*
X0151106Y0090476D01*
X0146106Y0085476D01*
X0145988Y0085476D01*
X0135988Y0085476D02*
X0135988Y0085516D01*
X0131028Y0090476D01*
X0131028Y0158980D01*
X0122760Y0167248D01*
X0122760Y0229295D01*
X0122209Y0229846D01*
X0202287Y0117248D02*
X0175516Y0090476D01*
X0160555Y0090476D01*
X0155988Y0085909D01*
X0155988Y0085476D01*
D21*
X0264886Y0062917D03*
X0275122Y0067642D03*
X0287720Y0053469D03*
X0316854Y0040870D03*
X0350319Y0083390D03*
X0335752Y0115280D03*
X0343232Y0125516D03*
X0297169Y0115280D03*
X0380634Y0156618D03*
X0351106Y0168429D03*
X0399531Y0177091D03*
X0279846Y0160161D03*
X0448744Y0068035D03*
D22*
X0431421Y0112130D02*
X0404256Y0084965D01*
X0385752Y0084965D01*
X0375240Y0095476D01*
X0305516Y0095476D01*
X0431421Y0112130D02*
X0431421Y0146382D01*
X0482406Y0197366D01*
X0533083Y0197366D01*
M02*
