%
M48
M72
T01C0.01969
T02C0.03150
T03C0.03937
T04C0.04000
T05C0.06102
T06C0.08661
T07C0.09843
T08C0.12598
%
T01
X264886Y62917
X275122Y67642
X287720Y53469
X316854Y40870
X350319Y83390
X335752Y115280
X343232Y125516
X297169Y115280
X380634Y156618
X351106Y168429
X399531Y177091
X279846Y160161
X448744Y68035
T02
X533083Y197366
X542925Y197366
X552768Y197366
X562610Y197366
T03
X523154Y131421
X523154Y111736
X466067Y111736
X466067Y121579
X466067Y131421
X305516Y95476
X295516Y95476
X285516Y95476
X275516Y95476
X265516Y95476
X255516Y95476
X245516Y95476
X245516Y85476
X255516Y85476
X265516Y85476
X275516Y85476
X285516Y85476
X295516Y85476
X305516Y85476
X165988Y85476
X155988Y85476
X145988Y85476
X135988Y85476
X125988Y85476
X125988Y95476
X135988Y95476
X145988Y95476
X155988Y95476
X165988Y95476
X162209Y229846
X172209Y229846
X182209Y229846
X192209Y229846
X202209Y229846
X212209Y229846
X222209Y229846
X232209Y229846
X152209Y229846
X142209Y229846
X132209Y229846
X122209Y229846
X112209Y229846
X102209Y229846
X92209Y229846
X82209Y229846
T04
X446224Y218193
X446224Y208193
X446224Y198193
X573390Y92681
X583390Y92681
X593390Y92681
X555240Y33941
X525240Y33941
X446224Y31028
X446224Y21028
X446224Y41028
T05
X357091Y240083
X261579Y240083
T06
X495594Y145594
X495594Y97563
T07
X418823Y13311
X52681Y13311
X52681Y229846
X418823Y229846
T08
X23154Y23154
X23154Y220004
X594020Y220004
X594020Y23154
M30
