G75*
%MOIN*%
%OFA0B0*%
%FSLAX25Y25*%
%IPPOS*%
%LPD*%
%AMOC8*
5,1,8,0,0,1.08239X$1,22.5*
%
%ADD10R,0.06737X0.06737*%
%ADD11R,0.13461X0.13461*%
%ADD12R,0.05918X0.06706*%
%ADD13C,0.06800*%
%ADD14C,0.20485*%
%ADD15C,0.08674*%
%ADD16C,0.05950*%
%ADD17OC8,0.09300*%
%ADD18R,0.09600X0.05600*%
%ADD19R,0.09461X0.14973*%
%ADD20R,0.08800X0.03400*%
%ADD21R,0.04343X0.07887*%
%ADD22R,0.06312X0.08674*%
%ADD23R,0.05131X0.07887*%
%ADD24C,0.06902*%
%ADD25R,0.06706X0.05918*%
%ADD26R,0.08674X0.05524*%
%ADD27C,0.23800*%
%ADD28R,0.06706X0.10249*%
%ADD29OC8,0.06737*%
%ADD30R,0.10249X0.06706*%
%ADD31C,0.04369*%
D10*
X0466067Y0111736D03*
X0466067Y0121579D03*
X0466067Y0131421D03*
X0523154Y0131421D03*
X0523154Y0111736D03*
D11*
X0495594Y0097563D03*
X0495594Y0145594D03*
D12*
X0417051Y0198232D03*
X0410358Y0198232D03*
X0387406Y0146343D03*
X0380713Y0146343D03*
X0566657Y0073020D03*
X0573350Y0073020D03*
X0426894Y0040866D03*
X0420201Y0040866D03*
X0092051Y0202287D03*
X0084571Y0202287D03*
D13*
X0443224Y0198193D02*
X0449224Y0198193D01*
X0449224Y0208193D02*
X0443224Y0208193D01*
X0443224Y0218193D02*
X0449224Y0218193D01*
X0573390Y0095681D02*
X0573390Y0089681D01*
X0583390Y0089681D02*
X0583390Y0095681D01*
X0593390Y0095681D02*
X0593390Y0089681D01*
X0449224Y0041028D02*
X0443224Y0041028D01*
X0443224Y0031028D02*
X0449224Y0031028D01*
X0449224Y0021028D02*
X0443224Y0021028D01*
D14*
X0418823Y0013311D03*
X0052681Y0013311D03*
X0052681Y0229846D03*
X0418823Y0229846D03*
D15*
X0232209Y0225909D02*
X0232209Y0233783D01*
X0222209Y0233783D02*
X0222209Y0225909D01*
X0212209Y0225909D02*
X0212209Y0233783D01*
X0202209Y0233783D02*
X0202209Y0225909D01*
X0192209Y0225909D02*
X0192209Y0233783D01*
X0182209Y0233783D02*
X0182209Y0225909D01*
X0172209Y0225909D02*
X0172209Y0233783D01*
X0162209Y0233783D02*
X0162209Y0225909D01*
X0152209Y0225909D02*
X0152209Y0233783D01*
X0142209Y0233783D02*
X0142209Y0225909D01*
X0132209Y0225909D02*
X0132209Y0233783D01*
X0122209Y0233783D02*
X0122209Y0225909D01*
X0112209Y0225909D02*
X0112209Y0233783D01*
X0102209Y0233783D02*
X0102209Y0225909D01*
X0092209Y0225909D02*
X0092209Y0233783D01*
X0082209Y0233783D02*
X0082209Y0225909D01*
D16*
X0533083Y0199941D02*
X0533083Y0194791D01*
X0542925Y0194791D02*
X0542925Y0199941D01*
X0552768Y0199941D02*
X0552768Y0194791D01*
X0562610Y0194791D02*
X0562610Y0199941D01*
D17*
X0555240Y0033941D03*
X0525240Y0033941D03*
D18*
X0108473Y0034369D03*
X0108473Y0043469D03*
X0108473Y0052569D03*
D19*
X0132874Y0043469D03*
D20*
X0380699Y0100339D03*
X0380699Y0105339D03*
X0380699Y0110339D03*
X0380699Y0115339D03*
X0380699Y0120339D03*
X0380699Y0125339D03*
X0380699Y0130339D03*
X0380699Y0135339D03*
X0404899Y0135339D03*
X0404899Y0130339D03*
X0404899Y0125339D03*
X0404899Y0120339D03*
X0404899Y0115339D03*
X0404899Y0110339D03*
X0404899Y0105339D03*
X0404899Y0100339D03*
D21*
X0347366Y0144413D03*
X0340673Y0144413D03*
X0331146Y0144413D03*
X0321303Y0144413D03*
X0311461Y0144413D03*
X0304571Y0144413D03*
X0298665Y0144413D03*
X0291776Y0144413D03*
X0281933Y0144413D03*
X0272091Y0144413D03*
D22*
X0250516Y0227091D03*
X0366657Y0231618D03*
D23*
X0359768Y0144413D03*
D24*
X0357091Y0240083D03*
X0261579Y0240083D03*
D25*
X0177406Y0043350D03*
X0177406Y0036657D03*
D26*
X0107445Y0021972D03*
X0096421Y0021972D03*
D27*
X0023154Y0023154D03*
X0023154Y0220004D03*
X0594020Y0220004D03*
X0594020Y0023154D03*
D28*
X0092051Y0187720D03*
X0073941Y0187720D03*
D29*
X0125988Y0095476D03*
X0135988Y0095476D03*
X0145988Y0095476D03*
X0155988Y0095476D03*
X0165988Y0095476D03*
X0165988Y0085476D03*
X0155988Y0085476D03*
X0145988Y0085476D03*
X0135988Y0085476D03*
X0125988Y0085476D03*
X0245516Y0085476D03*
X0255516Y0085476D03*
X0265516Y0085476D03*
X0275516Y0085476D03*
X0285516Y0085476D03*
X0295516Y0085476D03*
X0305516Y0085476D03*
X0305516Y0095476D03*
X0295516Y0095476D03*
X0285516Y0095476D03*
X0275516Y0095476D03*
X0265516Y0095476D03*
X0255516Y0095476D03*
X0245516Y0095476D03*
D30*
X0153862Y0043626D03*
X0153862Y0025516D03*
D31*
X0264886Y0062917D03*
X0275122Y0067642D03*
X0287720Y0053469D03*
X0316854Y0040870D03*
X0350319Y0083390D03*
X0335752Y0115280D03*
X0343232Y0125516D03*
X0297169Y0115280D03*
X0380634Y0156618D03*
X0351106Y0168429D03*
X0399531Y0177091D03*
X0279846Y0160161D03*
X0448744Y0068035D03*
M02*
