G75*
%MOIN*%
%OFA0B0*%
%FSLAX25Y25*%
%IPPOS*%
%LPD*%
%AMOC8*
5,1,8,0,0,1.08239X$1,22.5*
%
%ADD10R,0.06737X0.06737*%
%ADD11R,0.13461X0.13461*%
%ADD12C,0.06800*%
%ADD13C,0.20485*%
%ADD14C,0.08674*%
%ADD15C,0.05950*%
%ADD16OC8,0.09300*%
%ADD17C,0.06902*%
%ADD18C,0.23800*%
%ADD19OC8,0.06737*%
%ADD20C,0.04369*%
D10*
X0466067Y0111736D03*
X0466067Y0121579D03*
X0466067Y0131421D03*
X0523154Y0131421D03*
X0523154Y0111736D03*
D11*
X0495594Y0097563D03*
X0495594Y0145594D03*
D12*
X0573390Y0095681D02*
X0573390Y0089681D01*
X0583390Y0089681D02*
X0583390Y0095681D01*
X0593390Y0095681D02*
X0593390Y0089681D01*
X0449224Y0041028D02*
X0443224Y0041028D01*
X0443224Y0031028D02*
X0449224Y0031028D01*
X0449224Y0021028D02*
X0443224Y0021028D01*
X0443224Y0198193D02*
X0449224Y0198193D01*
X0449224Y0208193D02*
X0443224Y0208193D01*
X0443224Y0218193D02*
X0449224Y0218193D01*
D13*
X0418823Y0229846D03*
X0052681Y0229846D03*
X0052681Y0013311D03*
X0418823Y0013311D03*
D14*
X0232209Y0225909D02*
X0232209Y0233783D01*
X0222209Y0233783D02*
X0222209Y0225909D01*
X0212209Y0225909D02*
X0212209Y0233783D01*
X0202209Y0233783D02*
X0202209Y0225909D01*
X0192209Y0225909D02*
X0192209Y0233783D01*
X0182209Y0233783D02*
X0182209Y0225909D01*
X0172209Y0225909D02*
X0172209Y0233783D01*
X0162209Y0233783D02*
X0162209Y0225909D01*
X0152209Y0225909D02*
X0152209Y0233783D01*
X0142209Y0233783D02*
X0142209Y0225909D01*
X0132209Y0225909D02*
X0132209Y0233783D01*
X0122209Y0233783D02*
X0122209Y0225909D01*
X0112209Y0225909D02*
X0112209Y0233783D01*
X0102209Y0233783D02*
X0102209Y0225909D01*
X0092209Y0225909D02*
X0092209Y0233783D01*
X0082209Y0233783D02*
X0082209Y0225909D01*
D15*
X0533083Y0199941D02*
X0533083Y0194791D01*
X0542925Y0194791D02*
X0542925Y0199941D01*
X0552768Y0199941D02*
X0552768Y0194791D01*
X0562610Y0194791D02*
X0562610Y0199941D01*
D16*
X0555240Y0033941D03*
X0525240Y0033941D03*
D17*
X0357091Y0240083D03*
X0261579Y0240083D03*
D18*
X0023154Y0023154D03*
X0023154Y0220004D03*
X0594020Y0220004D03*
X0594020Y0023154D03*
D19*
X0305516Y0085476D03*
X0295516Y0085476D03*
X0285516Y0085476D03*
X0275516Y0085476D03*
X0265516Y0085476D03*
X0255516Y0085476D03*
X0245516Y0085476D03*
X0245516Y0095476D03*
X0255516Y0095476D03*
X0265516Y0095476D03*
X0275516Y0095476D03*
X0285516Y0095476D03*
X0295516Y0095476D03*
X0305516Y0095476D03*
X0165988Y0095476D03*
X0155988Y0095476D03*
X0145988Y0095476D03*
X0135988Y0095476D03*
X0125988Y0095476D03*
X0125988Y0085476D03*
X0135988Y0085476D03*
X0145988Y0085476D03*
X0155988Y0085476D03*
X0165988Y0085476D03*
D20*
X0264886Y0062917D03*
X0275122Y0067642D03*
X0287720Y0053469D03*
X0316854Y0040870D03*
X0350319Y0083390D03*
X0335752Y0115280D03*
X0343232Y0125516D03*
X0297169Y0115280D03*
X0380634Y0156618D03*
X0351106Y0168429D03*
X0399531Y0177091D03*
X0279846Y0160161D03*
X0448744Y0068035D03*
M02*
